<?xml version="1.0" encoding="UTF-8"?>
<svg version="1.1" viewBox="0 0 2000 800" width="500" height="200" xmlns="http://www.w3.org/2000/svg">
<path transform="translate(0)" d="m0 0h2e3v800h-2e3z" fill="#FDFDFB"/>
<path transform="translate(219,114)" d="m0 0h2l-2 4-15 14-11 15-8 13-8 21-5 23-1 11v17l4 26 5 20 10 25 11 21 16 24 14 17 26 26 11 9 14 11 15 10 15 12 11 9 8 8 10 14 8 17 5 19 1 7v-17l-4-18-4-12v-4l23-13 6-1-3-7-4-8-4-17v-5l10 10v2l4 2 7 5-4-5-7-11-4-14v-8h2l5 9 9 8 11 5 13 3 16 1h11l14 3 12 6 10 9 9 13 4 10v2l12 6 10 8 6 8 3 8 1 9-5-1-10-5-11-3-15-1-13 2-13 5-12 7-11 9-9 9-10 14-8 16-8 24-3 21-1 9v30l2 14-7 8-16 10-11 6-18 8-21 6-16 3-16 2-22-1-24-3-22-5-8-4v-1l25-2 23-4 21-6 21-9 19-11 1-2-20 8-19 5-14 2h-31l-24-4-23-7-13-5-15-7-20-12v-2h8l21 3 24 1h18l17-2 22-5 11-4-24 3h-28l-18-2-19-5-18-8-18-11-11-10-6-5-7-8-8-10-1-3 6 2 10 6 16 7 24 8 32 7 10 1h11l-18-5-16-5-23-11-16-10-10-9-8-7-9-10-10-14-8-14-8-20-6-23-2-16v-22h3l5 13 7 13 9 13 9 11 8 9 8 7 16 13 17 11 12 6 17 9 13 6v-2l-5-2-12-9-11-8-14-12-25-25-13-17-10-15-12-23-6-15-5-17-3-17-1-10v-25l4-26 5-14h3l2 16 5 21 6 18 12 25 10 17 12 17 11 14 10 11 14 16 2 1v2l4 2-2-4-7-10-18-27-13-22-14-28-10-26-6-20-5-25-1-12v-28l3-19 5-17 7-16 9-15 10-13 11-12 13-12 17-12 15-9z" fill="#E91F2A"/>
<path transform="translate(560,115)" d="m0 0 5 1 22 12 19 13 11 10 8 7 10 11 10 14 9 16 6 15 4 13 3 16 1 12v24l-3 21-6 24-9 25-9 20-13 25-13 21-9 14-14 19-2 4 8-7 14-14 7-8 11-13 13-18 12-20 8-16 8-19 6-21 4-24 2-3 5 15 3 15 1 11v30l-3 18-5 19-8 20-10 19-10 15-11 14-9 10-21 21-14 11-13 10-12 8h-2v2l17-7 19-10 11-6 19-13 14-12 16-16 12-16 10-18 4-9 2-6h1v28l-5 25-7 21-8 16-7 11-10 13-3 4h-2l-2 4-14 12-18 12-23 11-21 7-23 5h11l19-2 17-3 20-5 22-8 21-10 6-4 2 1-6 9-11 12-12 11-15 10-21 10-20 6-24 3h-19l-21-2-10-1 22 7 27 4h31l24-2 13-2h6l-3 3-19 11-20 9-24 8-18 4-17 2h-22l-21-3-18-5-13-6-10-4 9 7 18 10 16 7 16 5 16 4 19 3 20 1-1 2-16 5-20 4-17 2h-26l-26-4-20-6-17-7-11-7-8-8-7-14-2-9v-24l3-20 6-22 5-13 8-15 12-16 7-7 13-10 9-5 12-5 13-2 12 1 10 4 11 8 8 9 1-2v-20l-3-12-6-12-7-8-12-8-5-3-9-17-4-5 1-4 11-8 14-10 13-11 10-9 12-11 11-12 11-14 10-14 12-20 8-17 7-19 5-19 3-17 1-10v-13l-2-19-5-22-8-19-8-14-7-9-9-10-10-9z" fill="#414142"/>
<path transform="translate(1283,307)" d="m0 0 4 1-1 3-10 4-3 6-1 52 50-1v-51l-2-6-10-3-2-4 3-1h56l1 4-11 4-2 5v111l2 5 11 5v3h-59v-4l10-3 2-1 1-6v-52h-49v53l3 5 6 3 5 2-1 3h-58l-2-1 1-3 13-3v-122l-10-3-4-2v-2z" fill="#414142"/>
<path transform="translate(1657,326)" d="m0 0 4 1-2 4-8 3-1 1v7l11 32 10 27 3 10h2l1-6 13-36 4-14v-15l-4-6-9-4-1-3h39l-2 4-5 4-9 14-11 30-12 33-9 26-3 6h-9l-5-11-14-34-9-22-2-2-5 15-18 46-4 8h-9l-7-15-19-45-17-40-6-10-7-5v-2h55l-1 4-8 4 1 9 8 22 16 40 2 4 2-2 9-24 6-14-2-9-9-21-4-6-6-4-1-3z" fill="#414142"/>
<path transform="translate(1746,327)" d="m0 0h60l-1 3-10 3-3 1v47l13-4 13-9 18-18 3-5-1-7-5-5-8-3v-3h47v3l-14 7-10 8-13 12-12 12 6 9 13 18 13 19 11 14 8 9 5 5-11 1h-45l-2-1 1-3 10-2-2-7-11-16-13-18-5-6v-2l-5-2-4-1v48l3 3 10 4v2l-2 1h-56l-2-1v-2l12-4 2-1 1-7v-89l-1-5-13-5z" fill="#414142"/>
<path transform="translate(856,307)" d="m0 0h11l3 3 12 31 14 36 18 46 6 12 8 7v2h-58l-2-1 1-3 10-3 2-1-1-10-12-33h-42l-8 24-1 4v12l8 5 8 3 1 2-5 1h-20l-16-1 4-4 7-6 8-16 19-49 17-44 6-16z" fill="#414142"/>
<path transform="translate(1455,325)" d="m0 0 7 2 13 28 13 29 15 34 8 15 5 6 4 3v2h-56v-4l11-4-1-9-9-21-2-3h-33l-7 1-4 10-2 7v11l6 5 10 4-1 3h-37v-3l7-6 7-11 8-17 16-37 11-25 8-18z" fill="#414142"/>
<path transform="translate(954,327)" d="m0 0h60l-1 3-11 4-2 6v92l2 5 2 1h22l10-5 7-8 4-8 5-17h3l2 43-1 1h-101v-4l13-3v-103l-12-3z" fill="#414142"/>
<path transform="translate(1090,327)" d="m0 0h60l-1 3-11 4-2 6v97l4 1h22l10-5 8-9 5-14 4-10h2l1 11 1 32-1 1h-100l-2-1 1-3 13-3v-103l-11-3-3-2z" fill="#414142"/>
<path transform="translate(1319,502)" d="m0 0h14l7 3 8 7 4 8v14l-5 9-7 7-6 3-5 1h-8l-8-3-8-6-6-12v-10l4-10 7-7z" fill="#E91F2A"/>
<path transform="translate(984,502)" d="m0 0h14l8 4 5 5 4 5 2 6v9l-3 8-4 6-7 6-10 3-11-1-8-4-8-9-2-5v-14l4-8 5-5 5-4z" fill="#E91F2A"/>
<path transform="translate(1375,502)" d="m0 0h14l5 2 8 8 9 11 9 10 2 1-1-26-6-2v-3l6-1 13 1-1 4-5 1-1 31 1 14-3 1-5-3-10-9-3-3v-2h-2l-7-8-10-10v26l7 5-1 2h-18l3-5 2-5 1-13v-18l-3-3-4-3z" fill="#E91F2A"/>
<path transform="translate(1599,502)" d="m0 0h14l5 2 11 12 7 8 6 8 2 1 1-25-6-2-1-3h18l-1 4-3 1-1 15v31l-6-1-21-21-7-8-7-6 1 9v19l5 2 3 3-1 1h-18l2-5h2l1-11 1-27-6-2-2-4z" fill="#E91F2A"/>
<path transform="translate(1103,502)" d="m0 0 24 1-1 4-3 2-1 9v15l3 9 6 3 9-2 4-6 1-6v-12l-2-10-4-5 2-2 16 1-2 4-4 4v24l-3 8-5 6-5 3-4 1h-12l-6-3-5-5-3-8-1-30-4-1-1-3z" fill="#E91F2A"/>
<path transform="translate(847,338)" d="m0 0 3 3 14 39 2 5v3h-38l3-10 15-39z" fill="#FEFEFC"/>
<path transform="translate(1184,500)" d="m0 0h4l1 2h35l7-2-1 9-2 6h-3l-2-6-8-1h-3v34l2 5 4 3v2h-26l1-4 4-2v-38l-10 1-3 5-5 1 3-12z" fill="#E91F2A"/>
<path transform="translate(1470,502)" d="m0 0h12l5 3 2 7v5l-4-2-4-6-3-2-7 1-1 1v7l4 2 10 7 5 6 1 2v9l-4 6-5 4-11 2-9-3-4-3-1-3v-10l4 2 6 8 2 2h8l2-2v-5l-7-6-10-7-4-7v-6l4-7 6-4z" fill="#E91F2A"/>
<path transform="translate(921,502)" d="m0 0h11l6 4 1 11-4-2-4-6-4-2-5 1-2 1v6l5 4 10 7 4 6 1 3v7l-4 6-5 4-6 2-10-1-6-3-4-8v-6l2-1 4 3 4 7 6 3 5-1 2-2-1-6-9-7-8-7-3-6 2-9 4-5z" fill="#E81F2A"/>
<path transform="translate(1704,502)" d="m0 0h14l7 3 3 7v5l-4-1-3-4v-2l-7-2h-7l-6 3-4 5-2 6v11l4 10 6 4h11l6-4 4-6h2l-1 10-5 4-5 2h-16l-9-3-9-9-3-7v-10l4-10 7-7 9-4z" fill="#E91F2A"/>
<path transform="translate(1040,502)" d="m0 0h24l1 2-3 4h-2l-1 38h13l5-4 4-6h1v7l-3 8-1 1-30 1-8-1 2-4 3-2v-31l-1-7-4-3z" fill="#E81F2A"/>
<path transform="translate(1323,506)" d="m0 0h5l5 4 4 8 1 5v14l-3 7-4 4-7 1-7-6-4-11v-13l3-8 4-4z" fill="#FEFEFC"/>
<path transform="translate(985,507)" d="m0 0h9l6 7 2 6 1 12-2 10-4 5-4 2-7-1-5-6-3-7v-18l2-5z" fill="#FEFEFC"/>
<path transform="translate(1254,502)" d="m0 0 22 1-1 4-3 1-1 21v14l3 5 2 4-7 1h-16l-2-1 2-4 3-1v-37l-5-6z" fill="#E91F2A"/>
<path transform="translate(1552,502)" d="m0 0 24 1-1 4-3 1-1 10v27l5 5v2l-5 1h-17l-3-1 2-4 3-2v-36l-5-6z" fill="#E91F2A"/>
<path transform="translate(1443,357)" d="m0 0 3 3 8 18 7 16v3l-35 1 1-5 11-26z" fill="#FEFEFC"/>
<path transform="translate(1758,541)" d="m0 0 7 1 2 3-1 6-4 4-6-1-3-4 1-6z" fill="#E91F2A"/>
</svg>
