<?xml version="1.0" encoding="UTF-8"?>
<svg version="1.1" viewBox="0 0 2048 607" width="411" height="122" xmlns="http://www.w3.org/2000/svg">
<path transform="translate(0)" d="m0 0h2048v607h-2048z" fill="#FDFDFD"/>
<path transform="translate(2047,422)" d="m0 0h1v185h-2048v-176l2 3 7 17 8 14 12 13 8 7 14 8 18 6 6 1 1738 1 156-1 16-3 13-5 12-7 14-12 11-15 7-16 4-18z" fill="#FDFDFD"/>
<path transform="translate(0)" d="m0 0h2048v422l-3 13-4 12-7 14-11 14-10 9-13 8-12 5-12 3-7 1-160 1-1734-1-16-4-12-5-11-7-10-9-10-11-9-16-6-15-1-3zm79 16-15 3-16 8-10 8-7 8-7 11-6 15-1 5-1 15v328l2 16 5 13 7 11 9 10 9 8 14 7 10 3 7 1h1888l12-2 13-5 11-7 10-9 8-11 6-13 3-9 1-6v-346l-4-16-8-16-12-13-11-8-12-6-16-3z" fill="#EC2029"/>
<path transform="translate(1638,87)" d="m0 0h111l8 9 14 19 10 13 24 32 13 17 12 16 10 13 9 12 14 18 14 19 12 16 4 5v2h2l-1-48-3-104v-39h67l1 1v232l-1 1h-108l-5-2-9-12-14-19-16-21-14-19-14-18-18-24-14-19-13-17-9-12-10-13-12-16v33l3 110v49h-65l-2-1z" fill="#EC2029"/>
<path transform="translate(1396,87)" d="m0 0h98l6 9 23 46 11 23 27 54 10 19 34 68 6 14v1h-66l-5-3-20-40v-2l-9 1-138 1-20 40-3 3h-51l-18-1 9-20 8-15 11-23 15-30 11-23 16-32 11-23 14-28 11-23 7-14z" fill="#EC2029"/>
<path transform="translate(412,86)" d="m0 0h220l4 1v25l-1 15-167 1-1 5-1 49h160l2 1v19l-1 19-160 1v58h168l3 1v36l-1 4h-239v-234z" fill="#EC2029"/>
<path transform="translate(0)" d="m0 0h2048v79h-1l-2-9-2 2v5l-1 1-1 17-2 3-3-9-3-21-5-15-2-2h-3l-3-1-4-6-9-10-11-8-12-6-16-3h-1889l-15 3-16 8-3 1-10-1-4 1v2l-4 2-1 2h-2l-2 4-5 5h-3l-1-1-7 14-5 15h-1z" fill="#FC2C24"/>
<path transform="translate(201,84)" d="m0 0h45l39 2 20 3 18 6 11 6 9 8 8 14 4 11 2 10 1 23h-64l-6-2-1-22-4-8-8-5-7-2-27-2h-48l-22 2-12 4-9 6-5 7-3 9-1 8v80l3 16 5 10 8 7 12 4 16 2h66l18-2 13-5 7-8 2-7 2-23h68v28l-4 17-6 11-9 10-9 6-11 5-20 5-14 2-27 2-21 1h-74l-24-3-19-4-15-6-11-7-11-11-6-10-5-16-3-19-1-13v-62l2-20 4-15 4-10 7-10 10-10 14-8 19-7 18-4 35-3z" fill="#EC2029"/>
<path transform="translate(1108,84)" d="m0 0h44l42 2 21 3 18 6 11 6 11 11 8 16 3 11 1 7v20l-18 1h-33l-17-1-2-24-5-8-10-5-13-2-14-1h-51l-23 2-12 4-9 6-5 7-4 16v81l3 16 5 10 8 7 12 4 14 2h68l18-2 11-3 6-5 4-10 2-10 1-15h67l2 1v18l-4 22-5 12-6 8-10 9-15 7-18 5-14 2-49 3h-75l-30-4-19-5-16-8-11-9-9-13-5-13-3-17-2-22v-65l3-21 5-15 6-10 9-10 9-7 16-8 16-5 15-3 33-3z" fill="#EC2029"/>
<path transform="translate(651,87)" d="m0 0h77l10 10 8 10 9 11 11 13 16 20 11 13 11 14 5 6 3-1 8-10 13-15 9-11 13-15 11-13 11-14 9-10 6-8h79l-4 6-9 10-12 14-9 10-7 8-11 12-9 11-7 7-7 8-9 10-7 8-9 10-9 11-13 14-4 6-1 86-1 3h-67l-1-89-12-14-9-11-11-12-9-11-9-10-9-11-13-14-9-11-9-10-7-8-12-14-9-10-6-8z" fill="#EC2029"/>
<path transform="translate(1833,374)" d="m0 0 80 1 19 2 11 4 6 4 4 5 4 11 1 6v23l-3 10-5 8-10 7-9 3-18 2h-81v-85z" fill="#ED2029"/>
<path transform="translate(985,375)" d="m0 0h80l20 2 10 5 4 5 3 7 1 5v9l-3 6-8 7-5 3-1 2 8 2 4 5 3 11v15l-1 1h-24l-3-1-1-16-3-7-6-3-50-1v27l-1 1h-24l-4-1v-83z" fill="#ED2129"/>
<path transform="translate(206,375)" d="m0 0h82l19 2 10 6 5 8 2 13-2 8-4 6-9 5-2 2 10 4 3 5 2 11v15h-27l-1-1-2-20-5-5-4-1-49-1v20l-1 8h-22l-5-1-1-8v-75z" fill="#ED2129"/>
<path transform="translate(72,374)" d="m0 0 78 1 18 2 7 3 7 5 3 5 2 9v10l-3 10-6 7-8 4-13 2-25 1h-33v26l-1 1h-26l-1-1v-84z" fill="#EC2029"/>
<path transform="translate(398,375)" d="m0 0h47l9 10 9 11 10 11 9 11 9 10 9 11 5 6v-70h27v30l-1 55h-44l-8-7-24-28-13-15-11-13-5-6-2-1 1 9 1 40v21h-26l-2-1z" fill="#ED2029"/>
<path transform="translate(1445,126)" d="m0 0 4 2 32 64 13 28 10 18v3h-113l-1-3 8-16 17-35 22-46z" fill="#FDFDFD"/>
<path transform="translate(771,374)" d="m0 0h42l16 2 8 4 6 7 3 8v3l-3 1h-25l-3-8-2-1-11-1h-26l-10 1-4 4-1 2v6l5 5 10 2 31 1 21 2 13 4 6 7 2 8v8l-3 8-6 7-8 4-11 2-19 1h-22l-23-1-12-3-8-6-5-8-1-9 1-1 11-1h14l5 10 4 3 9 1h14l23-1 6-2 1-3v-11l-3-3-12-1-28-1-22-2-10-3-8-7-4-9v-10l4-8 9-7 7-2z" fill="#ED2129"/>
<path transform="translate(1346,374)" d="m0 0h42l17 2 8 4 5 6 3 8 1 9-17 1h-11l-2-12-7-2h-42l-7 3-3 4-2 8v24l3 10 5 5 3 1h42l7-2 3-7 2-7h27l1 9-4 10-9 8-10 3-26 2h-30l-20-2-10-4-7-6-4-8-1-5v-38l2-7 7-8 12-6z" fill="#ED2129"/>
<path transform="translate(1440,375)" d="m0 0h99v13l-2 1-70 1 1 17 1 2h36l30 1v14l-67 1v20l71 1v14h-99z" fill="#ED2129"/>
<path transform="translate(865,375)" d="m0 0h99v8l-1 6-71 1 1 14 2 5 65 1v14h-67v21l71 1 1 14h-99l-1-1z" fill="#ED2129"/>
<path transform="translate(1113,375)" d="m0 0h27l6 10 14 27 13 23 5 9 2 1 2-6 12-22 14-26 8-14 2-2h27l-1 5-10 18-13 24-13 23-6 11-5 4h-38l-4-4-17-32-13-23-12-23z" fill="#ED2029"/>
<path transform="translate(1860,389)" d="m0 0h48l11 1 7 4 3 7 1 6v18l-2 10-6 7-6 3-7 1h-48l-2-2v-22z" fill="#FDFDFD"/>
<path transform="translate(551,374)" d="m0 0h100l6 1-1 14-26 1h-15l-1 62-1 8h-27l-1-70-40-1-1-1v-13z" fill="#ED2129"/>
<path transform="translate(1777,374)" d="m0 0 44 1v10l-1 4-41 1v69l-1 1h-27l-1-1v-69h-29l-12-1v-14z" fill="#ED2129"/>
<path transform="translate(1629,374)" d="m0 0h27l1 71h62l4 1v14h-95v-63z" fill="#EC2029"/>
<path transform="translate(2025,49)" d="m0 0 4 4 5 15 4 26 1 2 1-5 1-13 1-5v-3h2l1-3 3 12v343l-3 13-2 4-1-10 1-7v-36l-1-33-1-158-1-23v-15l-2-27-2-7-2-31-1-4v78h1v6h-2v250h-1l-1-344-4-16-5-12 3 1z" fill="#FC2C24"/>
<path transform="translate(15,85)" d="m0 0h1l1 347-3-2v-2h-2l-2-3-2-24v-265l1-11 3-7 2-18z" fill="#D71926"/>
<path transform="translate(345,375)" d="m0 0h28v85h-25l-3-1z" fill="#ED2129"/>
<path transform="translate(1255,375)" d="m0 0h28v81l-1 4h-27z" fill="#ED2129"/>
<path transform="translate(1975)" d="m0 0h73v79h-1l-5-19-9-19-9-12-9-9-14-9-13-6-13-4z" fill="#FDFDFD"/>
<path transform="translate(234,389)" d="m0 0h43l11 1 5 3 2 4v11l-3 6-6 3h-51l-2-5v-22z" fill="#FDFDFD"/>
<path transform="translate(1014,389)" d="m0 0h43l10 1 6 4 1 3v10l-3 7-7 3-48 1-3-2v-26z" fill="#FDFDFD"/>
<path transform="translate(101,389)" d="m0 0h40l10 1 6 4 1 2v16l-4 4-2 1-9 1h-41l-3-3v-25z" fill="#FDFDFD"/>
<path transform="translate(0)" d="m0 0h72l-2 2-16 5-13 7-12 9-10 11-9 14-6 15-3 9h-1z" fill="#FDFDFD"/>
<path transform="translate(1955,87)" d="m0 0 4 1v45l-1 178-3-3-2-10-2-5-2-20v-34l1-13 1-20v-45l-1-8v-18l1-10 2-3v-4l1-15-1-7 1-7-2-1z" fill="#D81926"/>
<path transform="translate(1693,142)" d="m0 0h1l1 5h2l1 8 1 1 2 19 2 58 1 9v64h-1l-2-19-5-1-2-6v-11l-1-20v-19l-1-6v-33l-2-23 1-18z" fill="#D81927"/>
<path transform="translate(2e3 10)" d="m0 0 5 1 13 9 11 11 9 14 7 15 1 3v7l-2 8-1 17-2 3-3-9-3-21-5-15-2-2h-3l-3-1-4-6-9-10-11-8-13-7 2-1 7 1 4-1-2-5 3-1z" fill="#EC2029"/>
<path transform="translate(2,67)" d="m0 0h1v348l1 14 3 14-2 1-5-13v-359z" fill="#FC2C24"/>
<path transform="translate(133,157)" d="m0 0 5 1v9l-1 10v9l2 6 1 45 1 5v19l-5 1-6-7-3-9 1-10v-27l1-7v-16l1-20z" fill="#D71927"/>
<path transform="translate(649,497)" d="m0 0h133l36 1 1 1h10l6 1v1h-209l-37-1v-1l41-1z" fill="#FC2C24"/>
<path transform="translate(838,227)" d="m0 0 4 2 1 3v76h-1l-1-7-2-4-3-1-2-8-1-13 1-9-1-16 1-6-1-9z" fill="#D91927"/>
<path transform="translate(1046,185)" d="m0 0h1l1 43 1 5 1 15 1 3v11l-5 1-4-5-2-13 1-14v-17l1-2 1-22z" fill="#D71927"/>
<path transform="translate(1548,209)" d="m0 0 2 4 3 1 7 11 9 17 5 10 4 7 1 7 3 4 2 7-3 1-4-7-5-7-8-17-7-12-5-9-1-8-2-1-2-4z" fill="#D71927"/>
<path transform="translate(1353,498)" d="m0 0h10v2h2v-2h5 4 10l1 1 15 1v1h-317v-1l268-1z" fill="#FD2D24"/>
<path transform="translate(1984,444)" d="m0 0h21l2 3-1 11-2 2h-17l-4-1v-14z" fill="#EC2029"/>
<path transform="translate(11,456)" d="m0 0h7l2 3 10 5 3 6 2 8 4 1h3l5 5 1 3 9 3 2 2-9-1-3 1-11-7-10-9-10-11z" fill="#FB2C24"/>
<path transform="translate(1776,407)" d="m0 0h2v52l-2-2-9-2-1-6 2-4 2-14 3-6 2-3z" fill="#D71927"/>
<path transform="translate(1376,274)" d="m0 0h31l113 1v1l-9 1h-138z" fill="#FD2D24"/>
<path transform="translate(199,497)" d="m0 0 9 1h13l1 1h53l-3 2h-197v-1l106-1 7-1h8z" fill="#FD2D24"/>
<path transform="translate(612,418)" d="m0 0h1v41h-1l-1-8-5-1-1-6-1-19 3-6 1 2 4 1z" fill="#D71927"/>
<path transform="translate(72,374)" d="m0 0 78 1 11 1v1h-19l-70-1 1 58v24l25 1v1h-26l-1-1v-84z" fill="#FC2C24"/>
<path transform="translate(645,377)" d="m0 0h10l1 1v11h-11l-9-3-1-5z" fill="#FD2D24"/>
<path transform="translate(1638,88)" d="m0 0h3l-1 18v114l-2 4z" fill="#D71927"/>
<path transform="translate(1629,374)" d="m0 0h27v16h-1l-1-13-23-1-1 74-2-1v-52z" fill="#E62025"/>
<path transform="translate(2018,475)" d="m0 0 3 1-5 5-9 7-8 4h-11l-4 1v-2l16-8 13-5z" fill="#FB2C24"/>
<path transform="translate(988,134)" d="m0 0 1 3-2 6-2 17-2 43-1 29h-1v-65l3-21z" fill="#FD2D24"/>
<path transform="translate(1898,380)" d="m0 0h7l3 2-3 1v2l9 1 3 4-47-1v-1l23-1-3-3 1-2z" fill="#FC2C24"/>
<path transform="translate(30,474)" d="m0 0 9 5h3l5 5 1 3 9 3 2 2-9-1-3 1-11-7-5-4-3-6z" fill="#EF2228"/>
<path transform="translate(1894,198)" d="m0 0h1l2 29 1 7v22l-1 25-2-2-1-49z" fill="#FD2D24"/>
<path transform="translate(771,374)" d="m0 0h42l16 2v1h-77v-1z" fill="#FD2D24"/>
<path transform="translate(371,415)" d="m0 0h1v38h-2v2l-5-1-1-6 4-4 1-6v-8z" fill="#D71927"/>
<path transform="translate(355,138)" d="m0 0h1l1 6 1 23h-64l-5-1v-1l64 1v-2h2z" fill="#FD2D24"/>
<path transform="translate(1203,236)" d="m0 0h67v1l-21 1h-44l-1 15-2 3z" fill="#FD2D24"/>
<path transform="translate(1394,221)" d="m0 0 2 1-1 8-5 9-2 2h-3l1-9 2-4 2-5z" fill="#DA1A26"/>
<path transform="translate(651,87)" d="m0 0h77l1 2h-52l-22 1h-3z" fill="#FD2D24"/>
<path transform="translate(122,429)" d="m0 0 10 1 25 1v1l-25 1h-33l3-2 17-1z" fill="#FD2D24"/>
<path transform="translate(953,412)" d="m0 0h4l1 2v6l-2 1h-17l5-5 8-2z" fill="#D71927"/>
<path transform="translate(892,87)" d="m0 0h79l-2 2h-75l-7 6 2-4z" fill="#FD2D24"/>
<path transform="translate(1984,444)" d="m0 0h21l2 3-1 11-2 2h-17v-1l15-1 2-2 1-10h-21l-1 2z" fill="#FD2D24"/>
<path transform="translate(78,13)" d="m0 0 7 1-2 2-19 4-5-1 4-3 7-2z" fill="#EE2228"/>
<path transform="translate(1854,415)" d="m0 0 2 4h2v15l-2 4-3-9v-9z" fill="#D71927"/>
<path transform="translate(1396,429)" d="m0 0h27l-1 2h-17l-2 4-5-1-1-2-2 2z" fill="#FD2D24"/>
<path transform="translate(529,422)" d="m0 0h1l1 24v13h-1v-11h-2v2h-3v-5l2-2 1-3z" fill="#D71927"/>
<path transform="translate(36,478)" d="m0 0 5 2 2-1 5 6v2l9 3 2 2-9-1-4-3v-2l-4-2-6-5z" fill="#FD2D24"/>
<path transform="translate(1218,375)" d="m0 0h27l-1 5-3 3-2-6h-20l-4 3 2-4z" fill="#FC2C24"/>
<path transform="translate(1083,422)" d="m0 0h5l-2 4 6 1v1l-18-1 3-3z" fill="#FD2D24"/>
<path transform="translate(2033,173)" d="m0 0h2l2 23-1 2h-2l-1-13z" fill="#FD2D24"/>
<path transform="translate(822,171)" d="m0 0v3l-8 10-2 3-4-1-7-8 1-2 7 8 3-1 8-10z" fill="#FD2D24"/>
<path transform="translate(1709,375)" d="m0 0h16v1h-7l1 6-3 1-1-6-5-1v12l3 1h-4z" fill="#FD2D24"/>
<path transform="translate(615,183)" d="m0 0h12l-1 8h-4l-1-7h-6z" fill="#D71927"/>
<path transform="translate(1276,446)" d="m0 0 4 1 1 4-1 2h-6l1-6z" fill="#D71927"/>
<path transform="translate(306,422)" d="m0 0 3 1-2 2 1 2h-8l-3-2z" fill="#FD2D24"/>
<path transform="translate(1265,242)" d="m0 0 4 2-1 4-2 1-3-1v-5z" fill="#D71927"/>
<path transform="translate(1e3 438)" d="m0 0 2 1 3 9-5-2-1-5z" fill="#D71927"/>
</svg>
