<?xml version="1.0" encoding="UTF-8"?>
<svg version="1.1" viewBox="0 0 900 900" width="225" height="225" xmlns="http://www.w3.org/2000/svg">
<path transform="translate(0)" d="m0 0h900v900h-900z" fill="#FEFEFE"/>
<path transform="translate(441,193)" d="m0 0h13l30 2 20 3 25 6 24 8 18 8 23 12 17 11 16 12 11 9 8 8 6 5v2l4 2 7 8 10 11 13 18 13 21 8 15 10 23 9 27 6 28 3 23 1 30-1 19-4 29-7 28-8 23-7 16-8 16-10 17-11 16-12 15-9 11-13 13-11 9-13 11-12 8-16 10-22 12-24 10-22 7-28 6-24 3-20 1h-17l-23-2-23-4-24-6-20-7-21-9-19-10-14-9-17-12-13-11-10-9-16-16-9-11-13-17-14-22-12-23-9-23-6-19-5-22-4-27-1-13v-27l3-28 4-22 5-19 9-26 13-27 12-20 8-12 11-14 11-12 7-8 7-7 8-7 10-9 15-11 22-14 19-10 19-8 27-9 27-6 24-3z" fill="#FEFEFE"/>
<path transform="translate(471,225)" d="m0 0 2 1-3 7-1 5v11l5 9 11 13 8 14 1 4v11l-4 19v15l3 5 7 2 5-2 4-5 2-7-1-23 10 3 9 6 7 10 5 14v45l7 28 7 22 2 8 10-3 4 4-4 6-9 6-1 2-9 5-10 8-34 25-21 16-12 9-3 3-6 4-28 21h28l11-9 9-7 21-16 18-14 19-14 12-9 9-4 5 2 1 3-6 7-11 9-13 11-11 9-13 11-11 9-7 6-3 2h10l25-5 6-4 12-13 12-11 20-20 10-8 2-1h6l1 4-6 9-15 16-9 11-6 7 21-11 9-7 6-5 7-11 3-9-1-11-6-12-3-4-6 1-11 6-4-1 1-7 3-1v-2l5-3-2-5-2-4 5 1 16 10 10 9 7 9 4 10v23l-2 15-6 21-9 21-9 15-13 16-6 6v7l15 44 4 14-1 5-8 2h-10l-6-8-8-14-6-12-8-15-6 2-16 8-19 7-27 7-4 17-2 9-2 4-25 1-2-9-2-15v-6h-11l-23-3-24-7-19-8-14-7-3-1-2 9-15 33-6 8-6-1-2-2 2-10 16-44 2-9v-5l-4 2-5 8-13 27-10 22-4 6h-2l2-9 16-50 3-9-8-8-13-17-10-17-8-18-9-29-3-13v-11l4-11 7-9 8-8 10-7 5-3h2l-2 4-12 11-5 9-3 8 16-8 22-12v-10l5-44v-20l-4-9-2-3v-3h25l8 3 5 4 4 8 1 5 1 14 4 9 4 3 6-1 5-4 4-9 1-9v-11l-5-27-8-29-1-5v-10l4-16 5-10 10-10 13-8 18-8h4l-1 5-3 8-1 5v11l3 7 4 5 4 2h8l6-3 4-8-1-9-7-22v-10l3-6 4-5 10-7z" fill="#070203"/>
<path transform="translate(471,225)" d="m0 0 2 1-3 7-1 5v11l5 9 11 13 8 14 1 4v11l-4 19v15l3 5 7 2 5-2 4-5 2-7-1-23 10 3 9 6 7 10 5 14v45l7 28 7 22 1 10-16 12-17 12-19 14-15 11-20 14-19 14-10 7-15 11-10 7-2 1-14-1-18-2v-3l18-13 20-15 16-11 18-13 20-14 17-12 20-14 17-12v-7l-6 1-17 11-12 8-23 16-15 10-22 15-25 17-16 11-26 17-4 2-8-1-18-6 4-5 11-7 17-12 19-13 25-17 23-16 24-16 16-11 1-4-5 2-40 25-25 16-18 11-19 12-23 14-19 11-3 2h-6l-12-8-1-4 12-7 26-17 16-10 20-13 17-11 21-13 10-6 1-4-4 1-25 14-17 10-26 15-21 12-19 10-19 11-3 1-4-5-4-7v-2l16-9 21-13 13-8 18-11 27-16v-3l-5 1-29 16-20 11h-2l-1-2 1-18 4-34v-20l-4-9-2-3v-3h25l8 3 5 4 4 8 1 5 1 14 4 9 4 3 6-1 5-4 4-9 1-9v-11l-5-27-8-29-1-5v-10l4-16 5-10 10-10 13-8 18-8h4l-1 5-3 8-1 5v11l3 7 4 5 4 2h8l6-3 4-8-1-9-7-22v-10l3-6 4-5 10-7z" fill="#EA4E0C"/>
<path transform="translate(284,517)" d="m0 0 4 2 14 10 16 8 18 7 20 6 31 6 25 3 23 1h29l28-2 33-5 20-5 24-8 19-9 2 1-13 8-14 7-25 9-32 8-24 4-17 2h-25l17 1 5 3 2 3 1 6-3 6v5l2 6v9l-3 2-5-1-1-1-2-12-1-1-11-1v14l-2 2-6-1-1-1v-38l-6 2-10 10-2 3 1 5 7 10 4 6v4l-9-1-5-5-5-9h-3l-3 5-1 9 10 3 18 3h30l15-2 12-3v-1l-8-2-6-7-2-6v-9l4-9 5-4 8-3h10l6 3 5 5 2 8-1 1h-7l-4-6-3-2h-9l-4 2-1 3v13l5 5 6 1 6-3 5-7h5l2 3-3 9h3l4 1-9 7-17 8-19 5-7 1h-33l-22-4-13-4 1 3 18 6 14 3 9 1h37l20-2 19-5 19-8 10-6 4-2 1 5-19 10-20 7-15 4-17 3-12 1h-26l-17-2-19-4-18-6-19-9-9-6 2-7 5 1 16 8h2l-5-5-11-8-9-9-4-5 1-2 16 11 16 8 8 3v-33l1-2 6-1 2 2 1 15 8-10 5-6 5-2-16-1-27-4-27-6-23-7-13-5 9 21 7 11 5 5v3l-9 3-11-13-9-13-9-16-8-18-4-10z" fill="#FDFDFD"/>
<path transform="translate(425,191)" d="m0 0h47l26 3 28 6 27 9 26 11 21 12 18 12 13 10 11 9 27 27 11 14 10 14 11 18 10 19 12 29 7 24 5 24 3 25 1 13v19l-4 38-6 27-7 23-11 27-10 19-10 16-12 17-13 15-9 10-10 10-22 18-17 12-15 9-23 12-19 8-23 7-25 6-30 4-15 1h-21l-21-2-24-4-27-7-24-8-20-9-17-9-17-11-16-12-13-11-10-9-13-13-9-11-11-14-10-15-12-21-10-21-10-28-6-24-4-24-2-18v-35l4-32 6-27 10-30 8-18 8-16 10-17 8-11 12-16 11-12 24-24 17-13 10-7 19-12 15-8 29-12 26-8 18-4 18-3zm16 2-26 2-24 4-24 6-28 10-23 11-20 12-16 11-11 9-10 9-8 7-10 10-7 8-10 12-11 15-12 20-13 25-9 24-7 23-4 20-3 23-1 12v27l3 29 5 25 6 21 8 22 12 25 15 24 14 19 9 10 7 8 17 17 11 9 13 10 15 10 21 12 19 9 21 8 27 7 21 4 15 2 14 1h17l31-2 28-5 23-6 17-6 25-11 23-13 22-15 13-11 11-9 13-13 9-11 11-14 9-13 12-20 8-16 5-11 7-19 6-20 5-23 3-23 1-29-1-20-4-29-6-25-8-24-8-18-8-16-9-16-11-16-10-13-12-13-5-6h-2l-1-3-8-7-8-8-17-13-13-9-15-9-23-12-25-10-28-8-21-4-21-2-18-1z" fill="#1F0A04"/>
<path transform="translate(457,52)" d="m0 0h8l14 3 10 6 6 7 5 11 1 7v10l-3 14-6 10-7 6-10 4-5 1h-16l-12-3-9-6-6-7-4-10-1-6v-15l4-13 6-8 7-6 11-4z" fill="#080203"/>
<path transform="translate(747,199)" d="m0 0h7l10 3 11 8 9 11 4 8 1 4v17l-6 12-10 10-12 7-7 2h-13l-10-4-8-6-7-8-7-14-1-4v-12l4-11 8-10 8-6 11-5z" fill="#080203"/>
<path transform="translate(384,59)" d="m0 0 12 2 7 6 4 11-2 12-5 5-3 4 8 1 4 4 3 9 3 12v5l-10 2h-6l-8-24-9-1-11 2h-6l5 25v5l-11 2h-6l-14-70v-3l28-6z" fill="#070203"/>
<path transform="translate(68,342)" d="m0 0h8l8 3 5 5 4 9v2h2l2-5 4-3h12l17 3-1 7-3 9-4 1-16-3-6 1-4 6-5 18 11 2 15 3 2 1-3 16-10-1-44-10-18-5-1-1 1-9 8-32 5-10 5-5z" fill="#080203"/>
<path transform="translate(785,508)" d="m0 0 13 2 55 12 6 2-4 19-6 25-5 9-8 5-8 1-9-3-6-4-4-11-5 5-5 3-14-1-12-2-1-3 3-13 5-1 15 2 7-1 3-4 5-17 1-2-19-4-10-3 2-14z" fill="#090303"/>
<path transform="translate(812,269)" d="m0 0 3 2 7 17 9 21 1 4v12l-4 6-6 5-6 2h-8l-7-3-5-3v10l-7 6-17 9-3-1-5-12 1-4 16-8 5-6-4-13-3-9-13 5-13 6h-2l-6-13v-3l40-18z" fill="#070203"/>
<path transform="translate(846,348)" d="m0 0 2 2 3 20 1 6-5 5-20 14-19 14-8 5 9-1 46-9 4 1 1 7v8l-13 3-55 11h-5l-5-26 2-4 15-10 19-14 16-11v-1l-53 11h-5l-3-11 1-5 38-8 30-6z" fill="#080203"/>
<path transform="translate(85,273)" d="m0 0 16 1 62 7 1 4-6 12h-17l-10 21-3 6-1 4 4 2 6 6-1 7-5 9-4-2-31-31-7-8-14-14 1-5 8-16z" fill="#070203"/>
<path transform="translate(111,422)" d="m0 0h3l-1 17-14 5-1 15v18l14 6 1 1v17l-16-6-44-16-13-5-2-2v-25l9-4 43-14z" fill="#080203"/>
<path transform="translate(227,118)" d="m0 0 4 1 8 10 12 16 14 19 8 11v4l-10 7-4-1-11-14-6-9-20 15-7 5 7 11 9 11 2 4-10 8-5 1-13-18-14-18-12-16-4-6 2-4 8-6 5 1 14 19 4 1 17-13 7-5-1-4-13-17-2-5z" fill="#070203"/>
<path transform="translate(157,184)" d="m0 0 10 1 10 4 3 4-9 11-2 1-7-3h-8l-8 5-6 8-2 4v9l4 8 7 7 9 6 3 1h11l8-5 6-9 1-2v-10l-5-8 1-4 9-10 7 6 5 9 1 5-1 13-5 9-8 10-9 8-8 4-5 1h-12l-13-5-9-7-7-8-5-10-1-4v-13l5-12 7-10 9-8 8-4z" fill="#070203"/>
<path transform="translate(111,503)" d="m0 0h3l3 13v6l-24 24-1 3 6 2 7 4h8l11-2 2 6 1 10-8 3-56 12-8 1-2-5-2-8v-4l30-6h3v-2l-6-2-18-10-16-9-4-21 4 1 11 7 21 12 3 1 2-4 24-26 4-5z" fill="#080203"/>
<path transform="translate(681,135)" d="m0 0h10l12 4 10 7 9 9 5 8 2 7-1 12-5 10h-4l-11-9 2-5 1-2v-7l-3-8-7-6-11-4-9 2-7 6h-2l-2 4-5 7-2 5v10l6 9 5 4 7 3h8l6-2v-2l5-1 9 7 3 2v2h-2v2l-11 7-4 2h-14l-14-7-10-9-6-7-4-8-1-5v-10l3-10 7-11 9-9 12-6z" fill="#070203"/>
<path transform="translate(787,442)" d="m0 0 75 1v23l-1 36h-8l-5-1v-41l-16 1-1 37h-12l-1-1 1-37h-19v41h-13l-1-1v-23z" fill="#080203"/>
<path transform="translate(576,321)" d="m0 0 4 1 9 10 6 10 4 11 1 4v11l-5 20-6 15-3 9-1 9-5-2-14-16-5-10-1-4v-13l5-17 7-21 3-16z" fill="#EA4E0C"/>
<path transform="translate(554,455)" d="m0 0h2v2h2l-3 12-3 6-1 4-19 14-21 16-9 7-21 16-13 10-6 5h-29l5-5 13-10 12-9 5-3h2l2-4 12-9 21-16 18-13 16-12z" fill="#EA4E0C"/>
<path transform="translate(286,87)" d="m0 0h4l4 10-1 3-10 5 9 19 10 21v2l8-3 1-1h5l5 8-1 4-16 8-21 10-3-1-5-11 9-4 2-1-1-6-17-34-1-3-4 1-6 3-5-1-3-7-1-3 16-8z" fill="#070203"/>
<path transform="translate(747,216)" d="m0 0h12l9 6 6 10 1 3v8l-5 8-7 7-11 6-5 2-7-1-6-3-5-5-5-8-1-10 3-7 4-5 9-7z" fill="#FEFEFE"/>
<path transform="translate(455,66)" d="m0 0h11l9 3 6 7 2 5v21l-3 7-4 5-7 3-8 1-11-2-7-6-3-7v-21l4-9 6-5z" fill="#FEFEFE"/>
<path transform="translate(589,78)" d="m0 0 5 1 10 5-1 6-13 30-8 19v2l29 12 1 1v6l-4 7-6-2-42-18 3-9 9-21 16-38z" fill="#080203"/>
<path transform="translate(524,59)" d="m0 0 14 4 1 5-10 41-3 14 26 7 7 2 1 2-4 11-11-2-36-9-3-1 1-9 7-29 8-33z" fill="#080203"/>
<path transform="translate(506,510)" d="m0 0 2 1-15 12-12 9-13 10-6 5h-29l5-5 13-10 12-9 7-4 15-2 12-3z" fill="#FEFEFE"/>
<path transform="translate(406,521)" d="m0 0 5 1h32l-5 6-16 11-9 6-14-1-18-2v-3l18-13z" fill="#FEFEFE"/>
<path transform="translate(189,710)" d="m0 0 5 1 9 10-1 7-12 13-5 4-4 1-6-4-7-7 1-4 17-17z" fill="#0B0303"/>
<path transform="translate(322,466)" d="m0 0h2l3 12 1 5-25 14-10 5-4-5-4-7v-2l16-9z" fill="#FEFEFE"/>
<path transform="translate(357,512)" d="m0 0 5 1 18 5 5 1-1 3-16 10-7 4-8-1-18-6 4-5 11-7z" fill="#FEFEFE"/>
<path transform="translate(331,492)" d="m0 0 4 2 6 8 5 3-2 4-18 10-3 2h-6l-12-8-1-4 12-7z" fill="#FEFEFE"/>
<path transform="translate(681,733)" d="m0 0 7 6 8 10 7 9-2 5-4 2-8-9h-2l2 5 5 7-5 4-4-2-11-13-7-10 1-4 7-1 2 4 7 4-6-9-2-1 1-4z" fill="#0F0503"/>
<path transform="translate(552,804)" d="m0 0h7l3 8 1 7 4 8 2 8-5 2h-4l-3-13-3-2 3 13v4l-8 1-8-28-1-4 8-3z" fill="#0E0403"/>
<path transform="translate(806,290)" d="m0 0 3 1 8 19v6l-4 4-5 3h-6l-4-4-8-17-1-4 15-7z" fill="#FEFEFE"/>
<path transform="translate(822,534)" d="m0 0 10 1 10 2 1 3-6 21-4 4-9-1-5-3-1-2v-10l3-14z" fill="#FEFEFE"/>
<path transform="translate(68,360)" d="m0 0 10 1 5 3 1 2v7l-4 17-1 1-10-1-9-2v-8l5-16z" fill="#FEFEFE"/>
<path transform="translate(380,73)" d="m0 0 5 1 4 6 1 9-5 4-15 4-8 1-3-16v-5z" fill="#FEFEFE"/>
<path transform="translate(507,814)" d="m0 0h4l4 15 5 16v3l-7 1-2-4h-5v5l-7 1-1-10v-25z" fill="#140603"/>
<path transform="translate(448,819)" d="m0 0h6l2 1 1 10h2l1-10 1-1h6l1 3-2 5-1 9 4 17-1 1h-7l-2-5v-7h-2l-1 11-8 1z" fill="#110503"/>
<path transform="translate(597,787)" d="m0 0 5 2 13 22 2 5-8 4-4-5-1 7-3 2-4-1-7-24-2-7 7-4z" fill="#0E0403"/>
<path transform="translate(640,764)" d="m0 0 6 1 5 7v3l-6 1-5-4-3-1 5 9 5 8v2l5 1-3-6v-5l5-1 4 4 2 4-1 6-6 5-7 1-6-4-9-16-1-5 2-5 5-4z" fill="#120603"/>
<path transform="translate(328,798)" d="m0 0 9 2 3 3 1 2v6l-6 1-2-4-1-3h-2l-1 4 1 3h2l4 6v10l-5 6h-7l-6-3-2-3v-8l2-2 6 1 1 8h2l-2-9-4-6 1-8 4-5z" fill="#110503"/>
<path transform="translate(83,448)" d="m0 0 2 1v23l-10-2-24-9-1-2z" fill="#FEFEFE"/>
<path transform="translate(93,289)" d="m0 0 34 4-1 5-7 16-4 1-10-10-7-8-5-4-1-3z" fill="#FEFEFE"/>
<path transform="translate(369,811)" d="m0 0 13 1 2 2-1 6-7-1 2 6 2 2v5l-6 1-1 3 1 3 5 3-1 4-11-1-4-1 1-10 4-20z" fill="#0F0503"/>
<path transform="translate(256,763)" d="m0 0 6 2-1 5-7 12-5 8 3 3v5l-2 1-11-7v-4l15-23z" fill="#120603"/>
<path transform="translate(225,742)" d="m0 0 5 1 2 2-1 5-16 20-2 2-5-1-1-5 16-21z" fill="#0E0403"/>
<path transform="translate(707,709)" d="m0 0 4 1 9 10 10 9 2 3v3l-4 2-4-1-21-21v-3z" fill="#0D0403"/>
<path transform="translate(443,578)" d="m0 0 11 1 2 5-1 4h-14l-1-1v-6z" fill="#0E0403"/>
<path transform="translate(192,720)" d="m0 0 4 1-6 7-9 8-4 1 1-4 10-10z" fill="#FEFEFE"/>
<path transform="translate(505,822)" d="m0 0 2 4 2 11h-4z" fill="#FEFEFE"/>
<path transform="translate(597,796)" d="m0 0 3 3 4 9v3h-2l-5-12z" fill="#FEFEFE"/>
<path transform="translate(551,810)" d="m0 0 4 1 1 6-4-1-2-4z" fill="#FEFEFE"/>
</svg>
