<?xml version="1.0" encoding="UTF-8"?>
<svg version="1.1" viewBox="0 0 900 900" width="225" height="225" xmlns="http://www.w3.org/2000/svg">
<path transform="translate(0)" d="m0 0h900v900h-900z" fill="#16312A"/>
<path transform="translate(324,513)" d="m0 0 3 1 5 12 17 35 11 23 5 7 5 3h6l3-2 1-5v-59l-1-7-9-2-1-3h56l12 2 10 5 4 5 1 3v9l-3 6-7 6-10 5 10 5 7 8 10 21 2 3h5l6-7 8-15 11-25 10-21 6-13 4 2 9 20 16 33 8 16 5 8 4 3h8l4-4 1-2v-63l-3-6-8-1v-3h45v3l-6 2-1 5-1 28h26l-1-30-1-3-7-3v-2h46l1 3-9 2-3 7v50l1 13 3 3 8 3v2h-47v-2l7-2 1-5 2-31h-26v29l3 7 6 2-1 2h-92l1-3 5-2 1-2-1-9-5-11h-25l-4 9-1 8 4 5 8 3v2l-27 1h-22l-7-3-8-9-9-22-4-5-8-1v28l2 6 7 3v2h-91l1-3 6-1 1-6-4-12-3-5h-25l-4 10-1 6 3 5 9 4v2l-24 1h-22l-5-2-7-8-11-23-7-7-5-2h-3v32l1 4 7 2 1 3h-48l1-3 9-3 1-2v-68l-1-2-9-2-1-3h48l-1 3-7 2-1 3v28l8-7 14-14 5-7-2-4-2-3 1-1h34v3l-10 2-12 5-11 8-13 12-5 6 4-1h13l12 6 8 10 7 16 4 10v2l5-2 7-10 12-26 15-33 5-10z" fill="#FDF8F6"/>
<path transform="translate(412,182)" d="m0 0h2l2 18 4 15 5 13 9 14 11 13 7 7v2l4 2 14 14 10 14 7 14 4 15v12l-4 14-6 11-9 10-9 7-3-1v-17l4-13v-8l-3-5-5-4-5-3-3-11h-7l-5-5-7-8-12-17-7-15-5-16-2-15v-20l3-19z" fill="#F5A890"/>
<path transform="translate(374,626)" d="m0 0h16l11 4 8 6 6 7 4 8 1 6v11l-2 9-6 10-11 8-9 4-13 1-12-2-8-4-10-9-6-12-1-4v-13l4-11 6-8 9-7z" fill="#FDF8F6"/>
<path transform="translate(627,626)" d="m0 0 5 1 2 6 1 9v10l-3-3-4-11-5-5-15-3 1 61 3 3 7 3v2h-43l1-3 6-2 2-4 1-60-15 3-6 7-2 10-3 1v-19l-6 2-3 6-1 5-1 56-4-1-9-11-13-14-7-8-11-12-9-11-2-2v39l2 11 5 2 7 3v2h-35l1-2 10-5 3-4 2-12v-27l-1-13-1-3-13-3v-3h35l5 5 10 11 7 8 12 14 2 1-1-27-3-5-2-2-7-2v-3z" fill="#FDF6F4"/>
<path transform="translate(446,330)" d="m0 0 7 1 5 2 4 5 1 6-4 10-5 8 2 4 2 14 4 11 9 19 4 12 1 6v8l-4 10-8 7-10 3h-10l-9-3-7-6-4-8-1-8 3-15 11-26 3-5 2-9v-12l6 4 3 3-1-4-5-5-6-9-3-8v-6l6-7z" fill="#F6A991"/>
<path transform="translate(498,289)" d="m0 0 7 4 10 9 7 9 6 13 3 10v25l-5 16-8 15-8 11-10 10-14 10-3 2h-5l-5-14-5-12 11-9 10-10 7-10 7-14 4-16v-18l-4-18-5-11z" fill="#F6A991"/>
<path transform="translate(265,626)" d="m0 0 49 1 9 2 8 5 4 5 1 3v12l-4 6-5 4-13 4-18 2 2 20 3 4 7 3v2h-43v-3l7-3 2-5v-52l-2-4-7-2z" fill="#FDF7F5"/>
<path transform="translate(369,322)" d="m0 0 2 1 6 18 6 11 9 9 15 10 12 7 8 6 5 5v7l-6 12-4 13-2 1-14-8-11-9-15-15-8-13-5-12-2-7v-21z" fill="#F6A991"/>
<path transform="translate(389,257)" d="m0 0 2 1 3 14 4 11 6 12 10 13 2 4h2l9 13 5 12 4 15 3 16 1 3-4-1-25-16-13-12-6-7-6-12-4-14v-24l6-25z" fill="#F6A991"/>
<path transform="translate(664,516)" d="m0 0h49v3l-9 3-2 6v60l2 5 10 4v2h-50l1-3 8-3 2-3v-66l-1-3-9-2z" fill="#FDFAF9"/>
<path transform="translate(627,626)" d="m0 0 5 1 2 6 1 9v10l-3-3-4-11-5-5-15-3 1 61 3 3 7 3v2h-43l1-3 6-2 2-4 1-62 3-1z" fill="#FDF7F5"/>
<path transform="translate(377,630)" d="m0 0h8l5 3 4 6 2 6 1 22-2 16-4 9-7 4-8-1-6-5-3-6-1-6v-28l2-11 6-8z" fill="#16312A"/>
<path transform="translate(423,627)" d="m0 0h43v3l-9 3-1 5v48l2 6 4 3 5 3v1h-43l1-3 6-1 2-8v-46l-1-10-8-1z" fill="#FDF9F8"/>
<path transform="translate(456,193)" d="m0 0h2l2 15 7 13 11 13 6 10 3 12-1 10-6-2-9-7-10-9-8-13-3-9-1-5 1-14 5-13z" fill="#F6A991"/>
<path transform="translate(407,519)" d="m0 0h9l6 4 3 6v16l-3 6-7 4-9 1v-36z" fill="#16312A"/>
<path transform="translate(297,630)" d="m0 0h8l6 4 2 7v14l-3 7-7 3h-6l-1-1v-32z" fill="#16312A"/>
<path transform="translate(491,640)" d="m0 0 3 1v40l2 11 5 2 7 3v2h-35l1-2 10-5 3-4 2-12 1-26h1z" fill="#FCE8E2"/>
<path transform="translate(476,422)" d="m0 0 3 4-1 16-6 10-7 6-7 3h-16l-10-4-6-5-1-5v-3l3 1 4 5 7 4 5 1h10l10-3 7-6 4-10z" fill="#11201F"/>
<path transform="translate(584,406)" d="m0 0 7 1 4 4 1 2v7l-3 5-3 2h-7l-5-3-2-5v-6l5-6z" fill="#FCE9E4"/>
<path transform="translate(315,231)" d="m0 0h6l4 3 6 2-1 4-6 9-3 2h-7l-6-5v-8l4-6z" fill="#FCEAE5"/>
<path transform="translate(500,141)" d="m0 0h6l7 6v8l-4 5-7 1-7-3-2-4v-6l3-5z" fill="#FCEBE6"/>
<path transform="translate(497,542)" d="m0 0 2 1 10 24-2 2-21-1 5-13z" fill="#16312A"/>
<path transform="translate(313,542)" d="m0 0 3 3 8 19 1 4-5 1-17-1 1-6z" fill="#16302A"/>
<path transform="translate(568,195)" d="m0 0 4 2 3 4 1 6-6 7-7 1-7-6-1-6 4-4z" fill="#FCE9E3"/>
<path transform="translate(309,386)" d="m0 0h7l4 2 3 6v7l-4 2h-13l-2-1-1-7 3-7z" fill="#FCE9E3"/>
<path transform="translate(304,320)" d="m0 0 10 4 8 4-1 4-7 1 1 2 6 3 1 3-1 2-10 3-2 1h-6l1-4 4-2 1-4-5-1v-4l6-2-6-4z" fill="#FCEAE5"/>
<path transform="translate(584,224)" d="m0 0h3l1 3-7 7-1 2 5-2 4 1 1 3-5 3-1 3h8l1 5h-15l-5-2 2-4 2-1 1-4-5 1-2-1 1-5 11-8z" fill="#FCEDE9"/>
<path transform="translate(473,450)" d="m0 0 3 1-1 4-8 7-11 4h-13l-11-4-6-4-2-2v-5l4 2 8 5 6 2h16l10-5z" fill="#F6AB93"/>
<path transform="translate(304,428)" d="m0 0h18l1 4-7 2 3 3-2 5h5l1 4-1 1-15 1-3-1 1-4 6-4 1-3-6-2-2-2z" fill="#FCECE8"/>
<path transform="translate(540,164)" d="m0 0 4 1 5 5 1 5-7 7-1 5-4-1-1-1v-6h-1-6l1-4z" fill="#F3E6E1"/>
<path transform="translate(593,430)" d="m0 0 3 1-1 4-5 5-1 3 6-1 1 4-1 1h-18l1-4 3-3h3v-4l-7-1v-4z" fill="#FCEBE5"/>
<path transform="translate(304,269)" d="m0 0h17l2 3-1 2-6 1v5l6 1v4h-18l1-5 6-1v-4l-7-1-1-3z" fill="#FCEDE8"/>
<path transform="translate(556,179)" d="m0 0 4 1 5 7v3l-9 2h-5l2 4 2 1-1 3-4-1-6-7 1-4 10-8z" fill="#F6E4DE"/>
<path transform="translate(627,626)" d="m0 0 5 1 2 6 1 9v10l-3-3-4-11-5-5-15-3-2-3z" fill="#FCECE8"/>
<path transform="translate(521,150)" d="m0 0 3 1v5l-3 5-1 6 5-2 5-8 5 1-3 7-5 6-6 1-5-3-2-3 2-9z" fill="#FCEDE8"/>
<path transform="translate(579,287)" d="m0 0h16l-1 5h-6v6l7-2v6l-1 1h-17v-4l6-1 1-6-7-1v-3z" fill="#FBE7E0"/>
<path transform="translate(321,208)" d="m0 0 5 1 10 6v8l-4 5-9-1-7-3v-5l7 1 6 2h2v-5l-9-3-2-2z" fill="#FCECE7"/>
<path transform="translate(319,367)" d="m0 0h3l1 2v9l-1 2-15 1-4-2v-9l1-2h4l1 7h2l1-6 3 1 2 4 2 1-1-7z" fill="#FBE7E1"/>
<path transform="translate(580,321)" d="m0 0h14l1 1v12l-3 2-7-1-2-3-1-5h-4l-1-5z" fill="#EBDBD6"/>
<path transform="translate(579,378)" d="m0 0h5l-2 4-1 4 2-3 5-5 7 1 1 10-1 1h-5v-5l-1-1-1 6-8 2-4-4 1-9z" fill="#FBE4DC"/>
<path transform="translate(577,337)" d="m0 0 5 1 13 6-1 4-14 7h-3l1-11z" fill="#FCECE8"/>
<path transform="translate(319,408)" d="m0 0h4l-2 5v6l1 5h-6l-5-3-6-2-1-4 5-3z" fill="#FCEEEA"/>
<path transform="translate(464,132)" d="m0 0 4 1 4 14v4l-6-1v-2l-6 1-4 1-1-3 5-8z" fill="#FCEFEB"/>
<path transform="translate(581,359)" d="m0 0 4 1-1 3-3 2-1 3 5-5 4-3 6 1v10l-1 1h-6l2-2 1-5h-2l-2 6-4 2-5-1-2-6 2-5z" fill="#FCEAE5"/>
<path transform="translate(329,195)" d="m0 0 16 1 3 1-2 5-4 3-3-2 1 1v8h-3l-9-14z" fill="#FCEFEA"/>
<path transform="translate(477,133)" d="m0 0 4 2 3 6 5-5 5 1-4 7-6 9h-4l-4-15z" fill="#FCECE7"/>
<path transform="translate(465,751)" d="m0 0 5 1 2 2v10l-4 3-5-1-4-5-1-5 5-4z" fill="#F8C7B8"/>
<path transform="translate(427,132)" d="m0 0 5 2-3 2h-5l1 3 6 1-1 4-4 1v6l-4 1-2-3-2-10 1-5z" fill="#FCEBE5"/>
<path transform="translate(372,152)" d="m0 0h2l-1 11 5 7-1 3-4-1-6-8h-7l1-4z" fill="#FCECE6"/>
<path transform="translate(439,383)" d="m0 0 1 4-5 10-7 17h-2v-5l1-1 2-9 2-3v-7l-2-2 1-3h8z" fill="#111F1E"/>
<path transform="translate(388,143)" d="m0 0 4 2 1 11 2 7h-5l-3-6-9-6v-2l4-1 5 3v-6z" fill="#FCE8E2"/>
<path transform="translate(439,131)" d="m0 0 4 2v12h7l1 3-1 2h-11l-2-3v-14z" fill="#FBE5DE"/>
<path transform="translate(304,288)" d="m0 0h2l2 8h14v4l-13 1-3 6-2 1-1-3z" fill="#FCEBE6"/>
<path transform="translate(536,158)" d="m0 0 4 4-1 5-7 8h-9l-4-3 8-2 6-8 1-3z" fill="#111F1E"/>
<path transform="translate(470,390)" d="m0 0 4 1-2 4-3 3 5 11 1 2v8h-2l-5-13-4-8v-6z" fill="#11211F"/>
<path transform="translate(593,264)" d="m0 0 2 1v19l-3-1v-6h-14l-1-4 1-1 13-2z" fill="#FCEAE4"/>
<path transform="translate(304,320)" d="m0 0 10 4 8 4-1 4-7 1 1 3-4-1h2l-1-2-3-2v-2l-5-3z" fill="#FBE5DE"/>
<path transform="translate(339,180)" d="m0 0 4 1 5 4v2h5l4-3h3l-1 4-4 5-5 1-12-11z" fill="#FBE7E1"/>
<path transform="translate(582,396)" d="m0 0h13l1 4-1 2h-17l-1-5z" fill="#FBE5DE"/>
<path transform="translate(584,224)" d="m0 0h3l1 3-7 7-2 4-6 1-2-1 1-5 11-8z" fill="#FCECE7"/>
<path transform="translate(405,752)" d="m0 0h6l1 5-4 3-1 4 7-2 3-2-2 5h-2v2h-8l-1-7v-7z" fill="#FAD3C7"/>
<path transform="translate(468,133)" d="m0 0h5l3 1 1 4v7h-2l-1 6-3-4-3-9z" fill="#101C1C"/>
<path transform="translate(304,311)" d="m0 0h18l1 4-3 1h-16l-1-4z" fill="#FAD9CF"/>
<path transform="translate(587,256)" d="m0 0h7l1 4-14 3-5-1 1-5z" fill="#FBE0D8"/>
<path transform="translate(585,411)" d="m0 0 6 2 1 5-3 3-4 1-5-5 3-5z" fill="#162F29"/>
<path transform="translate(489,751)" d="m0 0 2 1-2 10 2-2 1-3h2l1 2v6h-7l-4-2 1-7 2-4z" fill="#FBDFD7"/>
<path transform="translate(352,167)" d="m0 0 5 1 9 10v4l-5-1-9-10z" fill="#FCEEE9"/>
<path transform="translate(501,146)" d="m0 0 5 1 2 2v6l-6 2-4-4 1-5z" fill="#101E1D"/>
<path transform="translate(315,236)" d="m0 0h5l3 3-1 5-3 2-5-1-2-2 1-5z" fill="#16312A"/>
<path transform="translate(432,327)" d="m0 0 5 2v2l3 1-1 4-2 3h-2l-1 3-2-1-2-12z" fill="#0F1B1B"/>
<path transform="translate(449,752)" d="m0 0h6l1 8 1 7h-8l1-4h2l-2-6-2-4z" fill="#F8C8B8"/>
<path transform="translate(524,155)" d="m0 0 5 1-1 6-4 5h-4v-6z" fill="#111F1E"/>
<path transform="translate(428,752)" d="m0 0h11l-1 3-2 1-1 10h-3l-2-10z" fill="#FBE1D9"/>
<path transform="translate(304,316)" d="m0 0h18l-3 2-6 2v3l-5-1-4-2z" fill="#101D1D"/>
<path transform="translate(516,149)" d="m0 0 4 1-2 6-2 4h-2v2h-4l-2-1 4-6h2l1-5z" fill="#101D1C"/>
<path transform="translate(341,645)" d="m0 0 4 1-1 6h-2v2l-2 1-2 3h-3l1-5 4-7z" fill="#0F1A1B"/>
<path transform="translate(582,334)" d="m0 0 11 2-1 6-6-1-6-3v-2h2z" fill="#101D1C"/>
<path transform="translate(589,379)" d="m0 0h6l1 10-1 1h-5l-1-8z" fill="#FCEDE8"/>
<path transform="translate(589,360)" d="m0 0 6 1v10l-1 1h-6l2-2 1-6-3-1z" fill="#FCEEE9"/>
<path transform="translate(475,752)" d="m0 0 5 1v14l-3-1-2-9z" fill="#F9CFC2"/>
<path transform="translate(480,752)" d="m0 0 4 1 1 10 4 2v1h-6l-3-4z" fill="#101C1C"/>
<path transform="translate(473,450)" d="m0 0 3 1-1 4-4 4-7 2-1-3 6-4z" fill="#FADBD2"/>
<path transform="translate(309,391)" d="m0 0h6l2 1v5l-2 1h-6l-1-1v-5z" fill="#17322B"/>
<path transform="translate(492,140)" d="m0 0h2l-1 3v2l1 3h-2l-2 5h-5l1-5z" fill="#101D1C"/>
<path transform="translate(565,202)" d="m0 0h6l-1 5-2 2h-5l-2-2 1-4z" fill="#16312A"/>
<path transform="translate(431,396)" d="m0 0 3 1-1 5-5 12h-2v-5l1-1 2-9z" fill="#132623"/>
<path transform="translate(472,753)" d="m0 0h2l2 4v10h-4-2l1-3z" fill="#101E1D"/>
<path transform="translate(419,752)" d="m0 0 5 1-1 6-4 1-3-5z" fill="#F8C4B3"/>
<path transform="translate(406,759)" d="m0 0 2 1-1 4 7-2 3-2-2 5h-2v2h-8l-1-7z" fill="#F8C2B2"/>
<path transform="translate(644,560)" d="m0 0h2l1 10-1 9-2 3z" fill="#0F191A"/>
<path transform="translate(464,754)" d="m0 0 4 1 1 7-5 1-1-1v-6z" fill="#132623"/>
<path transform="translate(461,754)" d="m0 0h2v9l5 2v2l-5-1-4-5-1-5z" fill="#FBE6DF"/>
<path transform="translate(310,424)" d="m0 0h8l5 2-2 2-16-1 4-2z" fill="#0F191A"/>
<path transform="translate(464,214)" d="m0 0 4 4 7 9v2l-4-2-7-9z" fill="#122321"/>
<path transform="translate(425,759)" d="m0 0h2v5l-4 3h-6v-2l6-2z" fill="#F9CBBD"/>
<path transform="translate(425,755)" d="m0 0h5l1 1v10l-1-2h-2l-1-6h-2z" fill="#0F1A1B"/>
<path transform="translate(470,402)" d="m0 0 2 3 3 6v8h-2l-2-5z" fill="#132623"/>
<path transform="translate(400,364)" d="m0 0 11 6 2 3-6-1-8-5z" fill="#112120"/>
<path transform="translate(583,358)" d="m0 0h8l-5 5-4 5h-2l1-4 4-4h-2z" fill="#132724"/>
<path transform="translate(492,757)" d="m0 0h2l1 2v6h-7l-3-2 5-1z" fill="#F8C1B0"/>
<path transform="translate(400,154)" d="m0 0 4 2 1 7-5-1z" fill="#FCE8E2"/>
<path transform="translate(558,631)" d="m0 0 3 1-1 5-3 2-3-4 1-3z" fill="#101E1D"/>
<path transform="translate(435,339)" d="m0 0h1l4 16-2-1-1-3-2 1-2-11z" fill="#17322B"/>
<path transform="translate(227,544)" d="m0 0h4l-1 4-4 4h-2l1-7z" fill="#101D1D"/>
<path transform="translate(256,516)" d="m0 0h26v3h-3v-2h-23z" fill="#F6B09A"/>
<path transform="translate(582,392)" d="m0 0 4 2h10v2h-19z" fill="#0F191A"/>
<path transform="translate(584,352)" d="m0 0 3 1-5 6-6 1 1-4h3v-2z" fill="#0F1C1C"/>
<path transform="translate(304,332)" d="m0 0h8l1 3-2 1h-7z" fill="#FDF8F7"/>
<path transform="translate(437,316)" d="m0 0h5l1 3-1 6-5-5z" fill="#F6AE97"/>
<path transform="translate(544,180)" d="m0 0 2 1-1 2 5-1-1 4-2 2-4-1v-6z" fill="#101F1E"/>
<path transform="translate(475,414)" d="m0 0 2 4 1 5 4 1-3 2-2-2-2 4-1-9z" fill="#17322B"/>
<path transform="translate(432,308)" d="m0 0 4 1 4 6-5 2-1-4z" fill="#101E1D"/>
<path transform="translate(433,139)" d="m0 0 3 1 1 8-2-3-4 2-1-3h2z" fill="#0F191A"/>
<path transform="translate(500,147)" d="m0 0 1 2h2l1 5-5 1-1-6z" fill="#17322B"/>
<path transform="translate(564,194)" d="m0 0 3 1-3 3-2 1h-6v-2z" fill="#101C1C"/>
<path transform="translate(309,391)" d="m0 0h6l1 4-7 1v-3z" fill="#11201F"/>
<path transform="translate(530,365)" d="m0 0 1 3-5 11-1-4 3-8h2z" fill="#122320"/>
<path transform="translate(457,266)" d="m0 0 4 2 6 7-4-1-6-6z" fill="#11211F"/>
</svg>
