<?xml version="1.0" encoding="UTF-8"?>
<svg version="1.1" viewBox="0 0 2048 1146" width="300" height="168" xmlns="http://www.w3.org/2000/svg">
<path transform="translate(0)" d="m0 0h2048v1146h-2048z" fill="#FBFCFC"/>
<path transform="translate(0)" d="m0 0h2048v958h-503l-1-5 3-7 5-10 2-2h16l69 4 31 1 2-10 10-28 6-16-1-4-17-13-15-12-16-12-27-18-16-10-1-2v-9l5-30 5-48 5-3 29-9 39-12 33-12 3-2-1-33-1-26-11-3-29-9-37-10-33-7-3-1-4-16-6-25-10-39-1-6 8-7 17-12 13-10 14-11 22-18 14-11-5-14-17-42v-2l-29 2-42 4-39 6h-6l-7-8-10-16-10-14-13-17-7-10-4-5 1-6 9-14 28-48 12-23 2-5v-8l-9-10-18-18-8-7-5-4-33 15-20 10-22 12-21 12-5 4-6-3-13-10-11-8-16-10-15-10-13-8-1-2v-8l5-24 8-52 3-26-15-8-28-12-11-4-4 2-8 7-16 17-9 11-10 11-9 11-14 17-6 9-8-1-29-8-36-8-12-2-4-4-4-16-10-48-9-39v-6h-63l-10 25-12 34-15 42-4 6-20 3-39 5-27 4-7-8-12-20-9-14-17-25-17-26-10 2-36 12-13 5v116l-8 5-28 15-28 17-9 6-5-1-14-10-17-12-18-13-33-22-8-5-5 1-14 10-17 14-11 11 1 9 15 37 15 35 9 20 1 7-5 8-9 10-9 11-13 16-10 13-8 10-9-1-42-12-51-12-12-3-1 5-24 47-1 4 9 9 7 8 9 10 7 8 12 12v2l4 2 26 26 5 4-3 10-13 37-11 37-2 2-4 1-27 2-51 6-30 5-2 8-6 45v7l47 24 36 17 17 7 4 3 1 35 3 40v14l-31 15-17 8-23 13-18 10-8 5h-2l5 29 7 28 1 3 21 3 31 3 35 2 28 1 5 8 14 34 10 19 2 5v3h-506z" fill="#FCFDFD"/>
<path transform="translate(1024,6)" d="m0 0h21l42 1 5 23 11 50 6 30 3 8 9 2 37 8 30 8 11 3 2-5 14-17 8-10 9-10 9-11 14-15 7-8 7-7 4-3 10 3 24 10 21 10 2 4-6 45-8 47-2 8v8l4 4 17 10 30 20 13 10 7 5 4 1 7-6 46-25 22-11 20-9 6-2 10 10 8 7 20 20 2 3v8l-11 23-15 26-16 27-9 14-1 6 8 10 9 13 13 17 11 17 8 11 1 1 12-1 33-5 53-5 16-1 3 3 17 42 5 14-11 9-17 14-16 13-16 12-18 13-10 8 2 9 14 56 4 21 12 2 36 8 35 10 30 10 2 26 1 33-4 3-36 13-42 13-26 8-1 1-5 48-5 30v9l4 4 14 8 25 17 18 14 13 10 14 11 5 4-1 6-7 19-9 25-2 7h-31l-69-4h-16l-3 5-5 9-2 8-85 1h-33l-30-1 2-5 7-10 14-24 15-29 10-21 13-35 8-27 5-22 5-33 3-33v-56l-3-28-6-34-10-40-12-35-10-23-11-22-13-23-14-22-11-16-11-14-14-15-12-13-13-13-8-7-13-12-16-12-19-14-18-11-15-9-27-14-24-11-30-11-22-7-27-6-36-6-27-3-16-1h-37l-27 2-37 6-31 7-28 8-28 10-29 13-19 10-27 16-16 11-16 12-14 12-10 9-16 15-22 22-7 8-12 14-12 17-9 13-21 35-8 16-9 19-9 24-10 32-7 28-6 33-2 15-1 13v56l3 36 5 29 9 36 12 37 13 30 9 19 14 24 11 18 6 10-2 2-65 1h-79l-7-16-8-16-12-29-4-7-48-2-36-3-27-3-5-2-6-22-6-31v-7l21-12 25-14 19-10 28-13 6-2-4-54-1-35-10-5-18-8-34-16-22-11-20-11 1-15 5-37 2-8 7-2 39-6 45-5 18-1 5-2 12-40 12-34 3-10-12-11-20-20-2-1v-2l-4-2-9-10-14-15-7-8-9-10-2-2 1-4 14-28 10-19 2-5 12 2 55 13 42 12h5l8-10 14-18 9-11 12-14 8-10 2-4-1-7-14-31-20-48-6-16v-6l15-15 14-11 15-11 6 1 33 22 34 24 19 14 4 2 4-1 16-10 24-14 24-13 7-4v-116l12-5 22-8 23-7 4 1 15 23 19 28 12 19 11 18 5 4 49-7 32-4 5-2 5-12 18-52 14-37z" fill="#95979A"/>
<path transform="translate(650,956)" d="m0 0 8 1h887l503 1v188h-2048v-188l585-1z" fill="#DB3C47"/>
<path transform="translate(733,443)" d="m0 0h14l12 3 10 5 10 9 9 15 3 6 5 27 10 74 6 47 8 54 2 18 1 1 4-20 6-49 6-37 7-51 8-48 6-21 7-12 9-10 6-5 9-4 13-2 17 1 11 4 9 7 8 10 7 12 6 17 3 20 1 35-1 344-2 1h-60l-5-1-1-206-2-17-5 37-4 29-9 55-8 51-6 25-4 12-7 11-4 5-9 6-14 3-10-1-14-7-9-10-7-17-4-15-7-41-9-56-10-71-2-12-1 7v179l-1 33-1 1h-68v-373l3-21 4-16 6-13 7-11 10-9 12-6z" fill="#DA3B46"/>
<path transform="translate(1065,448)" d="m0 0h104v107l-109 1-3 3-1 2-1 12v16l1 17 4 10 4 1h50l13 2 12 6 9 8 7 10 6 12 5 17 2 13 1 12v114l-2 22-6 22-6 11-8 10-10 9-14 7-8 1-54 1h-77v-107l108-1 4-4 2-9v-27l-1-19-4-2-55-1-13-4-10-6-9-9-9-14-7-18-4-17-2-15v-111l3-21 4-15 5-13 7-11 9-10 11-7 9-3 7-1z" fill="#DA3B46"/>
<path transform="translate(1270,448)" d="m0 0h107l2 1-1 96-1 10-113 1-3 13-1 20v28h118v100l-1 7-1 1-117-1v170l-1 1h-19l-50-1-1-201v-32l1-133 3-25 4-15 5-12 7-10 9-9 10-5 7-2 8-1z" fill="#DB3B46"/>
<path transform="translate(1344,981)" d="m0 0h9l3 2 1 2 27 1 10 4 9 6 10 9 6 8h3l4-4 4-1v-2l9-6 3-3h2v-2l9-6h3v-2l3-1h41l9 2v2l5 1 5 2 1-4 16 1 3 3h5l4-4 5-1h42l2 2v36l-1 53h39l9 1 1 30 1-4 1-32 4-84 1-1h22v1l-21 1 1 4 1 51 1-49 1-1h24v2h2v114h-29l-5 2v1l7 1 38 2-1-3v-121l4-1 1 2v123h56l14 1v1l-34 1-7-1h-20l-13 4h-3l-10-1h-2l-7-1-4-1h-7l-6 3h-12l-5 1h-12l-19 1-10-1h-4v-2h-12l-2-1-25-1-8 2-9-3h-11l-6 4h-10l-10 2-7 1-5 1h-5v-2l-15-3v-2l-6 1h-7l-17-7-11-1-7-1-13 5-9 3-11 1-10 3-12 1-13-3-15-3-7-3-6-3-7-6-5-4-10-14-5-6-2-1-2-10-2-5-2 1-2 5-1 5-1 6h-2l-3-4v25l1 13h-45l1-26 1-65-29-1-1-1v-27l1-9h101l2 1v10l2-6v-5l10-5h6l3-2z" fill="#C13D47"/>
<path transform="translate(585,984)" d="m0 0 4 1h-2v2l5-1 1-2 12 1 2 2 7-1 1 1 1-2 4-1h8v2l9-1 4-1 7 1 1 2 32 1 5 19 11 35 12 36 8 29 1-2h6l1-47h1l1 54 72 1v-25l-47-1-1-90-1-1h-14l-9 1-1 48h-1l-1-38-1-10-2-2v-5l5-1 32 1 2 1v24l-1 58-1 6 49 1 2 1 1 13 2 1-1-30v-17l3-21 5-13 8-12 9-8 10-5 10-2h24l12 2 9 5 7 6 7 11 3 5v2h2l3 3-2-6 4-8 3-1 2-4 8-6 3-3 5-3 4-3h13l6-1 18-1 17 4 10 6 10 9 8 9 5 8 5 16 3 6v14l-2 7-3 7-5 18-7 11-12 12-13 8-7 3-8 1h-12l-13-5-9-5h-11l-6-2v2l-13-1-12 1-5 1v2l-8 4-10 2-2 1-12 2h-13l-5-2-16-1-13 2-1 2h-7v-1l-5-1v2h-6l-1-3-2 1-4-2v-4l-62 1-11 2h-22l-4-2v-1l-24-1-2-3-2-10-33-1v9l1 4-1 1-41 2-1-3 3-13h-6l-6-7-5-1-3-1-3-5-3-1v-2l-3 1-5-2-3-4-1 36-14 1h-26l-2-1 1-88 1-40 1-1 27-1 7-1h25z" fill="#C33D47"/>
<path transform="translate(733,443)" d="m0 0h14l12 3 10 5 10 9 9 15 3 6 5 27 10 74 6 47 8 54 2 18 1 1 4-20 6-49 6-37 7-51 8-48 6-21 7-12 9-10 6-5 9-4 13-2 17 1 11 4 9 7 8 10 7 12 6 17 3 20 1 35-1 344-2 1h-60l-5-1-1-206-2-17-5 37-4 29-9 55-8 51-6 25-4 12-7 11-4 5-9 6-14 3-10-1-14-7-9-10-7-17-4-15-7-41-9-56-10-71-2-12-1 7v179l-1 33-1 1h-68v-373l3-21 4-16 6-13 7-11 10-9 12-6zm-1 12-11 4-9 8-7 11-5 15-4 27-1 13-1 347 4 1 40-1 1-1v-37l-1-241-1-23 13 1 1 1 9 56 14 97 10 60 11 62 5 15 6 12 7 8 5 3h14l6-4 3-3 5-13 6-18 5-24 10-64 9-53 13-84 6-36 2-13 5-3 9-1v304l1 1h13l23-1 5-1v-337l-1-20-3-22-5-15h-2v-6l-1-2h-2l-2-5-6-8-4-5-9-4h-15l-10 4-10 6-4 4v2h-2v3l-3 1-5 14-3 11-12 84-4 23-5 37-7 49-1 3-4 34-5 30-4 35v5h-2v-7l-2-7-4-33-1-13-2-10-6-46-6-45-3-20-2-23-1-1-8-60-5-31-5-19-4-10-7-9-8-7h-2v-2l-11-3z" fill="#0B0406"/>
<path transform="translate(585,984)" d="m0 0 4 1h-2v2l5-1 1-2 12 1 2 2 7-1 1 1 1-2 4-1h8v2l9-1 4-1 7 1 1 2 32 1 5 19 11 35 12 36 8 29 1-2h6l1-47h1l1 54 72 1v-25l-47-1-1-90-1-1h-14l-9 1-1 48h-1l-1-38-1-10-2-2v-5l5-1 32 1 2 1v24l-1 58-1 6 49 1 1 1-1 36-1 1-91 1-36-1-2-3-2-10-33-1v9l1 4-1 1-41 2-1-3 3-13h-6l-6-7-5-1-3-1-3-5-3-1v-2l-3 1-5-2-3-4-1 36-14 1h-26l-2-1 1-88 1-40 1-1 27-1 7-1h25z" fill="#C23D47"/>
<path transform="translate(1065,448)" d="m0 0h104v107l-109 1-3 3-1 2-1 12v16l1 17 4 10 4 1h50l13 2 12 6 9 8 7 10 6 12 5 17 2 13 1 12v114l-2 22-6 22-6 11-8 10-10 9-14 7-8 1-54 1h-77v-107l108-1 4-4 2-9v-27l-1-19-4-2-55-1-13-4-10-6-9-9-9-14-7-18-4-17-2-15v-111l3-21 4-15 5-13 7-11 9-10 11-7 9-3 7-1zm-3 13-22 1-16 4-1 3-5 2-6 7-8 16-5 17-2 16v109l4 25 6 18 8 15 8 10 7 6 5 2 6 1 62 1 5 2 1 10v56l-3 8-8 8-7 1-93 1-1 80 1 1h109l13-1 9-5 6-5 8-11 7-15 4-16 3-27v-100l-1-2-3-29h-2l-1-6-6-15-5-5-8-9-8-3-18-1-47-1-6-3-6-10-3-14-1-10v-22l2-14 4-8 5-4 10-2 94-1v-45l-1-35z" fill="#0C0406"/>
<path transform="translate(1270,448)" d="m0 0h107l2 1-1 96-1 10-113 1-3 13-1 20v28h118v100l-1 7-1 1-117-1v170l-1 1h-19l-50-1-1-201v-32l1-133 3-25 4-15 5-12 7-10 9-9 10-5 7-2 8-1zm13 13-37 1-16 3-7 3-5 4-6 10-6 15-2 10-1 14-1 320v40h45v-170l56 1h62l-1-80-4-1h-116l3-46 3-24 3-10 3-5 6-2 15-1 71-1 16-1v-79z" fill="#0B0406"/>
<path transform="translate(733,443)" d="m0 0h14l12 3 10 5 10 9 9 15 3 6 5 27 10 74 6 47 8 54 1 8v12l-2 14-1 3-1 10 1 2v10l2 7 2 6 1-4 1-12 5-5 1 1v20l-5 41-1 5h-2l-3-14-4-33-1-13-2-10-6-46-6-45-3-20-2-23-1-1-8-60-5-31-5-19-4-10-7-9-7-6-2-1v-2l-11-2h-13l-11 4-8 7-7 11-5 15-4 27-1 13-1 347h44v-266l6 3 1 1 2 31 2 32 1 7 1 1v171l-1 33-1 1h-68v-373l3-21 4-16 6-13 7-11 10-9 12-6z" fill="#0A0306"/>
<path transform="translate(1344,981)" d="m0 0h9l3 2 1 2 27 1 4 2h-25l-14 2-13 7-9 10-7 10-5 13-2 14v24l3 12 5 12 8 11 9 8 12 7 15 3h9l12-1-4 2h-3v2l-10 2-7-1-25-5-7-3-6-3-7-6-5-4-10-14-5-6-2-1-2-10-2-5-2 1-2 5-1 5-1 6h-2l-3-4v25l1 13h-45l1-26 1-65-29-1-1-1v-27l1-9h101l2 1v10l2-6v-5l10-5h6l3-2z" fill="#C23D47"/>
<path transform="translate(974,992)" d="m0 0h18l12 4 9 6 6 5 7 10 6 12 1 3 1 11v22l-3 14-4 11-6 9-8 8-8 5-13 4h-19l-11-4-11-8-8-10-7-14-3-13-1-6v-16l3-14 8-16 8-10 9-8 10-4z" fill="#F7F9F9"/>
<path transform="translate(165,995)" d="m0 0h10l4 3 8 36 6 31 1 2h3l7-25 9-44 2-2 38-1 3 2v115l-3 1h-20l-2-4-1-74-1-3h-2l-4 13-16 63-2 4-2 1h-13l-4-4-3-8-6-29-9-35-2-3-3 1-1 77-1 1h-22l-2-2-1-11v-72l1-31 1-1z" fill="#F6F7F7"/>
<path transform="translate(1481,993)" d="m0 0h16l13 4 11 7 8 9 6 11 4 17 1 16-2 16-4 12-3 7h-2v3h-2l-1 4-9 9-12 6-7 2h-16l-11-3-10-5-6-5-10-15-5-14-3-17v-10l2-11 3-9 3-6h2l2-5 9-11 9-7 10-4z" fill="#FAFBFB"/>
<path transform="translate(1360,993)" d="m0 0h17l12 3 8 5 11 10 4 7v3h2l3 9 2 16v23l-1 7-5 12-6 11-3 1-1 4-8 6-14 4-6 1h-13l-12-2-11-7-9-10-8-16-3-12-1-7v-12l2-14 5-13 6-10 6-7 8-7 10-4z" fill="#FAFBFB"/>
<path transform="translate(1781,995)" d="m0 0h14l2 2v115l-3 1h-20l-5-5-6-9-20-40-8-14v-2h-4v69h-23l-1-2v-100l1-13 8-1h17l5 5 16 33 8 17 7 12h2l1-11 1-54 1-1h7z" fill="#F9FAFA"/>
<path transform="translate(1057,996)" d="m0 0h26l5 5 9 20 8 16 11 23v2h2l1 4h2v-26l1-44h24l1 2v113l-3 2h-21l-5-4-11-21-11-23-12-21-4-1-1 70h-22l-1-1z" fill="#FAFBFB"/>
<path transform="translate(648,996)" d="m0 0h25l3 2 19 63 5 19 4 10 6 18-1 5h-21l-4-1-2-5-1-12-42 1-3 17h-26l2-9 6-19 2-4 3-12 15-49 6-18z" fill="#F7F8F8"/>
<path transform="translate(1860,992)" d="m0 0h16l13 4 8 6 7 7 7 14v7h-20l-4-3v-2l-4-2-5-4v-2h-13l-8 2-1 2-3 1-3 5h-2l-1 5-3 10-1 8v12l2 9v3h2l6 10 2 4 4 1v2h17l10-6 5-6v-7l-12-3-2-3v-11l2-3 34-1 1 1 1 13v47l-2 1h-9l-4-3-2-7v-5l-4 4-4 6-5 4-8 3-7 1h-10l-10-2-10-6-4-5-5-4-8-14-3-8-1-4-1-21 1-17 4-11h2l2-5 6-9 11-11 6-3h3v-2z" fill="#F8F9F9"/>
<path transform="translate(1854,988)" d="m0 0h29l10 3 10 6 7 7 7 12 4 14 2 18v61l-1 8-2 1-9 1-31 1-4 1h-20l-11-3-13-8-7-8-8-13-4-10-2-7-1-26 2-17 7-14 8-11 8-8 14-7zm6 4-7 2v2l-5 1-6 4-10 10-7 11v2h-2l-4 11-1 23 1 15 3 10 7 13 5 6 5 5 9 6 5 2 7 1h10l11-2 8-5 4-5 3-5 2-1 1 9 3 5 2 1h9l2-1v-47l-1-13-3-1-32 1-2 3v11l4 4 10 2v7l-6 7-9 5h-17v-2l-4-1-2-4-6-10h-2l-1-10-1-2v-12l3-16 2-4v-3l3-1 2-4 3-1 1-2 8-2h13l1 3 6 5h2l2 4 2 1h20v-7l-7-14-10-10-10-5-8-2z" fill="#7B232E"/>
<path transform="translate(5,981)" d="m0 0 3 3 4 1v5h2v2l5 2-2 4-2 2h6l1 2-4 2 1 3 5-1 9-9 1 3-3 1v2h-2l1 3 2-3h2l2-4 4-4 1 3-3 4 2 1v-2h3l1 4 2-2 1 2-1 2 4-1v8l-1 5 1 6h-3l1 5 6 1 2 3h-2v5l4 4-1 10 2 1-3 12-2 5 2 5v3h-2l-2 4v10l-2 3-6 1-2 5h-2l-3 9-4 5-6 4-5 2-2 4 7 3 9 2 4-2 2 5-5 9-3 1v2h-28l-2-3v-155z" fill="#EE3F47"/>
<path transform="translate(359,991)" d="m0 0h18l10 3 9 6 7 8 5 9 1 8-2 1h-13l-10-3-3-3v-3l-9-3h-12l-6 2-2 6 1 10 4 2 8 3 24 8 15 8 6 7 2 4v19l-3 11-4 8-4 4h-3l-1 3-11 5-7 2h-22l-10-3-11-7-7-8-6-15v-4l16-2h6l4 5 5 8 6 4 4 1h12l8-5 3-6v-7l-4-6-10-5-16-4-12-5-9-6-7-10-2-10v-8l3-10 6-9 10-8z" fill="#F8F9F9"/>
<path transform="translate(131,989)" d="m0 0h54l2 7 4 28 2 5 7 1 3-9 3-25 2-5 6-2h47l2 2 1 72 1 20v35h-42v-43h-2l-2 27-3 13h-2v2h-36l-3-2 1-5-3-17-1 7v16h-42v-115zm34 6-27 1-1 1-1 31v72l1 11 2 2h22l1-1 1-77h4l3 10 8 32 3 16 5 16 4 4h13l2-1 4-11 16-64 2-5h2l1 3 1 74 2 4h20l3-1v-115l-3-2-38 1-2 2-10 48-6 21h-3l-2-8-7-34-6-27-4-3z" fill="#4F0F1A"/>
<path transform="translate(864,991)" d="m0 0h12l13 3 9 6 7 8 7 12 2 6v7l-1 1h-23l-6-10-6-5-7-2-9 1-8 6-4 5-4 8-2 15 1 17 4 11 7 8 10 4 8-1 7-4 3-3 5-12 2-1h24v7l-4 11-7 11-8 8-12 6-8 2h-14l-12-3-11-7-5-4-9-14-3-8-3-14v-29l4-13 5-10 11-12 8-6 11-4z" fill="#F8F9F9"/>
<path transform="translate(1674,989)" d="m0 0h17l49 1 5 6 6 15 9 18 3-1 4-5 1-14-3-8v-11l1-1h16l20 1 1 5-1 5v117l-33-1-7-4-8-16-12-23-1-4-4-2-5-3v-20l4 1 14 25 12 25 6 11 3 3v2l3 1h23l-1-115-1-1-14-1v2l-7 1-1 54-1 11h-4l-8-14-11-23-12-25v-2l-4-2h-25v113l1 2 24 1v3h-21l-2 2h-12l-1-125-3 1v124h-15l-23-1-7-1v-3l7-2 27 1v-114h-2v-2l-24 1-2 87h-1l-1-93z" fill="#7C212D"/>
<path transform="translate(532,995)" d="m0 0h75l1 1-1 18-1 5-13 1h-37v23l44 1v20l-1 1h-40l-2-1v49h-25l-1-4v-111z" fill="#F7F8F9"/>
<path transform="translate(737,578)" d="m0 0h13l2 2 9 56 14 97 10 60 11 62 5 15 6 12 6 7 5 3 11 1v1l-6 1h10l8-1v6l-9 3-11 1-9-2-11-6-9-10-7-17-4-15-7-41-9-56-10-71-2-12-2 14h-1l-2-20-2-40-1-10-5-3v265l-1 1h-41v-1l40-1v-37z" fill="#0B0406"/>
<path transform="translate(648,989)" d="m0 0h32l3 8 14 45 12 36 8 29 1-2h6l1-47h1l1 54 72 1v-25l-47-1-1-90-1-1h-14l-9 1-1 48h-1l-1-38-1-10-2-2v-5l5-1 32 1 2 1v24l-1 58-1 6 49 1 1 1-1 36-1 1-91 1-36-1-2-3-2-10-33-1v9l1 4-1 1-41 2-1-3 14-43 13-38 9-31 5-12 3-3zm0 7-4 6-9 27-12 40-4 15-4 10-5 16v3h26l3-17 42-1 1 12 2 5 4 1h21l1-5-9-27-3-7-4-16-18-60-3-2z" fill="#4F0E18"/>
<path transform="translate(1218,995)" d="m0 0h84l1 1v18l-1 6-4 1h-25v91l-4 1h-17l-7-1v-91l-29-1-1-3v-19z" fill="#F7F8F8"/>
<path transform="translate(1049,989)" d="m0 0h43l3 12 6 10 6 13 1 8 3 2 2-35 2-10h30l8 1 1 1v85l-1 42-15 1h-30v-1h6l-14-29-5-10v-2h-2v-2l-7 1v17l-3 12 5 11v3h-38l-1-1 1-22 2-18v-15l-1-17v-39l-2-10zm8 7-1 116 1 1h22l1-70 4 1 13 23 18 37 6 8 2 1h21l3-2v-113l-1-2h-24l-1 44v26h-2l-1-4h-2l-2-6-9-19-8-16-9-20-5-5z" fill="#803741"/>
<path transform="translate(736,995)" d="m0 0h14l2 2v90h45l2 1 1 4v19l-1 2h-72v-117z" fill="#F8F9F9"/>
<path transform="translate(404,1045)" d="m0 0 4 1 7 8 5 10 4 15 3-1h36l1 1v15l-1 22-1 1-18 2h-16l-5-1-1-4-1-13v-10l1-9-5 15-4 6-6 7-18 10-9 3-10 1-12-1-14-5-10-7-3-2v-2h-2v-2l-5-1-4-4-3-14v-6h-2l-1 13h-1v-6h-2v2l-4-1-1 24-3 1h-20l-3-4v-23l1-1 7-1 1-3 10-2 8 1v-1l-18-1v-1l20-2 21-5 6-1h11l2 1v6h-2v2l-24 1 5 15 6 9 9 7 9 4 5 1h22l12-4 6-3 1-2 5-3 4-6 3-9 1-5v-19l-8-12 5 2-2-5z" fill="#7C222E"/>
<path transform="translate(1572,995)" d="m0 0h11l5 1v59l-1 31h2v2h45l1 6v17h-73l-1-55v-42l1-18z" fill="#FCFDFD"/>
<path transform="translate(1841,985)" d="m0 0 6 1 5 1h24v1l-22 1-10 3-10 6-8 8-10 16-3 7-2 17 1 26 5 15 7 12 8 10 13 8 11 3h20l4-1h17l-2 2-21 3-9 1-21-1-8-1-7 1-3-1-1 2-9-1-17-3-1-2h-65l-23-1 2-3h19l2 1v-3h-24v-1h22v-69l4 1h-3v20l5 2 4 3 8 16 12 22 1 5 6 2 1 1 31 1 2 1-1-7v-110l1-10h2l1 8-1 2h6l8-5 3-3 6-1v-2l9-3z" fill="#C23D47"/>
<path transform="translate(856,987)" d="m0 0h24l12 2 9 5 7 6 7 11 5 10 2 10v8l-5 3h-29l-5-4-5-12-4-3h-7l-8 7-4 5-2 10v17l3 13 4 6 4 2h8l7-5 3-12 6-1h35v8l-3 12-8 14-9 10-15 10-12 3h-15l-16-6v-2l-5-1-9-6-8-9-7-11-3-6-2-16v-17l3-21 5-13 8-12 9-8 10-5zm8 4-12 3-8 4-10 9-8 10-6 15-1 5v29l4 17 6 12 7 9 14 9 12 3h14l13-4 9-6 9-10 7-14 1-4v-7h-24l-2 1-5 12-7 6-7 2-8-1-8-5-6-8-3-9-1-17 2-15 6-11 8-7 6-2 10 1 6 4 4 5 4 7h23l1-1v-7l-4-10-9-13-8-7-11-4-6-1z" fill="#7C2430"/>
<path transform="translate(361,984)" d="m0 0h13l12 3 12 6 9 9 7 11 2 7v9l-2 4-2 1h-12l-3-1v2l-3 1-5-1 15 8 2 5 3 4-1 3-9-4-13-6-13-4-16-6-5-5-1-8 3-7 6-2h12l9 4 3 5 10 3h15l-3-10-7-11-8-7-9-4-5-1h-18l-13 5-10 8-6 10-2 8v8l2 10 7 10 10 6 16 6 10 2 10 5 4 5 1 2v7l-5 8-7 4h-12l-8-3-6-7-4-8 1-2h2v-6l-2-1h4v-2l-6-2-13-10-6-7-5-12-1-5v-10l3-10 7-11 12-10 10-4z" fill="#4E0D18"/>
<path transform="translate(1361,1017)" d="m0 0h15l10 5v2h2l5 10 2 10v19l-3 14-6 9-7 5-3 1h-14l-8-5-5-6-4-8-2-8v-18l3-14 3-6h2v-3l4-4 6-1z" fill="#A63B45"/>
<path transform="translate(1488,1016)" d="m0 0 10 1 5 2 7 8 4 9 2 16-1 15-4 11-4 6-7 6-4 2h-13l-8-4-6-7-4-9-1-6v-21l3-13h2l2-5 6-7 6-3z" fill="#A73B45"/>
<path transform="translate(977,1017)" d="m0 0h15l7 3 3 4v2h2l3 6 2 12v26l-7 14-9 7-3 1h-13l-8-5-6-7-4-11v-27l2-9h2l2-6 6-8z" fill="#C33D47"/>
<path transform="translate(739,614)" d="m0 0 6 3 1 1 2 31 2 32 1 7 1 1v171l-1 33h-3l-2-4-5-1-1-2-1-54z" fill="#070305"/>
<path transform="translate(1657,996)" d="m0 0h24l1 2v113h-25l-1-1v-113z" fill="#FAFBFB"/>
<path transform="translate(1854,988)" d="m0 0h29l10 3 10 6 7 7 7 12 4 14 2 18v61l-1 8-2 1-9 1-31 1-4 1h-20l-11-3-13-8-7-8-8-13-4-10-2-7-1-26 2-17 7-14 8-11 8-8 14-7zm6 4-7 2v2l-5 1-6 4-10 10-7 11v2h-2l-4 11-1 23 1 15 3 10 7 13 5 6 5 5 9 6 5 2 7 1h10l11-2 8-5 4-5 3-5 2-1 1 9 3 5 2 1h9l2-1v-47l-1-20v-9l-2-5-1-8-7-14-10-10-10-5-8-2z" fill="#781F2A"/>
<path transform="translate(1209,990)" d="m0 0h101l2 1-2 14-1 14-2 6-3 2-8 1h-17v46l1 32 1 13h-45l1-26 1-65-29-1-1-1v-27zm9 5-3 3v19l1 3 29 1v91l7 1h17l4-1v-91h25l4-1 1-6v-18l-1-1z" fill="#4C0C17"/>
<path transform="translate(1363,987)" d="m0 0h20l9 2 10 6 11 10 7 10 7 13 3 16v17l-2 14-7 14-8 11-7 8-10 7-10 5-12 2h-9l-15-3-13-8-10-9-7-10-5-12-3-12v-24l3-18 6-12 10-13 8-7 10-5zm-3 6-10 3-6 3-9 8-8 11-6 13-2 9-1 9v12l3 16 5 12 7 11 7 7 10 6 12 2h13l13-3 8-3 8-6v-3l4-2 7-15 3-7 1-7v-23l-2-16-3-9h-2l-1-5-6-8-10-9-12-5-6-1z" fill="#7A242F"/>
<path transform="translate(1480,987)" d="m0 0h13l16 2 8 4 14 12 7 8 6 12 2 10h3l1 3v21l-2 10-9 23-10 13-9 8-14 7-9 2h-16l-12-4-14-8-12-12-9-16-2-9-1-29 2-13 7-16 9-13 9-8 10-5zm1 6-12 4-9 6-9 10-4 6v2h-2l-3 6-4 13-1 7v10l3 17 5 14 8 12 5 5 8 6 11 4 5 1h16l12-4 9-6 8-8v-3h2v-3h2l6-15 2-10 1-18-3-18-4-11-7-11-8-7-10-6-11-3z" fill="#7C2530"/>
<path transform="translate(718,989)" d="m0 0h5l-2 1 2 6 1 1 1 10 1-10h1v115h-1l-1-7-4 1-3-1-1 3-3-7-6-23-12-36-7-22v-3l7-2 2-2 7-3 1-6 2-1 2-7 3-2 2 1 1-2h1l2-1z" fill="#C33D47"/>
<path transform="translate(974,987)" d="m0 0h16l14 2 10 6 10 9 8 9 5 8 5 16 3 6v14l-2 7-3 7-5 18-7 11-12 12-13 8-7 3-8 1h-12l-13-5-12-7-9-9-7-11-6-11-3-10 1-35 4-13 7-13 7-9 8-7 10-5zm0 5-12 4-9 7-8 9-8 14-4 12-1 7v16l3 16 6 14 9 12 10 8 9 4 4 1h19l13-4 9-6 9-9 6-11 4-14 1-7v-22l-1-11-5-12-7-10-5-6-10-7-10-4-4-1z" fill="#6F1823"/>
<path transform="translate(648,989)" d="m0 0h32l3 8 14 45 12 36 6 23v2h-5l-6-14v-2h-2l-5-13-4-16-17-57v-3l-3-1-25-1-2 4-5 14-11 35-8 26-2 9-4 10-6 19h26l1-13 2-4h4 16l14 1 2 2 2 5-1 4-1-3-33-1v9l1 4-1 1-41 2-1-3 14-43 13-38 9-31 5-12 3-3z" fill="#66222B"/>
<path transform="translate(526,989)" d="m0 0h86l4 2v2h-2l-2 10-3 11h-1l-1-18-75-1v118h25v-49h42l2-21h-2v-2l2-1h6v15l-2 15-4 1h-36l-1 47-13 1h-26l-2-1 1-88 1-40z" fill="#20060C"/>
<path transform="translate(1046,986)" d="m0 0 52 1h34l14 1 4 2-35-1-2 24-1 19-1 2-4-2-2-10-8-17-4-6-1-10h-43l3 18v46l1 16v10l-2 17-2 22h-1v-22l-1-8-4-1-7 3-2 1 3-12 4-14 2-3 1-10v-9l-6-14-3-10-10-13-8-8 3-2 3-1 13-1 3 1 1-4 2-4z" fill="#C33D47"/>
<path transform="translate(1594,988)" d="m0 0 3 2v36l-1 54h30l4 4 6 2-1 3v-2h-46l-2-1v-31l1-59h-16l-10 1-1 5v110h75l1 3-50 1-31 1v-2h-2l2-21 1-11-2-20v-27l1-10v-22l-1-13 1-2z" fill="#20060C"/>
<path transform="translate(1652,989)" d="m0 0h22v1l-21 1 1 4 1 51h1l1 64 25 1-1-54 1-59h1v114h-29l-5 2v1l7 1v1l-19 1-35 1h-45l-3-2v-2h2v2l7-1 28-1 43-1 3 1-1-2h-71l-4-1-1-6v-104l1-5h1v114h73l-1-23h-45v-1h46v-1l-9-3v-2l-30-1v-1h39l9 1 1 30 1-4 1-32 4-84z" fill="#833C46"/>
<path transform="translate(846,989)" d="m0 0h29l13 3 8 4 3 3-1 2-9-6-13-3h-12l-12 3-8 4-10 9-8 11-5 13-1 5v29l4 17 6 12 6 8 14 9 12 3h14l13-4 9-6 8-9 7-14 2-11-23-1v-1l14-1 5-2h12v7l-3 12-8 14-9 10-15 10-12 3h-15l-16-6v-2l-5-1-9-6-8-9-7-11-3-6-2-16v-17l3-21 5-13 8-12 9-8z" fill="#4D0D18"/>
<path transform="translate(336,1069)" d="m0 0h11l2 1v6h-2v2l-24 1 5 15 6 9 9 7 9 4 5 1h22l18-6-3 3-10 5-16 3-3 3h-7l-14-5-10-7-3-2v-2h-2v-2l-5-1-4-4-3-14v-6h-2l-1 13h-1v-6h-2v2l-4-1-1 24-3 1h-20l-3-4v-23l1-1 7-1 1-3 10-2 8 1v-1l-18-1v-1l20-2 21-5z" fill="#7A1B27"/>
<path transform="translate(1146,992)" d="m0 0h7v126l-15 1h-30v-1h6l-14-29-5-10-3-8-4-5-4 1-3 1-1 3v-15l1-12 5 2 12 21 18 37 5 7 2 1h21l2-1z" fill="#500D18"/>
<path transform="translate(1553,988)" d="m0 0h41v1h-38v8l1 7v22l-1 10v27l2 21-3 33-2 1-1-24-5-5-6 3-4 3 2-5 9-24 1-7v-24h-3l-5-15-7-11-5-5-12-10 2-1 1-4 16 1 3 3h5l4-4z" fill="#C13D47"/>
<path transform="translate(131,990)" d="m0 0h15v2l11 1h18l9-1 1 1 1 20 4 26v3l9-3 4-4 2-9h2v-8l4-20 1-2 3 1-2 5-8 40-7 25-4 1-2-3-7-36-7-31-3-2-37 1-1 31v72l1 11 1 1 21 1v1l-21 1-2 1h-7v-115z" fill="#490D17"/>
<path transform="translate(131,989)" d="m0 0h54l2 7 4 28 2 5 7 1 3-9 3-25 2-5 6-2h47l2 2 1 72 1 20v35h-21v-1l16-1-3-3v-51l1-10 3-1v-59h-6l-7 3-6 1h-30l-5 30h-2l-1 9-3 4h-2l-1 2-8 1-2-7-3-22-1-20-9 1h-18l-12-1 1-3h-15z" fill="#7A1B27"/>
<path transform="translate(255,991)" d="m0 0h6l1 1v59l-3 1-1 10v53l6 1v1l-20 1h-21v-43h-3l-1 3-4 1-2 9-1-4 13-50 2-3 3 1 1 3 1 74 1 3h23l-1-115-7-2 3-2z" fill="#4C0C17"/>
<path transform="translate(761,463)" d="m0 0 7 6 7 11 6 21 3 16 7 49 4 30 1 1 4 40-1 5h-2l-1 3-2-5-2-3-1-1-3-24-2-6v-6l-3-13-3-25-1-18-1-20-3-7-2-9 1-10-3-7-3-11-4-6-2-7z" fill="#C03D47"/>
<path transform="translate(614,993)" d="m0 0 1 4-2 13-1 14-4 24h-1v-8l-8 1v2h2v14h-1v-13h-41l-3-1v-23l50-1 1-18h1l1 8z" fill="#7C2732"/>
<path transform="translate(1369,1025)" d="m0 0h6l5 11 2 12v14l-3 5-6 7-5 5-3 2-5-3-4-5-4-3v-3h-2l-2-10v-10l4-10 6-2v-3l4-1v-2z" fill="#C33D47"/>
<path transform="translate(1115,989)" d="m0 0h30l8 1 1 1v85h-1v-84h-7v4h-24v44l-1 26h-2l-1-4h-2l-12-25-8-16-9-20-3-5 3-3 4-1 1 6 4 4 9 17 2 5 1 8 3 2 2-35z" fill="#791B27"/>
<path transform="translate(812,1076)" d="m0 0h1l3 9 6 10 8 10 8 6 7 3v2l10 3 6 2h15l14-4 11-8 2 1-8 6-3 3-10 3-4 3-3 1h-13l-5-2-16-1-13 2-1 2h-7v-1l-5-1v2h-6l-1-3-2 1-4-2v-4l-62 1-11 2h-22l-4-2v-2h26l77-1 1-30 1-6h1l1 13 2 1z" fill="#C03D47"/>
<path transform="translate(1731,1043)" d="m0 0 4 1h-3v20l5 2 4 3 8 16 12 22 1 5 6 2 1 1 31 1v2l-28 1h-39l-23-1 2-3h19l2 1v-3h-24v-1h22z" fill="#7D2531"/>
<path transform="translate(737,578)" d="m0 0h13l2 2 5 31v5l-3-1-2-6v26l2 25v14h-1l-2 14h-1l-2-20-2-40-1-10-5-3v265l-1 1h-41v-1l40-1v-37z" fill="#3A0F17"/>
<path transform="translate(643,991)" d="m0 0 1 2 2 1-7 18-10 35-4 10-5 21 1 3-5 13-6 19h26l1-13 2-4h4 16l14 1 2 2 2 5-1 4-1-3-33-1v9l1 4-1 1-41 2-1-3 14-43 13-38 9-31 5-12z" fill="#791C28"/>
<path transform="translate(977,1017)" d="m0 0h15l7 3 3 4v2h2l3 6 2 12v26l-7 14-9 7-3 1h-13l-8-5-6-7-4-11v-27l2-9h2l2-6 6-8zm7 5-8 4-7 8-2 6-1 8v20l2 10 2 4 9 2h9l8-2 3-4 3-5 2-5 1-15-3-16-4-8-7-6z" fill="#79232E"/>
<path transform="translate(360,1013)" d="m0 0h12l9 4 3 5 4 2v2l5 3 20 2 1-15 2 4v9l-2 4-2 1h-12l-3-1v2l-3 1-5-1 15 8 2 5 3 4-1 3-9-4-13-6-13-4-16-6-5-5-1-8 3-7z" fill="#7D212C"/>
<path transform="translate(1205,510)" d="m0 0h1l1 7-1 2h2l1 8v8l-2 16 1 5-1 14-1 5v23l1 9v19l1 6 1 21 1 3-1 3v26l1 5h-2v37l-1 13v7l-1 5-1 18v32l-1 33h-1v-314z" fill="#EE3F46"/>
<path transform="translate(1209,990)" d="m0 0h101l2 1-2 14-1 2-2 15-3 3-7 1h-20l-1 7-1 47-2 19h-1v-74l1-4 29-1v-24h-84l-4 1v2h-3l-1 19-1 8h-1v-27z" fill="#5D111D"/>
<path transform="translate(952,543)" d="m0 0h1v211h-1l-1-38-2 7h-1l-2-13v-14l-1-7 1-7v-7l2-5-1-14v-27l-1-7v-26l-1-8v-22l1-9 3-5 2-1z" fill="#BF3D47"/>
<path transform="translate(1488,1016)" d="m0 0 10 1 5 2 7 8 4 9 2 16-1 15-4 11-4 6-7 6-4 2h-13l-8-4-6-7-4-9-1-6v-21l3-13h2l2-5 6-7 6-3zm2 6-10 5-6 8-3 9-1 13 2 12 1 3-1 5 3 5 11 2h12l6-3 2-2 5-13 1-16-2-18-5-5-6-4z" fill="#7E2934"/>
<path transform="translate(924,1065)" d="m0 0 2 2 5 17 10 16 9 10 3 3-10 1-6-2v2l-13-1-12 1-5 1v2l-8 4-10 2-2 1h-7l2-3 12-3 1-3 7-5 7-9 7-10 4-9 3-15z" fill="#C23D47"/>
<path transform="translate(1868,1023)" d="m0 0 7 1 8 9 4 4 1 4-1 1-17 2-3 3h2l1 31 4 2 7-6h2l-2 4-3 3-7 2-7-1-5-5-5-10-2-7v-19l5-10 8-7z" fill="#A83C46"/>
<path transform="translate(1711,984)" d="m0 0h18l6 2 13 1h33l20 1 1 2h-36v11l3 10-1 12-6 7-3-1-8-16-6-14-3-6-2-2-87-2 3-2 49-1z" fill="#C23D47"/>
<path transform="translate(1490,1022)" d="m0 0 6 1 3 4 4 15-1 13-3 10-8 7-7-1v-2h-2v-2h-4l-3-14v-11l1-2h2l1-5-1-2h2l2-6 4-2 1-2z" fill="#C33D47"/>
<path transform="translate(1805,1079)" d="m0 0 4 2 1 5h2v2h3l3 5v3h2l3 6 8 9 10 6 12 4 10 1h13v-2l4-1h17l-2 2-21 3-9 1-21-1-8-1-7 1-3-1-1 2-9-1-17-3-1-3 4-1 1-23 1-14z" fill="#C33D47"/>
<path transform="translate(366,1064)" d="m0 0 7 1 10 5 4 5 1 2v7l-5 8-7 4h-12l-8-3-6-7-4-8 1-2h2v-6l-2-1h4v-2l-2-1 2-1h9z" fill="#7E232E"/>
<path transform="translate(840,675)" d="m0 0h1l-1 12-2 10-4 34-3 17h-1l-1-13-4 4-1 14-3 3-3-13-1-1v-11l-1-2 1-12h2l1-14 2-2 1 1 3-14h2l4-10 4-2 3 1z" fill="#26070D"/>
<path transform="translate(856,987)" d="m0 0h24l12 2 9 5 7 6 7 11 5 10 2 10v8l-5 3h-29l-5-4-5-12-4-3v-2h-14l-8 7-2 1 2-4 8-7 6-2 10 1 6 4 5 6 3 6h23v-7l-4-10-9-13-4-6-8-4-13-3-25-1v-1z" fill="#7B202C"/>
<path transform="translate(1459,986)" d="m0 0h41l9 2-4 1-12-1h-13l-12 2-10 5-9 8-9 14-6 14-2 13 1 29 2 11-11 3-7 11h-2l-2 4-2 1 2-4 7-10 7-14 2-14v-17l-3-16-7-14 4-2 3-3 4-1v-2l9-6 3-3h2v-2l9-6h3v-2z" fill="#C13D47"/>
<path transform="translate(1048,988)" d="m0 0h44v1h-43l3 18v46l1 16v10l-2 17-2 22h-1v-22l-1-8-4-1-7 3-2 1 3-12 4-14 2-3 1-10v-9l-6-14-1-8 3 4h6l1-16v-19z" fill="#A83C46"/>
<path transform="translate(1361,1017)" d="m0 0h15l10 5v2h2l5 10 2 10v19l-3 14-6 9-7 5-3 1h-14l-8-5-5-6-1-4 4 2 3 2 6 1h18l5-6 3-9 1-5-1-22-3-11-4-2-4-4h-9l-6 3-5 3h-2l-2 4-5 6h-1v-6l3-6h2v-3l4-4 6-1z" fill="#7B2732"/>
<path transform="translate(1029,1011)" d="m0 0 5 5 3 5 5 16 3 6v14l-2 7-3 7-5 18-7 11-12 12-13 8-7 3-8 1h-12l-13-5 3-1 5 1h10l16-2 10-2 5-4 4-6 5-5 7-14 4-14 1-7v-22l-1-15-3-11h2z" fill="#7A222E"/>
<path transform="translate(725,1058)" d="m0 0h1l1 54h78l1 4-22 1h-106l-1-2-1-11-3-6-14-1h-19l-1 2v-4h42l3 17h25l-1-8-5-14 1-3 6 14v2h5l2 4 1-2h6z" fill="#1C060C"/>
<path transform="translate(720,991)" d="m0 0 2 4 2 2 1 10 1-10h1v115h-1l-1-7-4 1-3-1-1 3-1-2v-20l2-33 1-51z" fill="#7F2C36"/>
<path transform="translate(1089,1075)" d="m0 0h4v2h2l8 16 11 23v2l7 1v1h-33l-3-9-3-6 3-12 1-17z" fill="#A83C46"/>
<path transform="translate(601,1040)" d="m0 0h6v15l-2 15-4 1h-36l-1 47-13 1h-26v-1l6-2 8-2 5 1 10-1 6 2-2-4h-1v-48h42l2-21h-2v-2z" fill="#50111C"/>
<path transform="translate(279,1078)" d="m0 0h29v3l-9-1-10 2-1 3-7 1v23l2 3h23v-27l2 3 3 1v-2h2l1 6v20l-2 5-29 1-10-1-2-4v-35z" fill="#4F0D18"/>
<path transform="translate(996,884)" d="m0 0 9 1 4 1h77l6 2h11l9 3 3 2-54 1h-77l1-4v3l8-1-1-4z" fill="#16090D"/>
<path transform="translate(1698,996)" d="m0 0h1l2 15-1 9 1 25 3 14v5h2v-57l1-10h1v113l1 2 24 1v3h-21l-2 2h-12z" fill="#80202C"/>
<path transform="translate(979,1024)" d="m0 0 2 1-6 5-5 10v18l3 9 6 4 2 1h6l7-6 3-13 1-13-1-8h-2l-3-7 4 2 4 5 3 9 2 13-1 14-2 5-3 5-5 5-6 1h-9l-9-2-3-5v-8l-1-4v-17l2-11 4-7z" fill="#A83C46"/>
<path transform="translate(658,1029)" d="m0 0 4 1 4 10 8 30 1 5h-26l-3-1 1-8 8-29z" fill="#5A1820"/>
<path transform="translate(1920,1051)" d="m0 0 2 1v65h-16l-9-1h-8l-20 3h-13l-11-4-6-5v-2l-3-1 1-2 11 7 5 2 7 1h10l11-2 8-5 7-10h2l3 12 3 2h11l1-54 3-6z" fill="#480B16"/>
<path transform="translate(947,1008)" d="m0 0v3l-7 11-5 12-2 11v16l3 16 6 14 9 12 11 8 11 4h19l13-4 9-6 8-8v3l-4 5-4 4-5 6-5 2-11 2-14 1h-10l-10-3-10-7-7-7-7-11-6-11-1-3v-20l1-2 2-20 2-9 8-13 3-5z" fill="#54161E"/>
<path transform="translate(1043,1086)" d="m0 0 4 1 1 1 1 9-1 21 28 1v1h-27l-3-3v-3l-13-2v2l-20 7-11 1-7 3-6 1h-8l-8-2 3-1h12l10-2 12-6 9-7 9-9 5-8 4-3z" fill="#C23D47"/>
<path transform="translate(142,988)" d="m0 0h71l1 2-6 1-5 35-3 5-7-1-2-2-3-16-3-22-43-1z" fill="#C03D47"/>
<path transform="translate(885,650)" d="m0 0h1l1 14 1 8v11l-2 17-4 10-2 11v9l-1 5-1 16-6 21-5 4-2 2 1-11 9-53z" fill="#1B0A0F"/>
<path transform="translate(1732,1044)" d="m0 0 4 1 14 25 12 25 6 11 3 3v2l3 1h23v-48h1l1 46 2 2v4h-32l-7-4-8-16-12-23-1-4-4-2-5-3z" fill="#4A0D17"/>
<path transform="translate(1555,991)" d="m0 0h1l3 14 1 7 1 54v46h75l1 3-50 1-31 1v-2h-2l2-21 1-11-2-20v-27l1-10v-22z" fill="#791B27"/>
<path transform="translate(288,1084)" d="m0 0h16l2 2v26l-3 1h-20l-3-4v-23l1-1z" fill="#F0F1F1"/>
<path transform="translate(432,1084)" d="m0 0h23l2 3v23l-2 2-5 1h-16l-3-3v-18z" fill="#F2F3F4"/>
<path transform="translate(1555,997)" d="m0 0h1l1 7v22l-1 10v27l2 21-3 33-2 1-1-24-5-5-6 3-4 3 2-5 9-24 1-7v-24h-3l-4-12 1-3 2 4 6 1 1 2 2-7z" fill="#A83C46"/>
<path transform="translate(1202,881)" d="m0 0h45l1 6 7 1v4l-2 1 5 1v1h-19l-50-1 3-3 10-6z" fill="#17090E"/>
<path transform="translate(319,1023)" d="m0 0h1l3 16 6 12 8 7 10 7 4 2v2l-26 2-9-2-4-3 1-19 2-10 1-10h3z" fill="#C33D47"/>
<path transform="translate(1439,1032)" d="m0 0 1 4-2 11v10l3 17 5 14 8 12 5 5 9 6 9 3 5 1h16l12-4 9-6 7-7 1 2-2 6-6 5-7 4-10 3-8 1h-17l-16-5-8-6-10-10-9-16-1-3v-22l2-7 2-12z" fill="#5F1821"/>
<path transform="translate(739,880)" d="m0 0h1l1 8h5l2 5 2 1h-68l1-2 7-1 2-5h2l1-5z" fill="#15090D"/>
<path transform="translate(1092,987)" d="m0 0h40l14 1 4 2-35-1-2 24-1 19-1 2-4-2-2-10-8-17-4-6z" fill="#C13D47"/>
<path transform="translate(526,989)" d="m0 0h86l4 2v2h-2l-2 10-3 11h-1l-1-18-8-1-68-1-4-2-1 45-1 81h-2l1-88 1-40z" fill="#5E131E"/>
<path transform="translate(1801 1e3)" d="m0 0h1l1 43 1 4 3 1 1-1 2-15 3-8 1 3-2 7-1 16 1 22 5 15 7 12 8 10 13 8 11 3 20 1-4 2h-14l-12-3-10-5-8-6-8-10v-3h-2l-3-6v-2h-3v-2h-2l-2-5h-3l-2 28-2 1z" fill="#A83C46"/>
<path transform="translate(846,989)" d="m0 0h29l13 3 8 4 3 3-1 2-9-6-13-3h-12l-12 3-8 4-10 9-8 11-5 13-1 5-1 26h-1l-1-15-2-4h-3l1-12 4-14 7-12 7-8 10-7z" fill="#4B0D17"/>
<path transform="translate(1081,1044)" d="m0 0 5 2 12 21 16 33v6h2v7l4 3 26 1v1l-8 1h-30v-1h6l-14-29-5-10-3-8-4-5-4 1-3 1-1 3v-15z" fill="#5C1720"/>
<path transform="translate(1308,1007)" d="m0 0h1v12l-2 6-3 2-8 1h-17v46l1 32 1 13h-45l1-3v2l9-1 2-3 25-2-1-13 2-19 1-47 2-7 20-1 7-1 2-2z" fill="#5C1820"/>
<path transform="translate(642,1104)" d="m0 0h33l2 4 2 9 23 1v1l-44 1h-52v-1l36-2-1-4v-7z" fill="#B23C46"/>
<path transform="translate(986,985)" d="m0 0 11 2v1h-23l-14 3-11 7-8 9-8 14-4 10-2 6-2 2v-2h-2l-1-15-1-7 4-8 3-1 2-4 8-6 3-3 5-3 4-3h13l6-1z" fill="#C23D47"/>
<path transform="translate(1594,988)" d="m0 0 3 2v36l-1 54h30l4 4 6 2-1 3v-2h-46l-2-1v-31l1-57h1v75l1 3h2v-2h3l-1-49v-34h-38v-2z" fill="#642B32"/>
<path transform="translate(747,992)" d="m0 0h12l-1 70-1 12-3 6v5l36 1v1h-38l-1-90-1-1h-23l3-2z" fill="#20060C"/>
<path transform="translate(1795,991)" d="m0 0h8l-1 9v117l-2-1-1-5-1-1-2-113-1-1h-14l-8 1-2 2-2-2 1-5z" fill="#7C1C28"/>
<path transform="translate(684 1e3)" d="m0 0 2 3 11 35 12 36 6 23v2h-5l-6-14v-2h-2l-5-13-4-16-2-12-3-12-1-16-3-10z" fill="#781C28"/>
<path transform="translate(1859,991)" d="m0 0h18l13 4 11 8 5 7 2 1-2-6 5 1 6 10 4 14 2 18v61h-1l-1-57-3 3-1 3-1 47h-1l-1-40-1-20v-9l-2-5-1-8-7-14-9-9-10-5-8-2h-16l-10 2 4-3z" fill="#5C1D27"/>
<path transform="translate(1335 1e3)" d="m0 0 3 1-9 11-7 15-2 9-1 9v12l3 16 5 12 7 11 9 8 12 6 5 1h16l15-3-1 2-9 3-6 1h-18l-17-5-9-7-8-9-7-14-3-20 2-9 3-16 3-12 3-7 8-11z" fill="#56141D"/>
<path transform="translate(582,1029)" d="m0 0h9l9 3 4 2v5l-5 2v2h2v14h-1v-13h-41l-2-4 2-5 8-4z" fill="#A83C46"/>
<path transform="translate(1428,1061)" d="m0 0h1l-1 14-7 14-8 11-7 8-10 7-10 5-12 2h-9l-15-3-8-5 2-1 13 4h18l12-3-5 1-6 1h-16l-5-1v-1h20l13-3 8-3 7-5 1-3 4-4 7-16 2-3 2-4h7z" fill="#7B2933"/>
<path transform="translate(133,1015)" d="m0 0 3 1 1 84 1 11 1 1 21 1v1l-21 1-2 1h-7v-53l2-47z" fill="#1F060C"/>
<path transform="translate(1740,1071)" d="m0 0 4 4 17 32 2 7-5 2h-18z" fill="#C33D47"/>
<path transform="translate(262,991)" d="m0 0h1l1 72 1 20v35h-21v-1l16-1-3-3v-51l1-10 3-1z" fill="#7C1C28"/>
<path transform="translate(422,1081)" d="m0 0h1l-1 10v10l1 17h5v2l-3 2-9 1h-10l-8-2-9 1-14 3h-8l-6-1v-1h10l12-2 10-4 14-8 8-10 4-10z" fill="#C23D47"/>
<path transform="translate(255,991)" d="m0 0h6l1 1v59l-3 1-1 10v53l6 1v1l-30 1 2-3 15-1 4-2v-115l-7-2 3-2z" fill="#4B0B16"/>
<path transform="translate(900,599)" d="m0 0h2l2 3 1 11-1 4-3 53-2 7-1 10h-1l-2-17-1 6h-1v-14l4-38h-2l1-4 2-6z" fill="#1E060C"/>
<path transform="translate(1146,992)" d="m0 0h7l-1 11-1 5-1 24v69l-2 13-4-1 2-2z" fill="#1F060C"/>
<path transform="translate(910,587)" d="m0 0h1v156h-1l-2-74-1-1-1-9v-56l1-11z" fill="#2A0D13"/>
<path transform="translate(361,984)" d="m0 0h13l12 3 12 6 9 9 7 11v16l-1 2h-14l-7-2-7-4 4-1 5 1h16l-1-10-6-9-9-9-8-4-7-2-9-1v-2h-9v-2h-5v-1z" fill="#4F0D18"/>
<path transform="translate(828,708)" d="m0 0 4 1 2 3v19l-3 17h-1l-1-13-4 4-1 14-3 3-3-13-1-1v-11l-1-2 1-12h2v-5l2 1v21l1-1 2-18 1-5z" fill="#190A0E"/>
<path transform="translate(813,1043)" d="m0 0 3 1 2 6 1 13 5 20 6 16 4 6v2l1 2-4-2-8-9-7-11-3-6-2-16v-17z" fill="#500E19"/>
<path transform="translate(129,1074)" d="m0 0h1v42l41-1v-15l1-10 2 3 3 17-1 5 2 1h29l7 1v-2h2l1-10 2-12 2-18h2v43h-60l-34-1z" fill="#751A26"/>
<path transform="translate(1258,724)" d="m0 0h1v93l-1 18-3-1-1-17v-72l1-16z" fill="#14090D"/>
<path transform="translate(227,1031)" d="m0 0 3 1 1 3v35l-1-2-7 1-3 9-5 1-2 9-1-4 13-50z" fill="#1F060B"/>
<path transform="translate(1283,981)" d="m0 0 13 2 3 2v2l9 1 2 2h-101v-1l25-1 8-3h13l11-1z" fill="#BD3D47"/>
<path transform="translate(803,877)" d="m0 0 3 3 7 9 5 3 11 1v1l-6 1h10l8-1v6l-9 3-11 1-6-1v-2l-9-6-9-10-2-5z" fill="#180A0E"/>
<path transform="translate(1702,992)" d="m0 0 9 2-3 3-1 10-1 57h-2l-4-19-1-28 1-8-1-5v-11z" fill="#5C1921"/>
<path transform="translate(638,1096)" d="m0 0 2 1 3-1h16l14 1 2 2 2 5-1 4-1-3-33-1v9l1 4-1 1-21 1h-13l3-3h29l-3-5v-11z" fill="#7B1E29"/>
<path transform="translate(1854,988)" d="m0 0h29l10 3 10 6 7 7-1 2h-2l1 5-3-1-6-8-11-7-11-3h-18l-7 2 1 2-10 5-5 2-4 1 1-4 3-3v-3l11-5z" fill="#7B1F2A"/>
<path transform="translate(639,996)" d="m0 0 1 2-5 13-7 25-14 41h-1l-2-13v-8l2-7 6-9 8-17 6-15z" fill="#A83C46"/>
<path transform="translate(318,1092)" d="m0 0h1l2 10 5 2 3 1v2h2v2l4 2 11 7 7 2v1h-10l-9 3h-11l-5-3-2-6h2l-1-3 1-2z" fill="#C23D47"/>
<path transform="translate(331,1009)" d="m0 0 1 2-3 7-1 5v8l2 10 7 10 10 6 16 6 3 2-8 1h-11l-15-11-6-7-3-6-1-7v-9z" fill="#23070D"/>
<path transform="translate(1920,1051)" d="m0 0 2 1v65h-7v-1h6l-1-3-5-1 1-54 3-6z" fill="#4D0C17"/>
<path transform="translate(214,989)" d="m0 0h47v3h-6l-7 3-6 1h-30l-4 22h-1v-21l1-6z" fill="#450B15"/>
<path transform="translate(1659,990)" d="m0 0h15l15 1 2 1v6l-8 2v-2h-2v-2l-24 1-2 87h-1l-1-93z" fill="#4F141C"/>
<path transform="translate(1080,1043)" d="m0 0 5 1-2 1-2-1v24l4-3 4 1 5 6 1 5h-2v-2l-7 1v17l-3 12 3 6-1 2-6-1v-58z" fill="#81353F"/>
<path transform="translate(1694,995)" d="m0 0h3v120l-2-1-1-3z" fill="#DB3C47"/>
<path transform="translate(1337,995)" d="m0 0h3l-2 4-4 6-2 4-8 11-4 12-3 19-3 10 2 19-2-3-2-9v-24l3-18 6-12 10-13z" fill="#7C1C28"/>
<path transform="translate(718,1010)" d="m0 0h1v43l-2 33v20l-2-2-7-26-3-11h2l1-3h2v-2l6-2 1-15z" fill="#A83C46"/>
<path transform="translate(856,987)" d="m0 0h24l12 2 9 5 7 6 7 11v11l1 11-2-4-5-13-9-13-4-6-8-4-13-3-25-1v-1z" fill="#58111B"/>
<path transform="translate(1867,1049)" d="m0 0 2 3 1 26 4 2 7-6h2l-2 4-3 3-7 2-7-1-5-5-1-2v-18l4-4h2v-2z" fill="#C13D47"/>
<path transform="translate(807,1081)" d="m0 0h1l-1 36-1 1-91 1-36-1v-1l105-1 21-1v-3h-6v-24l-2-1h4l1 4 4-1z" fill="#7A2631"/>
<path transform="translate(1209,1026)" d="m0 0h22l8 1 2 15 3 8v30l-3 13-2 5-1 14h-1v-19l1-65-29-1z" fill="#7C1C28"/>
<path transform="translate(456,1079)" d="m0 0h8v15l-1 22-14-1-10 1h-7v-4h18l6-2v-23l-1-2-19-1v-1l15-1h3v-2z" fill="#2A080E"/>
<path transform="translate(885,650)" d="m0 0h1l1 14 1 8v11l-2 17-3 1-4 14-3 5h-1l1-13z" fill="#2B090F"/>
<path transform="translate(1764,989)" d="m0 0 2 1v11l3 10-1 12-6 7-3-1-8-16-1-4 5 2 5-5 3-10z" fill="#A83C46"/>
<path transform="translate(164,1033)" d="m0 0 4 2 3 10 7 27v2h-5l-3-5-2-6-2 1-3-3v-13l1-5h-2v-8z" fill="#21060C"/>
<path transform="translate(674,990)" d="m0 0h7l3 11 3 14 1 3 1 16 4 15v5l-2-3-16-53-1-2-20-1v-1h18z" fill="#52131C"/>
<path transform="translate(935,1091)" d="m0 0 3 1 5 7 11 9 9 6 7 2h20l15-5 9-6 8-8v3l-4 5-4 4-5 6-5 2-11 2-14 1h-10l-10-3-10-7-7-7-7-11z" fill="#55101B"/>
<path transform="translate(1797,1064)" d="m0 0h1l1 46 2 2v4h-32l-7-4-6-14h2l-2-7 3 1 4 5 6 10 2 4 3 1h23z" fill="#57161E"/>
<path transform="translate(1868,1023)" d="m0 0 7 1 2 2v8l-4 1-2 7-7 2h-4l-3-7 1-7 7-6z" fill="#C33D47"/>
<path transform="translate(723,989)" d="m0 0 35 1 2 1v24l-1 58h-1v-75l1-6-32 3-1 50h-1l-1-38-1-10-2-2v-5z" fill="#6A1A24"/>
<path transform="translate(1095,1070)" d="m0 0 4 4 6 11 4 5 5 10v6h2v7l4 3 26 1v1l-8 1h-30v-1h6l-12-25-2-8-5-13z" fill="#5A161F"/>
<path transform="translate(747,612)" d="m0 0 3 2 1 20 1 1 2 25v14h-1l-2 14h-1l-2-20-1-19z" fill="#1E070C"/>
<path transform="translate(783,472)" d="m0 0h2l3 5 3 4 5 27 4 30v6l-2 1-3-9-1-6h-2l-2-11 1-8-2-23v-5l-6-8z" fill="#16090E"/>
<path transform="translate(1560,1094)" d="m0 0h1v18h75l1 3-50 1-31 1-1-3 3-5z" fill="#58171F"/>
<path transform="translate(1126,990)" d="m0 0h27l1 1v85h-1v-84h-7v4h-24v10l-2 2-2-7-2-4v-6z" fill="#661922"/>
<path transform="translate(1241,992)" d="m0 0h69l-1 5-4 11-1 8h-1l-1-20-73-1v-1z" fill="#1E060C"/>
<path transform="translate(1115,989)" d="m0 0h30l1 2h-30l2 7 1 3v25l-2 5-5 1v-19l2-22z" fill="#7C1C28"/>
<path transform="translate(1446,1090)" d="m0 0 4 4 6 9 10 7 11 4 5 1h16l12-4 9-6 7-7 1 2-2 6-6 5-7 4-10 3-8 1h-17l-12-4-5-5-9-10-5-8z" fill="#480D17"/>
<path transform="translate(1087 1e3)" d="m0 0h2l5 9 5 12v3h2l4 10 4 5 4 2h4l2-6h1v27l-2 1-3-3-11-23-8-16-9-20z" fill="#4A0B16"/>
<path transform="translate(1694,993)" d="m0 0h3l1 2v123l-3 1h-13v-1h12l-1-3v-121zm0 2v116l2 4h1v-120z" fill="#A83C46"/>
<path transform="translate(1308,1007)" d="m0 0h1v12l-2 6-3 2-8 1h-17v46l1 39-2-4-3-1 1-71 2-10 19-2 7-1 2-2z" fill="#7C1C28"/>
<path transform="translate(133,1015)" d="m0 0 3 1v63l-3-4-2-2v-31l1-26z" fill="#14090D"/>
<path transform="translate(1273,1021)" d="m0 0h24v1l-17 3h-4l-1 55-2 19h-1v-74z" fill="#1F060C"/>
<path transform="translate(1594,1029)" d="m0 0h1v45h-3v2h-2l-1 2-1-10 1-32 3-5z" fill="#4C0C17"/>
<path transform="translate(1371,457)" d="m0 0h4l1 2v16l-1 13v17l-1 9-3 1-1-4v-51z" fill="#140A0E"/>
<path transform="translate(601,1040)" d="m0 0h6v9l-4 6-1 9h2l-1 5-16-1h-11l-8 1h-9l-1 15h-1v-20h42l2-21h-2v-2z" fill="#4E0E18"/>
<path transform="translate(1054,1092)" d="m0 0h1l1 19 1 1h22l2-1 6 2 1 6h-38l1-5 2-2z" fill="#480D16"/>
<path transform="translate(429,1097)" d="m0 0h1l2 13v6l17-2h7l6 2v1l-18 2h-16l-5-1-1-4v-11l1-2 5-3z" fill="#4A0C16"/>
<path transform="translate(766,677)" d="m0 0h1l4 28v7l-5 1-3-3-3-17v-11l1-1h5z" fill="#1E0B10"/>
<path transform="translate(642,1105)" d="m0 0h31v3l-5 4-1 2h-24z" fill="#DB3C47"/>
<path transform="translate(1210,996)" d="m0 0 1 3h3v-2l2 1v22h29l1 1v45h-1l-1-43h-25l-7-2-2-3z" fill="#20060C"/>
<path transform="translate(919,1082)" d="m0 0 1 3-8 14-9 10-15 10-12 3h-15l-16-6 4-1 4 1v2h18l14-3 10-4 8-6 5-6 1-4 3-6 3-1z" fill="#791B27"/>
<path transform="translate(658,1029)" d="m0 0 4 1 4 10 3 11-1 3-1-2-3 1v7l-2 2-3-13-2-1-5 2 5-20z" fill="#4A0C17"/>
<path transform="translate(1736,997)" d="m0 0 6 2 4 9 1 6 2 9h2l6 14 4 3v2h2l1 5h2l1 3 4 3v9l-4-1-7-12-11-23-13-27z" fill="#4E121B"/>
<path transform="translate(361,1023)" d="m0 0h2v2l10 3 3 1v2l4 1-2 4h-2v4l-8-1-10-3-4-5 2-1 2-6z" fill="#5D1921"/>
<path transform="translate(1835,996)" d="m0 0 4 1-4 4-1 3 5-3h2l-2 4-9 10-5 9h-2l-3 11-2 4 1-9 2-10-1-4 3-7 9-10z" fill="#61232B"/>
<path transform="translate(132,993)" d="m0 0 1 3 3-1h23v1l-21 1-1 31h-1v-12h-3l-2 47h-1v-62h2z" fill="#310911"/>
<path transform="translate(360,1013)" d="m0 0h12l-3 1 1 3-3 4 1 2 4 1 3 4-9-1-3-2v-2l-5 1-2 7-3 1-2-5 1-9 4-4z" fill="#7E2D37"/>
<path transform="translate(530,996)" d="m0 0h1v101h-1l-2-17v-51l1-7v-25z" fill="#14090D"/>
<path transform="translate(1443,1016)" d="m0 0h2l-3 12-1 7-2-2-2 8-2 14-1 2-1 16h-1l-1-29 2-13 6-14z" fill="#761E29"/>
<path transform="translate(1557,990)" d="m0 0h36l-3 3-1 3h-17l-10 1-2 15h-1l-3-21z" fill="#4E0D18"/>
<path transform="translate(900,599)" d="m0 0h2l2 3 1 11-1 4-3 53-2 7-1 10h-1v-19l2-16 2-38h-2v-10z" fill="#14090D"/>
<path transform="translate(329,1098)" d="m0 0 5 5 9 7 9 4 5 1h22l18-6-3 3-10 5-16 3-3 2-9-1-16-8-9-10z" fill="#4B0D17"/>
<path transform="translate(858,818)" d="m0 0h1l1 9 2 4v8l-2 7-3 8-5 9h-2l-2 9-1 5-3 1 3-10 5-17 5-26z" fill="#280B11"/>
<path transform="translate(725,1058)" d="m0 0h1l1 55-7 2-7-1-2-3v-3h-2l-6-18 1-3 6 14v2h5l2 4 1-2h6z" fill="#4D0D17"/>
<path transform="translate(1880,1045)" d="m0 0 3 1 16 1 10 2-2 2h-28l-1 4v13l-3-2-4-7v-9l4-4z" fill="#5B1821"/>
<path transform="translate(187,996)" d="m0 0h1l2 12 3 7 3 1h6l2-11h1l-1 16-3 9-5 1-5-3-3-16-1-7z" fill="#A83C46"/>
<path transform="translate(1119 1e3)" d="m0 0 3 4v34l-1 26h-2l-1-3 1-1v-24l-2 4-6-1-5-4 1-2 5 1 2-5 3-1 1-4z" fill="#662F36"/>
<path transform="translate(1429,1037)" d="m0 0h3v14l1 22 2 11-11 3-7 11h-2l-2 4-2 1 2-4 7-10 7-14 2-14z" fill="#A83C46"/>
<path transform="translate(361,984)" d="m0 0h13l12 3 12 6 1 5 7 8-1 2-11-11-8-4-7-2-9-1v-2h-9v-2h-5v-1z" fill="#510F19"/>
<path transform="translate(271,1079)" d="m0 0h6l-3 1 2 2 3 1v13l-3 13-4 1-1 4z" fill="#641922"/>
<path transform="translate(954,480)" d="m0 0h3l5 14 3 20 1 35v19h-1l-1-14-1-4-1-27-2-18-4-17-2-5z" fill="#19080D"/>
<path transform="translate(336,1069)" d="m0 0h11l2 1v6h-2v2l-19 1-7 1 1-4 1-2-2-1h3l1 1 3-3z" fill="#4D0D17"/>
<path transform="translate(639,1095)" d="m0 0h42l1 14 1 6 26 1v1h-31l-1-2-1-11-3-6-14-1h-19l-1 2z" fill="#4C0E18"/>
<path transform="translate(1732,1044)" d="m0 0 4 1 3 10 5 8v2h2l1 5-4 5-2-3v-3l-4-2-5-3z" fill="#59171F"/>
<path transform="translate(404,1045)" d="m0 0 4 1 7 8 5 10 1 7-6 2-1 8h-1l-1-14-5-10-4-5 5 2-2-5z" fill="#4E0E18"/>
<path transform="translate(866,1016)" d="m0 0 10 1 6 4 5 6 4 7 17 1-4 2-15 1-4-2v-7l-5-5-6-1v-2h-14l-8 7-2 1 2-4 8-7z" fill="#56141D"/>
<path transform="translate(1310,991)" d="m0 0h2l-2 14-1 2-2 15-3 3-7 1h-20l-1 2v-3l21-4 5-1v-6h1l2-10 4-9z" fill="#4E0E18"/>
<path transform="translate(934,1073)" d="m0 0 2 4 6 14 9 12 11 8 11 4 17 1v1h-20l-11-4-13-11-6-5-3-5-2-1-3-9 1-1z" fill="#20060C"/>
<path transform="translate(220,1075)" d="m0 0h1l-1 18-2 7-3 1-3-1v2h-2l-1 5h-2l4-19h2l2-9 4-2z" fill="#500F19"/>
<path transform="translate(218,1098)" d="m0 0 1 4-3 13h-2v2h-25v-1l9-2h5v-2h2l1-4 3-1 1-5h2v-2h6z" fill="#5F1A22"/>
<path transform="translate(874,720)" d="m0 0 1 4h2v16l-1 4-1 9-7 14h-1l1-11z" fill="#2F0910"/>
<path transform="translate(1e3 689)" d="m0 0 6 1 4-1 9 13-2 1 2 7-3 1-4-3v-2h-2l-9-13z" fill="#180A0E"/>
<path transform="translate(618,1081)" d="m0 0 1 4-9 28h26l1-3 3 4v2l-29 1-1 1h-7l7-14 7-22z" fill="#3B0A13"/>
<path transform="translate(560,1039)" d="m0 0 36 1 1-1h5l-1 2h-2v2h2v14h-1v-13h-41l-2-4z" fill="#7E4049"/>
<path transform="translate(1920,1019)" d="m0 0 4 2v2l3 1 3 19v4l-7-1-3-16-1-10z" fill="#EB3F46"/>
<path transform="translate(818,1078)" d="m0 0 3 1 3 8 3 3 4 10 3 5v2l1 2-4-2-8-9-7-11-3-6 1-2z" fill="#5D1820"/>
<path transform="translate(908,890)" d="m0 0h26l13 1 3 1 13 1v1h-60l-5-1 1-2z" fill="#17080D"/>
<path transform="translate(322,1039)" d="m0 0 2 3 6 10 7 6 4 3v5h-11l-1-4h-2l-4-13z" fill="#A83C46"/>
<path transform="translate(1015,1106)" d="m0 0 1 3-3 5-12 7-5 2-8 1h-12l-13-5 3-1 5 1h10l16-2 10-2 5-4z" fill="#7A1B27"/>
<path transform="translate(1455,998)" d="m0 0 1 3-3 5 5-4h2l-2 4-8 10-3 5h-2l-2 6-2 1 3-10 1-2-5 2 1-5 6-8z" fill="#60242C"/>
<path transform="translate(255,991)" d="m0 0h6l1 1v13l-4 16-1 11h-1l-1-35-7-2 3-2z" fill="#1F060C"/>
<path transform="translate(999,632)" d="m0 0 1 2 4 2 2 12 1 17-3 3-2-3-3-15z" fill="#EC3F46"/>
<path transform="translate(427,1078)" d="m0 0h36v1l-9 1v2l-9 1-13 2-2 3-1-3-5-1v-5z" fill="#681A23"/>
<path transform="translate(1594,988)" d="m0 0 3 2v36l-1 53h-1l-1-54v-34h-38v-2z" fill="#6E1723"/>
<path transform="translate(214,989)" d="m0 0h47v1l-20 3-21 1-12-1v-2z" fill="#6C1A24"/>
<path transform="translate(1795,991)" d="m0 0h8v4h-3l-2 25h-1l-1-23-1-1h-14l-8 1-2 2-2-2 1-5z" fill="#430B15"/>
<path transform="translate(415,1029)" d="m0 0 1 4-3 1-3 10-3 2-8-5-12-6 2-1h5l3 1v-2h15l2-1z" fill="#C13D47"/>
<path transform="translate(644,999)" d="m0 0 1 3-9 27-12 40-4 11-1-3 7-26 3-7 11-38 3-6z" fill="#3E0A13"/>
<path transform="translate(856,987)" d="m0 0h24l12 2 9 5 2 3-1 4h-3l-5-5-9-4-10-2-25-1v-1z" fill="#621922"/>
<path transform="translate(827,1092)" d="m0 0 4 4 5 7 14 9 12 3 14 1v1h-23l-12-3-6-4-3-5v-2l-4-7z" fill="#110408"/>
<path transform="translate(289,1077)" d="m0 0h20l5 2v14h-1v-6h-2v2l-4-1-3-3-15-1v-3l10-2 8 1v-1l-18-1z" fill="#5E1821"/>
<path transform="translate(1425,1052)" d="m0 0 3 1v12l-2 8h-7l-1 5-1-2 2-18 4-2z" fill="#5C1921"/>
<path transform="translate(227,1031)" d="m0 0 3 1v19l-6 3-4 7h-1l1-8 5-19z" fill="#13090D"/>
<path transform="translate(423,1084)" d="m0 0 6 1 1 2 2-2-1 22h-1l-1-9-3 3h-3l-1 2-1-2v-10z" fill="#7C1C28"/>
<path transform="translate(674,990)" d="m0 0h7l1 3v7l-1 6 2 10 3 10v5l-2-3-9-30-1-2-20-1v-1h18z" fill="#400B14"/>
<path transform="translate(642,1104)" d="m0 0h33l2 4v8l-1 1-19-1-13-1v-1h23l2-4 4-2v-3h-31z" fill="#BD3D47"/>
<path transform="translate(279,1078)" d="m0 0h29v3l-9-1-10 2-1 3-7 1-1 23h-1l-1-26-4-1v-2z" fill="#460B15"/>
<path transform="translate(786,1080)" d="m0 0h21l-1 10-3 1-2 2v-8h-15l-7-1 1-2h6z" fill="#5F1821"/>
<path transform="translate(563,1083)" d="m0 0h1v35l-13 1h-26v-1l6-2 8-2 5 1 10-1 9 3z" fill="#62131F"/>
<path transform="translate(1800,995)" d="m0 0 1 4-2 22v18l1 10v15l-1 35h-1l-1-35v-44l1-16z" fill="#5C1921"/>
<path transform="translate(1243,1080)" d="m0 0h1v33l-7 2 1-17 3-7z" fill="#5B1820"/>
<path transform="translate(1517,1111)" d="m0 0 2 1-4 4-12 5-6 1h-16l-12-4-4-3 5 1 7 2h17l10-2 10-3z" fill="#781B27"/>
<path transform="translate(163,1084)" d="m0 0 4 2 2 9-1 15-1 3-5-1z" fill="#5C1921"/>
<path transform="translate(585,984)" d="m0 0 4 1h-2v2l5-1 1-2 12 1 2 2 3 2h-57v-1l7-1h25z" fill="#BB3D47"/>
<path transform="translate(606,1049)" d="m0 0h1l-1 15-2 7h-39v-1l20-2h18l1-4h-2v-9z" fill="#7C1C28"/>
<path transform="translate(1135,641)" d="m0 0 5 5 4 3 7 18v3h2v9l-4-2-4-11-2-9-5-10-3-4z" fill="#B83B45"/>
<path transform="translate(837,878)" d="m0 0 2 4-1 3 3-1-2 4-5 4-2 1h-14l-1-3h3v-2h9l6-7h2z" fill="#C23D47"/>
<path transform="translate(131,990)" d="m0 0h15v2l29 2v1l-16 1h-26l-1 5h-1z" fill="#4D0C17"/>
<path transform="translate(1114,1102)" d="m0 0 4 5 5 5 21 1-3 1v2l-3 1h-18l-5-5-1-2h2v-4h-2z" fill="#3A0912"/>
<path transform="translate(557,1064)" d="m0 0h43v2l-32 3h-9l-1 15h-1z" fill="#1C060B"/>
<path transform="translate(840,675)" d="m0 0h1v5l-4 6-3 2h-3l-1 5-4 6h-1l1-11h2l4-10 4-2 3 1z" fill="#170A0E"/>
<path transform="translate(135,1040)" d="m0 0h1v39l-3-4-2-2v-13l2-7 1-12z" fill="#060305"/>
<path transform="translate(1867,1055)" d="m0 0h1v23l6 2 7-6h2l-2 4-3 3-7 2-7-1-3-2-1-5 6 1v-9l-1-8z" fill="#D33C46"/>
<path transform="translate(1928,1053)" d="m0 0h2l1 2v12l-4 17-2 1v-28z" fill="#EF4047"/>
<path transform="translate(799,1112)" d="m0 0h6l1 4-22 1h-21v-1l10-1 1-2z" fill="#2F0810"/>
<path transform="translate(1836,1105)" d="m0 0 7 4 10 5 7 1h16l-1 3-6 1h-13l-11-4-6-5v-2l-3-1z" fill="#3A0B13"/>
<path transform="translate(930,1025)" d="m0 0 1 4v17l-1 10-1 2-1 17-2-4 1-35z" fill="#7C1C28"/>
<path transform="translate(1061,552)" d="m0 0 21 1 68 1v1l-92 1z" fill="#19080D"/>
<path transform="translate(656,1056)" d="m0 0h4l1 2 1 10 3 1v3l-10 1-3-3 1-1 2-10z" fill="#7C1C28"/>
<path transform="translate(1263,1113)" d="m0 0h5l-1 4 13 1 1-4v5h-45l1-3v2l9-1 2-3z" fill="#671923"/>
<path transform="translate(422,1081)" d="m0 0h1l-1 10v26l-2-1-3-7v-14l4-13z" fill="#D73F4A"/>
<path transform="translate(131,1073)" d="m0 0h3l2 6v29h-1l-1-9-3-5z" fill="#11080C"/>
<path transform="translate(369,1014)" d="m0 0 7 1 5 2 3 6-12 2-4-2-1 2-1-5 3-1z" fill="#611B23"/>
<path transform="translate(325,1071)" d="m0 0 3 1-2 2-2 1-1 1-2 4h2l3 10h-2l-3-7-6-3-1 2v-3l-5-1-8-1v-1l12-2z" fill="#621C25"/>
<path transform="translate(262,991)" d="m0 0h1v67l-2 3h-2l-1 11h-1v-10l1-10 3-1z" fill="#7C1C28"/>
<path transform="translate(221,1083)" d="m0 0h1v30l-1 4h-5l-1-2 3-13 2-16z" fill="#B1B3B5"/>
<path transform="translate(947,1008)" d="m0 0v3l-7 11-5 12-2 11-1 16h-1v-25l2-9 8-13 3-5z" fill="#3B0912"/>
<path transform="translate(1705,1104)" d="m0 0 2 2 2 6 24 1v3h-22l-1 1h-10v-3l2-2 2-1z" fill="#5C1921"/>
<path transform="translate(1654,1111)" d="m0 0 30 1 1 3-2 1h-34v-3z" fill="#3F0B14"/>
<path transform="translate(905,1097)" d="m0 0 2 1-4 6-5 4-5 5-11 4-11 2h-13l-5-1v-1h23v-2l13-4 9-6z" fill="#440C16"/>
<path transform="translate(1022,1097)" d="m0 0v3l-4 5-4 4-5 6-5 2-14 1 2-3 13-4 9-6z" fill="#490C17"/>
<path transform="translate(354,1076)" d="m0 0h14l7 2v3l-6 2h-7l-5-2-3-3z" fill="#CC424C"/>
<path transform="translate(978,991)" d="m0 0h17l10 4 10 6v2l4 2 8 10 3 3 3 10-1 4-5-12-7-10-4-5-10-7-10-4-4-1-14-1z" fill="#330911"/>
<path transform="translate(179,992)" d="m0 0h5v21l2 11v5l-2-4-6-27-3-2 1-3z" fill="#390912"/>
<path transform="translate(737,578)" d="m0 0h13l1 1v9l-5-2-3-1-5 2-1-2z" fill="#0A0306"/>
<path transform="translate(956,992)" d="m0 0 4 1v2l3-2 11-1-4 2-10 4-11 10-5 1 4-7 7-6z" fill="#4E121B"/>
<path transform="translate(369,989)" d="m0 0 14 2 9 4 8 7 7 8 3 5v10l-2-4-4-10-7-9-8-6-7-3-5-1-17-1v-1z" fill="#1C060B"/>
<path transform="translate(1083,1045)" d="m0 0 4 2 13 24 7 14-1 3-6-10-5-8-5-11-6-12z" fill="#20060C"/>
<path transform="translate(747,992)" d="m0 0h12v6l-3 3-3-1v-3l-3-1h-23l3-2z" fill="#20060C"/>
<path transform="translate(825,1017)" d="m0 0 1 2-5 13-1 5-1 26h-1l-1-15-3-5v-8l4-1 3-9z" fill="#20060C"/>
<path transform="translate(926,1040)" d="m0 0h1v24l-2 3h-2v-2h-35v-1l34-1v-5l3-4z" fill="#A83C46"/>
<path transform="translate(1560,1109)" d="m0 0 1 3h72v1l-69 2-5-1z" fill="#20060C"/>
<path transform="translate(1889,1115)" d="m0 0h12l5 1 14 1v1l-9 1h-31l1-2z" fill="#751B26"/>
<path transform="translate(1321,1077)" d="m0 0 2 3 8 16 9 10 10 6 10 3v1l-10-1-10-5-5-5-9-12-5-11z" fill="#1C060B"/>
<path transform="translate(1446,1090)" d="m0 0 4 4 6 9 10 7 11 4 5 1 14 1v1h-19l-10-3-8-5-8-9-5-8z" fill="#1C060B"/>
<path transform="translate(732,455)" d="m0 0h13l8 2-4 1h-11l-12 3-8 4-6 4 2-4 7-6z" fill="#852631"/>
<path transform="translate(1244,1090)" d="m0 0h1v22l18 1v1l-15 1-1 1 12 1v1h-22l1-4 5-1z" fill="#3D0A13"/>
<path transform="translate(201,993)" d="m0 0h4l-1 9h-6l-3 1-5-5 1-4h8z" fill="#DC3C47"/>
<path transform="translate(1653,988)" d="m0 0h41l48 1 2 2-1 3-3-3-87-2z" fill="#A83C46"/>
<path transform="translate(1488,1016)" d="m0 0 10 1 2 2h-5v2l-15 1-5 3-6 10-1-3 6-9 5-4z" fill="#5A1820"/>
<path transform="translate(1268,549)" d="m0 0h10v4l37 1v1h-48z" fill="#16090D"/>
<path transform="translate(906,453)" d="m0 0h8l13 5 8 7 2 3v5l-4-5-6-7-9-4h-19l1-2z" fill="#1F090E"/>
<path transform="translate(146,990)" d="m0 0h17l5 1h16v1l-9 2h-18l-12-1z" fill="#5C1921"/>
<path transform="translate(719,447)" d="m0 0h2l-1 7-10 4-8 6-2-1 7-8 10-7z" fill="#1C070C"/>
<path transform="translate(1698,1118)" d="m0 0h56l14 1v1l-34 1-7-1-29-1z" fill="#B53C46"/>
<path transform="translate(865,1023)" d="m0 0 2 1-7 7-2 6-3 6-1 25h-1l-1-6v-17l2-10 9-10z" fill="#AA3C46"/>
<path transform="translate(883,701)" d="m0 0h1l-1 7-3 13v9l-2 10-2-4 1-12h-2l1-5 2-6 4-10z" fill="#14090D"/>
<path transform="translate(172,1090)" d="m0 0 2 3 3 17-1 5-4-1-1-1v-13z" fill="#B2B4B6"/>
<path transform="translate(1797,1064)" d="m0 0h1l1 50-2 1h-21l-2-2 23-1z" fill="#20060C"/>
<path transform="translate(942,1093)" d="m0 0 5 5 6 7 11 7 9 3 17 1v1h-20l-11-4-13-11-4-7z" fill="#19060B"/>
<path transform="translate(725,1058)" d="m0 0h1v49l-1 3h-2v2l-5-1-1-3 1-3h6z" fill="#5C1921"/>
<path transform="translate(131,989)" d="m0 0h54l1 1v6l-2-3v-2l-17 1-4-1-32-1z" fill="#7C1C28"/>
<path transform="translate(614,993)" d="m0 0 1 4-2 13-1 14-2 1v-7l-4 1 1-18h1l1 8z" fill="#7C2D37"/>
<path transform="translate(1859,991)" d="m0 0h18l13 4 11 8 7 10-1 3-6-9-7-7-10-5-8-2h-16l-10 2 4-3z" fill="#390B13"/>
<path transform="translate(1588,1081)" d="m0 0 2 3 38 1 5 1v1h-44l-1-1z" fill="#460B15"/>
<path transform="translate(344,1059)" d="m0 0 10 1 12 4v1l-8 1h-11l-4-4z" fill="#470B16"/>
<path transform="translate(256,1099)" d="m0 0h1l1 16 6 1v1l-30 1 2-3 15-1 4-2z" fill="#500F1A"/>
<path transform="translate(1920,1051)" d="m0 0 2 1v27l-2-2-1-14h-2l-1-5 3-6z" fill="#20060C"/>
<path transform="translate(1646,1078)" d="m0 0h1v28l-1 5-2-1v-30z" fill="#A83C46"/>
<path transform="translate(1500,1018)" d="m0 0 4 2 6 7 2 6-4-2-3-3-1-2-10-3 1-4z" fill="#7E313B"/>
<path transform="translate(800,658)" d="m0 0h3l2 11v5h-2-3l-2-3v-4l-2-1 1-2h2v-5z" fill="#C23D47"/>
<path transform="translate(1337,995)" d="m0 0h3l-2 4-11 13-4 6h-2l1-5 9-12z" fill="#611620"/>
<path transform="translate(337,1107)" d="m0 0 5 2 10 5 5 1 21 1v1l-5 1h-21l-9-5-6-5z" fill="#1D060B"/>
<path transform="translate(385,1024)" d="m0 0 9 1 14 3h4l2-1-1 4h-14l-7-2-7-4z" fill="#5B1820"/>
<path transform="translate(1335 1e3)" d="m0 0 3 1-9 11-7 15-2 9-1 9h-1v-11l3-12 3-7 8-11z" fill="#4F111A"/>
<path transform="translate(1112,1111)" d="m0 0 8 5 26 1v1l-8 1h-30v-1h6l-2-4z" fill="#751B26"/>
<path transform="translate(212,996)" d="m0 0 3 1-2 5-8 40-2 4 1-10 6-35z" fill="#1D060C"/>
<path transform="translate(1059,1116)" d="m0 0h21l7 2 1-2v3h-38v-1l8-1z" fill="#6F1A25"/>
<path transform="translate(924,1065)" d="m0 0 2 2 5 17-1 2-4-4h-4v-9z" fill="#D43C46"/>
<path transform="translate(1053,991)" d="m0 0h12l4 2 7 1v1l-19 1-2 7-2-4-1-5z" fill="#56151E"/>
<path transform="translate(1209,1018)" d="m0 0h2l3 3 18 4 6 1v1l-29-1z" fill="#4C0C17"/>
<path transform="translate(954,480)" d="m0 0h3l5 14 1 16h-2l-5-22-2-5z" fill="#160A0E"/>
<path transform="translate(318,1092)" d="m0 0h1l2 10 5 2 3 1v2h2v2l4 2 3 3-7-1-8-4-2-5-3-6z" fill="#A93C46"/>
<path transform="translate(726,991)" d="m0 0h33v1l-32 3-1 8h-1v-10z" fill="#4B0C16"/>
<path transform="translate(856,987)" d="m0 0h24l12 2v1h-17l-25-1v-1z" fill="#7C1C28"/>
<path transform="translate(449,1114)" d="m0 0h7l6 2v1l-18 2h-16v-1l10-1 3-2z" fill="#63141F"/>
<path transform="translate(336,1069)" d="m0 0h11l2 1v6h-2v2l-10-3 1-3h2v-2z" fill="#5F1921"/>
<path transform="translate(1633,1112)" d="m0 0 4 1v2l-47 1v-2z" fill="#5C1921"/>
<path transform="translate(1769,1108)" d="m0 0 2 1v2l3 1v2h24l1-4 2 2v4h-32l-3-3h3z" fill="#440A15"/>
<path transform="translate(1239,1029)" d="m0 0 5 1v20l-2-1-3-11z" fill="#5C1921"/>
<path transform="translate(1132,880)" d="m0 0 2 1-2 7-9 4-4-1 1-4 9-5z" fill="#13090D"/>
<path transform="translate(1269,1112)" d="m0 0h10l1 1v5h-20v-1h7z" fill="#480B16"/>
<path transform="translate(439,1079)" d="m0 0h17l-2 1v2l-9 1-14 1 3-3z" fill="#4C0C17"/>
<path transform="translate(418,1061)" d="m0 0 2 3 1 7-6 2-1 8h-1v-17l1-2z" fill="#5E1921"/>
<path transform="translate(592,1070)" d="m0 0h13l-1 3-6 1-33-2v-1z" fill="#A83C46"/>
<path transform="translate(911,1006)" d="m0 0 3 3 1 2v11l1 11-2-4-4-11v-8z" fill="#611921"/>
<path transform="translate(254,990)" d="m0 0h8l-1 2h-6l-7 3h-22l1-2 21-2z" fill="#4C0C17"/>
<path transform="translate(894,669)" d="m0 0 2 1 2 17v21h-1l-1-24h-3v6h-1l1-14z" fill="#95979A"/>
<path transform="translate(465,1082)" d="m0 0 2 1 1 8v4l-1 6-2 7h-1v-24z" fill="#EA3F47"/>
<path transform="translate(457,1080)" d="m0 0 3 1 1 8-2 13-1 7h-1l-1-22-1-5z" fill="#0F070A"/>
<path transform="translate(1439,1032)" d="m0 0 1 4-2 11v17l-2-3-2 4-1-8 2-7 2-12z" fill="#430B15"/>
<path transform="translate(1087 1e3)" d="m0 0h2l5 9 5 12v3h2l3 8-1 4-14-30z" fill="#3E0B14"/>
<path transform="translate(1880,1119)" d="m0 0h17l-2 2-21 3-9 1-4-2 2-1h13v-2z" fill="#BA3D47"/>
<path transform="translate(922,445)" d="m0 0 6 1 11 7 2 3-3 2-16-12z" fill="#15090D"/>
<path transform="translate(1759,1105)" d="m0 0 2 2 2 7-5 2h-18v-7h1v6l17-2-1-4h2z" fill="#A83C46"/>
<path transform="translate(1647,1034)" d="m0 0h1v23l-1 21-2 3v-33l1-2z" fill="#C43E48"/>
<path transform="translate(977,1017)" d="m0 0h15l5 3-2 1h-23l3-3z" fill="#59171F"/>
<path transform="translate(1142,859)" d="m0 0 4 2-5 9-5 3-4-1 9-11z" fill="#2E0D13"/>
<path transform="translate(1513,1116)" d="m0 0 2 1-2 3-16 4h-13l-3-2 16-1 12-3z" fill="#A83C46"/>
<path transform="translate(361,984)" d="m0 0h13l9 2-4 1h-6l-1 1h-11v-2h-5v-1z" fill="#5F1921"/>
<path transform="translate(397,1033)" d="m0 0 13 1-3 2-5 3h-7l-8-4 2-1h5l3 1z" fill="#A93B45"/>
<path transform="translate(923,1021)" d="m0 0 3 1 1 5v10l-2 2v-2h-2l-1-15z" fill="#DC3C47"/>
<path transform="translate(1101,1011)" d="m0 0 5 5 4 11 2-3v8l-1 2-4-2-2-10-4-9z" fill="#A83C46"/>
<path transform="translate(1089,992)" d="m0 0h2l2 9v7l-2-2-2-6-4-1-1-4z" fill="#5E1E26"/>
<path transform="translate(604,1106)" d="m0 0h2l2 5-4 6 4 2-7 1-1-3 3-10z" fill="#631922"/>
<path transform="translate(429,1097)" d="m0 0 1 3-2 8-4 1-1 5h-1v-11l1-2 5-3z" fill="#601921"/>
<path transform="translate(903,456)" d="m0 0h15l10 5-2 1-12-2-2-2h-13z" fill="#902B36"/>
<path transform="translate(221,1075)" d="m0 0h2v42h-1l-1-10v-21h-1z" fill="#6C1D25"/>
<path transform="translate(404,1045)" d="m0 0 4 1 3 4v3l2 7-5-1-5-7 5 2-2-5z" fill="#5A161F"/>
<path transform="translate(268,1090)" d="m0 0 2 3v21l-2-3-1-2v-17z" fill="#FDFEFE"/>
<path transform="translate(929,1070)" d="m0 0 3 3v3h2v5l-1 2 2 7-3-3-4-9z" fill="#520E19"/>
<path transform="translate(626,1051)" d="m0 0 3 2-9 27-1-3z" fill="#52111B"/>
<path transform="translate(714,1084)" d="m0 0 2 3 1 19-2-2-3-12v-7z" fill="#C83C46"/>
<path transform="translate(656,1056)" d="m0 0h4l1 2v7l-1 2-5-1v-7z" fill="#95979A"/>
<path transform="translate(960,990)" d="m0 0h27v1l-24 3-5 2v-4z" fill="#631821"/>
<path transform="translate(1e3 1118)" d="m0 0 2 1-5 3-7 3-6 1h-8l-8-2 3-1h12l10-2z" fill="#BB3D47"/>
<path transform="translate(1708,1113)" d="m0 0h25v3h-22l-3 1z" fill="#4A0C17"/>
<path transform="translate(930,465)" d="m0 0 5 5 4 6v2h2l1 2v6l-4-4-7-13z" fill="#B73B45"/>
<path transform="translate(834,1104)" d="m0 0 5 3 5 4 5 3-4 1-7-3-5-5-1-2z" fill="#2E0910"/>
<path transform="translate(943,1009)" d="m0 0 1 2-7 11-3 5-2 9h-1l-1-7 2-8 1 2h2l2-6z" fill="#5D1820"/>
<path transform="translate(1896,1098)" d="m0 0h2v9l-4 3h-3l1-6z" fill="#5B1820"/>
<path transform="translate(1858,1088)" d="m0 0 22 1-4 3h-13l-4-1z" fill="#5B1921"/>
<path transform="translate(1095,1070)" d="m0 0 4 4 6 11-1 5-3-3-6-15z" fill="#4C0D17"/>
<path transform="translate(191,1053)" d="m0 0 2 3v4h4 3l-3 8-4-1-2-8z" fill="#23070D"/>
<path transform="translate(1736,1047)" d="m0 0 3 3 12 22-1 3-4-8v-2h-2l-6-10z" fill="#2F0810"/>
<path transform="translate(1736,997)" d="m0 0 6 2 4 9 1 9-3-4-5-11v-2l-3-1z" fill="#5B1820"/>
<path transform="translate(227,1031)" d="m0 0 3 1v10h-6l1-8z" fill="#090406"/>
<path transform="translate(391,1118)" d="m0 0 3 1-5 3-14 3h-8l-6-1v-1h10l12-2z" fill="#B43C46"/>
<path transform="translate(1899,997)" d="m0 0 5 1 6 6-1 2h-2l1 5-3-1-2-7z" fill="#651922"/>
<path transform="translate(1351,1120)" d="m0 0 15 3h13l-2 2-12 1-13-3z" fill="#C43E48"/>
<path transform="translate(1559,994)" d="m0 0h14l-1 2-10 1-2 15h-1l-1-16z" fill="#1F060C"/>
<path transform="translate(397,995)" d="m0 0 4 1 7 8 2 6-4-2-7-9z" fill="#320A11"/>
<path transform="translate(1767,991)" d="m0 0h28v1l-25 1 1 5 1 1v6h-1l-2-6-2-2z" fill="#5C1921"/>
<path transform="translate(1109,1046)" d="m0 0 3 3 3 5 5 3v5l-2 1-3-3-6-12z" fill="#21060C"/>
<path transform="translate(259,1051)" d="m0 0h3v7l-1 3h-2l-1 11h-1v-10l1-10z" fill="#5C1921"/>
<path transform="translate(719,447)" d="m0 0h2l-1 7-10 3 3-3 2-5z" fill="#15090D"/>
<path transform="translate(253,1112)" d="m0 0 2 1-4 2-16 1-3 1v-4z" fill="#20060C"/>
<path transform="translate(1654,1111)" d="m0 0 11 2v2l-16 1v-3z" fill="#55131C"/>
<path transform="translate(1313,1074)" d="m0 0 2 3 5 13 6 9v2h-2l-7-11-5-15z" fill="#A83C46"/>
<path transform="translate(201,1036)" d="m0 0 2 1-4 2-1 2-8 1-1-5z" fill="#5C1921"/>
<path transform="translate(851,1113)" d="m0 0 11 2 14 1v1h-23l-4-1v-2z" fill="#1C060C"/>
<path transform="translate(825,1096)" d="m0 0h3l3 4 3 5v2l1 2-4-2-5-5z" fill="#58111C"/>
<path transform="translate(1920,1111)" d="m0 0h1v5l-14-1-3-2 12-1 4 1z" fill="#20060C"/>
<path transform="translate(933,1032)" d="m0 0h1l-1 13-1 16h-1v-25z" fill="#300810"/>
<path transform="translate(902 1e3)" d="m0 0 5 5 1 5 2 6-3-3-8-11z" fill="#3A0D15"/>
<path transform="translate(1560,1109)" d="m0 0 1 3 27 1v1l-27 1-2-1z" fill="#2C070F"/>
<path transform="translate(1022 1e3)" d="m0 0 7 5 2 7-3 1-4-5-1-5z" fill="#5C1820"/>
<path transform="translate(752,993)" d="m0 0h6l-1 6-1 2-3-1v-3l-3-1v-2z" fill="#14090D"/>
<path transform="translate(901,1109)" d="m0 0 2 1-8 6-3 3-5 2h-6l2-2 7-2z" fill="#A83C46"/>
<path transform="translate(1740,1071)" d="m0 0 4 4 1 6h-2l-1 4-2-5z" fill="#CA3C46"/>
<path transform="translate(313,1074)" d="m0 0 3 1 1 5h-2l-1 2v-3l-5-1-8-1v-1z" fill="#7C1C28"/>
<path transform="translate(1343,1047)" d="m0 0h1v17h2l2 11h-2l-3-10z" fill="#8B6A70"/>
<path transform="translate(607,1015)" d="m0 0 1 3h2l1 5-1 3-5-2-1-3-2-1 4-1z" fill="#56141D"/>
<path transform="translate(1e3 990)" d="m0 0h6l9 6 2 4-5-2-9-6z" fill="#5E151F"/>
<path transform="translate(840,884)" d="m0 0v3l-6 5-2 1h-14v-1l17-3z" fill="#8B2A35"/>
<path transform="translate(920,1040)" d="m0 0v3l-5 1-26-1v-1l28-1z" fill="#A83C46"/>
<path transform="translate(1148,866)" d="m0 0h2l-1 4-8 8-4 3h-2v-2h2v-2l4-2z" fill="#140A0E"/>
<path transform="translate(1259,576)" d="m0 0h1v13l-1 8-2 1-1-7 1-6h1z" fill="#13070B"/>
<path transform="translate(1043,717)" d="m0 0h10l4 2-9 2-6-1z" fill="#140A0E"/>
<path transform="translate(1798,1110)" d="m0 0 3 2v4h-21v-1l18-1z" fill="#52111B"/>
<path transform="translate(1633,1112)" d="m0 0 4 1v2l-31-1v-1z" fill="#51101A"/>
<path transform="translate(1455,1105)" d="m0 0 8 6 2 4-5-2-6-4z" fill="#5C111C"/>
<path transform="translate(353,1063)" d="m0 0h10l3 2-8 1h-11l-2-2z" fill="#5D1821"/>
<path transform="translate(365,1022)" d="m0 0 7 2 3 4-9-1-2-4z" fill="#CDCED0"/>
<path transform="translate(752,671)" d="m0 0 2 3 1 11h-3l-1 4z" fill="#9A9C9F"/>
<path transform="translate(928,460)" d="m0 0 4 2 5 6v5l-4-5-5-5z" fill="#3E0E16"/>
<path transform="translate(405,1037)" d="m0 0 4 1-2 3-6 1-5-2v-2z" fill="#D33C47"/>
<path transform="translate(1796,995)" d="m0 0h3l-1 25h-1z" fill="#20060C"/>
<path transform="translate(431,1085)" d="m0 0h1l-1 22h-1l-1-18z" fill="#785258"/>
<path transform="translate(730,868)" d="m0 0 4 8-9-1v-2l2-1 1-3z" fill="#C43E48"/>
<path transform="translate(1526,1098)" d="m0 0 1 2-2 6-5 4v-6z" fill="#59171F"/>
<path transform="translate(644,999)" d="m0 0 1 3-4 12h-3l3-9 2-5z" fill="#4A0D17"/>
<path transform="translate(1310,990)" d="m0 0 5 1-1 7-2 5h-1v-10l1-2z" fill="#D53C47"/>
<path transform="translate(432,1112)" d="m0 0 12 1-3 3h-9z" fill="#1F060C"/>
<path transform="translate(1867,1055)" d="m0 0h1v17l-2-1-1-12z" fill="#DC3C47"/>
<path transform="translate(606,1049)" d="m0 0h1v6h-2l-2 9h-1v-9z" fill="#611922"/>
<path transform="translate(1220,1023)" d="m0 0 18 3v1l-22-1z" fill="#5C1921"/>
<path transform="translate(1262,543)" d="m0 0h12v1l-15 2-6 5 2-5z" fill="#450E17"/>
<path transform="translate(757,446)" d="m0 0 9 3 6 4-2 2-5-2v-2l-5-2z" fill="#15090D"/>
<path transform="translate(906,1098)" d="m0 0 3 1-9 10-3 1 2-4 4-2 2-5z" fill="#58151E"/>
<path transform="translate(911,1066)" d="m0 0 3 1-2 3h-20v-1l14-1z" fill="#5C1921"/>
<path transform="translate(939,1020)" d="m0 0 1 2-5 12-2-2v-5z" fill="#360911"/>
<path transform="translate(395,1109)" d="m0 0 2 1-13 7-5-1 4-2z" fill="#410A14"/>
<path transform="translate(337,1107)" d="m0 0 5 2 12 6-3 1-7-2-7-6z" fill="#140509"/>
<path transform="translate(905,1097)" d="m0 0 2 1-4 6-5 4-2 3-3-1 5-5z" fill="#390912"/>
<path transform="translate(323,1040)" d="m0 0 3 3 6 9 4 5-4-2-6-7-3-6z" fill="#701924"/>
<path transform="translate(1526,1009)" d="m0 0h2l6 9 2 5-1 3-7-13z" fill="#3F0D15"/>
<path transform="translate(1146,990)" d="m0 0h7v2h-7v4l-7-1 4-1 1-3z" fill="#550F1A"/>
<path transform="translate(361,984)" d="m0 0h13l9 2-4 1h-8l-1-1-9-1z" fill="#7C1C28"/>
<path transform="translate(466,1094)" d="m0 0 2 1-1 6-2 7h-1v-8z" fill="#EF4047"/>
<path transform="translate(708,1072)" d="m0 0 2 2 3 11-2 3-3-10z" fill="#B83D47"/>
<path transform="translate(221,1075)" d="m0 0h2v15l-3-4z" fill="#A0343E"/>
<path transform="translate(886,1029)" d="m0 0 2 3 4 4 4 2h-7l-4-2z" fill="#5B1820"/>
<path transform="translate(1822,1022)" d="m0 0h2l-3 10-2 7h-1l1-9z" fill="#58171F"/>
<path transform="translate(1908,1016)" d="m0 0 3 3 4 10v2h-3l-4-13z" fill="#20060C"/>
<path transform="translate(1015,1106)" d="m0 0 1 3-3 5-6 4-3-1 3-2 5-4z" fill="#691A24"/>
<path transform="translate(612,1098)" d="m0 0h2l-2 9-2 6h-1v-7z" fill="#2F0810"/>
<path transform="translate(1279,1028)" d="m0 0h17v1l-15 2-2 3z" fill="#A83C46"/>
<path transform="translate(856,831)" d="m0 0h1v12l-3 7-1-4z" fill="#4A1018"/>
<path transform="translate(783,472)" d="m0 0h2l3 5 3 4-1 2-5-5-2-3z" fill="#1F1014"/>
<path transform="translate(1764,1054)" d="m0 0 7 3v5l-4-1-3-5z" fill="#4D0D18"/>
<path transform="translate(1120,1044)" d="m0 0h1v22h-2l-1-3 1-1z" fill="#918D91"/>
<path transform="translate(658,1029)" d="m0 0 4 1 2 4-1 3-1-4-3-1-2 5-1-4z" fill="#20060C"/>
<path transform="translate(877,1018)" d="m0 0 5 3 5 6v2l-3-1-3-5-4-3z" fill="#380A12"/>
<path transform="translate(212,996)" d="m0 0 3 1-2 5-2 8h-1v-9z" fill="#1B070C"/>
<path transform="translate(942,486)" d="m0 0h2l4 11-1 4-5-12z" fill="#B93D47"/>
<path transform="translate(636,1110)" d="m0 0 4 4v2h-12v-1l7-1z" fill="#51101A"/>
<path transform="translate(281,1111)" d="m0 0 2 1 16 1v1l-13 1-4 1z" fill="#20060C"/>
<path transform="translate(1881,1074)" d="m0 0h2l-2 4-3 3-7 1 2-2 5-3z" fill="#BA3C46"/>
<path transform="translate(910,1016)" d="m0 0 3 3 2 3 1 11-2-4-4-11z" fill="#470C16"/>
<path transform="translate(406,1012)" d="m0 0 3 1 1 2v10l-2-4z" fill="#20060C"/>
<path transform="translate(807,883)" d="m0 0 5 5 2 4-4-1-3-3z" fill="#27090E"/>
<path transform="translate(1014,690)" d="m0 0h2l7 11h-3l-6-9z" fill="#E33E46"/>
</svg>
