<?xml version="1.0" encoding="UTF-8"?>
<svg version="1.1" viewBox="0 0 2048 648" width="632" height="200" xmlns="http://www.w3.org/2000/svg">
<path transform="translate(0)" d="m0 0h2048v648h-2048z" fill="#FDFEFE"/>
<path transform="translate(1130,60)" d="m0 0h75l8 16 11 25 16 36 18 41 6 13h13l68-3h18v-105l1-23h76v124l34-2 93-4h14l-3-5-10-8-13-12-11-9-5-4-1-4 6 1 29 11 94 35 34 13 11 4v3l-29 9-68 20-49 15-24 7-5 1 1-4 15-13 21-18h2v-4l-41-1-71-1-24-1 1 57 1 1h127l2 1v53l-1 8h-206l-1-7v-112l-1-2-86-1-3-1 5 14 17 37 30 68 1 4h-76l-5-2-16-39-18-45-15-37-18-1-41-1-1 6-11 27-12 30-19 47-6 14-2 1h-77l2-5 14-33 7-15 16-36 16-37h-26l-21-1v-3l2-1 28-1h21l3-9 36-82 12-27 10-22z" fill="#51AB34"/>
<path transform="translate(570,54)" d="m0 0h22l21 2 25 5 20 6 18 8 5 3-2 6-12 29-9 22-4-1-21-9-15-5-13-3-8-1h-30l-10 2-12 6-5 7-1 3v10l3 6 10 6 24 7 32 7 30 9 16 7 11 7 13 12 7 10 5 12 2 9v26l-4 15-8 16-7 9-10 10-14 9-17 8-17 5-16 3-10 1h-36l-24-3-23-5-24-8-16-8-8-5-1-3 18-40 6-14 4 1 15 8 24 9 20 5 15 2h27l14-3 10-5 5-7 1-9-4-8-8-6-21-7-56-14-20-7-13-7-10-8-11-11-6-11-5-16-1-9v-11l3-18 5-12 7-12 11-12 10-8 14-8 15-6 19-5 13-2z" fill="#0465A5"/>
<path transform="translate(869,54)" d="m0 0h20l24 3 19 5 16 6 15 8 14 10 12 11 7 8-2 4-20 18-12 11-10 9-5 3-2-4h-2l-5-5-8-7-11-7-13-5-9-2h-28l-16 4-15 8-10 9-7 8-8 16-4 16-1 9v14l4 20 5 12 6 10 10 11 14 9 18 6 7 1h23l16-4 14-7 13-10 9-9 4 2 16 15 8 7 12 11 9 8-2 5-13 13-15 11-21 11-21 7-19 4-9 1h-33l-20-3-21-6-12-5-15-8-14-10-10-9-11-11-10-14-11-21-6-19-3-14-1-10v-19l2-19 6-23 7-16 9-15 7-9 9-10 12-11 15-10 17-9 24-8 21-4z" fill="#0465A5"/>
<path transform="translate(329,60)" d="m0 0h76v273h-76l-1-1v-271z" fill="#0465A5"/>
<path transform="translate(86,179)" d="m0 0h172l1 1v59l-118 1-1 1-1 92h-76v-153z" fill="#0465A5"/>
<path transform="translate(1363,212)" d="m0 0h56l21 1 1 57 1 1h127l2 1v53l-1 8h-206l-1-7z" fill="#0465A5"/>
<path transform="translate(1664,56)" d="m0 0h50l5 5 10 13 12 17 28 38 13 18 28 38 6 8-1 5-10 14-28 38-12 16-13 18-15 20-13 18-9 12-5 3h-25l-24-1 6-9 12-16 12-17 10-13 10-14 28-38 8-11 12-17 4-5-2-5-14-19-13-18-12-16-12-17-14-19-13-18-14-19-5-7z" fill="#51AB34"/>
<path transform="translate(63,60)" d="m0 0h212l1 1v59l-213-1z" fill="#51AB34"/>
<path transform="translate(1130,60)" d="m0 0h75l-1 4-12 23-10 20-10 19-9 20-12 30-9 21-1 1-34 2h-39l5-13 16-36 18-41 12-27 10-22z" fill="#0465A5"/>
<path transform="translate(1364,60)" d="m0 0h76v124l-1 1-35 2h-41v-104z" fill="#0465A5"/>
<path transform="translate(1064,208)" d="m0 0h73l-1 6-11 27-12 30-19 47-6 14-2 1h-77l2-5 14-33 7-15 16-36z" fill="#0465A5"/>
<path transform="translate(263,400)" d="m0 0h10l13 3 9 5 8 7 6 10 3 10v11l-2 9-6 10-4 5-11 7-11 4h-20l-11-4-9-6-6-7-6-12-1-3v-16l4-11 6-9h2v-2l11-7 9-3z" fill="#0465A5"/>
<path transform="translate(712,400)" d="m0 0h10l13 3 11 6 8 9 5 10 2 9v8l-2 8-6 12-8 8-11 6-8 2h-18l-10-3-10-6-8-9-5-11-1-4v-15l4-12 7-9 10-7 11-4z" fill="#0465A5"/>
<path transform="translate(1463,400)" d="m0 0h10l12 3 10 5 7 6 6 10 3 8v18l-4 10-6 8-7 6-10 5-7 2h-18l-10-3-10-6-8-9-5-10-2-10 1-10 3-10 6-9 10-8 9-4z" fill="#0465A5"/>
<path transform="translate(1191,400)" d="m0 0h10l12 3 10 5 7 6 6 10 3 8v18l-4 10-4 6-7 7-12 6-7 2h-18l-10-3-10-6-8-9-4-8-2-7v-15l4-12 7-9 10-7 11-4z" fill="#0465A5"/>
<path transform="translate(1854,400)" d="m0 0h9l10 2 10 4 9 7 6 9 4 11v16l-4 11-6 8-7 6-10 5-7 2h-19l-11-4-9-6-7-8-5-11-1-3v-17l4-11 8-10 11-7 9-3z" fill="#0465A5"/>
<path transform="translate(1744,56)" d="m0 0h19l9 11 13 19 11 15 12 17 13 18 12 17 26 36 4 6-1 5-9 11-12 17-14 19-13 18-9 12-14 19-26 36-3 4h-18l7-11 14-19 12-17 20-28 13-18 10-14 12-17 10-14-1-5-10-14-13-18-12-17-10-14-13-18-10-14-13-18-12-17-4-5z" fill="#0465A5"/>
<path transform="translate(1904,222)" d="m0 0h3l7 11 13 17 13 18 28 38 11 15 7 10 3 5-12 1h-32l-8-1-14-18-12-17-12-16-14-19-6-8 2-5 16-21z" fill="#0465A5"/>
<path transform="translate(1935,56)" d="m0 0h51l-2 5-13 18-14 19-13 18-14 19-13 18-9 12h-3l-6-9-13-17-5-7 1-4 14-19 13-18 14-19 8-11z" fill="#0465A5"/>
<path transform="translate(1527,402)" d="m0 0h44l13 4 9 8 4 8 1 12-2 8-6 9-6 4 2 5 11 16 1 4h-22l-11-15-4-5h-11l-1 20h-21l-1-1z" fill="#0465A5"/>
<path transform="translate(1274,401)" d="m0 0h12l18 2 10 4 8 8 3 7 1 12-2 8-4 7-8 6 2 5 13 19v1h-23l-11-15-4-5h-11l-1 20h-21l-1-1v-76l1-1z" fill="#0465A5"/>
<path transform="translate(163,401)" d="m0 0 23 1 10 3 8 5 6 8 2 6v15l-4 8-8 7h-2l4 8 9 13 2 5h-22l-8-10-7-10h-11l-1 20h-21l-1-1v-76l1-1z" fill="#0465A5"/>
<path transform="translate(776,402)" d="m0 0h19l9 10 9 11 13 16 2 2 1-39h22v77l-1 1h-17l-13-15-10-12-9-11-3-2v40h-21l-1-63z" fill="#0465A5"/>
<path transform="translate(1918,402)" d="m0 0h19l11 13 18 22 5 5v-40h21v78h-17l-13-14-11-14-10-12-1 35-1 5h-20l-1-1z" fill="#0465A5"/>
<path transform="translate(78,401)" d="m0 0 22 1 11 3 9 6 6 10 1 3v14l-5 10-11 8-9 3-22 1-1 19-1 1h-21v-78z" fill="#0465A5"/>
<path transform="translate(1363,401)" d="m0 0 23 1 11 3 8 6 4 5 3 7v16l-4 8-9 8-7 3-5 1-22 1-1 20h-21l-1-1v-77z" fill="#0465A5"/>
<path transform="translate(404,402)" d="m0 0h60v17l-38 1v11l34 1v16l-1 1-33 1-1 12h41v17l-1 1h-61l-1-1v-73z" fill="#0465A5"/>
<path transform="translate(506,400)" d="m0 0h13l14 3 7 3 1 4-6 13-10-3-9-2h-8l-5 3-1 1v5l6 3 19 5 9 4 5 4 3 5 1 11-3 9-5 5-7 5-9 3h-22l-15-4-6-3 1-6 4-10 3-1 13 5 4 1h14l5-3-1-6-28-8-9-6-4-6-1-3v-12l4-8 8-6 9-4z" fill="#0465A5"/>
<path transform="translate(583,400)" d="m0 0h12l15 3 8 4-2 6-4 10-5-1-9-3-12-1-7 3-1 5v2l10 3 19 5 8 5 4 5 2 5v11l-4 8-7 6-9 4-4 1h-21l-15-4-7-4 3-9 3-7 9 3 10 3h15l5-5v-4l-11-3-16-4-8-4-7-8-2-7 1-10 5-8 8-6 8-3z" fill="#0465A5"/>
<path transform="translate(895,401)" d="m0 0h22v3h2l10 22 13 30 9 20v4h-22l-13-31-8-21-1-4-5 10-11 27-7 17-2 2h-21l1-5 13-30 18-40z" fill="#0465A5"/>
<path transform="translate(1644,401)" d="m0 0h21v3h2l6 12 13 30 14 32v2h-22l-3-5-17-42-2-9-3 3-15 37-7 16h-22l3-9 18-41 12-26z" fill="#0465A5"/>
<path transform="translate(1105,400)" d="m0 0h11l12 3 8 4 8 7-1 3-5 4h-2l-1 3h-2v2l-3 1-9-6-11-2-10 3-7 8-2 5v11l4 9 6 5 5 2h11l7-3 7-5 8 7 5 5-2 4-11 7-11 4h-19l-11-4-9-6-7-8-5-11-1-5v-12l3-11 6-10 7-6 12-6z" fill="#0465A5"/>
<path transform="translate(660,540)" d="m0 0h11l11 4 5 4 6 9 2 7v10l-4 11-8 8-10 4-10 1-11-3-8-5-6-7-3-9v-10l4-11 6-7 10-5z" fill="#0466A5"/>
<path transform="translate(1782,540)" d="m0 0h10l10 3 8 6 5 7 2 6v14l-6 12-8 6-7 3h-17l-12-6-6-7-3-6-1-5v-8l3-9 4-6 7-6 6-3z" fill="#0466A5"/>
<path transform="translate(1501,541)" d="m0 0h31l10 3 8 7 5 10v16l-4 8-4 5-9 5-11 2h-26z" fill="#0466A5"/>
<path transform="translate(1695,402)" d="m0 0h70v16l-1 2h-23v58l-1 2h-21l-1-59-3-1-20-1z" fill="#0465A5"/>
<path transform="translate(1794,56)" d="m0 0h6l5 4 13 18 10 14 11 15 20 28 12 17 12 16 13 19 6 9-4 7-12 16-10 14-13 18-14 19-12 16-13 18-14 19-9 12-1 1h-10l6-9 10-13 70-95 12-16 4-6-2-5-7-10-13-18-12-17-13-18-14-20-14-19-13-19-10-14z" fill="#0466A5"/>
<path transform="translate(963,402)" d="m0 0h21l1 1v59h36l1 1v15l-1 2h-58z" fill="#0466A5"/>
<path transform="translate(1861,541)" d="m0 0h30l8 3 6 7 2 5v11l-6 9-4 1 2 6 8 11v3h-8l-4-2-9-13-2-1h-12l-1 15h-11v-54z" fill="#0466A5"/>
<path transform="translate(1655,541)" d="m0 0h6l7 10 15 25 2 1 2-6 16-27 3-3h7l1 1v54l-5 1-5-1-1-33-7 11-10 16-4 1-6-8-10-17-3-2v32h-10v-54z" fill="#0466A5"/>
<path transform="translate(636,402)" d="m0 0h22v78h-22z" fill="#0466A5"/>
<path transform="translate(1778,402)" d="m0 0h21l1 18v41l-1 19h-21l-1-1v-76z" fill="#0465A5"/>
<path transform="translate(834,541)" d="m0 0h7l5 5 9 10 11 14 6 7 1-35 1-1h9v55l-1 1h-6l-6-5-11-14-14-17-1 35h-11v-51z" fill="#0466A6"/>
<path transform="translate(328,436)" d="m0 0h56v17h-34l-1 28-22-1v-43z" fill="#0465A5"/>
<path transform="translate(1405,541)" d="m0 0h6l8 7 22 28 2 1v-34l5-2h5v56h-7l-7-7-11-14-12-15-2-1v36h-10v-54z" fill="#0466A5"/>
<path transform="translate(1068,541)" d="m0 0h7l5 4 9 11 13 16 5 5v-35l3-1h7v56h-7l-5-5-11-13-11-14-5-5v36l-4 1-6-1z" fill="#0466A5"/>
<path transform="translate(157,541)" d="m0 0h10l7 15 11 24 7 15v2l-12-1-4-10-1-1-26-1-6 12-11 1 1-4 18-40z" fill="#0465A5"/>
<path transform="translate(1330,541)" d="m0 0h10l17 37 7 16v2h-10l-6-11-28-1-3 9-4 4h-8l1-5 17-37 5-12z" fill="#0466A5"/>
<path transform="translate(388,541)" d="m0 0h9l3 5 12 26 9 20 1 5-11-1-5-11-26-1-3 4-4 8-10 1v-3l12-27 7-15z" fill="#0466A5"/>
<path transform="translate(1462,419)" d="m0 0h12l8 4 5 6 2 5v12l-3 7-6 7-7 3h-10l-8-4-6-7-2-5v-13l4-8 8-6z" fill="#FDFEFE"/>
<path transform="translate(1167,134)" d="m0 0h1l4 13 11 28 8 19-2 2-28 1h-19l3-9 11-27 9-22z" fill="#FDFEFE"/>
<path transform="translate(1190,419)" d="m0 0h12l8 4 5 6 2 4v13l-3 8-8 7-5 2h-10l-8-4-6-7-2-6v-11l5-10 7-5z" fill="#FDFEFE"/>
<path transform="translate(1852,419)" d="m0 0h13l8 4 5 6 2 6v11l-5 10-6 5-5 2h-10l-7-3-5-5-4-8v-12l5-10z" fill="#FDFEFE"/>
<path transform="translate(262,419)" d="m0 0h12l8 4 6 7 1 3v15l-6 10-10 5h-10l-8-4-6-7-2-6v-10l4-9 8-7z" fill="#FDFEFE"/>
<path transform="translate(711,419)" d="m0 0h12l8 4 5 5 2 5v14l-4 8-7 6-5 2h-10l-8-4-6-7-2-6v-11l4-8 8-7z" fill="#FDFEFE"/>
<path transform="translate(916,403)" d="m0 0 3 1 10 22 13 30 9 20v4h-22l-13-31-8-21-1-8z" fill="#51AB34"/>
<path transform="translate(1664,404)" d="m0 0h3l6 12 13 30 14 32v2h-22l-3-5-17-42-3-9 1-5z" fill="#51AB34"/>
<path transform="translate(1951,541)" d="m0 0h40l1 3-2 6h-29v14h27v8l-1 1h-26l1 14 30 1v9h-41z" fill="#0566A6"/>
<path transform="translate(1184,540)" d="m0 0h13l9 3 6 5-1 4-3 3-5-2-8-3h-9l-8 4-5 6-1 2v13l4 7 5 4 6 2h8l6-2 1-2 1-16h8l1 1v21l-5 4-8 3h-16l-10-4-5-4-6-9-1-4v-15l5-10 8-7z" fill="#0466A5"/>
<path transform="translate(1783,549)" d="m0 0h8l9 4 5 5 2 6v10l-4 8-6 5-6 2h-7l-8-3-5-5-3-5-1-3v-8l3-7 5-5z" fill="#FDFEFE"/>
<path transform="translate(741,541)" d="m0 0h7l1 37 3 6 4 3 9 1 8-4 2-4 1-6 1-33h10v37l-3 9-5 6-9 4-9 1-12-3-7-6-4-9v-38z" fill="#0466A5"/>
<path transform="translate(661,549)" d="m0 0h7l8 3 6 5 3 8v8l-4 8-7 6-5 2h-7l-8-3-5-5-3-5-1-4v-7l3-7 8-7z" fill="#FDFEFE"/>
<path transform="translate(224,541)" d="m0 0h11l13 18h2l10-14 4-4h10l-7 11-11 15 4 8 15 20v2h-10l-5-5-11-15-2-1-2 5-9 13-2 2-12 1 3-5 13-18 3-4-1-5-13-18-3-4z" fill="#0466A6"/>
<path transform="translate(1511,550)" d="m0 0h20l10 5 4 7v13l-4 7-7 5-5 1h-17l-1-1z" fill="#FDFEFE"/>
<path transform="translate(481,540)" d="m0 0h12l9 3 6 5-1 4-3 3-5-2-8-3h-8l-8 4-6 7-1 4v8l4 8 5 5 8 2 8-1 7-3 5-1 3 4-1 4-12 6h-16l-12-6-7-8-3-9v-8l2-9 6-9 9-6z" fill="#0466A5"/>
<path transform="translate(570,540)" d="m0 0h12l10 4 6 5v2l-6 4-5-2-6-3h-9l-9 4-5 8-1 9 3 9 5 5 9 3 9-1 6-3 4-1 5 4-2 4-12 6-10 1-12-3-9-7-5-8-2-8 1-11 5-10 9-8z" fill="#0466A5"/>
<path transform="translate(328,401)" d="m0 0h60l1 1v16l-1 1-61-1v-16z" fill="#51AB34"/>
<path transform="translate(924,541)" d="m0 0h46v8l-1 1h-17v46l-3 1h-7l-1-1v-46h-17l-1-1v-7z" fill="#0B72AD"/>
<path transform="translate(56,541)" d="m0 0h46l1 3-2 6h-17v46l-10 1v-47h-17l-2-1v-7z" fill="#0466A5"/>
<path transform="translate(1011,541)" d="m0 0h9v55l-1 1h-9v-55z" fill="#0466A5"/>
<path transform="translate(1550,419)" d="m0 0h10l9 1 6 5v10l-5 6-3 1h-17l-1-1v-21z" fill="#FDFEFE"/>
<path transform="translate(1278,419)" d="m0 0 19 1 6 5v10l-5 6-3 1h-17l-1-1v-21z" fill="#FDFEFE"/>
<path transform="translate(1365,419)" d="m0 0 18 1 5 3 2 3v9l-5 6-3 1h-17l-1-1v-21z" fill="#FDFEFE"/>
<path transform="translate(165,419)" d="m0 0 18 1 5 3 2 4v7l-6 7-2 1h-17l-1-1v-21z" fill="#FDFEFE"/>
<path transform="translate(80,419)" d="m0 0h9l9 1 6 5 1 2v7l-6 7-3 1h-16l-1-1v-21z" fill="#FDFEFE"/>
<path transform="translate(1871,550)" d="m0 0h16l7 3 3 5v6l-6 7-5 1h-14l-1-1z" fill="#FDFEFE"/>
<path transform="translate(1448,541)" d="m0 0h5v52l-6-3-3-2-3-11h2v-34z" fill="#0A71AC"/>
<path transform="translate(923,542)" d="m0 0h17l4 1 1 4-1 3 4 6-1 7 1 9v5h-2l2 5h-2v6l4 1 1 1v6l-2 1h-7l-1-1v-46h-17l-1-1z" fill="#0465A5"/>
<path transform="translate(1653,543)" d="m0 0h1l1 6 5 3 6 11-1 2-2-1v32h-10z" fill="#0A71AC"/>
<path transform="translate(1713,542)" d="m0 0h1v54l-5 1-5-1-1-33-1-2 1-5h2v-2l5 1 2 15-2 3 2 1z" fill="#0A70AC"/>
<path transform="translate(1804,60)" d="m0 0 4 4 20 28 11 15 20 28 12 17 12 16 13 19 5 7-1 2h-5l-2-9-3-4v-2h-2l-8-12-8-11-1-3h-2l-3-6-5-6-9-13-12-17-2-4h-2l-4-7-10-13v-2h-2l-4-7-6-7v-4l-3-1-3-5z" fill="#0B72AD"/>
<path transform="translate(244,563)" d="m0 0 3 1 4 4 1 4 7 1 10 14 6 8v2h-10l-5-5-10-14-4-7-2-5z" fill="#0566A6"/>
<path transform="translate(1879,545)" d="m0 0 1 2 9-1 3 2-1 3-20-1 1 21h14l6-2 5-5 3 3-2 1-2 4h-3l-9 2-1 1-16 1-1-4-1-20 1-5 10-1z" fill="#0B72AD"/>
<path transform="translate(590,583)" d="m0 0 4 1 4 3-2 4-12 6-10 1-2-2-7-3-4-4 2-4 11 3 9-1 6-3z" fill="#0A71AC"/>
<path transform="translate(471,581)" d="m0 0 6 5 8 2 8-1 7-3 5-1 3 4-1 4-12 6h-9l-2-1v-2l-3 1-6-2-3-4-1-4-1-3z" fill="#0A71AC"/>
<path transform="translate(1334,553)" d="m0 0 4 4 5 12 2 6-1 1h-20l3-9z" fill="#FDFEFE"/>
<path transform="translate(160,553)" d="m0 0 4 2 8 19-1 2h-19l1-5z" fill="#FDFEFE"/>
<path transform="translate(391,553)" d="m0 0 4 2 6 15 1 6h-17l-2-1 1-5 5-11z" fill="#FDFEFE"/>
<path transform="translate(1203,573)" d="m0 0h1v6h5l1 5-1 3-7 4-13 4-8-1-5-3-2-4-2-7 2-1 5 6 8 3h8l6-2 1-2z" fill="#0B72AD"/>
<path transform="translate(405,568)" d="m0 0 3 4 5 12v3h-2l-1 2-4-6-1-4-3 1-4-1h-10l-9 1v2l-5 1 1-7h2l1-4h4l1 3h13l6 1-1-6h4z" fill="#0B72AD"/>
<path transform="translate(1448,541)" d="m0 0h5v6l-2 1-1 4-1 1 1 3h-2l1 7-1 10-1 4-4 1v-35z" fill="#0567A6"/>
<path transform="translate(1203,568)" d="m0 0h8l1 1v21l-5 4-8 3h-8l-2-3 16-5 4-2v-7l-5-1z" fill="#0465A5"/>
<path transform="translate(923,542)" d="m0 0h17l4 1 1 4-2 3-1 46h-1v-46h-17l-1-1z" fill="#0668A7"/>
<path transform="translate(838,551)" d="m0 0 5 2 1 6v37h-1l-1-7-3 1-1-4v-9l1-10-1-9-1-4z" fill="#0B72AD"/>
<path transform="translate(1111,545)" d="m0 0h5l1 37-6-1z" fill="#0A71AC"/>
<path transform="translate(173,571)" d="m0 0 4 1 3 10 3 6-3 1-2-4h-3l-20-1v-1h20l-3-3-6-1h-16l1-5 4 1h16l1-3z" fill="#0A71AC"/>
<path transform="translate(741,544)" d="m0 0 5 1v20h-2l1 11-2 2-3-5v-27z" fill="#0B72AD"/>
<path transform="translate(647,578)" d="m0 0 4 5 7 4 4 1h7l8-4 5-4-2 4-5 4-1 4h-4l-1 2h-2l-1 2h-4v-2l-3 1-6-3-3-6-4-7z" fill="#0A71AC"/>
<path transform="translate(1969,565)" d="m0 0h19v7h-23v-2h2z" fill="#0465A5"/>
<path transform="translate(1653,543)" d="m0 0h1l1 6 5 3 6 11-1 2-2-1-1 4-4-5-2-1-1-8-1 25h-1z" fill="#0A71AC"/>
<path transform="translate(1654,553)" d="m0 0 2 1 1 6-1 2 3 1 3 5-3 13-5-2z" fill="#0465A5"/>
<path transform="translate(1868,151)" d="m0 0 4 2 10 14 14 20 5 7-1 2h-5l-2-9-3-4v-2h-2l-8-12-8-11-1-3h-2z" fill="#0A71AC"/>
<path transform="translate(1772,583)" d="m0 0 8 4 4 1h10l1 4-6 1-2-1v2h-7l-7-4-1-5z" fill="#0B72AD"/>
<path transform="translate(747,581)" d="m0 0h3l4 5 5 2 11-1v3l-3 1v2l-7 1-5-1-3-2v-2l-3-1z" fill="#0A71AC"/>
<path transform="translate(502,583)" d="m0 0h3l3 4-1 4-12 6h-7l1-3 2-2 9-3 2-1-1-4z" fill="#0466A5"/>
<path transform="translate(591,584)" d="m0 0 4 1 3 2-2 4-12 6h-6v-2l-2-1 3-2 6-1 6-3z" fill="#0466A5"/>
<path transform="translate(1184,540)" d="m0 0h13l7 2-1 3-5 1-8-2-7 1-2 1v-2h-2l-1 2-4-2z" fill="#0A71AC"/>
<path transform="translate(1755,58)" d="m0 0 4 1 4 5v2h2l4 9-2 1-6-4v-2h-2l-3-5-3-3h2z" fill="#0B72AD"/>
<path transform="translate(1514,547)" d="m0 0h14l3 2-1 1h-19v37h-1v-38z" fill="#0B72AD"/>
<path transform="translate(838,551)" d="m0 0 5 2 1 6v11l-2 4-1-4-2-3-1-9-1-4z" fill="#0A70AC"/>
<path transform="translate(1962,564)" d="m0 0h26v1l-19 1-2 4h-2v2h22v1h-26v-6h4v-2z" fill="#0A71AC"/>
<path transform="translate(1537,584)" d="m0 0 2 1-2 4-6-1v2l-10 2-12-1 3-3 17-1 7-2z" fill="#0B72AD"/>
<path transform="translate(1968,547)" d="m0 0h18l4 3h-29v13h-1v-14l1-1z" fill="#0B72AD"/>
<path transform="translate(1961,587)" d="m0 0 28 1-6 3h-23z" fill="#0B72AD"/>
<path transform="translate(481,540)" d="m0 0h12l7 2v1l-12 1h-12l-1 2-3-3z" fill="#0A71AC"/>
<path transform="translate(1323,575)" d="m0 0h22l1 5-11-1-13 1z" fill="#0B72AD"/>
<path transform="translate(1126,461)" d="m0 0 4 1 1 4-4 4h-8l2-4z" fill="#0B72AD"/>
<path transform="translate(1867,580)" d="m0 0 4 1v13l-6-1v-8h2z" fill="#0B72AD"/>
<path transform="translate(56,541)" d="m0 0h46v1l-12 3-1-3h-33z" fill="#0B72AD"/>
<path transform="translate(570,540)" d="m0 0h12l6 2v3h-7l-10-2z" fill="#0A71AC"/>
<path transform="translate(244,563)" d="m0 0 3 1 4 4 1 4h2l1 3-4-1-1 2-5-6z" fill="#0B72AD"/>
<path transform="translate(1655,584)" d="m0 0 4 5 1 4 2 1v2h-9z" fill="#0465A5"/>
<path transform="translate(568,467)" d="m0 0 7 1 2 4-1 1-7-1-2-1z" fill="#0B72AD"/>
<path transform="translate(964,543)" d="m0 0h6v6h-5l-3-4z" fill="#0466A5"/>
<path transform="translate(89,546)" d="m0 0 5 1 7 2v1h-17l2-2h3z" fill="#0B72AD"/>
<path transform="translate(390,546)" d="m0 0h3l2 4-1 4-3-1-1 2-1-8z" fill="#0B72AD"/>
<path transform="translate(160,546)" d="m0 0 3 1 2 6-2 2-3-2z" fill="#0B72AD"/>
</svg>
