<?xml version="1.0" encoding="UTF-8"?>
<svg version="1.1" viewBox="0 0 900 900" width="225" height="225" xmlns="http://www.w3.org/2000/svg">
<path transform="translate(0)" d="m0 0h900v900h-900z" fill="#FEFEFD"/>
<path transform="translate(0)" d="m0 0h900v900h-900zm425 10-26 2-36 6-36 9-30 10-24 10-25 12-23 13-11 7-12 8-14 10-14 11-10 9-8 7-10 9-5 4-7 8-7 7-9 11-10 11-14 19-9 13-13 21-10 18-11 22-10 24-10 28-7 25-6 29-4 28-2 21v59l5 40 6 31 7 26 9 27 11 26 12 25 14 25 12 18 10 14 10 13 14 17 15 16 13 13 8 7 10 9 10 8 17 13 16 11 13 8 17 10 19 10 30 13 28 10 24 7 27 6 25 4 29 3 15 1h28l34-3 28-4 29-6 28-8 26-9 21-9 25-12 23-13 30-20 17-13 14-12 11-10 8-7 14-14 9-11 11-12 12-16 12-17 15-24 15-28 14-32 10-28 10-38 6-33 4-37v-50l-3-31-6-36-8-32-11-33-10-24-12-25-10-18-14-22-12-17-14-18-9-10-7-8-9-10-16-16-11-9-10-9-17-13-10-7-15-10-20-12-20-11-29-13-24-9-22-7-28-7-27-5-25-3-13-1z" fill="#FEFEFD"/>
<path transform="translate(425,10)" d="m0 0h55l31 3 29 5 26 6 26 8 22 8 21 9 17 8 23 13 24 15 11 8 12 9 16 13 11 10 8 7 17 17 7 8 12 14 10 13 13 18 14 22 9 16 13 25 13 32 11 33 8 34 5 31 3 31v50l-4 37-6 33-8 31-10 30-13 30-8 16-11 21-14 22-12 17-14 18-10 11-9 11-19 19-8 7-14 12-15 12-17 12-22 14-18 10-21 11-23 10-25 9-23 7-24 6-35 6-28 3-15 1h-28l-35-3-28-4-29-6-25-7-26-9-21-9-18-8-22-12-17-10-19-13-16-12-17-14-10-9-13-12-14-14-7-8-11-13-10-13-12-17-13-20-13-23-14-29-11-28-8-24-8-32-6-36-3-26v-59l4-37 5-27 6-25 9-29 11-28 16-33 10-18 12-19 12-17 13-17 10-11 9-11 24-24 8-7 14-12 18-14 18-12 19-12 24-13 23-11 34-13 27-8 30-7 31-5zm7 61-20 1-35 5-30 7-26 8-27 11-21 10-23 13-15 10-14 10-14 11-11 9-15 14-12 12-7 8-12 14-12 16-7 10-12 19-12 22-10 21-10 26-8 26-6 27-4 26-2 28v33l3 35 5 29 8 31 8 23 10 24 13 26 12 20 8 12 14 19 11 13 22 24 8 7 14 13 17 13 15 11 19 12 11 6 26 13 27 11 28 9 29 7 33 5 29 2h21l35-2 28-4 27-6 27-8 26-10 26-12 23-13 21-14 14-10 16-13 13-12 26-26 9-11 11-14 10-14 13-21 7-12 11-23 11-27 9-28 7-31 4-27 2-23v-40l-3-33-6-32-6-23-12-35-12-26-12-23-11-17-12-17-14-18-14-15-7-8-7-7-8-7-12-11-14-11-18-13-16-10-15-9-23-11-20-9-19-7-27-8-29-6-30-4-22-1z" fill="#D85EA0"/>
<path transform="translate(425,10)" d="m0 0h55l31 3 29 5 26 6 26 8 22 8 21 9 17 8 23 13 24 15 11 8 12 9 16 13 11 10 8 7 17 17 7 8 12 14 10 13 13 18 14 22 9 16 13 25 13 32 11 33 8 34 5 31 3 31v50l-4 37-6 33-8 31-10 30-13 30-8 16-11 21-14 22-12 17-14 18-10 11-9 11-19 19-8 7-14 12-15 12-17 12-22 14-18 10-21 11-23 10-25 9-23 7-24 6-35 6-28 3-15 1h-28l-35-3-28-4-29-6-25-7-26-9-21-9-18-8-22-12-17-10-19-13-16-12-17-14-10-9-13-12-14-14-7-8-11-13-10-13-12-17-13-20-13-23-14-29-11-28-8-24-8-32-6-36-3-26v-59l4-37 5-27 6-25 9-29 11-28 16-33 10-18 12-19 12-17 13-17 10-11 9-11 24-24 8-7 14-12 18-14 18-12 19-12 24-13 23-11 34-13 27-8 30-7 31-5zm9 20-41 4-29 5-28 7-30 10-20 8-22 10-22 12-18 11-19 13-12 9-17 14-10 9-8 7-18 18-9 11-11 13-12 17-12 18-12 20-12 23-10 22-8 21-9 30-7 31-4 25-2 25v49l3 34 5 30 6 25 5 17 7 21 10 23 11 23 13 23 12 19 13 18 13 16 12 14 29 29 11 9 16 13 20 14 24 15 35 18 26 11 30 10 28 7 21 4 32 4 11 1h53l28-3 26-4 22-5 24-7 26-9 25-11 23-11 22-13 18-12 14-10 12-10 11-9 8-8 8-7 15-15 7-8 14-17 14-19 8-12 11-18 10-18 8-16 10-23 7-19 6-19 8-32 6-35 2-23v-45l-2-28-5-33-8-34-8-26-8-21-8-18-10-21-13-22-14-21-14-18-11-13-9-10-7-8-17-17-8-7-11-10-11-8-12-9-23-15-21-12-16-8-19-9-20-8-24-8-31-8-32-6-26-3-14-1z" fill="#055AA3"/>
<path transform="translate(302,170)" d="m0 0h30l21 2 20 4 15 5 16 7 13 9 12 11 9 12 8 17 5 20v18l-4 15-8 14-9 10-10 9-14 9-7 4h-2l1 2 11 3 17 8 11 8 6 5v2h2l7 10 5 12 3 11v13l-5 21-5 11-6 10-9 11-13 10-17 9-16 6-25 6-26 3h-27v-25l23-2 17-4 16-8 10-10 8-16 2-8v-15l-4-11-6-8-11-8-14-6-11-3-21-3-1-20v-18l1-1 17-3 14-5 8-5 10-9 5-7 4-11 1-13-2-9-5-8-5-5-10-6-15-5-24-4-14-1-1-8-1-37z" fill="#D85EA0"/>
<path transform="translate(571,184)" d="m0 0 20 2 26 5 17 6 16 8 16 12 9 10 9 15 6 17 2 8 1 10v13l-2 16-6 18-7 13-9 12-13 13-16 11-16 9-10 5h-2l3 9 13 34 6 17 6 15 7 20 2 6-25 5-14 2-12-19-30-48-12-19-6-10 1-15 3-22 4-4 21-7 15-8 8-7h2l2-4 5-8 3-11v-15l-4-11-4-6-2-4-4-2-9-6-19-7-8-2 1-16 5-51z" fill="#055AA3"/>
<path transform="translate(489,168)" d="m0 0 22 1 44 3 7 1-1 17-5 42-14 135-9 90-5 43h-8l-36-4-2-1v-18l2-95 2-76 2-107z" fill="#D85EA0"/>
<path transform="translate(282,184)" d="m0 0h7l3 71 2 87 4 131v19l-6 1-28 1-3-12-14-72-18-91-19-97-4-22-1-3 17-3z" fill="#055AA3"/>
<path transform="translate(257,523)" d="m0 0 3 1 5 28 5-2 6-3 4-1h16l11 4 8 6 6 8 4 10v13l-2 8-6 10-7 6-9 5-8 2h-10l-11-2 1 7-1 1-19 1-10-76-3-23z" fill="#055AA3"/>
<path transform="translate(391,552)" d="m0 0h11l9 1-4 55-2 21-1 3-19-2v-7l-9 2h-15l-9-3-8-5-8-9-4-8-1-5v-12l3-9 5-8 9-8 10-4 4-1h11l13 4 5 2z" fill="#055AA3"/>
<path transform="translate(368,639)" d="m0 0h16l1 5-1 23 7-3 5-1h10l10 3 9 6 6 8 4 10v11l-4 11-7 8-10 6-6 2h-14l-7-3-5-1v6l-4 1-13-1-1-1v-20l2-69z" fill="#055AA3"/>
<path transform="translate(450,625)" d="m0 0h7l1 25h6l6-2h14l10 4 8 6 6 9 2 7v14l-4 9-8 9-12 6-13 1-9-2-4-2v6l-1 1h-17l-1-1-2-86 1-3z" fill="#055AA3"/>
<path transform="translate(472,512)" d="m0 0 20 1-1 19-3 39h3l2-4 10-10 8-7 11-11 5 1 10 9 1 2-8 7-9 8-1 4 12 16 9 13-2 4-11 7-4 1-14-19-6-8h-2l-7 8-8 8-8 7-12 12h-2l3-62 3-44z" fill="#055AA3"/>
<path transform="translate(591,540)" d="m0 0 4 2 43 43 2 1v-34h20l1 2-2 50-1 27-4-2-43-43-2-1v19l-1 15h-12l-8-1v-22z" fill="#055AA3"/>
<path transform="translate(315,658)" d="m0 0h17l9 3 7 5 7 10 3 11-1 11-3 7-6 8-9 6-8 3-11 1-12-3-10-7-6-8-3-9v-12l4-10 7-8 5-4z" fill="#055AA3"/>
<path transform="translate(552,630)" d="m0 0 3 1 7 9 12 14 11 12 9 11 4 3v-21l1-11h18l-1 57-1 19-21-21-7-8-8-8-5-6-5-3 1 5v26l-19-1v-40z" fill="#055AA3"/>
<path transform="translate(262,640)" d="m0 0h6v7l14-4 9-1 1 1v20l-10 2-5 5-3 5-1 4v13l3 28-1 5-11 1h-11l-1-3-3-38-4-38 1-5z" fill="#055AA3"/>
<path transform="translate(449,537)" d="m0 0h5l4 9-1 4-9 4-5 5 1 9 12 26 2 10-3 8-6 7-8 6-15 4-6-10 1-3 10-5 4-3 1-6-4-10-8-16-3-10 1-10 4-6 7-6 10-5z" fill="#055AA3"/>
<path transform="translate(653,641)" d="m0 0h5l3 8 1 6-9 3-5 4-1 7 7 17 6 15 1 10-2 7-5 6-8 5-13 4h-4l-4-10v-3l9-4 5-3v-11l-12-27-2-10 3-9 5-6 10-6z" fill="#055AA3"/>
<path transform="translate(552,552)" d="m0 0h20l2 42 1 25h-22l-1-32z" fill="#055AA3"/>
<path transform="translate(520,648)" d="m0 0 18 2v11l-3 47-1 1h-10l-8-1v-11l3-43z" fill="#055AA3"/>
<path transform="translate(284,564)" d="m0 0h7l10 5 5 7v10l-6 9-8 4h-9l-8-4-4-5-2-5v-6l5-8 6-5z" fill="#FEFEFD"/>
<path transform="translate(363,572)" d="m0 0h9l8 4 6 7 1 9-4 8-5 4-8 3-10-2-6-4-4-8v-9l4-6 5-4z" fill="#FEFEFD"/>
<path transform="translate(320,674)" d="m0 0h8l8 4 4 4 1 4v7l-3 6-5 5-8 3-11-2-6-5-3-6v-7l6-9 5-3z" fill="#FEFEFD"/>
<path transform="translate(475,664)" d="m0 0 9 2 8 7 1 2v9l-4 7-6 4-3 1h-7l-8-4-5-7v-9l4-6 5-4z" fill="#FEFEFD"/>
<path transform="translate(396,680)" d="m0 0h8l10 5 3 5 1 7-3 7-8 7h-11l-7-4-4-5-1-9 3-6 7-6z" fill="#FEFEFD"/>
<path transform="translate(678,656)" d="m0 0h12l6 4 3 4 1 9-3 7-4 4-9 3-7-2-5-4-3-5-1-7 4-8z" fill="#FDFDFC"/>
<path transform="translate(556,523)" d="m0 0h10l5 3 2 5v6l-3 5-6 3h-7l-5-3-3-5v-7l3-5z" fill="#055AA3"/>
<path transform="translate(527,625)" d="m0 0h7l6 4 1 3v7l-2 4-2 1h-12l-5-5v-9l5-4z" fill="#055AA3"/>
<path transform="translate(678,656)" d="m0 0h12l6 4 3 4 1 9-3 7-4 4-9 3-7-2-5-4-3-5-1-7 4-8zm4 2-6 3-4 5-1 7 2 5 8 6h7l7-5 2-4v-8l-4-6-5-3z" fill="#055AA3"/>
<path transform="translate(688,664)" d="m0 0 2 1-2 6v6l-4-2-1-8h2l1 3z" fill="#055AA3"/>
<path transform="translate(678,665)" d="m0 0 3 2-2 9-2 1v-9z" fill="#055AA3"/>
</svg>
