<?xml version="1.0" encoding="UTF-8"?>
<svg version="1.1" viewBox="0 0 900 900" width="225" height="225" xmlns="http://www.w3.org/2000/svg">
<path transform="translate(0)" d="m0 0h900v900h-900z" fill="#FDFDFD"/>
<path transform="translate(692,257)" d="m0 0h6l3 3-1 10-10 30 12-2 10-1-1 6-11 7-12 4-3 5-6 23-1 5v11l2 5h6l7-6 10-17 14-36 4-10 4-3 3-1h7l3 2-1 9-8 20-5 16-1 10 1 5 7-1 7-7 8-16 11-29 7-18 4-2h12v8l-11 41-4 17 5-5 9-12 9-17 4-7h4l-1 10-8 17-10 13-11 12-5 5-8 32-5 9-4 5-9 5-4 1h-12l-7-3-4-5-2-5 1-9 6-7 20-13 9-7 3-5 3-12v-5l-8 16-5 6-7 4-4 1h-7l-6-3-4-8v-2h-3l-2 6-6 9-9 7-9 3-9-1-5-5-3-7-3-1-1 5-6 9-7 7-7 4-4 1h-9l-4-2-6-11-3 4-6 10-8 7-6 3-7-1-5-5-3-6-2-7-3 9-6 11-7 6-8 4-6 1-9-5-4-7-2-5-3-1-2 4-8 8-16 10-15 11-7 4h-6l-4-4v-8l4-3 8-3 5-3 7-10 7-14 4-16v-9h-7l-6 4-5 6-4 7-6 10-6 15-7 23-6 26-9 2-6 5h-2l1-8 15-64-1-2-11 3-8 28-7 14-8 11-7 6-7 3h-7l-8-4-4-7v-2h-2l-2 9-6 8-5 4-8 3-9-1-6-7-2-5v-16l4-13 5-15 1-4-5 3-10 14-8 9-4 17-10 19-10 11-11 6-4 1h-7l-12-6-6-8-2 3-7 12-8 8-9 4h-8l-5-3-3-5v-13l10-29 3-9 1-5-9 2-6 5-9 13-8 15-6 17-4 17-4 6-7 2-5-3-1-9h-2l-2 5-6 7-8 6-14 9-16 6-4 1h-16l-10-3-10-6-8-9-6-12-2-8v-18l4-15 5-12 7-13 11-14 11-12 14-11 15-7 9-2h11l7 3 6 5 3 7v8l-3 9-8 10-6 4-5 1-4-1 1-9 6-19 1-7h-7l-14 7-14 14-10 14-8 16-5 15-2 14 1 13 4 11 5 6 7 3h14l12-5 9-5 10-8 7-6 11-14 8-15 7-26 13-52 5-13 4-6 6-2 7 1 2 2v7l-6 19-16 48-2 9 3-3 6-10 11-12 3-3 5-2h10l7 6 1 3v11l-5 17-8 20v7l5-2 5-6h2l2-5 8-16 5-16 7-14 11-13 10-7 6-3 12-2 7 2 4 5 3 11 2 2 7-10 10-14 8-6h9l4 4 1 3v12l-4 17-4 14v9l5 1 5-4 6-10 4-11 9-33 3-6 6-3h6l2 4-6 27-2 11v11l2 3 5-1 6-4 8-14 7-20 1-4-9-6-2-3 1-6 3-6 5-4 9-1 4 7 2 7 9-2h4l3-13 5-5 3-2h6l2 3v7l-3 13 8-16 6-9 7-6 5-2h10l6 5 4 8 1 4v8l-2 10-5 10v5l5-5 8-11 6-18 6-11 10-13 8-7 5-3 13-4h7l6 5 1 2 4-1 1-1h6l4 3v7l-10 28-3 16h5l8-10 8-14 6-15 5-16h-7l-3-1-1-6 5-4 9-2 12-36 5-13 2-3 8-1 3 1v9l-8 26-4 12 26-7 3-3 6-20 7-20 3-5z" fill="#05829B"/>
<path transform="translate(679,463)" d="m0 0h7l5 3 5 6 1 4v8l-4 9-4 5-9 6-12 4-9 2-1 1v9l3 7 4 4h6l11-6 6-5 10-15 8-15 5-2 1 1-1 9-7 16-12 17-10 9-12 6-4 1h-10l-9-5-4-5-4-6-2 3-3 8-8 10-8 7-7 3h-7l-6-4-3-5v-9l6-21 10-26-1-3-10 5h-2l-2 6-7 18-6 16-7 16-7 11-7 7-6 3h-8l-5-5-3-7-1-8-5 15-7 10-9 6-2 1h-10l-7-6-4-6-2-1-3 9-7 8-5 4-8 4h-10l-6-5-4-8-2 3-5 9-5 6-10 6-2 1h-9l-8-7-4-9-2-1-3 9-6 9-7 7-6 3h-7l-6-4-2-6v-12h-2l-2 9-7 14-5 6-8 4-9 1-8-5-5-10-3 1-7 11-8 8-13 9-15 7-15 4h-8l-12-3-10-5-8-8-5-9-4-10-1-6v-13l3-14 5-13 8-15 9-12 9-10 7-7 13-10 14-6 9-2h10l8 3 7 8 2 5v7l-7 14-5 6-7 4h-6l-2-1 1-8 6-18v-8h-7l-10 5-11 9-10 12-9 15-6 13-4 13-1 6v17l3 10 5 8 8 4h15l11-4 10-6 11-9 9-9 9-12 8-16 10-25 3-3 3-1h10l1 5-2 8-10 26-3 12v7l2 4 6-1 5-5 6-9 5-11 11-30 5-13 5-4 8-1 5 2-1 8-7 20-7 22v12l4-2 10-13 8-16 6-32 6-23 8-21 7-16 7-11 8-7 2-1h7l5 5 1 3v16l-5 19-6 15-5 11-8 16-9 16-3 8v12l3 8 5-1 9-12 8-16 5-12 4-14-7-2-3-3 1-7 10-4 4-1 12-36 6-12 5-3h5l2 3v8l-12 36 12-3h4v7l-5 5-15 6-5 16-4 20v8l2 5h5l8-7 8-13 10-24 7-19 3-7 4-3 3-1h7l3 2-1 8-10 26-4 14v10l1 2 7-1 8-9 7-14 17-45 6-4 8-1 3 3-1 9-11 33-3 12v6l7-3 8-11 13-27 4-11v-4l-6-5 1-7 5-8 5-2 7 1 2 6 5-1 12-5 8-2 4 4-1 9-6 17-7 19-3 10v6l7-3 7-9 8-14 5-16 5-13 6-9 9-10 9-6z" fill="#05829B"/>
<path transform="translate(436,74)" d="m0 0h27l29 2 26 4 27 6 21 6 19 7 26 11 19 10 20 12 19 13 13 10 14 12 8 7 12 11 7 8 11 12 8 10 15 20 7 10-1 4-10 6-4 3-4-2-7-11-16-21-11-13-16-17-15-14-14-11-12-9-21-14-18-10-16-8-23-10-27-9-24-6-21-4-29-3-19-1h-14l-29 2-22 3-20 4-23 6-29 10-28 13-25 14-19 13-12 9-13 11-11 9-16 16-7 8-11 13-11 15-9 13-12 20-12 23-8 19-8 22-8 27-3 1-16-4 1-10 9-29 8-21 9-20 11-21 15-24 14-19 9-11 9-10 7-8 19-19 8-7h2v-2l12-9 13-10 21-14 25-14 28-13 28-10 29-8 27-5 24-3z" fill="#030506"/>
<path transform="translate(432,112)" d="m0 0h21l16 4 8 4 7 6 6 10 2 7v17l-5 17-8 15-10 14-10 10-14 10-8 4-16 4-12-1-9-3-10-9-5-10-1-4v-10l4-11 6-10 8-8 11-6 11-2 6 1 5 4 1 2v8l-5 1-4-11-1-1h-9l-12 6-3 1-1 3-5 5-5 10-2 7v12l4 11 9 8 11 3h10l16-5 13-8 13-13 11-16 7-17 3-12v-15l-3-9-4-6-7-6-9-4-5-1h-21l-17 4-19 7-19 10-14 10-12 11-10 11-10 13-7 11-11 23-5 19-1 6v23l3 12 4 8 9 10 12 6 8 2h20l16-3 12-4 16-8 9-7 7-7 12-16 7-9 11-12 12-11 16-10 11-5 14-3h11l9 4 3 3v2h2l3 6v10l-5 13-7 9-9 8-7 3h-13l-7-5-3-6v-8l5-10 7-5 3-1h9l4 5-1 6-3-1-2-5-2-1h-6l-5 3-5 8v11l4 5 6 2 10-1 6-4 10-10 7-14 1-10-3-7-6-5-2-1h-15l-15 5-12 7-11 9-9 10-9 16-4 12-1 6v9l4 8 4 3 3 1h8l16-4 15-6 17-8 13-8 11-7 25-15 15-7 21-7 13-2h22l10 2 10 5 4 4v9h-9l-24-6-14-2h-19l-17 4-16 8-12 9-10 8-9 8-11 9-14 11-14 9-11 5-8 2-9-1-9-4-8-6-7-8h-4l-5 5-12 9-14 8-15 8-24 9-25 6-32 5-10 1h-37l-21-4-12-5-6-7v-8l4-6 6 2 7 7 10 7 8 4 14 4 10 1h19l25-5 10-3v-2l-14-6-11-8-7-8-7-12-5-16-2-12v-15l3-19 7-22 8-16 7-12 8-11 11-13 17-17 17-13 13-8 16-8 20-6z" fill="#04819A"/>
<path transform="translate(117,558)" d="m0 0 3 1 6 18 12 26 12 22 16 24 9 12 13 16 9 9v2h2l6 7 8 7 9 9 17 13 9 7 3 2-2 4-9 12-4-1-13-10-10-8-14-12-25-25-9-11-13-16-18-27-13-23-11-23-10-25v-4l15-5z" fill="#030506"/>
<path transform="translate(809,365)" d="m0 0 4 1 4 20 3 22 1 14v47l-2 20-4 26-7 33-4 1-16-5-1-2 6-24 4-22 3-31v-39l-3-32-3-19-1-6z" fill="#030607"/>
<path transform="translate(318,407)" d="m0 0 4 1-1 5-3 3h-2l-2 5-2 6 2 6 3 2 6 1-1 6-9 14-8 9-9 4-5-1-3-4-2-6v-7l4-13 6-11 8-11 9-7z" fill="#FDFDFD"/>
<path transform="translate(663,321)" d="m0 0h5l-2 9-6 18-9 17-6 8-7 4-5-1-2-5v-9l3-17 5-16 5-3z" fill="#FDFDFD"/>
<path transform="translate(576,339)" d="m0 0h8l1 5-6 18-7 16-9 12-8 7-6 2-3-5v-8l4-13 9-17 9-11z" fill="#FDFDFD"/>
<path transform="translate(335,767)" d="m0 0 5 1 10 9 5 8 1 3v7l-5 4-11 4-5 1h-9l-3-4 1-6 9-14 2-3z" fill="#03080A"/>
<path transform="translate(574,763)" d="m0 0 8 1 3 4 1 5-4 9-1 5 13 6v3l-2 1-10-1-9-5 1 12-3 1-3-1-3-19-3-8-2-4 5-5 5-3z" fill="#03090B"/>
<path transform="translate(478,656)" d="m0 0h6l4 5v5l-3 3v2l7 4-1 6-7 8-8 3h-8l2-8-1-15-2-5-2-1v-3l7-3z" fill="#048099"/>
<path transform="translate(449,480)" d="m0 0 3 1v12l-8 26-7 16-5 11-4 7h-1v-8l5-22 9-29 6-13z" fill="#FDFDFD"/>
<path transform="translate(440,786)" d="m0 0 4 4 6 18v2h2l4-22 4-1 2 1v8l-4 17-3 9-2 2-5-1-4-15-1-4-2 1-4 17-5 1-1-4 7-31z" fill="#030A0D"/>
<path transform="translate(301,753)" d="m0 0 4 2v22l1 2 7-10 6-8 4 2-1 5-4 6-8 11-8 8-4-2v-21l-10 14-3 2-2-2 1-6 11-15 5-7z" fill="#030C0F"/>
<path transform="translate(408,784)" d="m0 0 5 1 2 7v10l4 3-1 3h-4l-1 13-4 1-1-1-1-12-6 1-4 5-1 4-4 1-2-2 1-13 4-2 6-10 5-8z" fill="#03090C"/>
<path transform="translate(724,646)" d="m0 0 9 2 5 3h8l1 5 9 8v3l-5-1-8-4-2 7 5 9-2 4-5-3-7-3-2-10-7-10-1-6z" fill="#030A0C"/>
<path transform="translate(409,674)" d="m0 0 5 2 4 15-1 1-1 16-3 1-3-3v-10l-7 2-1 1v12l-5 1-2-5-2-7-1-2 2-4-1-16 5 1 2 3 1 9 7-1v-15z" fill="#04819A"/>
<path transform="translate(613,746)" d="m0 0h4l-1 4-10 6-1 5v4l12-4h2v3l-10 7v8l6-1 7-6h2l1 4-5 7-10 5-5-1-3-8-4-17-2-6 4-4z" fill="#030A0D"/>
<path transform="translate(596,624)" d="m0 0 5 1 2 2 2 9-1 22h-3l-4-5v-8l-8 3v8l1 5-4 1-2-2-2-10v-16l-1-5 4-1 2 1 2 11 7-1z" fill="#05829B"/>
<path transform="translate(709,668)" d="m0 0h4l-2 5-6 8 1 5 4 2 4-5 4-1-1 6-2 4-2 1 1 5 4 4 8-12h2l1 5-3 7-5 6-5 2-4-2-9-14-7-10 1-4 5-5z" fill="#03090B"/>
<path transform="translate(644,727)" d="m0 0h3l-1 4-8 6-1 2v7l7-1 2-2 4 1-6 7-2 1v8l5 1 8-8h3l-2 6-7 8-4 2h-5l-4-5-7-20-2-7 13-8z" fill="#030A0C"/>
<path transform="translate(682,472)" d="m0 0 4 2 2 3-1 7-6 9-8 6-11 4h-2v-6l6-10 7-9z" fill="#FDFDFD"/>
<path transform="translate(533,640)" d="m0 0 4 4 4 10v2l5 2-1 2 1 13h-3l-2-2-2-7-6 1-2 12-5 1-2-3-1-7-2-3 4-2 4-20z" fill="#04819A"/>
<path transform="translate(763,576)" d="m0 0h4v16l12-4h7l5 5 1 2v7l-4 8-6 3-6-1 2-4 5-2 2-5-1-5-2-1-13 5-5-1-4-4-1-9 2-8z" fill="#030C0F"/>
<path transform="translate(511,781)" d="m0 0 5 1v5l-9 4h-3v5l5 2 7 7v7l-5 6-4 2h-9l-6-4-1-5 5 1 4 2 6-1 3-1-1-5-11-9-1-6 4-6 7-4z" fill="#030B0D"/>
<path transform="translate(513,647)" d="m0 0 4 1-2 4-9 3-1 1-1 8 8-3 3 1-2 4-8 3-1 8 9-2 3-2h3l-2 5-8 5-2 1h-7l-3-5-1-26 1-2z" fill="#05829B"/>
<path transform="translate(626,616)" d="m0 0h6v3l-13 6-1 6h11l-1 4-7 3-2 3-1 6 7-2 4-2h4l-2 5-6 4-8 2-5-4-1-29 3-2z" fill="#05829B"/>
<path transform="translate(440,666)" d="m0 0h3l-1 5-9 3-3 2 1 5 4 1 6-1v4l-9 4-1 4v4l5-1 7-4 3 1-2 5-6 4-10 2-3-2-1-3-1-27 9-4z" fill="#05829B"/>
<path transform="translate(563,632)" d="m0 0 5 1 2 3v3l-6 1-2 5-2 6v10l4 1 11-7h2l-1 4-1 2h-2l-2 4-5 3h-8l-5-6-1-2v-11l4-10 5-5z" fill="#05829B"/>
<path transform="translate(543,774)" d="m0 0h7l2 1-1 5-9 1v17l1 13-5 1-2-4-1-25-6 2-5-1-1-2 2-3 13-4z" fill="#030B0E"/>
<path transform="translate(672,705)" d="m0 0h5l-1 5-5 3h-2l1 4 11 23v4l-6-1-8-16-4-7-5 4-5-1 1-4 8-8z" fill="#03090B"/>
<path transform="translate(752,606)" d="m0 0 4 1-2 5-3 4 2 4 8 7 7 7 4 3v4l-6-1-10-9-8-6h-3l-3 6-4-1 1-6 8-14z" fill="#030B0E"/>
<path transform="translate(652,608)" d="m0 0 4 2-2 4-8 5-2 4 6 1 9 7 1 5-5 7-6 3-8-1-5-2 1-4 12 1 3-3v-5l-5-2-7-4-1-6 4-6 6-5z" fill="#048099"/>
<path transform="translate(382,682)" d="m0 0h6l1 4-3 2h-6v29l-3 1-2-1-3-25h-8l-1-3 3-3z" fill="#05829B"/>
<path transform="translate(257,318)" d="m0 0 4 2 10 10 10 5 16 5 1 2h-8l-17-3-9-4-6-4-4-5 1-7z" fill="#05829B"/>
<path transform="translate(377,780)" d="m0 0 4 1 2 2-1 6-8 18-4 8-4-1-1-3 6-16 4-8z" fill="#030B0D"/>
<path transform="translate(282,743)" d="m0 0 3 1 1 4-3 6-10 11-7 8h-4l1-7 9-11 7-8z" fill="#030A0C"/>
<path transform="translate(738,377)" d="m0 0h3l-1 9-6 8-7 3-6-1-1-5 9-8z" fill="#FDFDFD"/>
<path transform="translate(503,232)" d="m0 0h9l4 5-1 6-3-1-2-5-2-1h-6l-5 3-5 8v11l4 5 6 2 12-1v2l-3 1h-13l-7-5-3-6v-8l5-10 7-5z" fill="#05829B"/>
<path transform="translate(342,779)" d="m0 0 4 2 3 7-1 5-6 3-5 1h-7l6-10z" fill="#FDFDFD"/>
<path transform="translate(574,770)" d="m0 0h5l-2 9-2 4h-2l-3-8v-4z" fill="#FDFDFD"/>
<path transform="translate(481,675)" d="m0 0 5 1-1 4-6 5-4-1 1-8z" fill="#FDFDFD"/>
<path transform="translate(681,614)" d="m0 0 4 1 4 7-2 2-5-1-3-4z" fill="#05829B"/>
<path transform="translate(476,661)" d="m0 0 4 1 1 5-3 5-4-4v-5z" fill="#FDFDFD"/>
<path transform="translate(338,706)" d="m0 0 4 2 4 5v2h-7l-2-1v-7z" fill="#047187"/>
<path transform="translate(408,792)" d="m0 0h1l-1 10-5 1 2-7z" fill="#FDFDFD"/>
<path transform="translate(731,654)" d="m0 0 6 2v5h-4l-2-4z" fill="#FDFDFD"/>
<path transform="translate(532,652)" d="m0 0h3l1 8h-4z" fill="#FDFDFD"/>
</svg>
