<?xml version="1.0" encoding="UTF-8"?>
<svg version="1.1" viewBox="0 0 900 900" width="225" height="225" xmlns="http://www.w3.org/2000/svg">
<path transform="translate(0)" d="m0 0h900v900h-900z" fill="#F5F5F4"/>
<path transform="translate(734,374)" d="m0 0 10 1 9 6 2 5 1 12v115h15l22 1 6 3 5 6v2h2l1 10v7l1 3-3 6-3 3 2 6v7l-4 2-2 3-5 1-8-1-3 1-2-1-1-9-3-1-3 9h-6l-8-4-13-1h-8-3l-9 1-1-3v-4h-2l2-8 5-2-1-4h-14l-7 4-6-1-3 12-3 5-6 1-4-2-1-2-6-1-2 4-6 1-3-1-1-7-2-4-6 2-3 3-1 2-6-1-10-2-12 3-5-1 1-3 4-1-1-4h-14l-13-1-5 2 1 7 2 7v5l-5-1-7-4h-3l-1 2-7 1-7-6v-2l-3-1-2-10-4 1-5 9-10 15-3 1v-2l-6 4-4 2 1-5 6-16-2 1-3 5-11 12h-4l1-8 2-8-5 5-6 8-3 3h-2l1-5 13-23 9-2-3-7-20-39-6-10-6-7-5-1h-12v36l-1 25-1 3-3 1h-14l-13-2-1-5v-161l8-6 54-1 15 1 14 4v2l4 1 6 5 7 10 5 10 2 8v24l-2 9-5 10-6 8-6 7-9 6 1 6 8 14h3l5 2 1-2 3-2 4 1 4-2v-8h2l2-6 4-4 1-4 19-1 8-20 1-4h2l2-9h2l1-6 5-14 2-5h2l2-11h2l2-10h2l2-10 5-8 2-1h11l4 4 4 11 11 33v3l4-1 1 1 3-3 6-2h7l12 6v2l5 1 3 2v2l4 1 4 3 2 6h2l1 6h3l1 2 1-6 1-22 1-41 6-7 3-2z" fill="#DF9789"/>
<path transform="translate(185,371)" d="m0 0h23l11 2 15 5 8 4 7 3 15 15-2 4-8 7-9 8-5 5-5-3-13-9-12-5-6-1h-14l-12 3-16 8-7 6-7 10-4 8-2 7-1 8v14l3 14 8 13 4 5 9 7 8 4 15 4h12l15-4 12-7 10-9 7 2 13 14 6 1 2-2v3l4-3h2l-4-8v-4l-4-4-7-22-1-5v-17l4-17 8-16 6-10 8-7 9-7 12-8 21-7 6-1 20-1 15 1 12 4 7 2 14 8 14 11 5 6 6 8 6 12 4 12 2 17-1 15-4 17-3 5h-2l-2 6-9 12-11 11-9 6h-3v2l-21 7-3-1 5-4 8-4 8-6 3-3h2l1-4 6-9h2l1-6h2l3-10 2-6 1-9v-30l-4-19-7-14-11-12-5-6-11-7-8-3-7-2h-23l-13 4-8 4-10 7-5 4-1 2h-2l-2 4-4 5-8 15-3 10-1 8v26l2 12 5 13 5 9 9 11 8 8 11 8 9 4-3 1-13-4-6-2v-2l-11-3v-2l-3 1v-2l-5-1v7l-3 8 2 1-2 2-1-1-5 10-3 4h-2l-2 4-9 7 1 7 5 3 3 6-1 7-7 8-9 7h-10l-6-3-11-7-7-3-16-3-7-1-9 3-8 4-12 2-5 1v2l-5 4-11 4-19 3-5-4-5-2-2-5 3-10 8-11 14-14 6-4h3v-6l-1-3-3-1-3-5-1-4 2-5-6-1-7-8-3-6-4-4-7-11-5-11-4-10-2-14v-26l1-5h2l1-7 4-10 6-12 11-13 11-10 14-9 5-3 9-3 7-2z" fill="#F4D4C9"/>
<path transform="translate(753,382)" d="m0 0 5 3h2l3 3 8 3 2 1v2l4 2 6 7 4 13 3 26 1 5v21l1 6 3 19 4 13v4h2l1 3 11 3 4 2v2l4 2 4 9 3 9v14l-6 14-5 6-8 7-8 3-6 2-6 4-9 3h-6l1 4 2 1-6-1-7-3-3 1-5 10-1 1-21 1h-10l-4-4-1-4-2-20-1-9-5 1-7 5 4 2h-10l-8 16-4 7h-2v2l-5 1-2-2-1-6h-3l-2 4-5 5-4 2h-10l-6 3-25 1-19-2-4-2h-9l-8-5-10-18-5-8-1-3-4-3-9 1-4 1-2 4h-2v3l-2 1-4 7h-2v3l-2 1-2 5-8 10-3 3-3-1v-6l-2-1v-2l-6 1v2l-2 1-1 3-5 4h-2l1-8 1-5-2-1-5 3v3 7l-3-1-2-3h-22l-1 4 2-1h7l-1 3-8 3-4 5h-2v3l9-1 23-1-1-6-11-3v-2l7-1v2l8 1v5l-1 4 26 1 9 2v2h-146v-4h32l-2-5 1-8h8v2l-6 3 3 7 21 1-2-7-7-2-4-2v-2l6 1 8 4-2-6-4-2-7-1h-11l-4 2h-3l1-3 4-2 22-1 2 4h12l1-9-17 1v-2l7-1v-8l-2-7-1-10-1-17-2-1v-2l-4-1-1-7 4-5 2-9v-7l-1-3 2-9 1-122 2-1 1 164 13 1h17l1-28v-31l1-5 3-1h9l6 2 7 8 14 27 12 23 1 4 3 1-12 3-9 16-5 11 4-1 2-5 8-10 3-1-2 9-2 8 5-2 11-12 2-4h2l-2 9-5 12 8-6 5 1 2-5 8-11 5-9 4-1 2 7 1 4 7 6v2h9l1-3 5 1 6 4 4 1-2-11-1-1-1-8 6-2 16 1h11l1 5-4 2v2l7-1 9-2 10 2 6 2 2-5 3-2h5l3 5v6h7l4-4h6l2 3 7 1 3-3 4-12 1-2h6l7-4h14l1 5-5 2-1 6-1 2h2l1-2v8h9l1-2 5 1h10l8 1 8 4 6 1 1-5 2-4 4 1v9l7-1 8 1 3-1 4-4h2l-2-10-1-4 4-2 2-7-1-6v-13h-2l-6-8-5-2-37-2-1-2v-113l-1-12z" fill="#F5D8CD"/>
<path transform="translate(334,384)" d="m0 0h23l7 2 10 4 11 8 9 10v2l3 1 6 10 4 8 4 19v30l-2 12-5 13h-2l-1 6h-2l-2 5-4 5-1 3-10 8-9 5-4 1-1 5-10 3h-4l-1 2 9 1 7 3-2 2h-35l-6-1 4-2 7-3h4v-2l-19-3-3-2h6l-10-4-13-11-8-8-8-11-6-13-3-9-1-9v-26l2-11 4-11 8-14 5-6h2l1-3 10-8 8-5 14-5z" fill="#F5F3F2"/>
<path transform="translate(499,375)" d="m0 0 20 1 14 4v2l4 1 6 5 7 10 5 10 2 8v24l-2 9-5 10-6 8-6 7-9 6 1 6 13 23 9 16 8 16-1 3-5 2-8 1h-14l-6-2-12-22-12-24-8-11-2-2-5-1h-12v36l-1 25-1 3-3 1h-14l-13-2-1-5v-161l8-6z" fill="#F81215"/>
<path transform="translate(185,371)" d="m0 0h23l11 2 15 5 8 4 7 3 15 15-2 4-8 7-9 8-5 5-5-3-13-9-12-5-6-1h-14l-12 3-16 8-7 6-7 10-4 8-2 7-1 8v14l3 14 8 13 4 5 9 7 8 4 15 4h12l15-4 12-7 10-9 7 2 13 14 6 7-1 5-7 8h-2v2l-14 9-11 4-12 3-1 5v1l-20 2-13-2-5-1-4-5-13-4-13-7-13-10-12-12-7-11-5-11-4-10-2-14v-26l1-5h2l1-7 4-10 6-12 11-13 11-10 14-9 5-3 9-3 7-2z" fill="#F91215"/>
<path transform="translate(456,231)" d="m0 0h11l5 2v2l5 2 12 9 6 5 1 2 8 1h14l9 3 4 4h-4v-2h-25l5 17 1 6v21l-3 12-2 7h-2l-2 5-7 9-7 7-7 4-12 4-6 1h-16l-10-3-11-6-10-9-8-11-1-7h-2l-1-10h-3l1-3 1-13 6-21h2v-7l-2-1v-2l-14-3-15-1v-1h20l24 2 9 4 4 1h19l7-3 6-3 1-2-10 6-5 1h-18l-9-4-3-3 1-7 4-2v-2l11-6 4-2z" fill="#F81215"/>
<path transform="translate(753,382)" d="m0 0 5 3h2l3 3 8 3 2 1v2l4 2 6 7 4 13 3 26 1 5v21l1 6 3 19 4 13v4h2l1 3 11 3 4 2v2l4 2 4 9 3 9v14l-6 14-5 6-8 7-8 3-6 2-6 4-9 3h-6l1 4 2 1-6-1-7-3-3 1-5 10-1 1-21 1h-10l-4-4-1-4-2-20-1-9-5 1-7 5 4 2h-10l-8 16-4 7h-2v2l-5 1-2-2-1-6h-3l-2 4-5 5-4 2h-10l-6 3-25 1-19-2-4-2h-9l-8-5-10-18-5-8-1-3-4-3-9 1-4 1 4-8 7-7 4 3 8 16 1 3h3l5 5 2 1v-2h3v-5h3v2h2v2l4 1 3 4h3l3-9 4 1 4 4 4-1 1-5 2-4 4-3h7l3 1h7l1-2 5-2h3v2l12-2 1 3-2 7v7l5 2v2l7-2 5-6 4-6h2l1 2v7h6l3-1 1-5 8-16h6l3-2h8l1 9 3 17 2 4h17l4 1h9l2-6 4-2v-2h10l5 1h12l9-3 4-2 1-2h2l2-4 3-5h3l2-4 4-6 2-7-1-10-5-9-8-6v-2l-5-2-4-3-3-1-37-2-1-2v-113l-1-12z" fill="#F4D9CE"/>
<path transform="translate(628,376)" d="m0 0h11l4 4 4 11 12 36 16 44 5 11-1 3-11 8-11 9-8 6-3 1-1-3 4-12 1-2v-8l-6-18-9-23-1-6h-3l-3 10-10 24-5 11v6l9 7 5 5 9 6 8 8 5-2 10-9 6-4 10-9 4-2 4 1 5 12 9 25 2 7v10l-4 3-7 2h-10l-11-4-1-1-2-13-4-11-4 2-4 5-7 4-6 5-7-1-12-9-9-6v-2h-2v-2l-4-2-8-6h-3l-11 23-1 5 4-4 9-19 4-1 5 5 1 2-6 16-5 8-5 4-12 1-10-1-3-2 1-6 11-21 10-22 2-8 5 2 13 10 8 7 10 9 2 1v2l4 2 6 4-4-6-8-7-10-9v-2l-4-2-16-12-12-8v-2l5-5 7-17 1-4h2l2-9h2l1-6 5-14 2-5h2l2-11h2l2-10h2l2-10 5-8z" fill="#F81215"/>
<path transform="translate(734,374)" d="m0 0 10 1 9 6 2 5 1 12v115h15l22 1 6 3 6 8v10l-5 8-4 3-4 1h-54l-11-4-7-7-1-3 1-148 9-9z" fill="#D21517"/>
<path transform="translate(227,431)" d="m0 0h9v2h3v2l8 4v2h5v-2l4 1v29l4 15 5 15 3 1v5l3 4v3l-4 3h-8l-8-7-7-8-7-2-11 10-14 7-12 3h-12l-1-3-5-1-3-1v-8l-1-2-1-7-1-5-2-12v-8l3-14 6-9 10-7h2v-2l10-4 10-2 2-1z" fill="#F5F4F2"/>
<path transform="translate(346,378)" d="m0 0 18 1 12 4 7 2 14 8 14 11 5 6 6 8 6 12 4 12 2 17-1 15-4 17-3 5h-2l-2 6-9 12-11 11-9 6h-3v2l-21 7-3-1 5-4 8-4 8-6 3-3h2l1-4 6-9h2l1-6h2l3-10 2-6 1-9v-30l-4-19-7-14-11-12-5-6-11-7-8-3-7-2h-23l-13 4-8 4-10 7-5 4-1 2h-2l-2 4-4 5-8 15-3 10-1 8v26l2 12 5 13 5 9 9 11 8 8 11 8 9 4-3 1-13-4-6-2v-2l-6-2-11-8-12-11-8-11-4-4-7-22-1-5v-17l4-17 8-16 6-10 8-7 9-7 12-8 21-7 6-1z" fill="#F71316"/>
<path transform="translate(254,390)" d="m0 0 4 2 6 5 2 1-1 8h2l-1 9 4-1-9 19-4 13-1 6h-1v-12l-3-1v2h-5v-2l-5-2-3-2v-2h-3v-2l-9 1-10 1-10 3-12 3v2l-13 9-5 10-2 11v8l2 15 2 4v6l1 1v6l-1 2 5 1 3 1v2l-8-1-11-4-8-6-7-6-9-14-3-9-1-7v-14l2-11 3-8 6-10 9-10 15-8 9-3 6-1h14l9 2 14 7 12 9 4-2 4-5 8-7 7-6 1-3-9-9z" fill="#F3AEA2"/>
<path transform="translate(193,384)" d="m0 0h10l17 3 9 4 11 7 3 3v2l-4-1-11-8-11-4-11-2h-20l-14 3-16 7-10 7-7 11-8 17-2 2-8 1-1 10 7 1 1 4-3 3h-8l2 7 2 16 6 17 7 11 6 7 11 8 15 8 16 4v2h27v-2l-8-1h-6l-6-4v-4l13-3 5-2 12-5-1-2 9-5 10-9 7 2 13 14 6 7-1 5-7 8h-2v2l-14 9-11 4-12 3-1 5v1l-20 2-13-2-5-1-4-5-13-4-13-7-13-10-7-7 4-2 2 4 5 2v2l7 1 8 5 2 1v2h21v-3l-7-2-3-1v-2l-8-1-11-7-7-6-9-11-6-9-6-15-4-16v-23l4-13 7-11 8-10 8-8 12-5 15-7 12-3z" fill="#E31015"/>
<path transform="translate(375,253)" d="m0 0h21l-4 2 12 3 2 1v2l3 1-1 7h-2l-2 9-3 12-1 13-2 3 3 1-7 3-10 5-5 1h-12l-10-4-6-4v-2h-2v-2l-4-2-6-5v-2l-3-1-5-5-4-2v-2h-3v-2l-6-2-10-5h-22l-8 3-8 2v2l-3 2h-3l-2 4-6 5-2 4h-2l-2 9-2 3v11l2 5v6l3 1 3 6 3 2v2l5 1 8 3h16v-2l6-5 4-8 1-10h-2l-3-6-6-4h-11l-5 4-2 4v7l5 5 4 2-3 1-7-3-3-3-1-3v-7l4-8 8-4h12l9 6 4 7 1 2v11l-6 9-5 6-12 4-13-1-10-6-5-5-3-5-2-9h-2l-1-3v-13l5-13 7-9 6-4 5-5 5-3 9-3 5-1h22l13 4 2 1v2l6 2 11 9 8 8v2h2l-2-9v-13l6-11 10-9 5-3z" fill="#F5F1F0"/>
<path transform="translate(582,474)" d="m0 0 3 1-3 1 4 4 11 7 10 8 7 5 5 6 11 9v2l3 1 3 4v2l-5-2-5-4v-2l-4-2-14-13-14-10-6-4-1 8-7 15-15 30v4l2 1v2h20l11-3 4 1v-2l5 1h11v2l5-1 13 3v3l-9 3-1-1h-14l-13-1-5 2 1 7 2 7v5l-5-1-7-4h-3l-1 2-7 1-7-6v-2l-3-1-2-10-4 1-5 9-10 15-3 1v-2l-6 4-4 2 1-5 6-16-2 1-3 5-11 12h-4l1-8 2-8-5 5-6 8-3 3h-2l1-5 13-23 9-2v-3h19l11-2 2-1-3-9-6-11-10-17-2-5 4-1 4 2 1-2 3-2 4 1 4-2v-8h2l2-6 4-4 1-4z" fill="#E0998B"/>
<path transform="translate(802,520)" d="m0 0 3 1 5 5 5 4 4 8 1 10-3 8-6 9-4 2-4 7h-2l-1 3-8 3-5 2h-12l-15-2v2l-4 4-2 4-2 1h-7l-7-1h-14l-3-5-4-21v-4h-7l-4 2-5-1-3 9-6 12-5 2-4-1-1-9-4 4-3 5-5 5h-6v-2l-5-2-1-7 2-9-5 1h-7v-2l-5 2h-3l-1 3h-7l-3-1h-7l-4 2-1 4-2 6-4 1-5-5-3-1-1 7-2 3-4-1-2-4-4-1v-2h-2v-2h-3v5h-3v2l-5-2-2-4h-3l-4-6 1-3 9 6 4-1 1-5 3-1 5 6 5 3v2h2l2-5 3-2 9 3 2-4 3-2-7 2h-4-2v-2l12-9 5-6-18-1-6-1 1-2h8l9 1h11l1 5-4 2v2l7-1 9-2 10 2 6 2 2-5 3-2h5l3 5v6h7l4-4h6l2 3 7 1 3-3 4-12 1-2h6l7-4h14l1 5-5 2-1 6-1 2h2l1-2v8h9l1-2 5 1h10l8 1 8 4 6 1 1-5 2-4 4 1v9l7-1 8 1 3-1 4-4h2l-2-10-1-4 4-2 2-7-1-6v-13h-2z" fill="#F9BEAD"/>
<path transform="translate(588,487)" d="m0 0 5 2 13 10 8 7 10 9 2 1v2l4 2 6 4-4-6-8-7-1-3 4 2 5 2h10l4 2 13-11 6-4 10-9 4-2 4 1 5 12 9 25 2 7v10l-4 3-7 2h-10l-11-4-1-1-2-13-4-11-4 2-4 5-7 4-6 5-7-1-12-9-9-6v-2h-2v-2l-4-2-8-6h-3l-11 23-1 5 4-4 9-19 4-1 5 5 1 2-6 16-5 8-5 4-12 1-10-1-3-2 1-6 11-21 10-22z" fill="#D31214"/>
<path transform="translate(257,514)" d="m0 0 4 2 3 3h6l4-1 4 5v10l-4 7h-3l-2 4-4 4h-2v2h-5l-1 3h-4v2l-3 1-1 2h-3l-1 3 3 5v2l4 1v2h2l1 6-3 1-16 1-12 1-7 1-15-2h-12l-10 1-5-1-10-1-2-1v-2l-10-1-9-2h-4l1-5 1-2h2v-2l3-2 1-6-1-3-3-1-3-5-1-4 2-5-6-1-7-8-1-4 7 6 12 9 15 8 13 4 2 4 5 1 15 2 17-2v-5l9-3 13-4 8-4 7-5h2v-2l9-9-1-5z" fill="#F6A598"/>
<path transform="translate(734,374)" d="m0 0 10 1 9 6 2 5 1 12v10h-1l-1 41-1 11-6-1-3 2-4-1-2-1-1 3-2-1-1 3-3 3 1 6 2 5-1 4-1 3 5 1v5h-4l2 4-4 7v14l-5 6h-2l1 3-2 2-2-7v-31l-1-22v-82l9-9z" fill="#F91316"/>
<path transform="translate(330,399)" d="m0 0 37 2 1 6v37l-1 15-5 10-4 5h-2l-2 4-2 3-2 13v48l2 4 13 3 4 2-2 1h-35l-6-1 4-2 14-3-1-63-4-8-3-3v-2h-2l-8-12 1-22 1-7 1-29z" fill="#F3C3B7"/>
<path transform="translate(755,387)" d="m0 0 3 3 1 5 5 2 7 4 3 3 2 1 4 8 1 7 2 13 2 41 2 19 3 15 3 4v2h-22l-15-1-1-2z" fill="#F4B1A5"/>
<path transform="translate(549,396)" d="m0 0 5 5 2 7h2l1 5h9l11 5 9 4 7 4 2 5v4h2l1 2 2-2-1 6h-2l-1 6-1 3h-2l-1 6-6 15-2 3-4 1h-15l-1 5h-2l-2 5-2 4h-2l1 8-5 3-1-2-5 1-1 2-4 1-5-1-6-10-4-7 1-5 11-8 7-9 4-7 4-9 1-6v-24l-4-13-3-5z" fill="#FABDAC"/>
<path transform="translate(454,472)" d="m0 0 2 2 1 63 2-1 2-62h36l7 1 6 10 7 12 6 12v3h2l11 20 3 3-1-5-11-21 1-2 6 9v2l5-2 1-6-1-5 4 4 9 16 8 16-1 3-5 2-8 1h-14l-6-2-12-22-12-24-8-11-2-2-5-1h-12v36l-1 25-1 3-3 1h-14l-8-1-1-2 4-2v-9l1-3 1-8z" fill="#F81115"/>
<path transform="translate(441,384)" d="m0 0h1l1 164 13 1h17l1-28v-31l1-5 3-1h9l6 2 7 8 14 27 10 19-1 2h-3-3l-13 1-2 2-8 1-10 2-4 2-9 1 2 6v17l-2 10-4 1-6-3-3-12-2 4-4 2-7-3-2-5v-12l16-1 5-2-1-1-18-2-4-2z" fill="#E0998B"/>
<path transform="translate(474,401)" d="m0 0h28l11 2 4 3v2l4 1 4 6 2 7v11l-3 11-3 5h-2v2l-9 5-17 2h-14l-5-1-1-9v-46z" fill="#F2CDC2"/>
<path transform="translate(671,422)" d="m0 0h8l12 6v2l5 1 3 2v2l4 1 4 3 2 6h2l1 6h3l1 2 1-6 1-22h1v75l-2 4-1-4h-2l-3-5-5-5v-2l-4-2-2-4-7-4-6-2h-9v-2l-3-1-13-35-3-8v-3l3-1 1 1 3-3z" fill="#F0BEB3"/>
<path transform="translate(559,557)" d="m0 0 4 3 6 13 3 7 6 9v2h7l3-6 4 1 7 8 1 1h5v-8l4-1 4 5v2l6 1 1-6-1-9 2-4 4-2 5 1 3 3 1 7 5 4h4l1-6 1-4-1-2v-6l5 1 5 2 1 1v7l-1 9 5 2 9 1 8-7 4 2 2 4 7-1 2-4 1 3-6 11h-2v2l-5 1-2-2-1-6h-3l-2 4-5 5-4 2h-10l-6 3-25 1-19-2-4-2h-9l-8-5-10-18-5-8-1-3-4-3-9 1-4 1 4-8z" fill="#F4DAD0"/>
<path transform="translate(338,676)" d="m0 0h217v2l-4 1h-89l1 5 17 1v3l-12-1 1 4 4 3h7l4-1 1-4 6-3h3v-5h2v5l-2 3 5-1v-2h4v3l-4 3-10 2-8 4h-10l-2-1-1-3h-3l-1 3h3v10l-5 8-7 4-5-1-6-5-1-4h-2l-1-2v-6l3-3 1-5-5 3-9 3-8-4-4-3-3-6-2-2v-3l-3 2v4l4 3-1 3-5-2v-10l1-2h-63l-8-1z" fill="#E58A80"/>
<path transform="translate(582,474)" d="m0 0 3 1-3 1 4 4 11 7 10 8 7 5 5 6 11 9v2l3 1 3 4v2l-5-2-5-4v-2l-4-2-14-13-14-10-6-4-1 8-7 15-15 30v4l2 2h-13l3-2 2-1-3-9-6-11-10-17-2-5 4-1 4 2 1-2 3-2 4 1 4-2v-8h2l2-6 4-4 1-4z" fill="#F39587"/>
<path transform="translate(457,386)" d="m0 0h52l13 3 9 6 5 5 6 9 2 7v21l-3 12-7 11-9 8-10 4h-8l10 17 15 28 8 15-1 4-6-7-8-15v-2h-2l-4-9-15-27-7-1-36-1v37l-1 25-3 1-1-2v-65l43-1 15-2 10-5 8-9 5-10 2-10v-12l-2-10-6-8v-2l-3-1v-2l-4-2-9-4-31-1h-22l-1 64-4 1-1-1v-68z" fill="#F4BDB1"/>
<path transform="translate(631,437)" d="m0 0h3l8 22 6 15 3 10v8l-4 11-1 5 6-3 12-10 13-10 2-1 1-4h3l8 19v5l-3-1-5-13-4-1-6 4-10 9-9 6-8 7-4-2-6-5v-2l-4-2-5-3-3-3v-2l-5-2-7-6v-6l12-28z" fill="#F29587"/>
<path transform="translate(229,420)" d="m0 0 4 2 5 2v2l5 1 3 5h12l-1 14-1 6h-1v-12l-3-1v2h-5v-2l-5-2-3-2v-2h-3v-2l-9 1-10 1-10 3-12 3v2l-13 9-5 10-2 11v8l2 15 2 4v6l1 1v6l-1 2 5 1 3 1v2l-8-1-11-4-5-5-1-4 1-2-1-34 3-12 4-8h2l1-3h3l1-4 7-5h2l1-2 11-7 16-4h15z" fill="#F4D8CD"/>
<path transform="translate(529,252)" d="m0 0h15l9 4 8 7 6 12 1 1v16h3v-2l5-1 1-3 13-7 11-3h27l11 3 6 3 9 7 4 3v2l4 2 3 5 4 10v15l-3 9-4 6-9 6-3 1h-15v-2h-6l-1-3-4-1-6-5-3-7v-8l4-9 1-2h2v-2h3v-2l6-3h9v2h5l6 7v11l-4 5-4 2h-6l-1-4h9v-2h2v-9l-2-4-6-3h-7l-6 3-4 4-2 6v8l6 9 3 1v2l4 1 18 1v-2l7-4 5-7v-19l-3-9-9-11-5-4-3-1v-2l-9-2-6-3h-23l-9 2h-5v2l-5 2h-4v2l-10 6-11 11h-2l-2 4-3 2-9 1h-11l-2-1v-2l-5-2-6-7-2-6v-11l4-6 8-5h13l7 5 2 5v9l-4 6-6 3-6-1-1-4 9-2 3-2 1-8-4-6h-13l-6 3-2 3v13l5 8 2 1v2l8 1h11l8-5 6-8v-18l-5-9-6-7-6-4-19-2-1 3-9-3-9-1v-1h10l7 2v-2z" fill="#EA9E91"/>
<path transform="translate(254,390)" d="m0 0 4 2 6 5 2 1-1 8h2l-1 9 4-1-9 19-3 9h-1l1-10-2 1h-10l-3-3-1-3-4-1v-2l-6-2-3-2-1 3h-18l-7 3-8 2-10 7-9 6-1 3-3 1-1 2h-2l-2 5-3 9-1 12 1 28-1 5 2 3-4-2-8-7v-28l1-3h-2l2-9 2-10 8-12h2l2-4 9-7 9-3 4-2 10-1v-2l9-1 2 1v-2l6-2v-2l-1-2h6l13 9 5 3 5-5 12-11 5-4 1-3-9-9z" fill="#EFBCB1"/>
<path transform="translate(728,375)" d="m0 0 3 1-8 7-2 2-1 148 3 5 1 2-8-4v2h-2v2l-12 3-2 2-3-1 1-1v-10l-9-27 1-7-7-17v-2h-3l-1 2-3-8h2v2l9-1 10 4 5 4v3l3 1 4 5v2l4 2 1 4h2l1 3 1-7 1-112 6-7z" fill="#D37E71"/>
<path transform="translate(120,465)" d="m0 0 3 4 1 5 3 1v4l6 3h7l1 2 4 2 7 11 4 5 9 7 8 4 15 4h12l15-4 6-1-3 3-13 5-7 2-9 1 2 5 6 2 16 1-4 1v2l-10 1h-10l-7-1v-2h-6l-12-4-13-7-13-10-8-10-6-12-4-12z" fill="#BD0D12"/>
<path transform="translate(588,487)" d="m0 0 5 2 13 10 8 7 9 8-1 3 3 1 4 7v2h2v2l-4 1-11-8-5-3v-2h-2v-2l-4-2-8-6h-3l-11 23-1 5 4-4 9-19 4-1 5 5 1 2-6 16-5 8-5 4-12 1-10-1-3-2 1-6 11-21 10-22z" fill="#E31015"/>
<path transform="translate(765,514)" d="m0 0h28l6 3 6 8v10l-5 8-4 3-4 1h-54l-4-1v-2h3l-3-6v-3l36-1h2v-4l-5 2-2 1v-3l-6 1-4-1-1 3-6-1h-13l-4-9 1-4 1 3 4 2 1-4 5 3 35 1 6 1 9-1 7-1-3-4h-4v-2h-16l-7 2-5-2-7-1v-1z" fill="#BE0E13"/>
<path transform="translate(375,253)" d="m0 0h21l-4 2 6 1v1h-23l-12 6-7 7-4 9v11l3 12 4 2 5 5 5 3h14l9-4 6-3 3 2-7 3-10 5-5 1h-12l-10-4-6-4v-2h-2v-2l-4-2-6-5v-2l-3-1-5-5-4-2v-2h-3v-2l-6-2-10-5h-22l-8 3-8 2v2l-3 2h-3l-2 4-6 5-2 4h-2l-2 9-2 3v11l2 5v6l3 1 3 6 3 2v2l5 1 8 3h16v-2l6-5 4-8 1-10h-2l-3-6-6-4h-11l-5 4-2 4v7l5 5 4 2-3 1-7-3-3-3-1-3v-7l4-8 8-4h12l9 6 4 7 1 2v11l-6 9-5 6-12 4-13-1-10-6-5-5-3-5-2-9h-2l-1-3v-13l5-13 7-9 6-4 5-5 5-3 9-3 5-1h22l13 4 2 1v2l6 2 11 9 8 8v2h2l-2-9v-13l6-11 10-9 5-3z" fill="#E3A396"/>
<path transform="translate(114,439)" d="m0 0h1l1 26 4 16 6 15 9 13 9 10 14 9 8 2v2l4-1 2 2 8 2-4 1v2l-19 1-2-1v-2l-6-2-4-3-7-2-7-7h-5l-4-4-7-11-5-11-4-10-2-14v-26l1-5 2 2 1 5h2l1-6z" fill="#D51416"/>
<path transform="translate(247,565)" d="m0 0 4 2 8 7 1 3 4 2 1 6-7 4-10 2-2 1h-9l-15-6-17-3h-13l-13 2-19 6-2 3-6 1-11-8-4-2-7-1-1-1v-5l11-12 2 1-2 5 6-1 17 4v2l16 1 2 1 17-1 15 1 9 1 5-1 20-2h8l-1-6h-2v-2l-4-1z" fill="#F8BEAE"/>
<path transform="translate(594,506)" d="m0 0 5 1 10 8v2h2v2l5 2 16 12 7 1 10-8 5-3 4-5 3 1 5 14 1 10 11 4v1l-18 2-16-2-1-2-8-3v-2h-4v2l-5-1-3-2v-2h-2l-3-4-9-1-2 1-2 4-2 2h-3v2l-6 2-1 2-6 2h-17l-3-2h15l9-2 5-6 6-14 2-7-5-5h-3l-10 21-4 2 1-7 10-21z" fill="#D57F72"/>
<path transform="translate(287,417)" d="m0 0 1 2v6l3 1 3 9 2 10 2 13v16l-3 18h-2v3h-2l-1 3h-4v4h2v3h2l-1 4-5-8-5-12-2-6-1-9v-26l2-11 4-11z" fill="#F4D7CC"/>
<path transform="translate(158,546)" d="m0 0 12 3 5 2 2 4 5 1 15 2 17-2v-5l9-3 11-2-2 3h-6v4l7 3v2l7 2 5 4 1 6-17 1-2-1h-9l-5 1h-8l-1 2-5-2v2l-9-1-4-2-12-2-5-1-3-1h-10l-5-1 2-5 6-2v-2h2v-6l-3-3z" fill="#EF8478"/>
<path transform="translate(330,424)" d="m0 0h1l1 22 1 10 3 1 1-5h1v5h8v-2l5 1h14l-1 10-6 8h-2l-2 4-2 3-2 13v48l2 4 13 3 4 2-2 1h-35l-6-1 4-2 14-3-1-63-4-8-3-3v-2h-2l-8-12 1-22 2-9z" fill="#F81115"/>
<path transform="translate(559,551)" d="m0 0 4 1 2 10 7 6v2h9l1-3 5 1 6 4 4 1-2-11-1-1-1-8 3-1 22 2 3 1-2 4-9 8-4 3h-2v2l3-1v2l8-4 4 1-6 4-1 2-8-1h-3l-3 5h-2v-2l-5-2-5-6h-3v5l-6 2-6-5-4-2-6-11h-3l-7 8-4 8-3 1v3l-2 1-4 7h-2v3l-5 5-4 1-4-1 2-9 2-7-7 6-4 5-5 3h-3l2-8 1-6h-2l-6 8-6 7h-3v-5l3-5h2l2-5 6-11 1 3-4 8 4-1 2-5 8-10 3-1-2 9-2 8 5-2 11-12 2-4h2l-2 9-5 12 8-6 5 1 2-5 8-11 5-9z" fill="#F4B2A6"/>
<path transform="translate(452,593)" d="m0 0h15l3 2-14 1 1 8 3 1v3l5 1 4-1h7l-1 3-8 3-4 5h-2v3l9-1 23-1-1-6-11-3v-2l7-1v2l8 1v5l-1 4 26 1 9 2v2h-146v-4h32l-2-5 1-8h8v2l-6 3 3 7 21 1-2-7-7-2-4-2v-2l6 1 8 4-2-6-4-2-7-1h-11l-4 2h-3l1-3 4-2 22-1 2 4h12z" fill="#EFA094"/>
<path transform="translate(476,403)" d="m0 0h33l8 3v2l4 1 4 6 2 7v11l-1 5-4 3-2 6-4 2h-3l-1-2-4 1v2h-2l1-6 2-4-1-5-7-6-6-9-6-3-12-4-1-5z" fill="#F5F1EF"/>
<path transform="translate(718,395)" d="m0 0h1v30l-1 22-1 10-2-4v-2h-3l-1-6h-2l-4-7-6-3v-2l-5-2-3-1v-2l-5-1-8-4h-7l-6 2-3 3-4-1-6-18 1-2 2 1 4-2 4-5 4-1 4 2h-3l1 3 6 4 1 2 20 5 10 1 10 8 1-2z" fill="#F4D9CE"/>
<path transform="translate(502,475)" d="m0 0 3 1 5 9 7 12 6 12v3h2l11 20 3 3-1-5-11-21 1-2 6 9v2l5-2 1-6-1-5 4 4 9 16 8 16-1 3-5 2-8 1h-14l-6-2-12-22-3-6v-2h2l5 9 2 1-1-6 1-2-2-6-1-8-7-13v-2h-2l-4-7-3-5z" fill="#D21214"/>
<path transform="translate(406,215)" d="m0 0h12l10 5 12 7 3 1v2l-10 4-4 2-6 7-10 2-22-2-1-2h-8l2-4 12-13 8-7h2z" fill="#F5E6E3"/>
<path transform="translate(128,578)" d="m0 0h1l1 5 10 2 10 8 5 1h3l2-4 13-4 6-2 13-2h13l20 4 12 5h9l5-2 10-2 4-2v5l-5 5-10 5h-7l-7-3-12-6-9-3-13-3-4-1-16 4-19 7-9 7-9 4-8 1-5-3-3-4v-2l-7-1-2-6 5-9h2z" fill="#FAD4CD"/>
<path transform="translate(755,387)" d="m0 0 2 4 1 70 6 1 3 8 3 12 6 11 2 8 1 7 1 3 13 2v1h-22l-15-1-1-2z" fill="#E1988A"/>
<path transform="translate(549,396)" d="m0 0 5 5 2 7h2l1 5h9l11 5 9 4 7 4 2 5v4h2l1 2 2-2-1 6h-2l-1 6-1 3h-2l-1 6-1 3h-2v2h-2l-1-7 1-7-3-6-7-3-3-1v-2l-8 2-5 8-3 4h-2l-1-31-5-15-3-5z" fill="#F3D5CA"/>
<path transform="translate(756,389)" d="m0 0 2 1 1 5 5 2 7 4 3 3 2 1 4 8 1 7 2 13 2 41 2 19 3 15 3 5h-8v-2h-2l-3-4-3-23v-17l-1-17v-8l-4-20-3-7-1-3-5-2-3-1-2 3-1-1z" fill="#F0BEB3"/>
<path transform="translate(645,567)" d="m0 0h3v2l12-2 1 3-2 7v7l5 2v2l7-2 5-6 4-6h2l1 2v7h6l3-1-2 5-3 3h-6l-2-7-11 11-11-1-4-3 1-16-10-4 2 9-3 9-4 1-6-5-1-7-3-3-6 1-2 1-1 5 1 8-2 6-4-1-5-5-1-2h-3v8l-1 1h-5l-5-5v-2l-3-1v-2h-4l-3 6-7-1-9-14 1-2 2 4h3l5 5 2 1v-2h3v-5h3v2h2v2l4 1 3 4h3l3-9 4 1 4 4 4-1 1-5 2-4 4-3h7l3 1h7l1-2z" fill="#FBCEBE"/>
<path transform="translate(257,514)" d="m0 0 4 2 3 3h6l4-1 4 5v10l-4 7h-3l-2 4-4 4h-2v2h-5l-1 3h-4v2l-3 1-1 2h-3l-1 3 2 4-4-2-4-3-6-2v-2l-7-2-2-3h2v-2l7-2 3-3 8-4 7-5h2v-2l9-9-1-5z" fill="#F1BEB2"/>
<path transform="translate(193,384)" d="m0 0h10l17 3 9 4 11 7 3 3v2l-4-1-11-8-11-4-11-2h-20l-14 3-16 7-10 7-7 11-8 17-2 2-8 1-1 10 7 1 1 4-3 3h-8l2 7 2 16 6 17 7 11 7 8-1 2-7-7-8-12-6-15-4-16v-23l4-13 7-11 8-10 8-8 12-5 15-7 12-3z" fill="#F7BFB0"/>
<path transform="translate(532,549)" d="m0 0 6 1 17 1-1 10-8 11-3 5-3 1v-2l-6 4-4 2 1-5 6-16-2 1-3 5-11 12h-4l1-8 2-8-5 5-6 8-3 3h-2l1-5 13-23 2-1z" fill="#D68577"/>
<path transform="translate(447,634)" d="m0 0h11l7 3 4 6 1 4v7l-3 6-4 3-6 5h-8l-8-6-4-5-1-4v-8l4-7z" fill="#F5EBE8"/>
<path transform="translate(672,446)" d="m0 0 13 6 7 8 8 10 5 1v2l4 1 7 6 1-1 1-18h1v39l-2 4-1-4h-2l-3-5-5-5v-2l-4-2-2-4-7-4-6-2h-9v-2l-3-1-2-5 1-3 1-5h-2l-2-4v-8z" fill="#E0998B"/>
<path transform="translate(320,550)" d="m0 0 12 1h35l6-1 10 1 7 4-1 5-10 2-15 1h-44l-10-1-4-4 1-4 2-2z" fill="#EF8B7E"/>
<path transform="translate(441,384)" d="m0 0h1l1 164 28 2 1 4 1 3v17l-2 10-4 1-6-3-3-12-2 4-4 2-7-3-2-5v-12l16-1 5-2-1-1-18-2-4-2z" fill="#EA8B7F"/>
<path transform="translate(229,504)" d="m0 0h3l1 9 1 2h7l6 2-1 6-7 4-3-1-6 4-15 5-14 2h-9l-10-2v-1h27v-2l-8-1h-6l-6-4v-4l13-3 5-2 12-5-1-2 9-5z" fill="#D21416"/>
<path transform="translate(496,561)" d="m0 0h9l2 1-1 6-12 24-3 7-1 1-16 1v-17l3-11 7-7 8-4z" fill="#F6F5F4"/>
<path transform="translate(145,561)" d="m0 0 2 1-3 1v2l-6 4-8 9h-2l-1 4-3 3-3 7 1 5 7 1 4 6 5 2 10-2 9-5 8-6 20-7 13-3h5l2 2 18 4 9 5 7 4 4 1h7l12-6 5-7 2-3-1 7-7 8-9 7h-10l-6-3-11-7-7-3-16-3-7-1-9 3-8 4-12 2-5 1v2l-5 4-11 4-19 3-5-4-5-2-2-5 3-10 8-11 14-14z" fill="#F4DACF"/>
<path transform="translate(632,392)" d="m0 0h3l3 10 3 7 10 29 13 35 3 10v5h-2l-6-14-6-16-15-42-4-13-3 3-7 20-6 13-4 11-8 19-4 10h-4l-1-3 7-17 6-13 6-16 5-11 5-13 4-9z" fill="#ECBAAF"/>
<path transform="translate(501,223)" d="m0 0h9l10 4 9 6 5 6 5 5v2l-23 1-2 1h-13l-6-2v-2l-4-2-7-5 1-2h10l10 2 12 1v-2l-6-3-5-2h-15l-7 1-1 4-4-2v-2l10-4 4-3z" fill="#F71517"/>
<path transform="translate(597,551)" d="m0 0h9l9 1h11l1 5-4 2v2l7-1 9-2 10 2 6 2 2-5 3-2h5l3 5v6h7l4-4h6l2 3 7 1 3-1-1 5-3 3-4-2-5-5-3 1-3 8-4 1-1 3-3 1-7-3-1-3 2-8v-7l-5 3-4 4-5 1-7-1-13 2-15 2-6 3-5-1v-2l12-9 5-6-18-1-6-1z" fill="#F4B2A6"/>
<path transform="translate(724,552)" d="m0 0 1 3-2 5h2l1-2v8h9l1-2 5 1h10l8 1 8 4 6 1 1-5 2-4 4 1v9l7-1 8 1 3-1 4-4 1 2-2 1-2 6-2 1-15 1-20-1-11 2-12-4-4-1h-3l-4 5-4-1-3-6-1-13z" fill="#F39688"/>
<path transform="translate(448,685)" d="m0 0 2 1v2l-4 4v4l1-3 13-1 4 3v2h3v10l-5 8-7 4-5-1-6-5-1-4h-2l-1-2v-6l3-3 1-5-5 3-9 3-8-4-1-2h3v-3h3v-2z" fill="#F5ECE9"/>
<path transform="translate(675,431)" d="m0 0h5l7 8 4 3v2h2l5 8 2 2-1 2h2l4 7 6 9 5 2 2 1-1 7-7-6-5-3v-2h-5l-10-12-5-5v-2l-7-2-5-3-1 1v8l1 4h2v7l-1-2h-2l-8-21v-3h2l3-9z" fill="#F4B1A5"/>
<path transform="translate(557,418)" d="m0 0h1v31h2l2-4 6-9 2-1h6v2l7 1 5 4 2 6-1 13h2l1-2-1 4-4 9-1 2-4 1h-7l-1-2 3-4 1-4v-9l1-6-4-1v-2h-6l-4 1-1 4-3 4h-3l-1 2-5-1v4h-3l-2 6-5 5-4 6-4-2 7-6 6-8 4-7 4-9 1-6z" fill="#EFBBAF"/>
<path transform="translate(564,465)" d="m0 0 2 1 2 5h-3l-1 4 3 1-1 4h-2l-2 5-2 4h-2l1 8-5 3-1-2-5 1-1 2-4 1-5-1-6-10-4-7 1-5 2 1v5l5 2 6-7 5-5 7-6 9-3z" fill="#F3B0A4"/>
<path transform="translate(446,677)" d="m0 0h108l-3 2h-89l1 5 17 1v3l-12-1 1 4 4 3h7l4-1 1-4 6-3h3v-5h2v5l-2 3 5-1v-2h4v3l-4 3-10 2-8 4h-10l-2-1-1-3-4 1-2 1-2-3h-13l-1 4h-1l1-7 4-2-2-2-11 1-1-2 7-2z" fill="#D94C47"/>
<path transform="translate(754,403)" d="m0 0h1l1 11-1 81-3 1-1-5h-2l-4-5-13-3 1-5-3-7 1-6 2-2 4-2 1-2 6 1 3-2 5 1 1-10z" fill="#E3161B"/>
<path transform="translate(444,272)" d="m0 0h10l2 2v7l-4 8h-2l1-14-7 3-10 8-5 6-5 11-1 13 10-2 3-3 6-3 6-9 5-3h6v5l-7 2-3 3v4l4-6 3 1-1 5-5 6h-7l-2-2-7 6-4 1h-11l-3-4v-13l4-10 8-10 2-3h2l1-3 5-3z" fill="#F4E2DE"/>
<path transform="translate(748,549)" d="m0 0h36l12 1 4 2 2 9v3l-6-2-1 4-2-1-3-5-14 1h-9v-2l-5 1h-10l-13-2-7-3 1-3 10-2z" fill="#D06E62"/>
<path transform="translate(730,552)" d="m0 0 3 1v2l11 3 8 1h15v2l9-1 14-1 3 3 2 3 1-3 4 1 2 1-1-3v-7l2 3 1 3v7l-4 2-2 3-5 1-8-1-3 1-2-1-1-9-3-1-3 9h-6l-8-4-13-1h-8-3l-9 1-1-3 1-8h2z" fill="#EF8478"/>
<path transform="translate(375,253)" d="m0 0h21l-4 2 6 1v1h-23l-12 6-7 7-4 9v11l3 12 4 2 5 5 5 3h14l9-4 6-3 3 2-7 3-10 5-5 1h-12l-10-4-6-4v-2h-2v-2l-4-2-6-5v-2l-3-1-5-5-4-2v-2h-3v-2l-6-2-9-4 4-1-1-1-6-1h-19l-11 2 1-2 9-2h22l13 4 2 1v2l6 2 11 9 8 8v2h2l-2-9v-13l6-11 10-9 5-3z" fill="#F2B5A9"/>
<path transform="translate(608,532)" d="m0 0h6l5 2 2 4h2l3 3 5 2v-2h4v2l9 3v2h11l3 2 1 7-3 3-1 2-6-1-10-2-12 3-5-1 1-3 4-1v-3l6-3h3v-3l-14-2h-4v-2l-2 1h-9l-5-2v2l-8 1v-3l6-1v-2l5-3z" fill="#F39587"/>
<path transform="translate(637,456)" d="m0 0 1 4h2l1-4 7 18 3 10v8l-4 11-1 5 6-3 12-10 13-10 2-1 1-4h3l8 19v5l-3-1-5-13-4-1-6 4-10 9-9 6-8 7-4-2-2-3 3-1 2-9 2-8h-3v-2h-6l-1-2-3-2 1-1v-26h2z" fill="#E0988A"/>
<path transform="translate(659,294)" d="m0 0 4 4 4 9 2 4v15l-3 9-4 6-9 6-3 1h-15v-2h-6l-1-3-4-1-6-5-3-7v-8l4-9 1-2h2v-2h3v-2l6-3h9v2h5l6 7v11l-4 5-4 2h-6l-1-4h9v-2h2v-9l-2-4-6-3h-7l-6 3-4 4-2 6v8l6 9 3 1v2l4 1 18 1v-2l7-4 5-7v-19l-3-9-2-3 2-3z" fill="#F2B7AB"/>
<path transform="translate(120,445)" d="m0 0h7l2 2v3l6-2 5 1 1 21 3 15-4-1v-2l-7 1-7-4 1-4-4-1-2-7-1 5h-1l-1-11-1-7 8-1 2-2v-3l-7-1z" fill="#D21214"/>
<path transform="translate(452,593)" d="m0 0h15l3 2-14 1 1 8 3 1v3l5 1 4-1h7l-1 3-8 3-4 5h-3v5h-18l-1-7-2-1v-2l-7-2-4-2v-2l6 1 8 4-2-6-4-2-7-1h-11l-4 2h-3l1-3 4-2 22-1 2 4h12z" fill="#E28679"/>
<path transform="translate(454,472)" d="m0 0 2 2 1 63 2-1 2-62 3 1-1 1-1 56 5-2h4l2 1v-10h1v25l-1 3-3 1h-14l-8-1-1-2 4-2v-9l1-3 1-8z" fill="#E21014"/>
<path transform="translate(330,405)" d="m0 0 3 1 1 47h2v-27l1-10h2l1 12 1 27 3 1v-39h3v8l2 13 1 15 2 1 1-4h3l1-4 3 2 3-9 2-8h1v30h-1v-5l-5 1h-9l-5-2v2l-6 1-2-1-1-3-1 3-4-1-2-29h-1v-11z" fill="#DA877A"/>
<path transform="translate(190,405)" d="m0 0h14l9 2 2 2-14-1 7 2v2l-4 1-1 2-8 1-8 4-9 3-13 5-5 2-1-5 3-5-4 2-1 3-5 4-2 4h-2l2-5 10-11 15-8 9-3z" fill="#F3A194"/>
<path transform="translate(457,386)" d="m0 0h52l6 1v1l-6 1 2 2h-49l-1 64-4 1-1-1v-68z" fill="#EDA095"/>
<path transform="translate(802,520)" d="m0 0 3 1 5 5 5 4 4 8 1 10-3 8-6 9-4 2-4 7h-2l-1 3-8 3-5 2h-12l-15-2v-1l6-1h21l12-3 2-6h2v-9l-2-7 4-2 2-7-1-6v-13h-2z" fill="#EFBDB2"/>
<path transform="translate(520,540)" d="m0 0 5 2 2 3v3l3 1-12 3-3 6h-1v-5h-12l-6 2-7 1-3 1v2l-10 5h-2l-1 3-2-13v-4l9-1 7-3 11-2 10-2 9-1 2 1z" fill="#F0BFB4"/>
<path transform="translate(535,561)" d="m0 0h2l-2 9-4 9 1 4 6 1 1-3h2l-2 5-3 1v3l-5 5-4 1-4-1 2-9 2-7-7 6-4 5-5 3h-3l2-8 1-6h-2l-6 8-6 7h-3v-5l3-5h2l2-5 6-11 1 3-4 8 4-1 2-5 8-10 3-1-2 9-2 8 5-2 11-12z" fill="#F0BCB1"/>
<path transform="translate(719,562)" d="m0 0 2 2 2 11 2 3 3 1 1-3h2l1-3h7v2l6 1 9 2 10-2 26 1-3 2h-27v3l-4 4-2 4-2 1h-7l-7-1h-14l-3-5-2-9z" fill="#FABDAD"/>
<path transform="translate(113,463)" d="m0 0 1 2h2l4 16 6 15 9 13 9 10 12 8-4 2-7-1-11-5-8-7-5-10-5-16-4-12v-10z" fill="#BD0D12"/>
<path transform="translate(509,578)" d="m0 0 3 1-1 6-3 8 6-3h2l2-4 4-2 2-4 4-2-2 8-3 9h7l3-2-2 4-7 9-3 3-3-1v-6l-2-1v-2l-6 1v2l-2 1-1 3-5 4h-2l1-8 1-5-2-1-5 3-2 2h-14v-1l11-1 3-7 1 2 4-2 2-3h2l2-5z" fill="#F5DAD0"/>
<path transform="translate(440,385)" d="m0 0h1l1 163 12 2 9 1 2 2-6 3h-16l1 12 2 5 9 2-1 5-8-1v-2h-2l-1-4-1 5h-1l-1-10-1-17-2-1v-2l-4-1-1-7 4-5 2-9v-7l-1-3 2-9z" fill="#F4D0C5"/>
<path transform="translate(660,560)" d="m0 0h3v8l-2 2-1-2-5 1h-7v-2l-5 2h-3l-1 3h-7l-3-1h-7l-4 2-1 4-2 6-4 1-5-5-3-1-1 7-2 3-4-1-2-4-4-1v-2h-2v-2h-3v5h-3v2l-5-2-2-4h-3l-4-6 1-3 9 6 4-1 1-5 3-1 5 6 5 3v2h2l2-5 3-2 9 3 2-4 8-4 11-1 10-2 8 1 5-2z" fill="#F9BEAE"/>
<path transform="translate(247,565)" d="m0 0 4 2 6 5 2 4v7h-20l-3 1h-11l-19-3h-14l-18 2-7 1-9 1-5-5-8-4-10-1 2-4 3-2v3l6-1 17 4v2l16 1 2 1 17-1 15 1 9 1 5-1 20-2h8l-1-6h-2v-2l-4-1z" fill="#F4B2A6"/>
<path transform="translate(626,450)" d="m0 0 2 2 5-1 1 1v13l-8 20-3 6v3l5 5 2 4-6-5v-2l-5-2-7-6v-6l12-28z" fill="#ED9386"/>
<path transform="translate(658,518)" d="m0 0 3 1 5 14 1 10 2 2-9 2-16-4v-2h-2l-2-3-5 1-3-2-3 1-1-5v-3l6 4h5l10-8 5-3z" fill="#D06E62"/>
<path transform="translate(545,634)" d="m0 0h12l5 4 2 3-1 8h-3l3 9 6 8v2l-6-1-3-2-3-6-4-5-3-1v13l-5 1-1-4v-27z" fill="#DD524C"/>
<path transform="translate(570,476)" d="m0 0h7l5 5 4 5-4 6-3 10-3 3-9-2-7-8-1-6 5-9z" fill="#F91115"/>
<path transform="translate(679,488)" d="m0 0 3 1 7 21 3 7 2 7v4l-7 1-1 3-2 4-2-1v-7l-5-17-2-6-4-1-2-5-2-2 10-8z" fill="#E31015"/>
<path transform="translate(151,560)" d="m0 0 2 1v3l5 1h8l5 2 9 1 7 2 7 1 5 2v-2l5 1 1-1 12-1 1-1h9l5 1h14l-1-5 3 1v2h2l1 6h-14l-8-1-2 2-13 1-4 1-4-1h-16l-8-2-2 1-12-4-7-1-2-1-15 1 1-5z" fill="#F49688"/>
<path transform="translate(283,424)" d="m0 0 1 4v5l3 1-5-1-2 8h2l3 5v2l2 1-1 10 1 4-1 2h2v9l-2 7h-3v10l1 5-2 1-5-14-1-9v-26l2-11 4-11z" fill="#EFB2A7"/>
<path transform="translate(489,635)" d="m0 0h4v13l6-1 3-3 1-3-4-2-2-4h6l3 3 1 5-2 3 1 4 2 2v9l-4 5-2 1h-12l-2-2v-29z" fill="#D51517"/>
<path transform="translate(364,416)" d="m0 0h2l1 3v40h-1l-1-25-3 13-1 2-4-2-1 3-3 1-1 3-3-1v-15h1l2-16 2-2 5-1 1-2z" fill="#F4B1A5"/>
<path transform="translate(445,170)" d="m0 0h3l3 7 3 3 6 11 1 9h2l1 9 1 1 2-4h2l1-5 4-7 7-7 4-6 3 1-3 6h-2l-2 4-13 24-3 6h-2l-1 5-2-1-1-12-2-3-4-19-6-16z" fill="#F32525"/>
<path transform="translate(502,475)" d="m0 0 3 1 5 9 7 12 6 12v3h2l6 11 1 7 1 6-1 7-6 2-12-22-3-6v-2h2l5 9 2 1-1-6 1-2-2-6-1-8-7-13v-2h-2l-4-7-3-5z" fill="#E11015"/>
<path transform="translate(204,418)" d="m0 0 3 1v2l-12 2v2l-12 5-6 4h-2v2l-7 6-7 10-2 4-1 11-1 6 2 17-1 7-3 3-2-1v-27l1-3h-2l2-9 2-10 8-12h2l2-4 9-7 9-3 4-2 10-1v-2z" fill="#FABDAC"/>
<path transform="translate(342,634)" d="m0 0h14l6 6v7l-4 3h-2l7 12 2 4-4 1-9-10-2-3v-6l5-2v-6l-1-2-6-1 1 30h-6l-1-1z" fill="#E03231"/>
<path transform="translate(406,215)" d="m0 0h12l10 5 5 3v2l-20 1-10 4-8 5h-2v2l-6 4h-5l2-4 12-13 8-7h2z" fill="#F61B1D"/>
<path transform="translate(171,550)" d="m0 0 4 2 4 4 13 1 5 1 17-2v-5l4-1v2l12 5 4 4-1 2h-5l-1 1h-14l-18-1h-14l-11-5v-5h2z" fill="#D06E62"/>
<path transform="translate(202,543)" d="m0 0 6 1 1 2h-3l-2 5 6 1 4-1 1 5v1l-20 2-13-2-5-1-4-5-3-2h4l1-3 13 1z" fill="#F91115"/>
<path transform="translate(447,634)" d="m0 0h11l7 3 4 6 1 4v7l-3 6-4 3-6 5h-8l-8-6-4-5-1-4v-8l4-7zm4 3-8 5-1 2v11l1 2h2l1 4 5 4h7l6-7 1-3v-9l-3-5h-2v-2l-4-2z" fill="#DD2827"/>
<path transform="translate(462,679)" d="m0 0h78v1l-42 1-1 4h6l-4 1v2l-5 1 2-8h-2v5l-9 4-1 3-4 2h-7l-5-4v-4h12v-1l-17-2z" fill="#F6EFED"/>
<path transform="translate(757,425)" d="m0 0h1l1 8 1 3h4l4 7 4 33 2 10h-3l-4-10-2-7-2-6-1-2h-4l-1-4z" fill="#F6A598"/>
<path transform="translate(631,393)" d="m0 0h1v8l3-1-1 3-3 3-7 20-6 13-4 11-8 19-4 10h-4l-1-3 7-17 6-13 6-16 5-11 5-13 4-9z" fill="#E7A498"/>
<path transform="translate(486,286)" d="m0 0 7 1 2 1v4h-2l-2 9-3 6h-2v5l3 1-2 5h-5l-2-2v-8l7-14 1-3h-4l-2 5h-2l-2 7-2 14-5 1-2-2v-7l8-16 5-6z" fill="#F2D0CA"/>
<path transform="translate(418,603)" d="m0 0h11l9 2 4 4v4l-5-1-5-3-4-1v2l4 1 7 3 2 4v3h-21l-4-8 4-3h3v-2h-8v5l-2 1v-6l-3-1 1-3v2z" fill="#F5EEEB"/>
<path transform="translate(567,276)" d="m0 0h1v16h3v-2l5-1 1-3 13-7 11-3h27l11 3 6 3 9 7 5 5 2 4-3 2-7-8-5-4-3-1v-2l-9-2-6-3h-23l-9 2h-5v2l-5 2h-4v2l-10 6-5 4z" fill="#E8AEA2"/>
<path transform="translate(277,307)" d="m0 0h12l9 6 4 7 1 2v11l-6 9-5 6-4 1-6-1v-1h6v-2l6-5 4-8 1-10h-2l-3-6-6-4h-11l-5 4-2 4v7l5 5 4 2-3 1-7-3-3-3-1-3v-7l4-8z" fill="#F0C3B8"/>
<path transform="translate(443,591)" d="m0 0 25 1 5 2 1 6 20 1 1 1v7l-3-1-2-3h-22l-1 4-4 1-5-1 2-1-1-3-2-1-2-4 1-5 11-1-15-1v2l-16 1v-2l7-1z" fill="#EBA497"/>
<path transform="translate(339,569)" d="m0 0h19l3 1v2l4 1v2l-32 1-15 5-7 5-6 3-13 13-3 1 1-4 14-14 11-7 9-4 5-2 2-2z" fill="#E78578"/>
<path transform="translate(478,411)" d="m0 0 17 1 10 4 7 5 2 3 1 12-1 3-4 1-2-5-7-6-6-9-6-3-9-3-3-2z" fill="#FAE4E0"/>
<path transform="translate(715,545)" d="m0 0h14l1 5-3 2h-3l-4 10-1 6-2-4v-4h-7l-4 2-5-1-2 4v-8l3-8h6z" fill="#F0BEB3"/>
<path transform="translate(345,402)" d="m0 0 3 1 1 20h2v-7h2l-1-5 1-6 1-2 8 2 1-2 3 4 1 5v7l-1-3-4 2-2-1-1 3-6 2-2 18-1-2h-2l-2-14 1-7h-3v-14z" fill="#F0BFB4"/>
<path transform="translate(128,578)" d="m0 0h1l1 5 10 2 10 8 5 1h3l2-4 13-4 6-2 12-1-4 2-8 2-17 6-4 4-9 3h-8l-6-6-8-3-1-2v-7z" fill="#FCCEBE"/>
<path transform="translate(731,386)" d="m0 0h5v2h3v29l-2 1h-8l-1-1v-28z" fill="#F5F0ED"/>
<path transform="translate(608,532)" d="m0 0h6l5 2 2 4h2l3 3 5 2v-2h4v2l9 3v2l4 1h-10l-16-3h-4v-2l-2 1h-9l-5-2v2l-8 1v-3l6-1v-2l5-3z" fill="#F08478"/>
<path transform="translate(257,514)" d="m0 0 4 2 5 6 2 9h-2l-1 4h-2l-2 4-4 5-5 3h-4l-1 2-7 1-2-4-4-1 10-5 7-5h2v-2l9-9-1-5z" fill="#F5A497"/>
<path transform="translate(724,552)" d="m0 0 1 3-2 5v8l1 4 6-2 5-2 6 2h8l10 2v2h12l17 1 10-1 2-1-1 3-2 1-15 1-20-1-11 2-12-4-4-1h-3l-4 5-4-1-3-6-1-13z" fill="#F5A598"/>
<path transform="translate(805,525)" d="m0 0 2 4v13l1 3-3 6-5 3-1-2-3-1-20-1h-28l-17 2 2-1 1-5h58l7-3 5-8z" fill="#D27B6E"/>
<path transform="translate(597,551)" d="m0 0h9l9 1h11l1 5-4 2v2l7-1 9-2 10 2 6 2 2-5 3-1-2 4-4 5-14-1-4-2-8 2v2l-13 4-6 3-5-1v-2l12-9 5-6-18-1-6-1z" fill="#F5A497"/>
<path transform="translate(591,552)" d="m0 0 1 2h2l1 7 2 7v5l-5-1-7-4h-3l-1 2-7 1-7-6v-2l-3-1-1-9 3 3v3l3 1h7l2-4 5 1 1 3h4 3z" fill="#F39688"/>
<path transform="translate(506,196)" d="m0 0h6l-1 3-16 8-9 7-6 5h-2l-2 4-5 5-3 1-2-1 2-6 4-6 5-6 8-6 8-4 12-3z" fill="#F51C1E"/>
<path transform="translate(128,524)" d="m0 0 7 6 12 9 11 6 1 4 3 1-1 6h-2v2l-8 3h-3v-6l-1-3-3-1-3-5-1-4 2-5-6-1-7-8z" fill="#F9D5CD"/>
<path transform="translate(646,471)" d="m0 0 2 3 3 10v8l-4 11-1 5 6-3 12-10 13-10 2-1 1-4h3l8 19v5l-3-1-5-13-4-1-6 4-10 9-9 6-8 7-4-2-2-3 3-1 2-9 4-14-2-5z" fill="#E57D71"/>
<path transform="translate(256,411)" d="m0 0h2l1 3-7 8-1 2 6-3h2v-2h2v-2h3v-2l6-1-9 19-3 9h-1l1-10-2 1h-10l-3-3-1-3-4-2h6l2-4z" fill="#F7BEAF"/>
<path transform="translate(531,272)" d="m0 0h13l7 5 2 5v9l-4 6-6 3-6-1-1-4 9-2 3-2 1-8-4-6h-13l-6 3-2 3v13l2 3-1 5-4-4-2-6v-11l4-6z" fill="#F2B6A9"/>
<path transform="translate(631,304)" d="m0 0h9v2h5l6 7v11l-4 5-4 2h-6l-1-4h9v-2h2v-9l-2-4-6-3h-7l-6 3-4 4-2 6v8l4 7-2 1 2 3-4-2-4-6-1-3v-8l4-9 1-2h2v-2h3v-2z" fill="#F2C4B8"/>
<path transform="translate(418,188)" d="m0 0 8 1 8 4 9 7 7 9 3 6 2 9v4l-5-1-6-12v-2h-2l-4-7-2-4-4-2-7-7-7-3z" fill="#F51F20"/>
<path transform="translate(369,634)" d="m0 0h16l-1 3h-9l-2 3v7l11 1v4l-10 1v11l10-1 1 5h-13l-4-2v-31z" fill="#E03837"/>
<path transform="translate(438,228)" d="m0 0h5v2l-10 4-4 2-6 7-10 2-20-2v-3l10-2 13-4 8-3 12-2z" fill="#F51316"/>
<path transform="translate(468,604)" d="m0 0 3 1-1 2 13 1-2 1v2l9 2 2 1 1 6-3 1-29 1v-3l5-5 9-4 1-2-9 1z" fill="#F6F4F2"/>
<path transform="translate(563,480)" d="m0 0v3l-3 6h-2l1 8-5 3-1-2-5 1-1 2-4 1-5-1-6-10 1-2 2 5h6l1-5 6-4h3l1-2 5 1 3 2 2-5z" fill="#F4A194"/>
<path transform="translate(682,477)" d="m0 0 10 1 4 2 4 10v10l-5 6-3-1-6-16-5-11z" fill="#D41214"/>
<path transform="translate(330,399)" d="m0 0 37 2 1 6v37h-1l-1-32-2-6-1-2-4 1-5-2-1 11v2h-2v7h-2l-2-20h-2l-1 14-2 4-2-1-1-17-5-1-4-1-1 3z" fill="#F9D7CF"/>
<path transform="translate(371,276)" d="m0 0h11l4 5v8l-4 4-3 1h-9l-3-4v-8l3-5z" fill="#F6F1EF"/>
<path transform="translate(483,608)" d="m0 0h5v2l8 1v5l-1 4 26 1 9 2v2h-66l-3-3 9-1 23-1-1-6-11-3v-2z" fill="#F6B4A7"/>
<path transform="translate(454,605)" d="m0 0 2 2v4h9l-1 5-3 3-1 5h-18v-8l4-1v-2h-2l-2-7 6 2 4 2 1-4z" fill="#F91115"/>
<path transform="translate(604,498)" d="m0 0 6 4 13 12-1 3 3 1 4 7v2h2v2l-4 1-11-8-5-3v-2h-2v-2l-4-2-2-4h2l1-6-3-4z" fill="#E41014"/>
<path transform="translate(268,440)" d="m0 0h3l1 2-1 37h-5l-3-4v-26l3-8z" fill="#F4E1DD"/>
<path transform="translate(520,540)" d="m0 0 5 2 2 3v3l3 1-12 2v-3l-1-1-10 1-7 1-2 2-13 3-2 1-4-1v-2l-6-1 4-2 4-1 6-2 11-2 10-2 9-1 2 1z" fill="#F3AFA2"/>
<path transform="translate(409,634)" d="m0 0h28l-2 5-10-1v29h-5l-1-1v-29l-10 1-1-2z" fill="#D52F2E"/>
<path transform="translate(720,580)" d="m0 0h1l3 9h17l4 1h9l2-6 4-2v-2h6l-4 2-3 1-3 9-3 6h-13l-10-2-6 1-3-5-1-2z" fill="#FBCEBE"/>
<path transform="translate(392,635)" d="m0 0h12l-1 3h-8l2 6 8 10v2h2v3h2v6l-1-2-7 5h-12v-6l12 1-2-7-7-8-2-2v-9z" fill="#F41518"/>
<path transform="translate(265,520)" d="m0 0 6 3 2 7-2 4-4 1-1 4h-2l-2 4-6 4h-2v2l-5 1v2l-7 2h-4l-1 5-4-1v-2l-7-2-2-3h2v-2l7-2 5-1 2 3 7-1 10-5 6-8h2l1-4h2l-3-9z" fill="#F4B0A4"/>
<path transform="translate(588,487)" d="m0 0 5 2 11 9 2 4 1 5-2 3-5-1v-3-2l-8 2h-7l-1-7 3-7z" fill="#F91115"/>
<path transform="translate(120,445)" d="m0 0h7l2 2v3l6-2 5 1v9l-1 9-8 1-2 1-1-3-1 8h-2l-3-12h3l2-1-1-9 1-4-7-1z" fill="#E31015"/>
<path transform="translate(525,634)" d="m0 0 4 2v4h2l9 22 1 4-4 1-3-3-4-10-5 2h-3l1-3 6-2-3-10-2 1-2 7h-2v5l-2 3h-2l-2 9h-4l2-7 6-12z" fill="#D4181A"/>
<path transform="translate(669,552)" d="m0 0 4 1 2 2 6 1 6-1 3 2 9 1-1 5-4 4-7-1-2-3-6-1-2 4-6 1-3-1-1-6z" fill="#F39688"/>
<path transform="translate(456,387)" d="m0 0 5 1-1 68-4-1z" fill="#E9B1A4"/>
<path transform="translate(193,384)" d="m0 0h10l17 3 9 4 11 7 3 3v2l-4-1-11-8-11-4-11-2h-20l-14 3-16 7-6 4h-2v-2l-3-1 24-11 12-3z" fill="#E6877A"/>
<path transform="translate(718,576)" d="m0 0h2l1 14 3 8 17 2 7 2h5l5-5 1 3-4 6-21 1h-10l-4-4-1-4-2-20z" fill="#F4DBD0"/>
<path transform="translate(721,572)" d="m0 0 4 6 3 1 1-3h2l1-3h7v2l6 1 9 2 10-2 26 1-3 2h-21l-11 1-1 3h-10l-9-1-9 2-3-1-2-6z" fill="#F4B2A6"/>
<path transform="translate(491,230)" d="m0 0h15l5 2 7 4-1 3-15-1-7-2h-10l7 6-3 1 1 4-11-7-5-5h4l1-2 4 3 1-4z" fill="#E68C7F"/>
<path transform="translate(507,388)" d="m0 0h12l6 3 6 4 5 5 6 9 1 3v23l-1 4h-2l-1-18-2-10-6-8v-2l-3-1v-2l-4-2-9-4-8-3z" fill="#F3DDD8"/>
<path transform="translate(731,483)" d="m0 0 1 2 5 1v5h-4l2 4-4 7v14l-5 6h-2l1 3-2 2-2-7v-25h1v11l3-3 1-3h2l2-5-1-8z" fill="#E31015"/>
<path transform="translate(291,428)" d="m0 0 4 2 2 6 3 16 1 21-2 17-3 9-6 1v5h-2v-3h-2v-4l4-1 1-2h2l2-9 2-16v-14l-2-11v-7l-2-1z" fill="#F9E4E0"/>
<path transform="translate(318,552)" d="m0 0h56l6 1-1 2-3 1-40 1h-18l-1-4z" fill="#F3B5A8"/>
<path transform="translate(664,441)" d="m0 0h2l1 3 4-1v-2h7l6 4 4 6v2l2 1 5 4 6 10v3l-5-5-6-7-5-5v-2l-7-2-5-3-1 1v8l1 4h2v7l-1-2h-2l-8-21z" fill="#F5A598"/>
<path transform="translate(131,520)" d="m0 0 7 4 10 4 4 1 1-2 5 1 8 2v2l4-1 2 2 8 2-4 1v2l-19 1-2-1v-2l-6-2-4-3-7-2-7-7z" fill="#D21315"/>
<path transform="translate(801,554)" d="m0 0 2 3 1 3v7l-4 2-2 3-5 1-8-1-3 1-2-1-1-9-3-1v-2l14-1 3 3 2 3 1-3 4 1 2 1-1-3z" fill="#EF8579"/>
<path transform="translate(446,677)" d="m0 0h14v7l-2 4h2l4 7-2 1-2-3h-13l-1 4h-1l1-7 4-2-2-2-11 1-1-2 7-2z" fill="#F41115"/>
<path transform="translate(172,444)" d="m0 0h3l-2 5-5 8-2 9v18l3 11 1 10v7l-5-2-3-4 1-5-1-34 3-12 4-8h2z" fill="#FBCCBC"/>
<path transform="translate(254,390)" d="m0 0 4 2 6 5 2 1-1 8h2l-2 9-1 2h-3v2h-2v2l-5 3h-3l2-5 5-6v-2l-8 7-6 7h-6l-6-3-1-2 3-1 5 4 4-2 4-5 8-7 7-6 1-3-9-9z" fill="#F3B9AB"/>
<path transform="translate(268,583)" d="m0 0h1l-1 7-7 8-9 7h-10l-6-3-11-7-7-3-16-3v-1l13 1 13 3 11 6 4 1h7l12-6 5-7z" fill="#F6DDD5"/>
<path transform="translate(644,570)" d="m0 0 5 1 5 2 1 1v7l-1 9 5 2 9 1 7-6-2 4-5 5h-16l-1-1 1-10 1-9-6-2-1 14-1 3-3 2-5-1-7-8-1-3-1-7-3-1 5 1 3 3 1 7 5 4h4l1-6 1-4-1-2z" fill="#F9D5CE"/>
<path transform="translate(545,634)" d="m0 0h12l5 4 2 3-1 7h-3l-3 3v-5l2-1-1-5-8-5v31l-5 1-1-4v-27z" fill="#D3191B"/>
<path transform="translate(691,501)" d="m0 0 2 4 3 2v2l3-3 2 1v7h2l1 14-1 1 2 1-1 2-2-1-2 14-3-1 1-1v-10l-9-27 1-3z" fill="#D06E62"/>
<path transform="translate(171,482)" d="m0 0 2 1v5h2v3l2 1 2 6v6l1 1v6l-1 2 5 1 3 1v2l-8-1-9-3-1-12 1-1v-13z" fill="#F2D3C8"/>
<path transform="translate(631,451)" d="m0 0 2 2v9l-7 19-4 8-5-1 1-7 6-15 5-13z" fill="#F81115"/>
<path transform="translate(781,551)" d="m0 0h14l4 2 1 3-1 3-9-1-6-1h-4l-27-1-3-3v-1z" fill="#E41015"/>
<path transform="translate(382,555)" d="m0 0 7 2v3l-10 2-15 1h-28l-5-1v-1h8l7-2 13-1h7z" fill="#D8776B"/>
<path transform="translate(457,471)" d="m0 0h47l-1 3-43-1-1 61-2-1z" fill="#FBCABA"/>
<path transform="translate(495,290)" d="m0 0 6 3 2 3-1 5-6 9-8 6v-3l-2-1v-5h2l1-5 3-7 1-3h2z" fill="#F3DBD4"/>
<path transform="translate(445,170)" d="m0 0h3l3 7 3 3 6 11 2 9v15l-4-2-3-13-5-17-5-11z" fill="#F41B1D"/>
<path transform="translate(567,551)" d="m0 0h22l2 1 1 8h-3l-2 2-6-5h-3l-1 4h-9l-3-5 1-4z" fill="#F08478"/>
<path transform="translate(198,583)" d="m0 0h5l2 2 18 4 2 3-25-4h-7l-15 7-12 2-5 1 4-5 20-7z" fill="#F4DACF"/>
<path transform="translate(552,551)" d="m0 0h3l-1 10-8 11-3 5-3 1v-2l-6 4-4 2 1-5 5-13 1 4-1 2h2l2-4 4-1 1-3 4-1v-2l3-2z" fill="#D58375"/>
<path transform="translate(448,685)" d="m0 0 2 1v2l-4 4-1 5-1-4-5 3-9 3-8-4-1-2h3v-3h3v-2z" fill="#E37167"/>
<path transform="translate(494,681)" d="m0 0h2v5l-2 3 5-1v-2h4v3l-4 3-10 2-8 4h-10l-2-1-1-3h-5l-3-4v-2h-2l1-4 3 1v2l4 2 2 2 5 3h7l4-1 1-4 6-3h3z" fill="#F09286"/>
<path transform="translate(530,525)" d="m0 0h2l6 9 3 2 1-2 4 8 6 2v1l-6 2h-14l-5-1v-2l4-1 1-8z" fill="#C00D12"/>
<path transform="translate(460,473)" d="m0 0h38l4 2-41-1v37l-1 25-3 1-1-2v-55h1l1 53 1-58z" fill="#E28D80"/>
<path transform="translate(511,515)" d="m0 0h2l7 14 3 4 3-1-1-3 2-9 3 1 2 9 1 6-1 7-6 2-12-22-3-6z" fill="#D31214"/>
<path transform="translate(414,679)" d="m0 0h30l-1 5-2 1-18 2-1 2-5-3-3-4z" fill="#F5ECE9"/>
<path transform="translate(527,546)" d="m0 0h27v2l-2 1h38l5 2v2l-3 1v-2h-25l-3 2-2-2-4 1-3 6-1-3 1-5h-17l-11-1z" fill="#E09A8C"/>
<path transform="translate(443,572)" d="m0 0h1v5h2v2h9l-1 5h-3v2l4-2 1-2 4 2 1 7-1 1-16-1-3-12z" fill="#F6D5CA"/>
<path transform="translate(597,556)" d="m0 0h12v2l5-1 1 4-1 3-8 6-5 1-3-2-1-8-1-3z" fill="#FABCAC"/>
<path transform="translate(354,635)" d="m0 0 5 1 3 4v7l-4 3h-2l7 12 2 4-4 1-9-10-2-3v-6l5-2v-9z" fill="#D22828"/>
<path transform="translate(245,312)" d="m0 0h1l2 9 2 5v6l3 1 3 6 3 2v2l5 1 8 3 16 1-1 2-7 2-13-1-10-6-5-5-3-5-4-13z" fill="#E5A396"/>
<path transform="translate(558,421)" d="m0 0 2 4v9l5-4 9 1 2 1v2l6 2v3l-6-2v-2l-8 2-5 8-3 4h-2z" fill="#FBCCBC"/>
<path transform="translate(588,585)" d="m0 0 4 1 7 8 1 1h5v-8l4-1 4 5v2l6 1 2-6 2 2 1 5-7 4-5-3-2-5h-2l-2 8-5 1-7-8-4-2-2 5-4 1-4-1v-2h-2v-2h7z" fill="#FAD5CE"/>
<path transform="translate(441,548)" d="m0 0 13 2 9 1 2 2-6 3h-16l1 12 2 5 9 2-1 5-8-1v-2h-2l-3-13v-9l2-4-2-1z" fill="#F2BDB1"/>
<path transform="translate(539,505)" d="m0 0 4 4 3 7v2l1 4-3 4-2 4h-4l-11-21 1-2 6 9v2l5-2 1-6z" fill="#E41015"/>
<path transform="translate(487,288)" d="m0 0 7 1 1 3h-2l-2 9-3 6h-2v5l3 1-2 5h-5l-2-2v-8l9-18h-2z" fill="#F4E0DB"/>
<path transform="translate(443,698)" d="m0 0 1 2v6l1 2 5 1v2l8-1 6-3 1-9 2 1v8l-5 8-7 4-5-1-6-5-1-4h-2l-1-2v-6z" fill="#E2786D"/>
<path transform="translate(457,568)" d="m0 0 2 2 3 12 5 2h3l2-4 1 1v7l-3 5-10-1-1-8-3-2-2 4h-3v-2h3l2-14z" fill="#F5D8CE"/>
<path transform="translate(559,557)" d="m0 0 4 3 6 13 3 7-1 4-5-8-1-3-4-3-9 1-4 1 4-8z" fill="#F6DBD2"/>
<path transform="translate(453,635)" d="m0 0h9l5 5 3 7v7l-3 6-4 3-6 5-7-1-2-2 3-1h7l5-6 1-3v-9l-2-4-2-1v-2h-2v-3h-5z" fill="#D81517"/>
<path transform="translate(598,489)" d="m0 0 5 3 11 8 5 6 11 9v2l3 1 3 4v2l-5-2-5-4v-2l-4-2-14-13-13-9 3-1z" fill="#E77E72"/>
<path transform="translate(371,273)" d="m0 0h11l6 5v12l-6 6h-12l-4-4-2-3v-10zm0 3-3 3-1 3v8l3 4h9l5-3 2-2v-8l-4-5z" fill="#E19184"/>
<path transform="translate(731,432)" d="m0 0h7l1 1v18l-1 1h-7l-1-2v-17z" fill="#F2DBD6"/>
<path transform="translate(478,484)" d="m0 0h9l5 1v1h-16l1 24 2 7-1 14-3 17-2 1 1-28v-31l1-5z" fill="#E77E72"/>
<path transform="translate(205,583)" d="m0 0 17 2 15 6h9l5-2 10-2 4-2v4l-11 6-7 1-9-1-8-4-11-4-11-2z" fill="#FCCEBE"/>
<path transform="translate(131,576)" d="m0 0 1 3h8l5 2v2l4 2 5 5h6l-2 4-6 1-11-8-4-2-7-1-1-1v-5z" fill="#F0BFB4"/>
<path transform="translate(530,572)" d="m0 0 2 3-1 7 7 2 1-3h2l-2 5-3 1v3l-5 5-4 1-4-1 2-9 2-7v-3z" fill="#F1C1B5"/>
<path transform="translate(519,494)" d="m0 0 3 4 14 27 4 7-1 4-6-7-8-15v-2h-2l-4-9-2-5h2z" fill="#F1A193"/>
<path transform="translate(755,421)" d="m0 0h1l1 72 1 15 6 1v2l20 2v1h-13l-15-1-1-2z" fill="#DB7A6D"/>
<path transform="translate(582,474)" d="m0 0 3 1-3 1 4 4 11 7 1 4-5-1-5-3-1 8-3 4v-4l-3 1-1 3 1-7 4-7-6-5-2-3h-7l-3 1v-3z" fill="#EA9285"/>
<path transform="translate(613,444)" d="m0 0h3l-2 6-8 19-4 10h-4l-1-3 7-17 6-13h2z" fill="#E9A99D"/>
<path transform="translate(365,422)" d="m0 0h1l1 6v31h-1l-1-25-3 13-1 2-5-2-1-9h3l2-7 4-6z" fill="#F5A699"/>
<path transform="translate(331,570)" d="m0 0 3 1-5 4 1 2-12 4-7 5-6 3-13 13-3 1 1-4 14-14 11-7 9-4 5-2z" fill="#E79E91"/>
<path transform="translate(665,557)" d="m0 0 3 3v6h7l4-4h6l2 3 7 1 3-1-1 5-3 3-4-2-5-5-4 2-1 2h-2v2h-2v2l-4-1-2-4-3-3z" fill="#F6A598"/>
<path transform="translate(525,640)" d="m0 0 3 3 1 8-6 3-1 2 3 1h-2l-2 5-1 3-3 2h-8l1-2 4 1 2-9h2l2-8h2l1-7z" fill="#F0B6AC"/>
<path transform="translate(435,593)" d="m0 0 3 1-1 1h16v9l-1 1h-8l-4-1-5-6-1-4z" fill="#F6E6E1"/>
<path transform="translate(465,292)" d="m0 0 5 1 1 6-5 6-4 11-5 2-1-1v-6l4-7 3-5z" fill="#F1D4CE"/>
<path transform="translate(115,453)" d="m0 0h10v1h-8l2 7 2 16 6 17 7 11 7 8-1 2-7-7-8-12-6-15-4-16z" fill="#E37E71"/>
<path transform="translate(418,603)" d="m0 0h11l9 2 4 4v4l-5-1-5-3-17-1v5l-2 1v-6l-3-1 1-3v2z" fill="#F6E7E3"/>
<path transform="translate(451,555)" d="m0 0h5l1 4-2 10h-4-5l-2-5v-8z" fill="#DE9789"/>
<path transform="translate(121,426)" d="m0 0h1v5h-2v2h7l2 2-8 1-1 10 7 1 1 4-2 2h-11v-11l4-13z" fill="#EB8D81"/>
<path transform="translate(594,506)" d="m0 0 5 1 6 5-1 4-5-4h-3l-10 21-4 2 1-7 10-21z" fill="#E67F72"/>
<path transform="translate(349,546)" d="m0 0 20 4-2 2h-35l-6-1 4-2 13-2z" fill="#D31114"/>
<path transform="translate(564,559)" d="m0 0 6 5 6 2 6-5 4 2 3 3h5v-4h2l1 11-5-1-7-4h-3l-1 2-7 1-7-6v-2l-3-1z" fill="#F5A598"/>
<path transform="translate(461,555)" d="m0 0h7l3 2v9l-4 4h-6l-2-13z" fill="#E0998B"/>
<path transform="translate(671,550)" d="m0 0 19 1h9v7l-3 1-8-2-3-1-6 1-6-1z" fill="#D37D70"/>
<path transform="translate(543,551)" d="m0 0h9l1 1v5l-4 2v2l-4 2-1 2-5 3-1 2h-2l2-9 1-3h2l1-5z" fill="#D06E62"/>
<path transform="translate(762,583)" d="m0 0 1 2h-2l-2 6-5 11-1 1-8-1-11-2-10-1-2-4 5 1 6-1 7 2h13l5-12z" fill="#F9D5CE"/>
<path transform="translate(142,400)" d="m0 0h6l-1 4-7 10-3 6-1-3h-4v-2l-4 2 2-4 7-8z" fill="#F1BFB3"/>
<path transform="translate(559,551)" d="m0 0 4 1 3 12-1 3-4-8h-3l-7 8-4 8-3 1v3l-5 3-1 2h-6v-3l6-5 5 1 2-5 8-11 5-9z" fill="#F2BBAF"/>
<path transform="translate(621,496)" d="m0 0h3l5 6 7 4 5 6-5 1-7-1-4-3-4-1-6-5 1-3 2 4h5l3-2z" fill="#E21015"/>
<path transform="translate(805,525)" d="m0 0 2 4v13l1 3-3 6-5 3-1-2-9-3 3-2 8-6 3-6z" fill="#DD9385"/>
<path transform="translate(757,529)" d="m0 0 5 1h3l1 2 2-2h4v4l-2 1h-36v-3l2-1h12l6 1z" fill="#DF1116"/>
<path transform="translate(411,208)" d="m0 0h10l8 1 8 5v2l4 2 1 4-5-1v-2l-5-1-7-4-7-2-8-1-1-2z" fill="#EB2A2A"/>
<path transform="translate(257,514)" d="m0 0 4 2 4 4-1 5-8 9-1 2h4l-2 5-6 4-6 1-1-2h2v-2l-5 1 4-4 6-4h2v-2l9-9-1-5z" fill="#E28F82"/>
<path transform="translate(522,555)" d="m0 0 3 1-2 9-1 5 8-4 4-4-1 4-12 13h-4l1-8 2-8-4 2 2-4z" fill="#E09A8C"/>
<path transform="translate(454,472)" d="m0 0 2 2 1 63 3 1-1 1h-5z" fill="#D01014"/>
<path transform="translate(351,481)" d="m0 0h1l-1 61 4 1-2 3 9 1 2 2-10-1-4-3-1-6v-45z" fill="#ECA69C"/>
<path transform="translate(436,600)" d="m0 0 4 2 4 8v3h2v2l-5 2-2-1v-2l-7-2-4-2v-2l6 1 8 4-2-6-4-2-7-1h-11l-4 2h-3l1-3 4-2z" fill="#DD7368"/>
<path transform="translate(501,650)" d="m0 0h2l1 2v9l-5 4-5-1-1-2v-11z" fill="#F3D9D4"/>
<path transform="translate(210,422)" d="m0 0h12l3 2-13 2-12 3-9 5-5 4-5 2-4 4h-2l1-4 7-5h2l1-2 11-7 12-3z" fill="#FCCEBE"/>
<path transform="translate(457,387)" d="m0 0 4 1-1 44-3 1z" fill="#F4DDD4"/>
<path transform="translate(375,253)" d="m0 0h21l-4 2 6 1v1h-23l-12 6-7 7-3 5-3 1 2-6 8-9 9-6z" fill="#DA8578"/>
<path transform="translate(543,416)" d="m0 0h1v21l-3 12-6 10-2-2-4 3-2-1 7-9 4-10 1-7h1v6h2z" fill="#EBA599"/>
<path transform="translate(421,248)" d="m0 0h1l1 7 6 2 5 2h18l7-2 6-4h2l-1 3-9 5-4 1h-19l-11-4-2-1-24-2v-1h12l12 1z" fill="#E6877A"/>
<path transform="translate(533,456)" d="m0 0 1 4-9 8-10 4h-7v-2h-9v-1l15-2 10-5z" fill="#F2B8AE"/>
<path transform="translate(519,552)" d="m0 0h5l-6 10-3 6-6 8-3 3h-2l1-5 9-16 3-3z" fill="#D37D6F"/>
<path transform="translate(595,552)" d="m0 0 23 2 3 1-2 4-5 4v-5h-5v-2l-10 1-2-1 1 8v5l-2-1-3-14z" fill="#F4B0A4"/>
<path transform="translate(525,634)" d="m0 0 4 2 1 7-2 2-3-4-3 8h-2v5l-2 3h-2l-2 9h-4l2-7 6-12z" fill="#D02022"/>
<path transform="translate(129,521)" d="m0 0 4 2v2l5 2v2l7 1 4 5 2 3 3 1v2l-4 1-11-8-10-9-2-3z" fill="#E61015"/>
<path transform="translate(342,480)" d="m0 0 2 3v63l-5 2-4-1 6-1v-2l-19-3-3-2h6l-3-2 5 1 16 4z" fill="#EEB3A7"/>
<path transform="translate(656,454)" d="m0 0 2 3 6 16 3 10v5h-2l-6-14-6-16 1-2z" fill="#E8A397"/>
<path transform="translate(256,411)" d="m0 0h2l1 3-7 8-1 2 6-3h2v-2h2l1-2-1 5-4 4h-2v2l-5 1-5-3-1-3z" fill="#FABEAD"/>
<path transform="translate(632,451)" d="m0 0 2 1v13l-8 20-3 6v3l5 5 2 4-6-5v-2l-5-2-7-6v-6h1l1 5 3-2 1 3h4l6-15 4-11z" fill="#E37C70"/>
<path transform="translate(632,278)" d="m0 0 7 1 6 3 9 7 5 5 2 4-3 2-7-8-5-4-3-1v-2l-9-2-1-2h3z" fill="#F3AA9C"/>
<path transform="translate(114,439)" d="m0 0h1v10l-2 4-3 7h-4l-1-5h-1v-9l1-5 2 2 1 5h2l1-6z" fill="#E51B1E"/>
<path transform="translate(548,276)" d="m0 0 3 1 2 5v9l-4 6-6 3-6-1-1-4 9-2 3-2 1-8-3-6z" fill="#F2C4B9"/>
<path transform="translate(263,579)" d="m0 0 2 3-1 4-6 3-10 2-2 1h-9l-12-5v-1l11 1 10 1 15-5h2z" fill="#F0BFB4"/>
<path transform="translate(132,535)" d="m0 0 2 2 6-1 2 1-1 8 3 3 1 3 4 4-1 6h-1l-2-6-4-3v-2l-3-1-7-10z" fill="#F5DCD3"/>
<path transform="translate(144,538)" d="m0 0 5 2 9 5 1 4 3 1-1 6h-2v2l-8 3-2-1 5-1 2-6-4-4-1-4-5-2z" fill="#F1B2A6"/>
<path transform="translate(330,424)" d="m0 0h1l1 33-2-4h-2l-1 5h-1l1-22 2-9z" fill="#CF171A"/>
<path transform="translate(330,405)" d="m0 0 3 1 1 45 1 4h-2l-2-9-1-19h-1v-11z" fill="#F3AFA2"/>
<path transform="translate(483,608)" d="m0 0h5v2l8 1v5l-1 4 26 1v1h-51v-1l23-1-1-6-11-3v-2z" fill="#F7DBD4"/>
<path transform="translate(279,544)" d="m0 0h3v3h-2l-1 5-4 4-3 5-4 4-3 5h-2v6l-4-4v-5l8-7 6-5 5-8z" fill="#F9E4E0"/>
<path transform="translate(669,552)" d="m0 0 4 1 2 2 6 1 6-1 3 2 9 1v3l-6 1-3-2-6-2-8 3-4 1h-2l-2-6z" fill="#F08478"/>
<path transform="translate(397,305)" d="m0 0 4 2-7 3-10 5-5 1h-12l-8-3-1-5 10 3 1 1h14l9-4z" fill="#F29689"/>
<path transform="translate(178,408)" d="m0 0 2 1-3 3-5 4-6 4-5 5-2-1 3-4-4 2-1 3-5 4-2 4h-2l2-5 10-11 15-8z" fill="#F1A69A"/>
<path transform="translate(453,296)" d="m0 0h6v5l-7 2-3 3v4l4-6 3 1-1 5-5 5-1-3h-2v-7h-2l2-4 3-3z" fill="#F0B3A8"/>
<path transform="translate(353,274)" d="m0 0v3l-1 2v11l3 12 4 2 5 6-5-1h-3l-2-3-2-6-4-9v-13l2-3z" fill="#E29B8E"/>
<path transform="translate(171,482)" d="m0 0 2 1v5h2l-1 5 1 11-1 7 4 4-8-2-1-12 1-1v-13z" fill="#F7CEC7"/>
<path transform="translate(645,429)" d="m0 0h3l8 22v5h-3l-4-9-4-11z" fill="#EFBFB3"/>
<path transform="translate(550,635)" d="m0 0 5 2 5 4-1 5h-2l-2 4-5-1-1-12z" fill="#F5E9E5"/>
<path transform="translate(365,431)" d="m0 0h1v17l-2 2v4l-8-1v2h-5l2-5h3l1-4 3 2 3-9z" fill="#E3998B"/>
<path transform="translate(281,432)" d="m0 0 2 1v2l2 1 2 6 3 14v8l-4 1-1-9 1-7-4-6v-2h-2z" fill="#FCCEBE"/>
<path transform="translate(641,307)" d="m0 0 5 1 5 5v11l-4 5-4 2h-6l-1-4h9v-2h2v-9l-2-4-4-3z" fill="#EBB5A9"/>
<path transform="translate(344,417)" d="m0 0h3v8l2 13v12l-2-4-2 1-1-3z" fill="#E09A8C"/>
<path transform="translate(525,302)" d="m0 0 6 3v2l8 1h11l5-3 4 2-5 4-9 1h-11l-2-1v-2l-5-2-2-2z" fill="#E7A79A"/>
<path transform="translate(482,427)" d="m0 0h6l5 3 6 8 3 3v3l-4-2-4-3v-2l-5-2-3-3-5-1-3 1 1-4z" fill="#FAD5CE"/>
<path transform="translate(489,634)" d="m0 0h13l-4 2 5 5-1 4h-2l-1 3h-6v-13z" fill="#F3E3DF"/>
<path transform="translate(497,254)" d="m0 0h21l9 3 4 4h-4v-2l-28-1z" fill="#F72122"/>
<path transform="translate(401,658)" d="m0 0 7 3 1-2v6l-1-2-7 5h-12v-6l12 1z" fill="#E2887C"/>
<path transform="translate(456,595)" d="m0 0h13l1 4-4 4-6 1-5-4z" fill="#F6EDEA"/>
<path transform="translate(804,568)" d="m0 0h2l-3 6h-2l-1 3-8 3-5 2h-12l-15-2v-1l6-1h21l12-3z" fill="#F1BEB3"/>
<path transform="translate(457,471)" d="m0 0h47l-1 3-43-1-2 4-1-1z" fill="#F8D6CE"/>
<path transform="translate(738,432)" d="m0 0h2l1 6v10l-1 2 5 2-1 7-3 1v-2l-8-2-1-4 6-1z" fill="#DF1015"/>
<path transform="translate(528,551)" d="m0 0h8l2 2-3 7-8 4h-2l2-12z" fill="#D06E62"/>
<path transform="translate(758,580)" d="m0 0h2v2l-4 4-2 4-2 1h-7l-7-1h-14l-1-2 7-2 18 1 6-2z" fill="#F0BFB4"/>
<path transform="translate(554,546)" d="m0 0h13l3 1h25l1 4-13-1h-31l-1-2h3z" fill="#F2B4A8"/>
<path transform="translate(567,276)" d="m0 0h1v16h3v-2l5-1 1-3 13-7 4 1-5 2 2 2-5 2h-4v2l-10 6-5 4z" fill="#EBAFA3"/>
<path transform="translate(441,230)" d="m0 0 2 1v2l-1 1-5 4-8 4h-2v2l-5 4-1-5h2l1-3 7-6 6-3z" fill="#F0CEC8"/>
<path transform="translate(507,568)" d="m0 0 1 3-4 8 3-1-2 6-3 5-5 5h-3v-5l3-5h2l2-5z" fill="#F5B8AA"/>
<path transform="translate(457,566)" d="m0 0h2l3 9 5 2 3 1 2-11h1l-1 13-2 5-6-1-3-2-3-12h-2z" fill="#F7BEAF"/>
<path transform="translate(550,563)" d="m0 0v3l-7 11-3 1v-2l-6 4-4 2 1-5 2-5 2 2 6-6h3v2l3-3z" fill="#E09A8C"/>
<path transform="translate(345,492)" d="m0 0h1l1 31v13l-1 9h-1l-1-15v-36z" fill="#DF3231"/>
<path transform="translate(403,229)" d="m0 0 2 1-1 7 4 1-13 2-2 2-2 1-1-2-3-1 4-3h2v-2l6-4z" fill="#F0B1A5"/>
<path transform="translate(348,637)" d="m0 0h6l2 3v6l-2 2h-4l2 9h-4z" fill="#F6E9E5"/>
<path transform="translate(631,437)" d="m0 0h3l2 10v7h-2l-1-2-6 1 1-9z" fill="#EFA396"/>
<path transform="translate(454,550)" d="m0 0h17l1 4 1 3v10l-4 5-7 1-1-3 9-2v-11l-8-2 2-2-1-1-9-1z" fill="#F4AFA2"/>
<path transform="translate(497,635)" d="m0 0h6l3 3 1 5-2 3-1 6-1-2-2 1h-8v-3l6-1 3-3 1-3-4-2z" fill="#E0171B"/>
<path transform="translate(346,445)" d="m0 0 2 1 3 8 5 1v-2l8 1-1-5 3-1v13h-1v-5l-5 1h-9l-2-1v-2h-4l-1 2v-9h2z" fill="#E87E72"/>
<path transform="translate(212,425)" d="m0 0h5l5 1 6 2v1l-21 3-10 5h-4l3-3 7-4 8-2z" fill="#F9D5CE"/>
<path transform="translate(621,422)" d="m0 0 1 4-1 7-6 12-4 2 1-7 7-17z" fill="#E8A79B"/>
<path transform="translate(275,311)" d="m0 0 2 1-5 4-2 4v7l5 5 4 2-3 1-7-3-3-3-1-3v-7l3-7 2 2z" fill="#EEBFB4"/>
<path transform="translate(540,407)" d="m0 0 2 2 1 3v23l-1 4h-2l-1-18-1-9h2z" fill="#F2C8BC"/>
<path transform="translate(212,386)" d="m0 0 8 1 9 4 11 7 3 3v2l-4-1-11-8-11-4-11-2v-1z" fill="#E37B6F"/>
<path transform="translate(621,337)" d="m0 0 4 1 4 2v2l4 1h21l-2 3-3 1h-14l-7-2v-2l-4-1z" fill="#E6A698"/>
<path transform="translate(234,525)" d="m0 0 2 1-6 4-15 5-14 2h-9l-10-2v-1h17l21-3 13-5z" fill="#D27568"/>
<path transform="translate(669,529)" d="m0 0 3 2 3 10 2 4h-8l-3-2v-10z" fill="#E31015"/>
<path transform="translate(345,402)" d="m0 0 3 1 1 22v13h-1l-2-14 1-7h-3v-14z" fill="#F2B6AB"/>
<path transform="translate(666,330)" d="m0 0 1 4-5 7-9 6-3 1h-15v-1l14-1 4-2-2-2 7-4 5-7 3 1z" fill="#F1BEB3"/>
<path transform="translate(286,272)" d="m0 0h22l13 4 2 1v2h-2l1 3-6-2-7-3 4-1-1-1-6-1h-19l-11 2 1-2z" fill="#F3C0B5"/>
<path transform="translate(353,401)" d="m0 0h14l1 6v37h-1l-1-32-2-6-1-2-4 1-7-2z" fill="#F6DCD3"/>
<path transform="translate(728,375)" d="m0 0 3 1-8 7-2 2-1 70h-1v-71l6-7z" fill="#E87E72"/>
<path transform="translate(433,687)" d="m0 0h7v3l-6 5h-8l-2-5h3v-2z" fill="#F6EDEA"/>
<path transform="translate(141,513)" d="m0 0 15 10 10 5-3 2-9-3-12-9-2-3z" fill="#E11115"/>
<path transform="translate(524,438)" d="m0 0 1 4-4 7h-2v2l-5 3-9-1 3-5h3l1-2 1 3 4-2h3l1-6z" fill="#F8DAD4"/>
<path transform="translate(343,417)" d="m0 0h1l1 30h-2l-1 3-1-1v-28z" fill="#F8C8BA"/>
<path transform="translate(354,635)" d="m0 0 5 1 3 4v7l-4 3h-2l-1 2-4 1v-4h3l1-3v-9z" fill="#D42424"/>
<path transform="translate(493,293)" d="m0 0 4 1 1 5-4 7-4 4h-3l1-6 3-5z" fill="#DC1517"/>
<path transform="translate(806,535)" d="m0 0 2 2 1 3v11l-3 7-1 10-5 5 1-4h2v-9l-2-7 4-2 2-7-1-6z" fill="#F4B1A5"/>
<path transform="translate(252,293)" d="m0 0 3 1-1 4h-2l-2 9-2 3-1 9-1 3-1 4-1-3v-13l5-13z" fill="#F1C4B9"/>
<path transform="translate(444,272)" d="m0 0h10l2 2v7l-4 8h-2l1-14-6 1v-2l-4-1z" fill="#F2CFC8"/>
<path transform="translate(672,505)" d="m0 0h3l4 8 4 15v7l-2-3-9-25z" fill="#E18C7F"/>
<path transform="translate(260,404)" d="m0 0 2 1-4 6-8 7-6 7h-6l-6-3-1-2 3-1 5 4 4-2 4-5 8-7z" fill="#EC9B8D"/>
<path transform="translate(698,561)" d="m0 0h1l-1 9-5 6-4 1-4-1-1-9-4 1 2-3 4 2 5 5 4-2z" fill="#F4B2A6"/>
<path transform="translate(527,546)" d="m0 0h27v2l-5 2h-22z" fill="#EF9487"/>
<path transform="translate(680,489)" d="m0 0 4 1 11 30 2 9-1-2h-2l-5-16-3-8-4-11v-2z" fill="#D91114"/>
<path transform="translate(680,480)" d="m0 0h3l8 19v5l-3-1-5-13-3-8z" fill="#EA9386"/>
<path transform="translate(462,390)" d="m0 0 12 1v1h-11l-1 64h-1v-65z" fill="#D71214"/>
<path transform="translate(671,548)" d="m0 0m-13 1h13v3h-2l-1 7-3-2v-2l-6 1-2-6z" fill="#E09A8C"/>
<path transform="translate(620,469)" d="m0 0h1l-1 10-5 9-2-1v-7l4-9z" fill="#F09689"/>
<path transform="translate(347,402)" d="m0 0 7 1-1 11v2h-2v7h-2z" fill="#FAD2C8"/>
<path transform="translate(342,293)" d="m0 0 6 5v2h2v-5l2 3 3 6 1 4 3 4-5-2-3-2v-2h-2v-2l-4-2 2-1-5-6z" fill="#F5C7BA"/>
<path transform="translate(676,474)" d="m0 0h2v2l9-1 10 4 5 4v3l3 1-4 1-3-1-2-7-9-2h-5v2h-2l-1 2z" fill="#E47C70"/>
<path transform="translate(587,458)" d="m0 0 2 1v2h2l1-2-1 4-4 9-6 2-2-1 2-4 2-1z" fill="#F7BFB0"/>
<path transform="translate(496,217)" d="m0 0h3v2l-8 4-7 4-8 1 5-5 10-5z" fill="#DC2424"/>
<path transform="translate(556,653)" d="m0 0h3l8 10 2 5-6-1-3-2-4-10z" fill="#E41416"/>
<path transform="translate(443,556)" d="m0 0h1l2 13 5-1 4 1v6l-3 1-7-3-2-5z" fill="#F4AFA3"/>
<path transform="translate(120,477)" d="m0 0 2 4 5 13 7 11 7 8-1 2-7-7-8-12-6-15z" fill="#DD776B"/>
<path transform="translate(125,453)" d="m0 0 2 2v6l-2 3-7-3-1-7z" fill="#F81115"/>
<path transform="translate(288,436)" d="m0 0 2 1 3 10 1 5v7l1 2-2 3-2-6-1-7-1-2 1-2h-2l-2-5z" fill="#F9D5CE"/>
<path transform="translate(446,677)" d="m0 0h14v6l-3 1-1-3-2 1h-9z" fill="#D81215"/>
<path transform="translate(267,414)" d="m0 0 3 1-3 5-5 1v-4h2v-2zm-6 7m-2 1h2l-1 4-7 5-6-1-4-4 1-2 2 1 1 2 8 1v-2z" fill="#F0BFB4"/>
<path transform="translate(277,307)" d="m0 0h12l4 3h-6v1l-12 1-6 3 1-5z" fill="#F2C8BD"/>
<path transform="translate(529,252)" d="m0 0h15l2 2h-7l6 1v1l-17-1-1 3-9-3-9-1v-1h10l7 2v-2z" fill="#F2BFB4"/>
<path transform="translate(369,634)" d="m0 0h16l-1 3h-9l-4 5-2 4-1-1v-10z" fill="#D41B1D"/>
<path transform="translate(585,569)" d="m0 0 3 2-1 2-3-2v11l-6-1-4-4-1-2-5-2 1-3 9 6 4-1 1-5z" fill="#FABEAD"/>
<path transform="translate(602,543)" d="m0 0 5 1h11v2l5-1 3 1v2h-14l-2 1-8-2-4-2 2-1 2 1z" fill="#F49688"/>
<path transform="translate(502,475)" d="m0 0 3 1 5 9 7 12 5 10-2 1-8-14-2-6h-2l-4-7-3-5z" fill="#D81B1D"/>
<path transform="translate(468,641)" d="m0 0 2 1 1 4v12l-3 7-2 2h-7l3-5 4-2 3-6v-7z" fill="#F1BBB1"/>
<path transform="translate(409,634)" d="m0 0h28l-2 5-10-1v-1l6-1-13-1v2l-9 1-1-2z" fill="#E1625B"/>
<path transform="translate(267,545)" d="m0 0v3l-4 4-5 2-6 5-5 5-3-3 2-1v-2h3l1-3h3v-2l4-1 1-2h5v-2z" fill="#FCCEBE"/>
<path transform="translate(494,679)" d="m0 0h46v1l-42 1-1 4h6l-4 1v2l-5 1 2-8h-2z" fill="#F4CABF"/>
<path transform="translate(474,601)" d="m0 0h20l1 1v7l-3-1-2-3h-17l3-2z" fill="#EFB5A9"/>
<path transform="translate(341,570)" d="m0 0h13l1 3-5 2h-12l1-2-4-2z" fill="#D06C60"/>
<path transform="translate(613,444)" d="m0 0h3l-2 6-5 12-2-3-3 2 2-6 4-9h2z" fill="#E6A497"/>
<path transform="translate(484,291)" d="m0 0h4l-1 5-4 8-2 3-2-3-2-1 3-7h2z" fill="#D61D1F"/>
<path transform="translate(478,233)" d="m0 0 2 1v3l5 1 7 4-3 1 1 4-11-7-5-5h4z" fill="#F2C7BF"/>
<path transform="translate(455,692)" d="m0 0h5l4 3v2l-6 1-1 3h-3l1-4 1-2-7 1h-3l1-3z" fill="#E9867D"/>
<path transform="translate(489,555)" d="m0 0h2v2l-7 5-6 5-1 2h-2l-2 11h-1l1-13 1-3 10-5h2v-2z" fill="#FBCEBF"/>
<path transform="translate(567,551)" d="m0 0h22l1 2-9 2h-5-3l-7-2z" fill="#D48173"/>
<path transform="translate(736,531)" d="m0 0h12l5 2-1 2h-18v-3z" fill="#E21519"/>
<path transform="translate(339,417)" d="m0 0 2 3 1 29 2-2v9l-4-1z" fill="#F2BBAF"/>
<path transform="translate(427,432)" d="m0 0 2 1 3 9 2 17v5l-2 1-3-24-3-8z" fill="#E11216"/>
<path transform="translate(631,304)" d="m0 0h9v2h5v3l-1-2h-3v2h-9l-5 1-2-1v-2z" fill="#F1C6BB"/>
<path transform="translate(366,257)" d="m0 0 4 2-9 6-6 7-4 4-1-2 6-9 8-7z" fill="#DD9184"/>
<path transform="translate(525,640)" d="m0 0 3 3 1 8-8 2 1-8z" fill="#F2DAD6"/>
<path transform="translate(461,622)" d="m0 0h32l2 1v2h-31z" fill="#F2A598"/>
<path transform="translate(436,600)" d="m0 0h1v5l-8-1h-11l-4 2h-3l1-3 4-2z" fill="#DE9487"/>
<path transform="translate(765,514)" d="m0 0h11l15 1v1l-14 1-7 2-5-2-7-1v-1z" fill="#BB0D12"/>
<path transform="translate(278,441)" d="m0 0h1l2 23 1 1-1 8-2 1-1-3z" fill="#FABCAC"/>
<path transform="translate(264,345)" d="m0 0 8 2 16 1-1 2-7 2-13-1 2-2-5-3z" fill="#E8A799"/>
<path transform="translate(423,258)" d="m0 0 11 3h24l-1 2-3 1h-21l-10-5z" fill="#E21015"/>
<path transform="translate(418,635)" d="m0 0h5l-1 3h2v15l-2-3-1 6h-1l-1-15z" fill="#C00D12"/>
<path transform="translate(359,552)" d="m0 0h15l6 1-1 2h-22l-8-1v-1z" fill="#F9CBBE"/>
<path transform="translate(459,297)" d="m0 0h2v2h2l-2 5-2 3-6-2-4 6h-1v-5l5-5h6z" fill="#DC3331"/>
<path transform="translate(500,559)" d="m0 0h8l1 1v6l-10 18-1-3 8-15 1-4h-8l-2-2z" fill="#F7D8CE"/>
<path transform="translate(409,434)" d="m0 0 2 3 2 9-1 30h-1l-1-28-2-9z" fill="#E35C57"/>
<path transform="translate(584,571)" d="m0 0 3 1-2 1v3h2l1-2v4h-3v5h-3v2l-5-2-2-4h-3l-3-4 1-2 4 2 2 5 8 2z" fill="#F0BFB4"/>
<path transform="translate(262,411)" d="m0 0 2 1-2 5-1 2h-2v2l-5 3h-3l2-5z" fill="#F4B2A6"/>
<path transform="translate(330,401)" d="m0 0 5 1 4 1 1 3-1 8h-2v-5l-1-3-3 1-2-1-1 10h-1v-12z" fill="#F0B7AB"/>
<path transform="translate(444,305)" d="m0 0h3v7h2l1 4h-7l-2-4 1-4z" fill="#F4E2DE"/>
<path transform="translate(566,283)" d="m0 0h1l1 13-3 5-6 5h-2l2-5 5-6z" fill="#DA8D7F"/>
<path transform="translate(107,483)" d="m0 0h2l4 11 3 9 4 8 1 3h-2l-8-15-4-14z" fill="#C20D12"/>
<path transform="translate(489,635)" d="m0 0h4v16l-4-1z" fill="#C20E12"/>
<path transform="translate(447,634)" d="m0 0h11v4h-7l-7 4-1-3-3 1v-2z" fill="#DE796D"/>
<path transform="translate(415,608)" d="m0 0h8v2l-6 3 3 9h-9v-1h5l-2-5z" fill="#E79E93"/>
<path transform="translate(197,585)" d="m0 0 5 2-2 1h-7l-15 7h-6l4-3 12-5z" fill="#FAE4E0"/>
<path transform="translate(682,567)" d="m0 0h2l1 9h6l5-4-2 5-3 3-6 1-2-6v-5l-3 1v-3z" fill="#FABEAD"/>
<path transform="translate(442,565)" d="m0 0 2 3 2 5 9 2-1 5-8-1v-2h-2l-2-8z" fill="#F0BFB4"/>
<path transform="translate(609,560)" d="m0 0 2 4-3 3-5 2h-3l-1-6z" fill="#F0BFB4"/>
<path transform="translate(243,542)" d="m0 0h3l-1 3 3 1-1 3-7 1-2-4-4-1z" fill="#F49F92"/>
<path transform="translate(369,550)" d="m0 0 14 1 7 4-1 4-1-2-8-1-1-2-12-2z" fill="#E38D80"/>
<path transform="translate(631,393)" d="m0 0h1v8l3-1-1 3-3 3-3 7-2-1v-6l4-9z" fill="#EDADA0"/>
<path transform="translate(421,248)" d="m0 0h1l1 7 6 2 3 3-7-1-4-2-24-2v-1h12l12 1z" fill="#E9978B"/>
<path transform="translate(494,681)" d="m0 0h2v5l-2 3 5-1v-2h4v3l-4 3-10 1 1-2h2l1-4-2-1h3z" fill="#EEA598"/>
<path transform="translate(553,451)" d="m0 0h1v6h-2v4h-3l-2 6-5 5-4 6-4-2 7-6 6-8 4-7z" fill="#F09A8D"/>
<path transform="translate(411,208)" d="m0 0h10l7 2-1 2-1 1-16-2-1-2z" fill="#CF1316"/>
<path transform="translate(460,577)" d="m0 0h1l1 5 5 2h3l2-4 1 4-2 4-6 2v-2l-3-1-2-4z" fill="#FCCEBE"/>
<path transform="translate(602,577)" d="m0 0h5l-1 2-3-1-1 7-2 3-4-1-2-4-4-1v-2l5 2 5-1z" fill="#F0BFB4"/>
<path transform="translate(116,447)" d="m0 0 10 1v5h-11v-5z" fill="#F6E4DF"/>
<path transform="translate(666,400)" d="m0 0 5 1-3 1-1 3h-4v2h-2l-1 5-5-1v-3l4-2 4-5z" fill="#FAE4E0"/>
<path transform="translate(439,310)" d="m0 0h2l1 3-8 7h-2v-2l-8-1v-1l9-2 3-3z" fill="#EFAEA3"/>
<path transform="translate(483,608)" d="m0 0h5v2l8 1v5h-4v-2l-11-3v-2z" fill="#E9A097"/>
<path transform="translate(659,574)" d="m0 0h1l2 9 10 1-2 4h-6v-2l-5-2-1-7z" fill="#F0BFB4"/>
<path transform="translate(632,451)" d="m0 0 2 1v13l-8 20-2 2 1-6 7-19z" fill="#E98074"/>
<path transform="translate(327,436)" d="m0 0h1l1 7h1l2 14-2-4h-2l-1 5h-1z" fill="#D72726"/>
<path transform="translate(756,389)" d="m0 0 2 1 1 5 5 2 2 2-8 1v7h2l-1 5-2-1z" fill="#FABFAE"/>
<path transform="translate(510,565)" d="m0 0 1 3 5-3-2 4-6 9-4 1 1-5z" fill="#E39689"/>
<path transform="translate(533,560)" d="m0 0v3l-4 5-4 2h-3l1-7 2-1v2z" fill="#D48173"/>
<path transform="translate(331,412)" d="m0 0h1v34h-1l-1-19h-1v-11z" fill="#D4796C"/>
<path transform="translate(266,399)" d="m0 0h2v2h3v6l-5 8-1-4 2-5h-2z" fill="#F8DDD6"/>
<path transform="translate(397,305)" d="m0 0 4 2-7 3-10 5-5 1h-8v-2l10-1 10-4z" fill="#D88376"/>
<path transform="translate(453,296)" d="m0 0h6v5l-7 2-4 1v-5z" fill="#F3DDD8"/>
<path transform="translate(115,595)" d="m0 0h1l2 7 7 3 3 3 5 1v1l-7 1-5-4-5-2-2-5z" fill="#FAE4E0"/>
<path transform="translate(281,496)" d="m0 0 3 3 5 9 9 11 4 5-4-2-9-9-6-11z" fill="#DA1619"/>
<path transform="translate(456,305)" d="m0 0 3 1-2 5-1 8-6-1 1-5 4-4z" fill="#D21014"/>
<path transform="translate(666,446)" d="m0 0 3 4h2l2 10h2v7l-1-2h-2l-6-16z" fill="#F09E92"/>
<path transform="translate(495,303)" d="m0 0 1 4 2 1-9 8-1-3-2-1v-5l1 3 5-3z" fill="#EEB6AC"/>
<path transform="translate(369,274)" d="m0 0 11 1v1l-9 1-3 5-1 6-3 1v-10z" fill="#EBAA9D"/>
<path transform="translate(466,239)" d="m0 0 2 3v11l-6 2 2-4v-11z" fill="#DB1619"/>
<path transform="translate(443,698)" d="m0 0 1 2v6l1 2 5 1v2l3 1h-4l-1-1-4 2-1-4h-2l-1-2v-6z" fill="#EF8F83"/>
<path transform="translate(354,569)" d="m0 0 7 1v2l4 1v2h-15l2-2h3z" fill="#EC8D80"/>
<path transform="translate(461,557)" d="m0 0h5l1 8-1 1h-5l-1-8z" fill="#D58173"/>
<path transform="translate(460,554)" d="m0 0 2 1-2 2 1 13-2-1v-3l-2 1-1 7h-1v-8l2-10z" fill="#F3B1A5"/>
<path transform="translate(149,544)" d="m0 0 4 2 1 6 3 1-3 6h-2l1-4-5-5 1-3-2-1z" fill="#FBCCBD"/>
<path transform="translate(558,489)" d="m0 0 2 3 3 6 6 5 7 1 4-5-1 5-3 3-7-1-6-4-5-8z" fill="#E57E72"/>
<path transform="translate(412,452)" d="m0 0 2 4v15l-2 11-2 1 1-7z" fill="#E01C1E"/>
<path transform="translate(160,392)" d="m0 0h4v2l-13 7-3 1v-2l-3-1z" fill="#EA8E81"/>
<path transform="translate(272,276)" d="m0 0 5 1 8-1-3 2-12 3v2l-5 2 1-3h-3z" fill="#F1C6BB"/>
<path transform="translate(491,231)" d="m0 0h14l1 2h-2v3h-6v-2h-7z" fill="#F6D6CD"/>
<path transform="translate(466,211)" d="m0 0 2 1-1 7-2 3h-2l-1 5-2-2 2-8z" fill="#E51518"/>
<path transform="translate(392,635)" d="m0 0h12l-1 3h-8l-1 4-2-4-1 8h-1v-9z" fill="#E25953"/>
<path transform="translate(258,556)" d="m0 0 3 1-6 8v5l-8-5 3-3h4l1-3h2z" fill="#FAD4CB"/>
<path transform="translate(182,536)" d="m0 0h29l-4 2-4 1h-12l-9-2z" fill="#D71215"/>
<path transform="translate(129,521)" d="m0 0 4 2v2l5 2 2 5-2 1-8-7-3-4z" fill="#F71115"/>
<path transform="translate(658,516)" d="m0 0 3 1-1 2-4 2-4 5-7 4-3 3-2-1 10-10 6-4z" fill="#E41015"/>
<path transform="translate(189,408)" d="m0 0h4l1 4-5 1-1-1-3 3-5-1v-2z" fill="#F19688"/>
<path transform="translate(298,337)" d="m0 0 1 2-7 9-4 1-6-1v-1h6v-2l6-5 1-2z" fill="#F0BDB2"/>
<path transform="translate(538,576)" d="m0 0 5 1-2 4-3 3h-6v-3z" fill="#F3B2A6"/>
<path transform="translate(321,279)" d="m0 0 7 1 2 2 2 5 2 3-4-2-3-1v-2h-3v-2h-2z" fill="#F0AEA1"/>
<path transform="translate(510,258)" d="m0 0h11l6 1v1l-22 1v9h-1l-2-7v-4z" fill="#E99B8F"/>
<path transform="translate(486,231)" d="m0 0h5l1 2 6 1v2h-13l2 3-7-2 1-2 2 1 1-4z" fill="#EA9D91"/>
<path transform="translate(411,681)" d="m0 0h2l3 5 2 5-4 1-5-5 1-5z" fill="#F5E3DE"/>
<path transform="translate(453,635)" d="m0 0h9l5 5-2 4-5-3v-2h-2v-3h-5z" fill="#EF2D2C"/>
<path transform="translate(430,524)" d="m0 0 1 2-4 7-2 5-2 10-2-1v-8l4-7 1-5z" fill="#FAE4E0"/>
<path transform="translate(245,517)" d="m0 0h2l-1 6-7 4-2-1 2-5z" fill="#D91C1E"/>
<path transform="translate(538,501)" d="m0 0h2l7 12 4 8 3 2v5l-4-5-10-17z" fill="#E87F73"/>
<path transform="translate(740,389)" d="m0 0h1l1 13-2 13h-1v-25z" fill="#E0413E"/>
<path transform="translate(678,582)" d="m0 0 3 3v5l7-2 4-4-1 4-4 4-5 1-4-6h-3l2-4z" fill="#F9D5CE"/>
<path transform="translate(587,547)" d="m0 0h8l1 4-13-1h-8l-2-2z" fill="#F5A396"/>
<path transform="translate(651,440)" d="m0 0 2 3 3 8v5h-3l-3-6v-3h2z" fill="#EBB4A9"/>
<path transform="translate(631,441)" d="m0 0h3l2 6v7h-2l-2-5-2-1z" fill="#F9CCBE"/>
<path transform="translate(475,418)" d="m0 0h1l1 34 3 2v2h-5z" fill="#FBCBBB"/>
<path transform="translate(450,713)" d="m0 0 10 1v2l-5 3-5-1-4-4z" fill="#E6625A"/>
<path transform="translate(424,691)" d="m0 0 2 3h12 3l-3 3-9 2-8-5 3-1z" fill="#E79184"/>
<path transform="translate(385,635)" d="m0 0v3h-9l2 1v4h-2v-3l-1 5-2 3-1-1v-7l3-4h9z" fill="#E9A99D"/>
<path transform="translate(681,570)" d="m0 0h2l2 10 7-1v3l-5 2-4-1-1-9-3 1v-4z" fill="#F0BEB3"/>
<path transform="translate(323,552)" d="m0 0h9l5 2v1l-5 1h-10l-1-3z" fill="#FADAD4"/>
<path transform="translate(691,501)" d="m0 0 2 4 3 9v5l-1-2h-2l-4-11 1-3z" fill="#D37C6F"/>
<path transform="translate(584,487)" d="m0 0 4 1-1 7-3 4v-4l-3 1-1 3 1-7z" fill="#E79083"/>
<path transform="translate(481,471)" d="m0 0h23l-1 3-20-1z" fill="#F8E9E6"/>
<path transform="translate(223,435)" d="m0 0 11 1 3 2h-17l-10 1 3-3z" fill="#FAE4E0"/>
<path transform="translate(283,309)" d="m0 0 11 1 5 7-1 2h-2l-5-5-4-3z" fill="#F5B7AA"/>
<path transform="translate(525,634)" d="m0 0 4 2 1 7-2 2-3-4-3 2 1-6z" fill="#C71418"/>
<path transform="translate(514,467)" d="m0 0 2 1v1h5l-3 2-3 1h-7v-2h-9v-1z" fill="#EDA094"/>
<path transform="translate(561,266)" d="m0 0 3 3 3 6-1 16h-1l-1-14-3-6z" fill="#EB998C"/>
<path transform="translate(463,658)" d="m0 0 3 1-2 4h-2l-5 5-7-1-2-2 3-1h7z" fill="#E61015"/>
<path transform="translate(559,557)" d="m0 0 4 3 2 7h-2l-2-4-7 2-2 1 2-4z" fill="#FAD1C6"/>
<path transform="translate(472,546)" d="m0 0 1 3-3 1h-14l-8-1v-1l15-1 9 1z" fill="#D71215"/>
<path transform="translate(163,529)" d="m0 0h7l12 3v2h-10l-4-2h-2v-2z" fill="#DE2829"/>
<path transform="translate(624,512)" d="m0 0 5 2 1 3 3 1 3 4v2l-5-2-5-4v-2l-2-1z" fill="#D17366"/>
<path transform="translate(635,443)" d="m0 0 2 3 3 7v7l-5-2-1-4h2z" fill="#F09A8D"/>
<path transform="translate(346,445)" d="m0 0 2 1 3 8 4 2h-6v-2h-4l-1 2v-9h2z" fill="#ED887B"/>
<path transform="translate(616,434)" d="m0 0 2 1-1 7-5 5-1-4 4-8z" fill="#E9AEA3"/>
<path transform="translate(228,392)" d="m0 0 5 1 10 8v2l-4-1-11-8z" fill="#E57D71"/>
<path transform="translate(534,272)" d="m0 0h10l4 3v2l-16-2v-2z" fill="#F1978A"/>
<path transform="translate(459,684)" d="m0 0 3 1v2l4 2 2 4-5 1-3-4v-2h-2z" fill="#ED978B"/>
<path transform="translate(456,582)" d="m0 0 4 2 1 7-5 1-1-1v-7z" fill="#F6F6F5"/>
<path transform="translate(685,555)" d="m0 0 5 2 9 1v3l-6 1-3-2-5-1-1-3z" fill="#EF8579"/>
<path transform="translate(318,552)" d="m0 0h5l-2 1 1 2h20v1l-6 1h-18l-1-4z" fill="#F2B6AA"/>
<path transform="translate(182,534)" d="m0 0h24l1 2-6 1h-9l-10-2z" fill="#D06F63"/>
<path transform="translate(128,524)" d="m0 0 7 6 9 7-2 2v-2l-6-1-7-8z" fill="#F2B2A6"/>
<path transform="translate(603,521)" d="m0 0 2 1 2 5-1 2-3-1-3 8-4 4 2-6z" fill="#D16F63"/>
<path transform="translate(615,504)" d="m0 0 4 2 6 5v4l-4-2-7-6z" fill="#E07E71"/>
<path transform="translate(130,415)" d="m0 0h2v2h4v5l-4 2-4-1 1-5z" fill="#F8CDC4"/>
<path transform="translate(302,322)" d="m0 0h1v11l-3 5-4-1 2-5 1-7h1v5h2z" fill="#F2CABF"/>
<path transform="translate(641,307)" d="m0 0 5 1 5 5-2 10h-1l-2-10-5-4z" fill="#F5BCAF"/>
<path transform="translate(504,650)" d="m0 0 4 2v9l-4 1z" fill="#BF0D12"/>
<path transform="translate(503,622)" d="m0 0h25l2 1v2h-10v-1l-17-1z" fill="#F0C1B7"/>
<path transform="translate(454,602)" d="m0 0 2 2-3 3-1 3-4-1-7-3v-2h13z" fill="#E68478"/>
<path transform="translate(733,604)" d="m0 0 22 1v1l-21 1h-10l-1-2z" fill="#FAE4E0"/>
<path transform="translate(762,591)" d="m0 0 9 1 3 1 1 4 2 1-6-1-7-3-4 1v-2h2z" fill="#FAE4E0"/>
<path transform="translate(331,570)" d="m0 0 3 1-5 4 1 2-6 2h-6l1-3 10-4z" fill="#EDA89B"/>
<path transform="translate(567,534)" d="m0 0 3 4 1 6-6 1-1-5z" fill="#F91115"/>
<path transform="translate(576,515)" d="m0 0 1 2-12 23-1-4 6-11z" fill="#E87E72"/>
<path transform="translate(519,494)" d="m0 0 3 4 3 6-2 4-4-5-2-5h2z" fill="#F1AA9C"/>
<path transform="translate(507,233)" d="m0 0 10 2v4h-6l-4-3z" fill="#EEAFA3"/>
<path transform="translate(463,222)" d="m0 0 1 4 1 1 5 1 2-1v2h2v2l-6-1-1 2-11-1v-1h6l-1-3z" fill="#EAA79B"/>
<path transform="translate(530,640)" d="m0 0 3 4 1 6-2 2h-5l2-1-1-6z" fill="#D82A29"/>
<path transform="translate(661,560)" d="m0 0h2v8l-2 2-1-2-5 1h-7l1-2 8-1z" fill="#F0BFB4"/>
<path transform="translate(660,555)" d="m0 0h5l1 6-2 1v-3l-5 3-4 4-3-1 5-5z" fill="#F4B0A4"/>
<path transform="translate(543,552)" d="m0 0h7v2l-6 4-4 4 1-7z" fill="#E41015"/>
<path transform="translate(231,546)" d="m0 0 3 1-2 2-9 2-1 2 3 1-2 1-6-3 2-3z" fill="#EB8478"/>
<path transform="translate(527,507)" d="m0 0 3 3 5 9 5 10-2 1-11-21z" fill="#DF1115"/>
<path transform="translate(451,274)" d="m0 0h1v6l-5 1-5-1 3-4z" fill="#DA1216"/>
<path transform="translate(457,602)" d="m0 0 9 1-2 1v2l3-1v4l-4 1-5-1 2-1-1-3-2-1z" fill="#F4BCB0"/>
<path transform="translate(472,584)" d="m0 0 1 4-3 5-10-1 2-1 1-4 2 1v2l6-3z" fill="#F9D4CD"/>
<path transform="translate(136,544)" d="m0 0 3 2v2h3v2l5 2 2 3-1 6h-1l-2-6-4-3v-2l-3-1z" fill="#F9E3DF"/>
<path transform="translate(498,450)" d="m0 0 1 4 4 2h-12v-3z" fill="#FAD4CD"/>
<path transform="translate(459,387)" d="m0 0h21v2l-19 1v-2z" fill="#F3C6BC"/>
<path transform="translate(349,546)" d="m0 0 3 1 1 3-9 1-5-1v-2z" fill="#E41015"/>
<path transform="translate(610,519)" d="m0 0 5 1 9 7 1 3-5-1-3-3-1-2h-2z" fill="#E57D71"/>
<path transform="translate(351,422)" d="m0 0h1l-1 18-2-2-1-15z" fill="#F4BEB0"/>
<path transform="translate(632,392)" d="m0 0h3l2 11 1 2-3-1v-4l-4 2z" fill="#F4E0DC"/>
<path transform="translate(483,215)" d="m0 0 2 1-3 2zm-3 3 2 1-5 5v3l4 1-1 1h-5v-2h-3l2-4z" fill="#F2C0B7"/>
<path transform="translate(462,200)" d="m0 0h1l1 9 2 1-2 5-2 4-1 6h-1v-10h2z" fill="#E99387"/>
<path transform="translate(559,639)" d="m0 0 5 2-1 7h-3l-3 3v-5l2-1z" fill="#E41114"/>
<path transform="translate(317,577)" d="m0 0 1 2 2 1-9 6-2-1-2-2z" fill="#F4AC9F"/>
<path transform="translate(553,259)" d="m0 0 5 1 4 5-1 5-4-4-4-5z" fill="#F6A89B"/>
<path transform="translate(409,679)" d="m0 0 4 1-3 3v4l4 3-1 3-5-2v-10z" fill="#E78E82"/>
<path transform="translate(545,634)" d="m0 0h12l5 4-1 2-4-1-7-4-1 2v-2z" fill="#DA3F3C"/>
<path transform="translate(392,637)" d="m0 0 2 4 4 5h-3l-1-3h-2l3 5 3 3-1 2-6-6v-9z" fill="#DF1518"/>
<path transform="translate(469,608)" d="m0 0h7l-1 3-9 3-1-5z" fill="#EE9589"/>
<path transform="translate(593,603)" d="m0 0 5 1 6 3-2 2-4-2h-9l-2-2z" fill="#FAE4E0"/>
<path transform="translate(145,561)" d="m0 0 2 1-3 1v2l-6 4-8 9h-2l2-4 9-9z" fill="#F8D7CD"/>
<path transform="translate(333,548)" d="m0 0h6v2h2v2h-9l-6-1 4-2z" fill="#D61014"/>
<path transform="translate(663,473)" d="m0 0 2 4 2 6v5h-2l-4-9z" fill="#D87F72"/>
<path transform="translate(335,407)" d="m0 0 3 2-1 5h2v-5h1v8l-3-1v2h-2l-1-8z" fill="#F3C5B9"/>
<path transform="translate(666,330)" d="m0 0 1 4-5 7-4 2 1-3 3-3h-2l2-5 2-1 2 1z" fill="#F3C5BB"/>
<path transform="translate(468,691)" d="m0 0 5 3v2h8v2h-10l-2-1z" fill="#DE7E73"/>
<path transform="translate(464,684)" d="m0 0 16 1v3l-12-1-1 3-1-5z" fill="#DC887C"/>
<path transform="translate(555,638)" d="m0 0 4 2 1 5-3 1-1 2-2-5z" fill="#F3C0B6"/>
<path transform="translate(519,393)" d="m0 0 5 2 7 6 4 5v2l-4-2-7-8-5-3z" fill="#D32122"/>
<path transform="translate(497,254)" d="m0 0 17 1-4 3h-11z" fill="#D82424"/>
<path transform="translate(431,685)" d="m0 0h5l1 2-10 1v2h-6l-1-2z" fill="#DE877C"/>
<path transform="translate(401,662)" d="m0 0 3 1-2 3h-10l-2-1v-2z" fill="#E5292A"/>
<path transform="translate(497,635)" d="m0 0h6l3 3-1 4-5-2z" fill="#D02424"/>
<path transform="translate(158,546)" d="m0 0 6 2 3 2-1 4-5 2v-6l-3-3z" fill="#F39A8D"/>
<path transform="translate(561,539)" d="m0 0 3 1 1 4 2 2h-13l3-2 3-3z" fill="#DC796D"/>
<path transform="translate(679,517)" d="m0 0 2 4 2 7v7l-2-3-3-8z" fill="#D4796C"/>
<path transform="translate(588,487)" d="m0 0 5 2 9 7-1 2-9-6h-4z" fill="#DD1115"/>
<path transform="translate(582,474)" d="m0 0 3 1-3 1-1 5-4-4h-7l-3 1v-3z" fill="#E7867A"/>
<path transform="translate(687,473)" d="m0 0 7 1 5 5 1 2-4-2-13-4z" fill="#F49688"/>
<path transform="translate(573,408)" d="m0 0 3 1-2 2-4 1-3 2-8-1v-1h5l1-2z" fill="#FAE4E0"/>
<path transform="translate(365,285)" d="m0 0 2 3 3 4v2h9l-1 2h-8l-4-4z" fill="#D78376"/>
<path transform="translate(433,224)" d="m0 0 5 2 2 2-7 3h-6v-1h5l-1-5z" fill="#F0ACA1"/>
<path transform="translate(424,634)" d="m0 0h13l-2 5-10-1v-1l6-1-7-1z" fill="#EBA093"/>
<path transform="translate(257,573)" d="m0 0 3 2v2l3 1v5l-3 2h-3v-2h2l-1-7z" fill="#FABFAF"/>
<path transform="translate(147,561)" d="m0 0 2 1-4 5-1 3 2 1-6 1 1-5 1-2h2v-2z" fill="#F5A89B"/>
<path transform="translate(309,554)" d="m0 0h2l1 3 5 2-3 2-7-1-1-4z" fill="#D06F63"/>
<path transform="translate(237,497)" d="m0 0 7 2 5 5-1 2-4-4-8-1-4 2z" fill="#DA5550"/>
<path transform="translate(589,484)" d="m0 0 5 1 4 3v3l-5-1-4-4z" fill="#EF9184"/>
<path transform="translate(655,465)" d="m0 0 3 3 6 17h-2l-3-6-4-11z" fill="#DF1015"/>
<path transform="translate(121,426)" d="m0 0h1v5h-2v2h7l2 2-11 1 1-7z" fill="#F19C8F"/>
<path transform="translate(185,407)" d="m0 0h7l-3 2-7 3h-6l4-4z" fill="#F6B5A7"/>
<path transform="translate(143,401)" d="m0 0h4l-1 4-8 4-2-1z" fill="#F5D3CA"/>
<path transform="translate(471,298)" d="m0 0h2l1 3-3 6-4-1-2 1 2-4z" fill="#E31D1F"/>
<path transform="translate(590,279)" d="m0 0 4 1-5 2 2 2-10 2-5 2 4-4z" fill="#F1C4B9"/>
<path transform="translate(401,658)" d="m0 0 7 3 1-2v6l-1-2-6 4 1-4-2-1z" fill="#E6978B"/>
<path transform="translate(342,634)" d="m0 0h14v3l-1 3-1-2-10-2h-2z" fill="#DE8477"/>
<path transform="translate(451,621)" d="m0 0h9v3h-14l1-2z" fill="#D71215"/>
<path transform="translate(471,560)" d="m0 0h1v8l-3 4-7 1-1-3 9-2z" fill="#F6A598"/>
<path transform="translate(800,544)" d="m0 0h1v6h-7l-4-2z" fill="#EDAEA2"/>
<path transform="translate(144,534)" d="m0 0 5 1 2 3 3 1v2l-4 1-5-5z" fill="#F91115"/>
<path transform="translate(225,531)" d="m0 0 4 1-12 5h-5v-2z" fill="#D11114"/>
<path transform="translate(533,456)" d="m0 0 1 4-7 6-1-3 1-3z" fill="#F4BCB0"/>
<path transform="translate(524,438)" d="m0 0 1 4-4 7h-2v2h-2v-4h3l1-6z" fill="#EFB2A6"/>
<path transform="translate(643,418)" d="m0 0 2 2 2 9h-2l-1 4-2-9h2z" fill="#E9ADA2"/>
<path transform="translate(348,302)" d="m0 0 7 2 1 4 3 4-5-2-3-2v-2h-2z" fill="#F5BBAE"/>
<path transform="translate(548,276)" d="m0 0 3 1 1 2v8l-2 1-2-6-2-5z" fill="#F3B1A4"/>
<path transform="translate(386,235)" d="m0 0 7 1-4 4-7 1 2-4z" fill="#DA2020"/>
<path transform="translate(421,217)" d="m0 0 7 3 5 3v2h-6v-3l-5-2z" fill="#DF1F20"/>
<path transform="translate(503,661)" d="m0 0 4 2-5 4h-7v-2l7-3z" fill="#D91316"/>
<path transform="translate(489,634)" d="m0 0h13l-4 3-3 1-1 10h-1v-13z" fill="#E7A093"/>
<path transform="translate(369,634)" d="m0 0h16l-1 3h-9l-2 2v-3z" fill="#D65951"/>
<path transform="translate(468,604)" d="m0 0 3 1-1 2 13 1-2 1-1 2-4-1v-2l-9 1z" fill="#F8DCD5"/>
<path transform="translate(296,593)" d="m0 0 3 2-7 7-3 1 1-4 5-5z" fill="#F2BBAF"/>
<path transform="translate(474,580)" d="m0 0 1 4-1 16h-1l-1-6-2-1 2-5 1-7z" fill="#F6DBD2"/>
<path transform="translate(799,573)" d="m0 0v3l-2 1-15 1v-3l16-1z" fill="#F5AA9D"/>
<path transform="translate(144,550)" d="m0 0 4 1v2l6 2-2 4-4 2v-6l-1-3-3-1z" fill="#F5D8CD"/>
<path transform="translate(349,540)" d="m0 0h2v2l4 1-2 3 9 1 2 2-10-1-4-3z" fill="#EEA79B"/>
<path transform="translate(784,529)" d="m0 0 7 1-1 5h-5z" fill="#DA423E"/>
<path transform="translate(261,519)" d="m0 0 2 1-1 5-5 6-2-3z" fill="#FA1215"/>
<path transform="translate(695,478)" d="m0 0 7 5v3l3 1-4 1-3-1z" fill="#E67F73"/>
<path transform="translate(119,462)" d="m0 0 4 1 2 11-3-1-1-6-1 5h-1z" fill="#DE1215"/>
<path transform="translate(620,277)" d="m0 0 12 1 6 3-3 1-7-2-8-1z" fill="#E19C8E"/>
<path transform="translate(549,642)" d="m0 0h1l1 7 3 1-1 4-3-1v8h-1z" fill="#DF8275"/>
<path transform="translate(382,555)" d="m0 0 7 2v2l-8 1-2-1 1-3z" fill="#F11115"/>
<path transform="translate(604,498)" d="m0 0 6 4 5 5v2l-4-2-8-7z" fill="#DA1115"/>
<path transform="translate(584,491)" d="m0 0h1l-1 11-1 2h-2l-1-5 1-3 2-2z" fill="#EDA497"/>
<path transform="translate(604,469)" d="m0 0 1 3-4 8-4-2 2-6 4 2z" fill="#E1877A"/>
<path transform="translate(122,462)" d="m0 0 4 2 1 3v7h-2z" fill="#EB978A"/>
<path transform="translate(245,432)" d="m0 0h13v5l-2 1-1-2-7-1-3-1z" fill="#F9D5CE"/>
<path transform="translate(160,417)" d="m0 0 2 1-4 4-1 3-5 4-2 4h-2l2-5z" fill="#EA9083"/>
<path transform="translate(142,400)" d="m0 0h6l-1 3v-2l-5 2-7 7-2 3h-2l2-4z" fill="#F2A89C"/>
<path transform="translate(436,288)" d="m0 0h5l1 6-2 1-3-1z" fill="#E9B2A9"/>
<path transform="translate(455,274)" d="m0 0h1v7l-4 8h-2l1-9 1 3h2z" fill="#E8978B"/>
<path transform="translate(660,560)" d="m0 0v3l-3 4-8 1-6-1 4-2 4 1 5-2z" fill="#FBBEAD"/>
<path transform="translate(500,559)" d="m0 0h8l1 4-2 2v-3h-8l-2-2z" fill="#FAE4E0"/>
<path transform="translate(532,526)" d="m0 0h2v2h2l1-2 3 6-1 4-6-7z" fill="#E8877A"/>
<path transform="translate(633,402)" d="m0 0 2 1 3 10-1 3-3-8-4-2z" fill="#D81316"/>
<path transform="translate(457,387)" d="m0 0 4 1-1 9-2 2-1-3z" fill="#F6F4F3"/>
<path transform="translate(356,302)" d="m0 0 7 6 1 2-5-1h-3l-2-3z" fill="#F5A698"/>
<path transform="translate(531,272)" d="m0 0 3 1h-2v2h12v1l-12 1-4 1v-2l-2-1z" fill="#F6C5B9"/>
<path transform="translate(489,228)" d="m0 0 4 2-9 2-1 4-4-2v-2z" fill="#E11517"/>
<path transform="translate(446,677)" d="m0 0h14v2l-14 1z" fill="#C60E13"/>
<path transform="translate(127,577)" d="m0 0 1 3-4 5-5 5v-3z" fill="#F5DBD2"/>
<path transform="translate(262,577)" d="m0 0 5 2 1 7-3 3-2-10z" fill="#F8D5CA"/>
<path transform="translate(679,512)" d="m0 0 2 1 2 9 1 1v6l-2-1-3-11z" fill="#D61114"/>
<path transform="translate(596,511)" d="m0 0 5 1 2 5-6-2-1 2h-2l1-5z" fill="#D81115"/>
<path transform="translate(646,471)" d="m0 0 2 3 3 10v6l-2 1v-6l-2-4z" fill="#E77E72"/>
<path transform="translate(620,469)" d="m0 0h1v6l-3 3-2-1v-5z" fill="#F29D90"/>
<path transform="translate(160,419)" d="m0 0 3 1-4 6h-2l-2 4-1-4 3-1 1-4z" fill="#FABCAC"/>
<path transform="translate(267,414)" d="m0 0 3 1-3 5-5 1v-4h2v-2z" fill="#F6C7BC"/>
<path transform="translate(305,397)" d="m0 0 2 1-13 13-2-1 3-4h2l1-3z" fill="#F1C0B6"/>
<path transform="translate(619,316)" d="m0 0 1 3-1 2-1 11-2-3v-10z" fill="#F1B3A6"/>
<path transform="translate(514,657)" d="m0 0h2l-2 9h-4l2-7z" fill="#DA1114"/>
<path transform="translate(468,641)" d="m0 0 2 1 1 4v12l-3 3-2-1 3-6v-7z" fill="#EC9D90"/>
<path transform="translate(507,568)" d="m0 0 1 3-4 8 3-1-1 3-4 1 1-7z" fill="#F4AEA1"/>
<path transform="translate(789,559)" d="m0 0 4 3v4h-2v-2l-3-1v-2l-8 1 3-2z" fill="#D48173"/>
<path transform="translate(597,551)" d="m0 0h9l9 2v1h-12l-6-1z" fill="#F6A598"/>
<path transform="translate(615,517)" d="m0 0 5 2 4 4-1 3-5-2-2-4z" fill="#F91115"/>
<path transform="translate(439,507)" d="m0 0h1v20h-1l-1-8-1-3z" fill="#F7DED6"/>
<path transform="translate(613,444)" d="m0 0h3l-2 6-2 5-2-3-1-4 2-2z" fill="#E1978B"/>
<path transform="translate(495,290)" d="m0 0 6 3 2 3-1 5h-1l-1-6-2-1-1 3-1-3-3-2h2z" fill="#EB998C"/>
<path transform="translate(632,278)" d="m0 0 7 1 6 3-2 1-6 1-4-2 3-1z" fill="#F4BEB3"/>
<path transform="translate(528,275)" d="m0 0 2 1-6 7h-3l-1-2 5-5z" fill="#F5B2A5"/>
<path transform="translate(501,263)" d="m0 0h2l2 7-1 4-3-2z" fill="#E51015"/>
<path transform="translate(564,662)" d="m0 0 4 2 1 4-6-1-3-2 1-2 2 1z" fill="#E7554F"/>
<path transform="translate(360,648)" d="m0 0h1v10l-4-4-1-4z" fill="#F4C9C0"/>
<path transform="translate(443,638)" d="m0 0 1 4-3 7h-2v-7z" fill="#F61115"/>
<path transform="translate(423,635)" d="m0 0h8l4 2h-10v6h-1v-5h-2z" fill="#D93432"/>
<path transform="translate(428,608)" d="m0 0 6 1 7 5-2 1-11-5z" fill="#D73736"/>
<path transform="translate(567,551)" d="m0 0h11v2l-6 2-6-2z" fill="#D2776A"/>
<path transform="translate(735,516)" d="m0 0 3 2-1 6-4-1-1-6z" fill="#D55651"/>
<path transform="translate(129,500)" d="m0 0 5 5 7 8-1 2-7-7-4-6z" fill="#EA8074"/>
<path transform="translate(516,489)" d="m0 0 3 4 1 6-4-2-2-5z" fill="#F7B9AB"/>
<path transform="translate(282,401)" d="m0 0 2 1-12 12v-3l5-6z" fill="#F15651"/>
<path transform="translate(740,375)" d="m0 0 6 1 7 5 2 6-2 1-3-6-5-4-5-2z" fill="#DD1417"/>
<path transform="translate(618,332)" d="m0 0 4 1 2 4-2 1 2 3-4-2-2-2z" fill="#F2C1B5"/>
<path transform="translate(659,294)" d="m0 0 4 4 2 5-2-1-2 3-3-5 2-3z" fill="#F5C1B5"/>
<path transform="translate(252,293)" d="m0 0 3 1-1 4h-2l-1 6-1-4-2-1z" fill="#F1C7BC"/>
<path transform="translate(656,291)" d="m0 0 3 3 2 4-3 2-4-5z" fill="#F5B4A7"/>
<path transform="translate(423,258)" d="m0 0 11 3 8 2v1h-9l-10-5z" fill="#D61114"/>
<path transform="translate(468,219)" d="m0 0 1 3-4 7-2-1 2-8z" fill="#F5E9E5"/>
<path transform="translate(455,692)" d="m0 0h5l1 2-12 2h-3l1-3z" fill="#E5897C"/>
<path transform="translate(543,656)" d="m0 0h1l1 10-5 1-1-6h4z" fill="#F4B7AA"/>
<path transform="translate(497,584)" d="m0 0 2 3v3l-2 4h-3v-5z" fill="#F4C8BC"/>
<path transform="translate(459,515)" d="m0 0h1v21l-3 1 1-4z" fill="#EF9B8E"/>
<path transform="translate(688,494)" d="m0 0 2 3 1 7-3-1-2-7z" fill="#DA8D7F"/>
<path transform="translate(262,454)" d="m0 0h1v16l-2-1-1-7z" fill="#D7443F"/>
<path transform="translate(652,407)" d="m0 0 2 1v3h3l1 7-2 3-4-12z" fill="#F2C6BE"/>
<path transform="translate(502,387)" d="m0 0h13v1l-6 1 2 2-9-1z" fill="#F5D0CA"/>
<path transform="translate(465,253)" d="m0 0h2l-1 3-9 5-5-1v-1l7-2z" fill="#D47569"/>
<path transform="translate(496,217)" d="m0 0h3v2l-5 3-5-1v-2z" fill="#D82B2B"/>
<path transform="translate(461,579)" d="m0 0 1 2h9l-1 4-6-1-3-2z" fill="#F0BFB4"/>
<path transform="translate(550,565)" d="m0 0 2 1-5 9-3 1-1 3 1-5z" fill="#F5C2B6"/>
<path transform="translate(538,554)" d="m0 0h2l-1 7-2 2v-2l-3 1 2-5z" fill="#E09A8C"/>
<path transform="translate(225,549)" d="m0 0 1 4 7 3-1 2-7-2-3-3 1-3z" fill="#F18F82"/>
<path transform="translate(580,502)" d="m0 0 2 4-3 6h-1v-5l-2-1z" fill="#E29284"/>
<path transform="translate(271,474)" d="m0 0 1 4 3 1v2h-9v-3l5 1z" fill="#DF3634"/>
<path transform="translate(532,453)" d="m0 0 5 1-2 5-2-2-4 3-2-1z" fill="#EBA498"/>
<path transform="translate(330,405)" d="m0 0 3 1v13h-1l-1-6h-1z" fill="#EB9F92"/>
<path transform="translate(758,393)" d="m0 0 1 2 5 2 2 2-8 1z" fill="#FCCEBE"/>
<path transform="translate(353,274)" d="m0 0v3l-2 2h-1l-1 12h-1v-13l2-3z" fill="#F1B8AC"/>
<path transform="translate(366,257)" d="m0 0 4 2-8 5h-2v-3z" fill="#DC8E81"/>
<path transform="translate(467,206)" d="m0 0 1 2 5-2-4 8-3-3z" fill="#D92A29"/>
<path transform="translate(355,646)" d="m0 0 5 2-4 2-1 2-4 1v-4h3z" fill="#D51317"/>
<path transform="translate(444,592)" d="m0 0h4l-1 3-11 1v-2z" fill="#E49083"/>
<path transform="translate(443,591)" d="m0 0h10l1 2h-2v2h-5l1-3-5 1z" fill="#EFA193"/>
<path transform="translate(614,578)" d="m0 0 2 4-2 2-5-1v-3h5z" fill="#F0BFB4"/>
<path transform="translate(457,568)" d="m0 0 2 2 1 6h-3l-2 2 1-8z" fill="#FBCFC1"/>
<path transform="translate(464,561)" d="m0 0h3l-1 5h-5v-4z" fill="#F08478"/>
<path transform="translate(688,551)" d="m0 0 9 2v2h-9z" fill="#D06E62"/>
<path transform="translate(536,550)" d="m0 0 7 1-2 7-1-4h-2l-1 2z" fill="#D37C6F"/>
<path transform="translate(367,537)" d="m0 0 2 1-1 3-4 1h-8l4-2z" fill="#E28E82"/>
<path transform="translate(532,519)" d="m0 0 3 4 1 5h-2v-2l-3-1-1-4h2z" fill="#F0998C"/>
<path transform="translate(576,507)" d="m0 0h2v7h-4v-5h2z" fill="#F3A093"/>
<path transform="translate(179,496)" d="m0 0 2 1 1 15-3-1v-6l-1-2z" fill="#FAE4E0"/>
<path transform="translate(733,485)" d="m0 0 4 1v5h-4l-1-5z" fill="#E5978A"/>
<path transform="translate(117,465)" d="m0 0 2 4 1 3v7l-2-1-1-3z" fill="#EB8477"/>
<path transform="translate(732,463)" d="m0 0 2 1-1 6 2 4-4-1-1-6z" fill="#D61014"/>
<path transform="translate(553,451)" d="m0 0h1v6h-2v4h-3l-1 3-1-2 4-7z" fill="#EA8E81"/>
<path transform="translate(277,437)" d="m0 0 1 3-1 8-2 1-1-7z" fill="#E41015"/>
<path transform="translate(160,392)" d="m0 0h4v2l-6 3h-4v-2z" fill="#EB9285"/>
<path transform="translate(386,287)" d="m0 0 1 4-5 5-4-1 1-2 5-3z" fill="#D98D7F"/>
</svg>
