<?xml version="1.0" encoding="UTF-8"?>
<svg version="1.1" viewBox="0 0 900 900" width="225" height="225" xmlns="http://www.w3.org/2000/svg">
<path transform="translate(0)" d="m0 0h900v900h-900z" fill="#E00A1D"/>
<path transform="translate(899,489)" d="m0 0h1v411h-411v-1l53-9 26-6 29-9 27-10 24-11 27-14 19-12 16-11 18-13 11-9 13-12 8-7 4-4h2l2-4 15-15 7-8 12-14 10-14 11-15 10-16 11-19 15-29 11-27 9-26 7-24 7-35 4-26z" fill="#FDFEFD"/>
<path transform="translate(0,492)" d="m0 0 2 3 5 34 6 28 6 22 10 30 9 22 8 17 8 16 9 16 12 19 12 17 9 12 9 11 13 15 7 7 7 8 16 15 11 9 9 8 13 10 17 12 22 14 24 13 27 13 19 8 34 11 28 7 33 6 28 4v1h-413z" fill="#FDFEFD"/>
<path transform="translate(493)" d="m0 0h407v412h-1l-6-40-6-28-7-26-10-30-11-26-14-28-10-17-13-20-14-20-11-13-8-10-22-24-16-15-15-13-20-15-17-12-24-15-27-14-14-7-20-8-19-7-25-8-30-7-47-8z" fill="#FDFEFD"/>
<path transform="translate(0)" d="m0 0h407v1l-43 7-34 8-26 8-29 11-28 13-26 14-22 14-18 13-14 11-13 11-12 11-13 12-7 8-13 14-9 11-13 17-7 10-10 15-9 15-10 18-13 27-11 27-8 24-8 31-6 31-4 26h-1z" fill="#FDFEFD"/>
<path transform="translate(126,444)" d="m0 0h12l13 3 10 6 10 10 6 10 3 14v8l-3 14-6 11-7 8-14 8-15 3-15-1-11-5-6-4-5-5-7-9-4-9-2-8v-13l3-11 6-11 6-7 10-7 10-4z" fill="#FDFEFD"/>
<path transform="translate(428,307)" d="m0 0h16l3 7 8 27 6 20 2-6 12-40 3-7 1-1h16l5 42 3 26v8l-1 1h-12l-4-2-5-38-8 28-3 11-1 1h-15l-3-5-9-34v-2h-2l-1 19-3 21-1 1h-16v-8l7-61 1-7z" fill="#FDFEFD"/>
<path transform="translate(235,183)" d="m0 0h37l8 2 6 7 2 6v12l-4 6-2 4 7 9 2 4v13l-5 8-6 4-3 1-12 1h-29l-2-5v-71z" fill="#FDFEFD"/>
<path transform="translate(455,183)" d="m0 0h37l8 3 6 7 1 3v15l-2 4-3 3 1 5 5 5 2 4v13l-4 9-6 4-3 1-11 1h-31l-1-1v-75z" fill="#FDFEFD"/>
<path transform="translate(586,307)" d="m0 0h37l7 2 7 7 3 8v17l-4 8-6 5 4 10 9 18v2h-16l-4-4-10-21-5-2h-4l-1 26-1 1h-16l-1-2v-74z" fill="#FDFEFD"/>
<path transform="translate(723,183)" d="m0 0h37l8 2 6 7 3 7 1 5v9l-4 11-6 5 1 5 10 22v3l-2 1h-13l-4-4-10-23h-9l-1 26-3 1h-13l-2-6v-64z" fill="#FDFEFD"/>
<path transform="translate(330,307)" d="m0 0h35l10 3 7 9 1 3v20l-4 8-4 3h-2l8 19 4 9-1 3h-12l-5-3-11-23-8-1-2 27h-17v-76z" fill="#FDFEFD"/>
<path transform="translate(202,307)" d="m0 0h34l10 2 7 6 3 6 1 5v17l-4 11-6 6-7 2h-9l-11-1-1 22-2 1h-14l-2-3v-73z" fill="#FDFEFD"/>
<path transform="translate(672,183)" d="m0 0h19l3 4 13 45 8 24-1 4h-16l-2-1-3-12h-25l-3 11-3 2h-14l-1-4 14-47 5-17 3-7z" fill="#FDFEFD"/>
<path transform="translate(538,183)" d="m0 0h23l3 9 13 43 6 20-1 5-16-1-2-2-2-9-1-1h-24l-3 12-5 1-13-1-1-3 6-18 14-47z" fill="#FDFEFD"/>
<path transform="translate(182,183)" d="m0 0h21l3 3 7 25 8 27 6 18v3h-18l-2-4-2-8h-25l-2 12-2 1h-16v-9l6-19 14-46z" fill="#FDFEFD"/>
<path transform="translate(533,307)" d="m0 0h21l4 9 14 47 5 16v5h-17l-2-5-2-8h-25l-3 12-1 1h-16l-1-5 21-70z" fill="#FDFEFD"/>
<path transform="translate(300,183)" d="m0 0h17l1 1v49l1 7 1 3 13 1 7-2 2-6 1-53h17l1 1v52l-2 11-4 7-10 5-6 1h-20l-11-4-6-7-2-6-1-8v-51z" fill="#FDFEFD"/>
<path transform="translate(130,307)" d="m0 0h16l1 1v51l1 6 7 3h8l5-2 3-4 1-54 1-1h17v57l-3 10-4 5-8 4-12 2-16-1-9-4-5-4-4-10v-58z" fill="#FDFEFD"/>
<path transform="translate(652,307)" d="m0 0h17l1 31 7-1 9-17 5-12 7-1h12l1 2-8 15-9 20 1 6 8 16 8 15-1 4-16-1-3-3-7-14-7-12h-8v28l-1 1h-16l-1-1v-75z" fill="#FDFEFD"/>
<path transform="translate(95,183)" d="m0 0h18v30h8l6-12 8-17 1-1h18l-2 6-9 20-5 10 1 7 8 17 8 15v2h-15l-5-3-13-25-2-2h-6l-1 29-8 1h-8l-2-2-1-73z" fill="#FDFEFD"/>
<path transform="translate(728,308)" d="m0 0h41l1 15-2 1h-32v14h26l2 1v13l-1 1-28 1 1 12 1 1 31 1 2 3v10l-1 2-4 1-19 1h-17l-5-3-6-8-1-3v-49l3-8 6-5z" fill="#FDFEFD"/>
<path transform="translate(283,307)" d="m0 0 34 1 2 2-1 14h-33v13l24 1 4 1v13l-1 1-28 1 2 13 32 1 1 2v10l-1 3-5 1-18 1h-13l-8-2-6-7-2-9v-46l4-8 5-4z" fill="#FDFEFD"/>
<path transform="translate(779,455)" d="m0 0h12l8 4 6 8 2 9-2 6-4 5 1 4 6 9v9l-5 10-5 4-6 3h-14l-7-3-6-5-4-9v-9l3-5 4-4-1-4-4-8v-9l4-7 7-6z" fill="#FDFEFD"/>
<path transform="translate(87,306)" d="m0 0 18 1 11 2v14l-30 1-2 6v6l5 1 17 1 9 6 4 7v19l-4 8-5 4-6 2h-30l-5-2-2-2v-11l5-1h16l13-1 1-6v-5l-17-1-9-3-5-3-5-10v-16l4-8 7-6z" fill="#FDFEFD"/>
<path transform="translate(590,183)" d="m0 0h52v8l-2 8-6 11-13 19-10 15h29l2 1-1 14-1 1h-50l-1-1v-13l6-11 7-10 10-15 7-11h-27l-3-1v-14z" fill="#FDFEFD"/>
<path transform="translate(776,307)" d="m0 0h56l1 1 1 14-1 1-19 1-1 59-1 1h-15l-2-7v-53l-19-1-1-1v-8z" fill="#FDFEFD"/>
<path transform="translate(495,455)" d="m0 0h5l2 2 1 9v30h8v10l-7 2-2 17-1 1-9-1-1-1v-17h-24l-7-2-2-2v-5l11-13 10-13 14-16z" fill="#FDFEFD"/>
<path transform="translate(227,455)" d="m0 0 7 1 1 5v35h7l2 1v8l-3 2h-6v16l-3 3h-6l-2-2-1-8v-9h-26l-5-2-1-1v-6l6-8 13-16 9-11 5-6z" fill="#FDFEFD"/>
<path transform="translate(373,183)" d="m0 0h17v60l28 1 1 1v14l-1 1h-28l-10-2-5-4-3-7v-62z" fill="#FDFEFD"/>
<path transform="translate(258,455)" d="m0 0h38l3 2-1 8-10 11-3 5 5 1 6 4 5 8 1 3v12l-6 12-7 5-4 1h-17l-7-3-3-3-1-4 5-5 6 1 9 3 8-2 3-3 1-3v-8l-2-6-3-1h-9l-7 1-4-4 1-5 11-13 5-6h-21l-3-2v-7z" fill="#FDFEFD"/>
<path transform="translate(664,454)" d="m0 0h13l8 5 4 5 3 10-1 11-7 12-11 12-5 6h16l8 1 2 3-2 7-4 1h-30l-9-1-1-1v-7l11-12 7-8 9-11 4-7v-8l-4-5-2-1h-7l-5 3-7 6-5-1v-2h-2v-5l6-7 8-5z" fill="#FDFEFD"/>
<path transform="translate(416,454)" d="m0 0h13l6 4 7 8 2 11-2 8-6 12-15 16-1 1 24 2 1 5-2 5-1 1h-32l-10-2-1-5 4-6 15-16 10-13 3-6-1-8-5-5-5-1-8 4-7 6-5-3-2-4 5-7 7-5z" fill="#FDFEFD"/>
<path transform="translate(609,454)" d="m0 0h13l7 4 5 6 3 9-1 10-7 14-10 11-4 5-2 1 2 1 22 1 1 1v9l-5 1h-25l-14-1-2-2 1-5 6-8 14-15 9-12 2-5-1-8-5-5h-9l-8 7-1 1h-5l-3-4 1-5 9-8z" fill="#FDFEFD"/>
<path transform="translate(117,459)" d="m0 0h9l4 11-1 5-2 2 1 8 9 14 3 4 10-1 7 6 3 5-2 5-9 6-8 1-7-3-8-7-7-9-9-15-4-11v-9l3-7 5-4z" fill="#E00A1D"/>
<path transform="translate(295,609)" d="m0 0h12l6 1 5-1 1 1 1 13v21l-2 7-5 5-4 2h-15l-5-3-1-5 4-2 10 3 7-2 3-6-5 2-2 1h-9l-8-6-3-5-1-9 3-10 5-5z" fill="#FDFEFD"/>
<path transform="translate(473,688)" d="m0 0 2 1 1 11v19l-1 11-4 5-6 3-8 1-9-2-3-3v-4l16 1 6-2 1-6-5 3-10 1-6-4-5-6-2-8 2-10 3-5 5-4 3-1h8l6 2z" fill="#FDFEFD"/>
<path transform="translate(488,598)" d="m0 0h27l6 4 2 5v10l-3 9 4 13 2 3v3h-7l-6-12-1-3h-16l-1 15h-6l-1-1-1-9v-32z" fill="#FDFEFD"/>
<path transform="translate(706,455)" d="m0 0h41l2 2v7l-7 17-17 37-5 9-5-1-4-3 1-8 13-28 10-21h-29l-3-2-1-6z" fill="#FDFEFD"/>
<path transform="translate(315,455)" d="m0 0h43l2 1v8l-7 17-13 29-9 17-5-1-4-3 1-7 9-21 8-16 6-13h-29l-3-3-1-6z" fill="#FDFEFD"/>
<path transform="translate(643,595)" d="m0 0 4 1 1 8v36l-2 6-8-2-5 2-9-1-6-4-4-6-1-3v-9l5-10 6-4 7-1 9 3v-13z" fill="#FDFEFD"/>
<path transform="translate(690,678)" d="m0 0 9 1 6 5 2 10-2 5h-2l1 4 3 3v11l-6 7-5 2-10-1-6-5-3-5v-7l5-5-2-6-1-1v-9l4-6z" fill="#FDFEFD"/>
<path transform="translate(582,609)" d="m0 0h12l5 1 1-1h5l1 2v33l-1 1h-5l-2-1-6 2h-8l-5-3-5-5-2-4v-14l5-8z" fill="#FDFEFD"/>
<path transform="translate(541,455)" d="m0 0h6l2 1 1 4v61l-1 4-9 1-2-1-1-3-1-49-8 3-5-1-2-3 1-5 10-7z" fill="#FDFEFD"/>
<path transform="translate(398,609)" d="m0 0h11l7 4 5 8v12l-3 6-7 6-2 1h-11l-9-6-4-7v-10l4-8 6-5z" fill="#FDFEFD"/>
<path transform="translate(543,609)" d="m0 0h10l7 3 5 6 2 5v7l-3 8-5 5-6 3h-10l-6-4-6-7-1-3v-8l5-10z" fill="#FDFEFD"/>
<path transform="translate(202,678)" d="m0 0h8l9 2 4 5 1 3v12l-5 6-7 3-12 1-1 15-4 1-2-1-1-15v-29l1-2z" fill="#FDFEFD"/>
<path transform="translate(824,597)" d="m0 0 5 2v5l-9 5-3 1-2 5h10l6 4 3 4 1 3v8l-4 8-7 4h-8l-6-4-4-5-2-6 1-12 3-8 6-8 8-5z" fill="#FDFEFD"/>
<path transform="translate(651,677)" d="m0 0 5 5 9 20 6 17v6l-3 1-4-4-2-7-21 1-4 9-4 1-2-2 2-9 8-20 8-16z" fill="#FDFEFD"/>
<path transform="translate(220,597)" d="m0 0 3 1-1 7-12 12 1 5 8 10 4 7 1 6h-6l-9-11-5-7-6 1-2 4-1 13h-6l-2-7v-33l2-7h5l1 1v20l5-3 18-18z" fill="#FDFEFD"/>
<path transform="translate(330,689)" d="m0 0h8l7 4 5 7 1 9-3 2-22 1 1 4 4 2h9l7-2 1 4-4 5-3 1h-13l-6-4-5-8v-12l3-6 7-6z" fill="#FDFEFD"/>
<path transform="translate(678,598)" d="m0 0h5l2 2 1 29 3 7 2 1h9l4-4 2-7v-26l2-2h5l1 1v30l-3 9-7 6-3 1h-10l-8-4-4-5-2-6v-31z" fill="#FDFEFD"/>
<path transform="translate(147,597)" d="m0 0 4 1 1 8-1 19 7 1 1 4-7 2-1 12-4 2-3-5v-8h-13l-9-2 2-6 11-14 8-10z" fill="#FDFEFD"/>
<path transform="translate(284,677)" d="m0 0h6l1 1 1 25 3-1 7-8 5-4 4 1 1 4-9 9 1 5 9 11v5h-6l-12-12h-3l-1 11-5 2-3-3v-45z" fill="#FDFEFD"/>
<path transform="translate(100,597)" d="m0 0h11v6l-4 6-4 5 8 6 2 4v12l-6 7-6 3h-9l-6-3-1-6 1-1h6l7 2 5-3 1-6-1-5-2-1h-13v-5l10-12-13-1-2-4v-3z" fill="#FDFEFD"/>
<path transform="translate(563,678)" d="m0 0 6 1 5 10 8 20v2h2l3-9 9-22 2-2 5 1v7l-16 36-3 5-3-1-6-12-11-27z" fill="#FDFEFD"/>
<path transform="translate(738,609)" d="m0 0h10l4 4 2 8v23l-1 1h-6l-1-2-1-23-1-3h-8l-3 1-1 2-1 21-2 4-5-1-1-2v-31l5-1h7z" fill="#FDFEFD"/>
<path transform="translate(262,609)" d="m0 0h10l4 5 2 10v19l-1 2h-6l-1-2-1-24-1-2h-12l-1 24-2 4-6-1v-32l1-2 10 1z" fill="#FDFEFD"/>
<path transform="translate(418,689)" d="m0 0h9l5 5 2 13v18l-4 1-3-1-1-2-1-21-2-5h-6l-5 3-2 25h-6l-1-1v-32l1-2 10 1z" fill="#FDFEFD"/>
<path transform="translate(442,609)" d="m0 0h11l4 4 2 10v21l-1 1h-5l-2-4-1-22-3-3-10 2-1 6-1 20-4 1-3-2v-32l1-1h5l4 1z" fill="#FDFEFD"/>
<path transform="translate(50,597)" d="m0 0h23l5 1v7l-9 20-7 15-3 5-4 1-2-5 4-11 11-25h-19l-1-1v-6z" fill="#FDFEFD"/>
<path transform="translate(335,609)" d="m0 0h10l5 3 2 2v5l-6-1-3-2h-6l-1 1v5l9 3 7 4 1 2v9l-6 5-2 1h-9l-8-4-2-3 1-5 5 1 5 3h7l2-3-3-4-12-4-4-4v-6l4-6z" fill="#FDFEFD"/>
<path transform="translate(260,689)" d="m0 0h10l5 3 1 5-5 1-3-1h-7l-5 3-1 3v10l1 4 4 1h9l7-1v5l-7 4h-12l-8-7-3-7v-8l3-8 6-5z" fill="#FDFEFD"/>
<path transform="translate(784,601)" d="m0 0 4 1 3 6 6 2 1 5-7 3v18l6 3 1 4-2 2h-9l-5-5-1-7 1-16-6-1-1-3 5-6z" fill="#FDFEFD"/>
<path transform="translate(507,678)" d="m0 0 5 1 1 38 19 2 1 1v5l-1 1h-25l-2-2v-44z" fill="#FDFEFD"/>
<path transform="translate(366,601)" d="m0 0h4l1 2v6l8 1 1 5-7 2-1 21 5-1 2 1 1 5-2 2h-8l-3-1-3-7v-20l-6-1-1-4 6-4z" fill="#FDFEFD"/>
<path transform="translate(550,678)" d="m0 0 4 1 1 1v45l-5 1-2-2-1-4v-30l-8 2-3-3 2-4 10-6z" fill="#FDFEFD"/>
<path transform="translate(620,678)" d="m0 0 4 1 1 3v31l-1 12-4 1-3-2v-34l-10 2-1-3 3-5z" fill="#FDFEFD"/>
<path transform="translate(219,323)" d="m0 0h15l3 1 2 6v13l-2 2-7 1h-10l-1-1z" fill="#E00A1D"/>
<path transform="translate(782,494)" d="m0 0 9 1 5 5 1 8-5 6-5 2-8-1-5-5-1-2v-7l5-6z" fill="#E00A1D"/>
<path transform="translate(402,615)" d="m0 0 7 1 4 4 1 3v7l-4 6-4 3h-6l-5-3-2-3v-11l5-6z" fill="#E00A1D"/>
<path transform="translate(546,615)" d="m0 0 7 1 6 6v9l-3 5-5 3-7-1-5-5-1-9 4-7z" fill="#E00A1D"/>
<path transform="translate(457,695)" d="m0 0 6 1 5 6v10l-5 6-2 1-9-1-4-5v-11l4-5z" fill="#E00A1D"/>
<path transform="translate(299,615)" d="m0 0h6l5 3 2 4v10l-5 5-3 2-7-1-5-6-1-6 2-6 4-4z" fill="#E00A1D"/>
<path transform="translate(587,615)" d="m0 0 5 1 5 4 2 8-3 7-5 4-7-1-5-5-1-8 3-7z" fill="#E00A1D"/>
<path transform="translate(374,689)" d="m0 0h6l2 1-1 5-13 1-2 29h-6l-2-3v-30l4-2h8z" fill="#FDFEFD"/>
<path transform="translate(627,615)" d="m0 0 8 1 4 4 1 2v10l-5 6-7 1-5-3-3-8 1-6z" fill="#E00A1D"/>
<path transform="translate(348,323)" d="m0 0h11l5 1 1 2v13l-3 3-13 1-3-2v-17z" fill="#E00A1D"/>
<path transform="translate(741,199)" d="m0 0h15l3 3 1 3v7l-1 3-6 3h-12l-1-1v-17z" fill="#E00A1D"/>
<path transform="translate(604,323)" d="m0 0 16 1 2 4v11l-3 3h-16v-18z" fill="#E00A1D"/>
<path transform="translate(254,227)" d="m0 0h9l8 1 2 3v10l-3 3h-16l-2-3v-13z" fill="#E00A1D"/>
<path transform="translate(496,605)" d="m0 0h16l3 2 1 7-4 7-2 1h-14l-1-2v-14z" fill="#E00A1D"/>
<path transform="translate(473,227)" d="m0 0h10l8 1 1 2v12l-3 2h-16l-1-1v-15z" fill="#E00A1D"/>
<path transform="translate(780,466)" d="m0 0h9l5 4 1 7-4 6-4 2-8-1-4-4v-9z" fill="#E00A1D"/>
<path transform="translate(253,199)" d="m0 0h15l3 2 1 6-3 6-2 1h-11l-3-1-1-4v-9z" fill="#E00A1D"/>
<path transform="translate(199,686)" d="m0 0h16l2 5v7l-3 3-3 1h-9l-2-1-1-6z" fill="#E00A1D"/>
<path transform="translate(763,610)" d="m0 0h6l1 1v32l-1 2h-5l-2-5v-20z" fill="#FDFEFD"/>
<path transform="translate(472,199)" d="m0 0h17l1 1v11l-1 2-4 1h-12l-1-1z" fill="#E00A1D"/>
<path transform="translate(549,201)" d="m0 0 2 1 5 21 1 7h-15l-1-3 7-25z" fill="#E00A1D"/>
<path transform="translate(680,201)" d="m0 0 2 1 6 23v5h-15l-1-2 7-26z" fill="#E00A1D"/>
<path transform="translate(192,202)" d="m0 0h2l4 16 2 7v5h-13l-2-1 1-7 5-18z" fill="#E00A1D"/>
<path transform="translate(542,326)" d="m0 0h2l7 24v4h-16l4-17z" fill="#E00A1D"/>
<path transform="translate(235,609)" d="m0 0 3 1 1 34-1 1h-6l-1-1v-33z" fill="#FDFEFD"/>
<path transform="translate(388,690)" d="m0 0h5l1 1v34h-6l-1-1v-32z" fill="#FDFEFD"/>
<path transform="translate(233,690)" d="m0 0h5l1 1v33l-1 1h-5l-1-12v-22z" fill="#FDFEFD"/>
<path transform="translate(817,622)" d="m0 0h6l5 5-1 7-5 5-6-1-4-5v-6z" fill="#E00A1D"/>
<path transform="translate(690,704)" d="m0 0h6l4 3 1 6-4 5-7 1-5-5v-6z" fill="#E00A1D"/>
<path transform="translate(490,476)" d="m0 0h1v19l-1 1h-12l-3-1 2-4 11-13z" fill="#E00A1D"/>
<path transform="translate(221,476)" d="m0 0h2v20h-12l-3-1 2-4z" fill="#E00A1D"/>
<path transform="translate(691,685)" d="m0 0 6 1 3 4-1 5-4 3-7-1-2-3v-5z" fill="#E00A1D"/>
<path transform="translate(844,638)" d="m0 0 6 1 3 3-1 8-5 5h-4l1-4 2-4-5-2 1-5z" fill="#FDFEFD"/>
<path transform="translate(333,695)" d="m0 0 6 2 4 4v3h-19l1-5z" fill="#E00A1D"/>
<path transform="translate(484,719)" d="m0 0h6l4 4-1 7-5 5-4-1 3-9-4 1-1-5z" fill="#FDFEFD"/>
<path transform="translate(651,693)" d="m0 0 3 3 3 8v4h-11l-1-4 5-10z" fill="#E00A1D"/>
<path transform="translate(141,614)" d="m0 0 3 1v9l-1 1h-8l1-5z" fill="#E00A1D"/>
<path transform="translate(234,597)" d="m0 0 4 1 1 4-2 2h-5l-1-1v-5z" fill="#FDFEFD"/>
<path transform="translate(389,678)" d="m0 0h5v5l-5 2-3-2 2-4z" fill="#FDFEFD"/>
<path transform="translate(234,678)" d="m0 0 5 1v5l-1 1h-5l-1-5z" fill="#FDFEFD"/>
<path transform="translate(763,598)" d="m0 0h6l1 5-6 1-3-4z" fill="#FDFEFD"/>
</svg>
